<?xml version="1.0" encoding="UTF-8" standalone="no"?>
<!-- Created with Inkscape (http://www.inkscape.org/) -->

<svg
   width="6.2907329mm"
   height="6.241344mm"
   viewBox="0 0 6.2907329 6.241344"
   version="1.1"
   id="svg1"
   inkscape:version="1.4 (e7c3feb100, 2024-10-09)"
   sodipodi:docname="WoodpeckerToken.svg"
   xmlns:inkscape="http://www.inkscape.org/namespaces/inkscape"
   xmlns:sodipodi="http://sodipodi.sourceforge.net/DTD/sodipodi-0.dtd"
   xmlns="http://www.w3.org/2000/svg"
   xmlns:svg="http://www.w3.org/2000/svg">
  <sodipodi:namedview
     id="namedview1"
     pagecolor="#ffffff"
     bordercolor="#000000"
     borderopacity="0.25"
     inkscape:showpageshadow="2"
     inkscape:pageopacity="0.0"
     inkscape:pagecheckerboard="0"
     inkscape:deskcolor="#d1d1d1"
     inkscape:document-units="mm"
     inkscape:zoom="19.190132"
     inkscape:cx="11.307895"
     inkscape:cy="18.551201"
     inkscape:window-width="1920"
     inkscape:window-height="1163"
     inkscape:window-x="0"
     inkscape:window-y="0"
     inkscape:window-maximized="1"
     inkscape:current-layer="layer1" />
  <defs
     id="defs1">
    <clipPath
       clipPathUnits="userSpaceOnUse"
       id="clipPath752">
      <path
         d="m 269.79,86.967 c 0,-4.748 3.88,-8.596 8.666,-8.596 v 0 c 4.786,0 8.666,3.848 8.666,8.596 v 0 c 0,4.748 -3.88,8.596 -8.666,8.596 v 0 c -4.786,0 -8.666,-3.848 -8.666,-8.596"
         transform="translate(-278.45553,-96.122705)"
         id="path752" />
    </clipPath>
    <clipPath
       clipPathUnits="userSpaceOnUse"
       id="clipPath754">
      <path
         d="m 269.79,86.967 c 0,-4.748 3.88,-8.596 8.666,-8.596 v 0 c 4.786,0 8.666,3.848 8.666,8.596 v 0 c 0,4.748 -3.88,8.596 -8.666,8.596 v 0 c -4.786,0 -8.666,-3.848 -8.666,-8.596"
         transform="translate(-280.38018,-89.360705)"
         id="path754" />
    </clipPath>
    <clipPath
       clipPathUnits="userSpaceOnUse"
       id="clipPath756">
      <path
         d="m 269.79,86.967 c 0,-4.748 3.88,-8.596 8.666,-8.596 v 0 c 4.786,0 8.666,3.848 8.666,8.596 v 0 c 0,4.748 -3.88,8.596 -8.666,8.596 v 0 c -4.786,0 -8.666,-3.848 -8.666,-8.596"
         transform="translate(-278.34408,-91.1453)"
         id="path756" />
    </clipPath>
    <clipPath
       clipPathUnits="userSpaceOnUse"
       id="clipPath758">
      <path
         d="m 269.79,86.967 c 0,-4.748 3.88,-8.596 8.666,-8.596 v 0 c 4.786,0 8.666,3.848 8.666,8.596 v 0 c 0,4.748 -3.88,8.596 -8.666,8.596 v 0 c -4.786,0 -8.666,-3.848 -8.666,-8.596"
         transform="translate(-281.25528,-91.062702)"
         id="path758" />
    </clipPath>
    <clipPath
       clipPathUnits="userSpaceOnUse"
       id="clipPath760">
      <path
         d="m 269.79,86.967 c 0,-4.748 3.88,-8.596 8.666,-8.596 v 0 c 4.786,0 8.666,3.848 8.666,8.596 v 0 c 0,4.748 -3.88,8.596 -8.666,8.596 v 0 c -4.786,0 -8.666,-3.848 -8.666,-8.596"
         transform="translate(-279.73151,-83.886702)"
         id="path760" />
    </clipPath>
    <clipPath
       clipPathUnits="userSpaceOnUse"
       id="clipPath762">
      <path
         d="m 269.79,86.967 c 0,-4.748 3.88,-8.596 8.666,-8.596 v 0 c 4.786,0 8.666,3.848 8.666,8.596 v 0 c 0,4.748 -3.88,8.596 -8.666,8.596 v 0 c -4.786,0 -8.666,-3.848 -8.666,-8.596"
         transform="translate(-276.42453,-83.204405)"
         id="path762" />
    </clipPath>
    <clipPath
       clipPathUnits="userSpaceOnUse"
       id="clipPath764">
      <path
         d="m 269.79,86.967 c 0,-4.748 3.88,-8.596 8.666,-8.596 v 0 c 4.786,0 8.666,3.848 8.666,8.596 v 0 c 0,4.748 -3.88,8.596 -8.666,8.596 v 0 c -4.786,0 -8.666,-3.848 -8.666,-8.596"
         transform="translate(-276.42453,-83.204405)"
         id="path764" />
    </clipPath>
    <clipPath
       clipPathUnits="userSpaceOnUse"
       id="clipPath766">
      <path
         d="M 0,0 H 566.929 V 566.929 H 0 Z"
         transform="translate(-278.45568,-78.370804)"
         id="path766" />
    </clipPath>
  </defs>
  <g
     inkscape:label="Calque 1"
     inkscape:groupmode="layer"
     id="layer1"
     transform="translate(-123.82499,-99.48333)">
    <g
       id="g1563"
       transform="matrix(0.26458333,0,0,0.26458333,-381.84585,-66.715997)">
      <path
         id="path751"
         d="m 0,0 c -5.057,0 -9.156,-4.099 -9.156,-9.156 0,-5.056 4.099,-9.155 9.156,-9.155 5.057,0 9.156,4.099 9.156,9.155 C 9.156,-4.099 5.057,0 0,0"
         style="fill:#63c0bd;fill-opacity:1;fill-rule:nonzero;stroke:none"
         transform="matrix(1.3333333,0,0,-1.3333333,1923.0847,627.74173)"
         clip-path="url(#clipPath752)" />
      <path
         id="path753"
         d="m 0,0 c -0.167,0.07 -0.36,-0.001 -0.442,-0.163 l -1.018,-2.006 -0.079,3.18 c -0.004,0.168 -0.142,0.302 -0.31,0.302 -0.176,0 -0.317,-0.146 -0.31,-0.322 l 0.108,-2.653 -0.005,-0.004 c 0,0 0.076,-0.761 -0.293,-1.438 l -1.388,-2.21 c -0.094,-0.148 -0.07,-0.341 0.056,-0.463 0.166,-0.161 0.438,-0.132 0.566,0.061 l 1.603,2.42 0.187,-1.414 c 0.026,-0.195 0.209,-0.329 0.402,-0.294 l 0.012,0.002 c 0.183,0.032 0.307,0.203 0.282,0.387 l -0.214,1.542 0.004,0.002 c 0,0 -0.005,0.022 -0.012,0.056 l -0.028,0.202 c -0.006,0.083 -0.006,0.171 0.011,0.243 0.024,0.099 0.106,0.276 0.179,0.424 l 0.863,1.667 C 0.267,-0.299 0.187,-0.078 0,0"
         style="fill:#ffffff;fill-opacity:1;fill-rule:nonzero;stroke:#ffffff;stroke-width:0.08;stroke-linecap:butt;stroke-linejoin:miter;stroke-miterlimit:10;stroke-dasharray:none;stroke-opacity:1"
         transform="matrix(1.3333333,0,0,-1.3333333,1925.6509,636.75773)"
         clip-path="url(#clipPath754)" />
      <path
         id="path755"
         d="M 0,0 C 0,0 0.059,-0.022 0.154,-0.017 0.249,-0.012 0.306,0.016 0.306,0.016 0.334,0.018 0.354,0.043 0.35,0.07 L 0.123,1.466 C 0.114,1.522 0.033,1.517 0.03,1.462 L -0.049,0.049 C -0.051,0.022 -0.028,-0.001 0,0"
         style="fill:#ffffff;fill-opacity:1;fill-rule:nonzero;stroke:#ffffff;stroke-width:0.08;stroke-linecap:butt;stroke-linejoin:miter;stroke-miterlimit:10;stroke-dasharray:none;stroke-opacity:1"
         transform="matrix(1.3333333,0,0,-1.3333333,1922.9361,634.37827)"
         clip-path="url(#clipPath756)" />
      <path
         id="path757"
         d="m 0,0 -0.756,-1.195 c -0.015,-0.024 -0.006,-0.055 0.019,-0.067 0,0 0.041,-0.048 0.126,-0.09 0.086,-0.042 0.149,-0.045 0.149,-0.045 0.025,-0.012 0.055,0 0.065,0.026 l 0.48,1.33 C 0.102,0.012 0.03,0.047 0,0"
         style="fill:#ffffff;fill-opacity:1;fill-rule:nonzero;stroke:#ffffff;stroke-width:0.08;stroke-linecap:butt;stroke-linejoin:miter;stroke-miterlimit:10;stroke-dasharray:none;stroke-opacity:1"
         transform="matrix(1.3333333,0,0,-1.3333333,1926.8177,634.4884)"
         clip-path="url(#clipPath758)" />
      <path
         id="path759"
         d="M 0,0 C 0,0 -0.061,0.014 -0.155,-0.003 -0.249,-0.02 -0.302,-0.055 -0.302,-0.055 -0.329,-0.06 -0.346,-0.087 -0.338,-0.114 L 0.063,-1.47 c 0.015,-0.054 0.095,-0.039 0.091,0.016 L 0.055,-0.043 C 0.053,-0.015 0.027,0.005 0,0"
         style="fill:#ffffff;fill-opacity:1;fill-rule:nonzero;stroke:#ffffff;stroke-width:0.08;stroke-linecap:butt;stroke-linejoin:miter;stroke-miterlimit:10;stroke-dasharray:none;stroke-opacity:1"
         transform="matrix(1.3333333,0,0,-1.3333333,1924.786,644.0564)"
         clip-path="url(#clipPath760)" />
      <path
         id="path761"
         d="M 0,0 C -0.08,0.052 -0.142,0.063 -0.142,0.063 -0.165,0.078 -0.197,0.07 -0.209,0.045 L -0.85,-1.216 c -0.025,-0.05 0.043,-0.094 0.078,-0.051 l 0.897,1.094 c 0.018,0.021 0.013,0.053 -0.01,0.069 0,0 -0.035,0.052 -0.115,0.104"
         style="fill:#ffffff;fill-opacity:1;fill-rule:nonzero;stroke:none"
         transform="matrix(1.3333333,0,0,-1.3333333,1920.3767,644.96613)"
         clip-path="url(#clipPath762)" />
      <path
         id="path763"
         d="M 0,0 C -0.08,0.052 -0.142,0.063 -0.142,0.063 -0.165,0.078 -0.197,0.07 -0.209,0.045 L -0.85,-1.216 c -0.025,-0.05 0.043,-0.094 0.078,-0.051 l 0.897,1.094 c 0.018,0.021 0.013,0.053 -0.01,0.069 0,0 -0.035,0.052 -0.115,0.104 z"
         style="fill:none;stroke:#ffffff;stroke-width:0.08;stroke-linecap:butt;stroke-linejoin:miter;stroke-miterlimit:10;stroke-dasharray:none;stroke-opacity:1"
         transform="matrix(1.3333333,0,0,-1.3333333,1920.3767,644.96613)"
         clip-path="url(#clipPath764)" />
    </g>
    <path
       id="path765"
       d="m 0,0 c 4.786,0 8.666,3.849 8.666,8.596 0,4.747 -3.88,8.596 -8.666,8.596 -4.786,0 -8.666,-3.849 -8.666,-8.596 C -8.666,3.849 -4.786,0 0,0 Z"
       style="fill:none;stroke:#464d4f;stroke-width:0.5;stroke-linecap:butt;stroke-linejoin:miter;stroke-miterlimit:4;stroke-dasharray:none;stroke-opacity:1"
       transform="matrix(0.35277776,0,0,-0.35277776,126.97036,105.63648)"
       clip-path="url(#clipPath766)" />
  </g>
</svg>
