<?xml version="1.0" encoding="UTF-8" standalone="no"?>
<!-- Created with Inkscape (http://www.inkscape.org/) -->

<svg
   width="12.263966mm"
   height="12.263966mm"
   viewBox="0 0 12.263966 12.263965"
   version="1.1"
   id="svg1"
   inkscape:version="1.4 (e7c3feb100, 2024-10-09)"
   sodipodi:docname="Challenge.svg"
   xmlns:inkscape="http://www.inkscape.org/namespaces/inkscape"
   xmlns:sodipodi="http://sodipodi.sourceforge.net/DTD/sodipodi-0.dtd"
   xmlns="http://www.w3.org/2000/svg"
   xmlns:svg="http://www.w3.org/2000/svg">
  <sodipodi:namedview
     id="namedview1"
     pagecolor="#ffffff"
     bordercolor="#000000"
     borderopacity="0.25"
     inkscape:showpageshadow="2"
     inkscape:pageopacity="0.0"
     inkscape:pagecheckerboard="0"
     inkscape:deskcolor="#d1d1d1"
     inkscape:document-units="mm"
     inkscape:zoom="9.595066"
     inkscape:cx="27.931022"
     inkscape:cy="36.581301"
     inkscape:window-width="1920"
     inkscape:window-height="1163"
     inkscape:window-x="0"
     inkscape:window-y="0"
     inkscape:window-maximized="1"
     inkscape:current-layer="layer1" />
  <defs
     id="defs1">
    <clipPath
       clipPathUnits="userSpaceOnUse"
       id="clipPath6174">
      <path
         d="M 15,15 H 610.275 V 610.275 H 15 Z"
         transform="translate(-91.878002,-478.87781)"
         id="path6174" />
    </clipPath>
    <clipPath
       clipPathUnits="userSpaceOnUse"
       id="clipPath6176">
      <path
         d="m 75.011,495.744 c 0,-9.315 7.551,-16.867 16.867,-16.867 v 0 c 5.517,0 10.415,2.65 13.492,6.745 v 0 20.245 c -3.077,4.094 -7.975,6.743 -13.492,6.743 v 0 c -9.316,0 -16.867,-7.551 -16.867,-16.866"
         transform="matrix(1.9396922,0,0,1.9343374,-194.95536,-961.74281)"
         id="path6176" />
    </clipPath>
    <clipPath
       clipPathUnits="userSpaceOnUse"
       id="clipPath6178">
      <path
         d="m 75.011,495.744 c 0,-9.315 7.551,-16.867 16.867,-16.867 v 0 c 5.517,0 10.415,2.65 13.492,6.745 v 0 20.245 c -3.077,4.094 -7.975,6.743 -13.492,6.743 v 0 c -9.316,0 -16.867,-7.551 -16.867,-16.866"
         transform="matrix(1.9396922,0,0,1.9343374,-128.06086,-961.74281)"
         id="path6178" />
    </clipPath>
    <clipPath
       clipPathUnits="userSpaceOnUse"
       id="clipPath6180">
      <path
         d="m 75.011,495.744 c 0,-9.315 7.551,-16.867 16.867,-16.867 v 0 c 5.517,0 10.415,2.65 13.492,6.745 v 0 20.245 c -3.077,4.094 -7.975,6.743 -13.492,6.743 v 0 c -9.316,0 -16.867,-7.551 -16.867,-16.866"
         transform="matrix(1.9396922,0,0,1.9343374,-172.91445,-966.6412)"
         id="path6180" />
    </clipPath>
    <clipPath
       clipPathUnits="userSpaceOnUse"
       id="clipPath6182">
      <path
         d="M 15,15 H 610.275 V 610.275 H 15 Z"
         transform="translate(-91.878002,-478.87781)"
         id="path6182" />
    </clipPath>
    <clipPath
       clipPathUnits="userSpaceOnUse"
       id="clipPath7758">
      <path
         d="M 15,15 H 610.275 V 610.275 H 15 Z"
         transform="translate(-338.55351,-479.36571)"
         id="path7758" />
    </clipPath>
    <clipPath
       clipPathUnits="userSpaceOnUse"
       id="clipPath7760">
      <path
         d="m 321.687,496.232 c 0,-9.315 7.551,-16.867 16.867,-16.867 v 0 c 9.315,0 16.866,7.552 16.866,16.867 v 0 c 0,9.315 -7.551,16.866 -16.866,16.866 v 0 c -9.316,0 -16.867,-7.551 -16.867,-16.866"
         transform="translate(-340.95493,-488.49001)"
         id="path7760" />
    </clipPath>
    <clipPath
       clipPathUnits="userSpaceOnUse"
       id="clipPath7762">
      <path
         d="m 321.687,496.232 c 0,-9.315 7.551,-16.867 16.867,-16.867 v 0 c 9.315,0 16.866,7.552 16.866,16.867 v 0 c 0,9.315 -7.551,16.866 -16.866,16.866 v 0 c -9.316,0 -16.867,-7.551 -16.867,-16.866"
         transform="translate(-341.07628,-492.79581)"
         id="path7762" />
    </clipPath>
    <clipPath
       clipPathUnits="userSpaceOnUse"
       id="clipPath7764">
      <path
         d="m 321.687,496.232 c 0,-9.315 7.551,-16.867 16.867,-16.867 v 0 c 9.315,0 16.866,7.552 16.866,16.867 v 0 c 0,9.315 -7.551,16.866 -16.866,16.866 v 0 c -9.316,0 -16.867,-7.551 -16.867,-16.866"
         transform="translate(-340.87011,-500.89371)"
         id="path7764" />
    </clipPath>
    <clipPath
       clipPathUnits="userSpaceOnUse"
       id="clipPath7766">
      <path
         d="m 321.687,496.232 c 0,-9.315 7.551,-16.867 16.867,-16.867 v 0 c 9.315,0 16.866,7.552 16.866,16.867 v 0 c 0,9.315 -7.551,16.866 -16.866,16.866 v 0 c -9.316,0 -16.867,-7.551 -16.867,-16.866"
         transform="translate(-340.87011,-508.99172)"
         id="path7766" />
    </clipPath>
    <clipPath
       clipPathUnits="userSpaceOnUse"
       id="clipPath7768">
      <path
         d="m 321.687,496.232 c 0,-9.315 7.551,-16.867 16.867,-16.867 v 0 c 9.315,0 16.866,7.552 16.866,16.867 v 0 c 0,9.315 -7.551,16.866 -16.866,16.866 v 0 c -9.316,0 -16.867,-7.551 -16.867,-16.866"
         transform="translate(-340.80298,-503.62631)"
         id="path7768" />
    </clipPath>
    <clipPath
       clipPathUnits="userSpaceOnUse"
       id="clipPath7770">
      <path
         d="m 321.687,496.232 c 0,-9.315 7.551,-16.867 16.867,-16.867 v 0 c 9.315,0 16.866,7.552 16.866,16.867 v 0 c 0,9.315 -7.551,16.866 -16.866,16.866 v 0 c -9.316,0 -16.867,-7.551 -16.867,-16.866"
         transform="translate(-338.52628,-494.36681)"
         id="path7770" />
    </clipPath>
    <clipPath
       clipPathUnits="userSpaceOnUse"
       id="clipPath7772">
      <path
         d="m 321.687,496.232 c 0,-9.315 7.551,-16.867 16.867,-16.867 v 0 c 9.315,0 16.866,7.552 16.866,16.867 v 0 c 0,9.315 -7.551,16.866 -16.866,16.866 v 0 c -9.316,0 -16.867,-7.551 -16.867,-16.866"
         transform="translate(-338.52643,-499.84621)"
         id="path7772" />
    </clipPath>
    <clipPath
       clipPathUnits="userSpaceOnUse"
       id="clipPath7774">
      <path
         d="m 321.687,496.232 c 0,-9.315 7.551,-16.867 16.867,-16.867 v 0 c 9.315,0 16.866,7.552 16.866,16.867 v 0 c 0,9.315 -7.551,16.866 -16.866,16.866 v 0 c -9.316,0 -16.867,-7.551 -16.867,-16.866"
         transform="translate(-337.67308,-497.10031)"
         id="path7774" />
    </clipPath>
    <clipPath
       clipPathUnits="userSpaceOnUse"
       id="clipPath7776">
      <path
         d="m 321.687,496.232 c 0,-9.315 7.551,-16.867 16.867,-16.867 v 0 c 9.315,0 16.866,7.552 16.866,16.867 v 0 c 0,9.315 -7.551,16.866 -16.866,16.866 v 0 c -9.316,0 -16.867,-7.551 -16.867,-16.866"
         transform="translate(-328.62561,-491.65041)"
         id="path7776" />
    </clipPath>
    <clipPath
       clipPathUnits="userSpaceOnUse"
       id="clipPath7778">
      <path
         d="m 321.687,496.232 c 0,-9.315 7.551,-16.867 16.867,-16.867 v 0 c 9.315,0 16.866,7.552 16.866,16.867 v 0 c 0,9.315 -7.551,16.866 -16.866,16.866 v 0 c -9.316,0 -16.867,-7.551 -16.867,-16.866"
         transform="translate(-334.37781,-495.36951)"
         id="path7778" />
    </clipPath>
    <clipPath
       clipPathUnits="userSpaceOnUse"
       id="clipPath7780">
      <path
         d="m 321.687,496.232 c 0,-9.315 7.551,-16.867 16.867,-16.867 v 0 c 9.315,0 16.866,7.552 16.866,16.867 v 0 c 0,9.315 -7.551,16.866 -16.866,16.866 v 0 c -9.316,0 -16.867,-7.551 -16.867,-16.866"
         transform="translate(-331.12371,-491.05141)"
         id="path7780" />
    </clipPath>
    <clipPath
       clipPathUnits="userSpaceOnUse"
       id="clipPath7782">
      <path
         d="M 15,15 H 610.275 V 610.275 H 15 Z"
         transform="translate(-338.55351,-479.36571)"
         id="path7782" />
    </clipPath>
  </defs>
  <g
     inkscape:label="Calque 1"
     inkscape:groupmode="layer"
     id="layer1"
     transform="translate(-82.549999,-74.083332)">
    <path
       id="path7757"
       d="m 0,0 c -9.315,0 -16.866,7.551 -16.866,16.866 0,9.315 7.551,16.867 16.866,16.867 9.315,0 16.866,-7.552 16.866,-16.867 C 16.866,7.551 9.315,0 0,0"
       style="fill:#586374;fill-opacity:1;fill-rule:nonzero;stroke:none"
       transform="matrix(0.35277776,0,0,-0.35277776,88.681982,86.165265)"
       clip-path="url(#clipPath7758)" />
    <path
       id="path7759"
       d="m 0,0 c 0,-1.341 -1.087,-2.429 -2.429,-2.429 -1.341,0 -2.428,1.088 -2.428,2.429 0,1.341 1.087,2.429 2.428,2.429 C -1.087,2.429 0,1.341 0,0"
       style="fill:#ffffff;fill-opacity:1;fill-rule:nonzero;stroke:none"
       transform="matrix(0.35277776,0,0,-0.35277776,89.529151,82.946413)"
       clip-path="url(#clipPath7760)" />
    <path
       id="path7761"
       d="m 0,0 h -5.045 l -2.523,-4.37 2.523,-4.369 H 0 l 2.523,4.369 z"
       style="fill:none;stroke:#ffffff;stroke-width:0.617;stroke-linecap:butt;stroke-linejoin:miter;stroke-miterlimit:10;stroke-dasharray:none;stroke-opacity:1"
       transform="matrix(0.35277776,0,0,-0.35277776,89.571961,81.427424)"
       clip-path="url(#clipPath7762)" />
    <path
       id="path7763"
       d="m 0,0 h -4.687 l -2.344,-4.059 2.344,-4.06 H 0 l 2.344,4.06 z"
       style="fill:none;stroke:#ffffff;stroke-width:0.617;stroke-linecap:butt;stroke-linejoin:miter;stroke-miterlimit:10;stroke-dasharray:none;stroke-opacity:1"
       transform="matrix(0.35277776,0,0,-0.35277776,89.499227,78.570665)"
       clip-path="url(#clipPath7764)" />
    <path
       id="path7765"
       d="m 0,0 h -4.687 l -2.344,-4.059 2.344,-4.06 H 0 l 2.344,4.06 z"
       style="fill:none;stroke:#ffffff;stroke-width:0.617;stroke-linecap:butt;stroke-linejoin:miter;stroke-miterlimit:10;stroke-dasharray:none;stroke-opacity:1"
       transform="matrix(0.35277776,0,0,-0.35277776,89.499227,75.713869)"
       clip-path="url(#clipPath7766)" />
    <path
       id="path7767"
       d="M 0,0 -2.276,3.943 -4.553,0 h 1.515 v -5.675 h 1.522 V 0 Z"
       style="fill:#fdda04;fill-opacity:1;fill-rule:nonzero;stroke:#586374;stroke-width:0.622;stroke-linecap:butt;stroke-linejoin:miter;stroke-miterlimit:10;stroke-dasharray:none;stroke-opacity:1"
       transform="matrix(0.35277776,0,0,-0.35277776,89.475546,77.606664)"
       clip-path="url(#clipPath7768)" />
    <path
       id="path7769"
       d="m 0,0 c -1.453,0 -2.636,1.183 -2.636,2.636 0,1.453 1.183,2.636 2.636,2.636 1.454,0 2.636,-1.183 2.636,-2.636 C 2.636,1.183 1.454,0 0,0"
       style="fill:#a0a2ad;fill-opacity:1;fill-rule:nonzero;stroke:none"
       transform="matrix(0.35277776,0,0,-0.35277776,88.672377,80.87321)"
       clip-path="url(#clipPath7770)" />
    <path
       id="path7771"
       d="m 0,0 c -1.568,0 -2.843,-1.275 -2.843,-2.843 0,-1.568 1.275,-2.844 2.843,-2.844 1.568,0 2.843,1.276 2.843,2.844 C 2.843,-1.275 1.568,0 0,0 m 0,-0.415 c 1.341,0 2.429,-1.087 2.429,-2.428 0,-1.342 -1.088,-2.429 -2.429,-2.429 -1.341,0 -2.429,1.087 -2.429,2.429 0,1.341 1.088,2.428 2.429,2.428"
       style="fill:#586374;fill-opacity:1;fill-rule:nonzero;stroke:none"
       transform="matrix(0.35277776,0,0,-0.35277776,88.67243,78.940198)"
       clip-path="url(#clipPath7772)" />
    <path
       id="path7773"
       d="M 0,0 -3.146,1.989 -3.197,0.732 c -3.14,-0.538 -5.705,-2.911 -6.455,-6.037 l 1.209,-0.29 c 0.614,2.554 2.661,4.514 5.195,5.051 l -0.047,-1.187 z"
       style="fill:#586374;fill-opacity:1;fill-rule:nonzero;stroke:#586374;stroke-width:0.83;stroke-linecap:butt;stroke-linejoin:miter;stroke-miterlimit:10;stroke-dasharray:none;stroke-opacity:1"
       transform="matrix(0.35277776,0,0,-0.35277776,88.371387,79.908891)"
       clip-path="url(#clipPath7774)" />
    <path
       id="path7775"
       d="M 0,0 C 0.719,2.993 3.253,5.281 6.373,5.632"
       style="fill:none;stroke:#fdda04;stroke-width:1.244;stroke-linecap:butt;stroke-linejoin:miter;stroke-miterlimit:10;stroke-dasharray:none;stroke-opacity:1"
       transform="matrix(0.35277776,0,0,-0.35277776,85.179639,81.831496)"
       clip-path="url(#clipPath7776)" />
    <path
       id="path7777"
       d="M 0,0 3.295,1.731 0.149,3.72 Z"
       style="fill:#fdda04;fill-opacity:1;fill-rule:nonzero;stroke:none"
       transform="matrix(0.35277776,0,0,-0.35277776,87.208888,80.51948)"
       clip-path="url(#clipPath7778)" />
    <path
       id="path7779"
       d="m 0,0 c 0,-1.341 -1.087,-2.429 -2.429,-2.429 -1.341,0 -2.428,1.088 -2.428,2.429 0,1.341 1.087,2.429 2.428,2.429 C -1.087,2.429 0,1.341 0,0"
       style="fill:#ffffff;fill-opacity:1;fill-rule:nonzero;stroke:#586374;stroke-width:0.415;stroke-linecap:butt;stroke-linejoin:miter;stroke-miterlimit:10;stroke-dasharray:none;stroke-opacity:1"
       transform="matrix(0.35277776,0,0,-0.35277776,86.060913,82.042808)"
       clip-path="url(#clipPath7780)" />
    <path
       id="path7781"
       d="m 0,0 v -0.516 c -9.6,0.001 -17.382,7.782 -17.382,17.382 0,9.6 7.782,17.382 17.382,17.382 9.6,0 17.382,-7.782 17.382,-17.382 C 17.382,7.266 9.6,-0.515 0,-0.516 V 0 0.516 c 4.517,0 8.601,1.829 11.562,4.789 2.959,2.96 4.788,7.045 4.789,11.561 -10e-4,4.517 -1.83,8.602 -4.789,11.562 -2.961,2.96 -7.045,4.789 -11.562,4.789 -4.517,0 -8.601,-1.829 -11.562,-4.789 -2.959,-2.96 -4.788,-7.045 -4.789,-11.562 10e-4,-4.516 1.83,-8.601 4.789,-11.561 C -8.601,2.345 -4.517,0.516 0,0.516 Z"
       style="fill:#ffffff;fill-opacity:1;fill-rule:nonzero;stroke:none"
       transform="matrix(0.35277776,0,0,-0.35277776,88.681982,86.165265)"
       clip-path="url(#clipPath7782)" />
  </g>
</svg>
