<?xml version="1.0" encoding="UTF-8" standalone="no"?>
<!-- Created with Inkscape (http://www.inkscape.org/) -->

<svg
   width="5.6860771mm"
   height="7.6499858mm"
   viewBox="0 0 5.6860771 7.6499858"
   version="1.1"
   id="svg1"
   inkscape:version="1.4 (e7c3feb100, 2024-10-09)"
   sodipodi:docname="DrawCard.svg"
   xmlns:inkscape="http://www.inkscape.org/namespaces/inkscape"
   xmlns:sodipodi="http://sodipodi.sourceforge.net/DTD/sodipodi-0.dtd"
   xmlns="http://www.w3.org/2000/svg"
   xmlns:svg="http://www.w3.org/2000/svg">
  <sodipodi:namedview
     id="namedview1"
     pagecolor="#ffffff"
     bordercolor="#000000"
     borderopacity="0.25"
     inkscape:showpageshadow="2"
     inkscape:pageopacity="0.0"
     inkscape:pagecheckerboard="0"
     inkscape:deskcolor="#d1d1d1"
     inkscape:document-units="mm"
     inkscape:zoom="13.569472"
     inkscape:cx="11.570089"
     inkscape:cy="10.612056"
     inkscape:window-width="1920"
     inkscape:window-height="1163"
     inkscape:window-x="0"
     inkscape:window-y="0"
     inkscape:window-maximized="1"
     inkscape:current-layer="layer1" />
  <defs
     id="defs1">
    <clipPath
       clipPathUnits="userSpaceOnUse"
       id="clipPath9596">
      <path
         d="M 15,15 H 610.275 V 610.275 H 15 Z"
         transform="translate(-95.095952,-214.25201)"
         id="path9596" />
    </clipPath>
    <clipPath
       clipPathUnits="userSpaceOnUse"
       id="clipPath9598">
      <path
         d="M 15,15 H 610.275 V 610.275 H 15 Z"
         transform="translate(-95.095952,-214.25201)"
         id="path9598" />
    </clipPath>
    <clipPath
       clipPathUnits="userSpaceOnUse"
       id="clipPath9600">
      <path
         d="M 15,15 H 610.275 V 610.275 H 15 Z"
         transform="translate(-80.891702,-206.30531)"
         id="path9600" />
    </clipPath>
    <clipPath
       clipPathUnits="userSpaceOnUse"
       id="clipPath9602">
      <path
         d="M 15,15 H 610.275 V 610.275 H 15 Z"
         transform="translate(-95.036702,-205.96811)"
         id="path9602" />
    </clipPath>
    <clipPath
       clipPathUnits="userSpaceOnUse"
       id="clipPath9604">
      <path
         d="M 15,15 H 610.275 V 610.275 H 15 Z"
         transform="translate(-87.755702,-200.7857)"
         id="path9604" />
    </clipPath>
    <clipPath
       clipPathUnits="userSpaceOnUse"
       id="clipPath9606">
      <path
         d="M 15,15 H 610.275 V 610.275 H 15 Z"
         transform="translate(-95.036702,-207.17021)"
         id="path9606" />
    </clipPath>
    <clipPath
       clipPathUnits="userSpaceOnUse"
       id="clipPath9608">
      <path
         d="M 15,15 H 610.275 V 610.275 H 15 Z"
         transform="translate(-94.872452,-203.48621)"
         id="path9608" />
    </clipPath>
    <clipPath
       clipPathUnits="userSpaceOnUse"
       id="clipPath9610">
      <path
         d="M 15,15 H 610.275 V 610.275 H 15 Z"
         transform="translate(-95.107202,-214.25741)"
         id="path9610" />
    </clipPath>
    <clipPath
       clipPathUnits="userSpaceOnUse"
       id="clipPath9612">
      <path
         d="M 15,15 H 610.275 V 610.275 H 15 Z"
         transform="translate(-88.178702,-219.73321)"
         id="path9612" />
    </clipPath>
  </defs>
  <g
     inkscape:label="Calque 1"
     inkscape:groupmode="layer"
     id="layer1"
     transform="translate(-102.39361,-144.72708)">
    <path
       id="path9595"
       d="m 0,0 -2.962,1.565 -0.004,0.026 -0.415,0.213 v -1.14 -0.691 h -0.691 -2.101 v -2.412 h -3.321 v 2.412 h -1.516 l -1.25,-0.818 0.003,-0.003 -1.779,-1.146 c -0.433,-0.281 -0.413,-0.704 0.043,-0.944 l 5.228,-2.753 c 0.456,-0.241 1.178,-0.207 1.61,0.073 l 7.198,4.674 C 0.475,-0.663 0.456,-0.24 0,0 m -6.918,0.999 h 2.637 V 2.832 H -6.918 V 5.47 H -8.75 V 2.832 h -2.637 V 0.999 H -8.75 V -1.64 h 1.832 z m -7.303,-8.206 c -0.466,-0.221 -0.454,-0.551 0.028,-0.736 l 5.138,-1.976 V -9.92 c 0.481,-0.185 1.25,-0.155 1.715,0.065 l 7.077,3.358 c 0.466,0.22 0.453,0.551 -0.028,0.736 l -3.746,1.442 -2.787,-1.81 c -0.617,-0.4 -1.573,-0.444 -2.224,-0.101 l -1.476,0.777 z m 14.151,-2.274 -7.01,-3.325 c -0.616,-0.292 -1.557,-0.328 -2.194,-0.083 l -5.127,1.972 c -0.272,-0.21 -0.2,-0.471 0.208,-0.628 l 5.138,-1.976 v 0 c 0.481,-0.186 1.25,-0.156 1.715,0.065 l 7.077,3.357 c 0.378,0.179 0.441,0.431 0.193,0.618 m -0.193,1.783 c 0.378,0.179 0.441,0.431 0.193,0.619 l -7.01,-3.326 c -0.616,-0.291 -1.557,-0.328 -2.194,-0.083 l -5.127,1.973 c -0.271,-0.211 -0.2,-0.472 0.208,-0.628 l 5.138,-1.977 c 0.481,-0.185 1.25,-0.155 1.715,0.065 z m 0.193,-0.582 -7.01,-3.325 c -0.616,-0.292 -1.557,-0.328 -2.194,-0.084 l -5.127,1.973 c -0.271,-0.21 -0.2,-0.472 0.208,-0.628 l 5.138,-1.977 c 0.481,-0.185 1.25,-0.155 1.715,0.065 l 7.077,3.358 c 0.378,0.179 0.441,0.431 0.193,0.618 m -14.123,-4.637 5.138,-1.977 v 0 c 0.481,-0.185 1.25,-0.155 1.715,0.065 l 7.077,3.358 c 0.447,0.211 0.453,0.524 0.029,0.712 l -6.846,-3.248 c -0.616,-0.291 -1.557,-0.328 -2.194,-0.083 l -4.953,1.906 c -0.46,-0.221 -0.446,-0.549 0.034,-0.733"
       style="fill:#fdda04;fill-opacity:1;fill-rule:nonzero;stroke:none"
       transform="matrix(0.35277776,0,0,-0.35277776,107.74278,146.86844)"
       clip-path="url(#clipPath9596)" />
    <path
       id="path9597"
       d="m 0,0 0.28,0.531 -2.962,1.565 -0.28,-0.531 0.593,0.086 -0.003,0.026 C -2.4,1.87 -2.519,2.036 -2.692,2.125 L -3.108,2.338 C -3.293,2.433 -3.516,2.425 -3.694,2.316 -3.872,2.207 -3.981,2.012 -3.981,1.804 V 0.664 0.573 h -0.091 -2.101 c -0.158,0 -0.313,-0.064 -0.425,-0.176 -0.111,-0.111 -0.175,-0.266 -0.175,-0.424 v -1.812 h -2.121 v 1.812 c 0,0.158 -0.064,0.313 -0.176,0.424 -0.112,0.112 -0.266,0.176 -0.424,0.176 h -1.516 c -0.117,0 -0.231,-0.034 -0.329,-0.098 l -1.25,-0.818 c -0.159,-0.104 -0.259,-0.276 -0.27,-0.466 -0.011,-0.19 0.067,-0.372 0.212,-0.495 l 0.004,-0.003 0.386,0.459 -0.325,0.505 -1.779,-1.147 -0.002,-0.001 c -0.317,-0.201 -0.584,-0.543 -0.585,-0.972 -10e-4,-0.225 0.079,-0.443 0.204,-0.612 0.126,-0.17 0.289,-0.298 0.471,-0.394 v 0 l 5.228,-2.753 v 0 c 0.319,-0.166 0.663,-0.229 1.005,-0.23 0.42,0.003 0.841,0.095 1.212,0.331 l 7.198,4.674 v 0 c 0.317,0.201 0.583,0.542 0.585,0.972 0.001,0.224 -0.08,0.443 -0.205,0.612 -0.125,0.17 -0.288,0.297 -0.47,0.394 v 0 L 0,0 l -0.28,-0.531 0.054,-0.034 0.009,-0.009 0.118,0.099 h -0.146 l 0.028,-0.099 0.118,0.099 H -0.245 -0.1 l -0.126,0.082 -0.019,-0.082 H -0.1 l -0.126,0.082 -0.01,-0.011 -0.048,-0.037 v 0 l -7.197,-4.674 c -0.106,-0.072 -0.336,-0.14 -0.559,-0.137 -0.181,-0.001 -0.354,0.041 -0.445,0.092 v 0 l -5.229,2.753 v -10e-4 l -0.053,0.035 -0.009,0.008 -0.118,-0.098 h 0.146 l -0.028,0.098 -0.118,-0.098 h 0.146 -0.145 l 0.125,-0.082 0.02,0.082 h -0.145 l 0.125,-0.082 0.01,0.011 0.049,0.037 -0.002,-0.002 1.779,1.147 c 0.16,0.103 0.262,0.276 0.274,0.466 0.012,0.19 -0.067,0.375 -0.213,0.497 l -0.003,0.003 -0.386,-0.459 0.329,-0.502 1.1,0.72 h 0.737 v -1.812 c 0,-0.158 0.064,-0.313 0.175,-0.424 0.112,-0.112 0.267,-0.176 0.425,-0.176 h 3.321 c 0.158,0 0.312,0.064 0.424,0.176 0.112,0.111 0.176,0.266 0.176,0.424 v 1.812 h 1.501 0.691 c 0.158,0 0.312,0.064 0.424,0.176 0.111,0.112 0.176,0.266 0.176,0.424 v 0.691 1.14 h -0.6 L -3.655,1.27 -3.24,1.057 -2.966,1.591 -3.56,1.504 -3.556,1.479 c 0.027,-0.191 0.143,-0.354 0.313,-0.444 l 2.963,-1.566 v 0 z m -6.918,0.999 v -0.6 h 2.637 c 0.158,0 0.313,0.064 0.424,0.175 0.112,0.112 0.176,0.267 0.176,0.425 v 1.833 c 0,0.158 -0.064,0.312 -0.176,0.424 -0.111,0.112 -0.266,0.176 -0.424,0.176 H -6.318 V 5.47 c 0,0.158 -0.064,0.312 -0.175,0.424 C -6.605,6.006 -6.76,6.07 -6.918,6.07 H -8.75 C -8.908,6.07 -9.063,6.006 -9.174,5.894 -9.286,5.782 -9.35,5.628 -9.35,5.47 V 3.432 h -2.037 c -0.158,0 -0.312,-0.064 -0.424,-0.176 -0.112,-0.112 -0.176,-0.266 -0.176,-0.424 V 0.999 c 0,-0.158 0.064,-0.313 0.176,-0.425 0.112,-0.111 0.266,-0.175 0.424,-0.175 H -9.35 V -1.64 c 0,-0.158 0.064,-0.312 0.176,-0.424 0.111,-0.111 0.266,-0.176 0.424,-0.176 h 1.832 c 0.158,0 0.313,0.065 0.425,0.176 0.111,0.112 0.175,0.266 0.175,0.424 v 2.639 h -0.6 v -0.6 0.6 h -0.6 V -1.04 H -8.15 v 2.039 c 0,0.158 -0.064,0.312 -0.176,0.424 -0.111,0.112 -0.266,0.176 -0.424,0.176 h -2.037 v 0.633 h 2.037 c 0.158,0 0.313,0.064 0.424,0.175 0.112,0.112 0.176,0.267 0.176,0.425 V 4.87 h 0.632 V 2.832 c 0,-0.158 0.064,-0.313 0.176,-0.425 0.112,-0.111 0.266,-0.175 0.424,-0.175 h 2.037 V 1.599 H -6.918 C -7.076,1.599 -7.23,1.535 -7.342,1.423 -7.454,1.311 -7.518,1.157 -7.518,0.999 Z m -7.303,-8.206 -0.257,0.542 c -0.166,-0.079 -0.316,-0.176 -0.446,-0.32 -0.128,-0.14 -0.239,-0.351 -0.239,-0.595 -10e-4,-0.256 0.125,-0.481 0.267,-0.62 0.145,-0.144 0.309,-0.234 0.488,-0.303 h -0.001 l 5.138,-1.976 0.216,0.56 -0.537,0.268 v 0 c -0.076,-0.152 -0.084,-0.328 -0.023,-0.486 0.061,-0.157 0.186,-0.282 0.344,-0.343 0.309,-0.117 0.638,-0.16 0.97,-0.161 0.421,0.002 0.84,0.069 1.218,0.244 v 0 l 7.077,3.358 v 0 c 0.165,0.079 0.316,0.176 0.446,0.319 0.128,0.14 0.239,0.352 0.238,0.596 0.002,0.255 -0.124,0.481 -0.267,0.62 -0.145,0.144 -0.308,0.233 -0.487,0.303 h 0.001 l -3.747,1.442 c -0.18,0.069 -0.381,0.048 -0.542,-0.057 L -7.15,-5.625 v 0 c -0.216,-0.143 -0.555,-0.238 -0.889,-0.236 -0.275,-0.001 -0.542,0.062 -0.73,0.162 v 0 l -1.476,0.777 c -0.167,0.088 -0.366,0.092 -0.537,0.011 l -3.697,-1.754 h 10e-4 l 0.257,-0.542 0.257,-0.542 3.426,1.625 1.21,-0.637 v 0 c 0.4,-0.209 0.845,-0.299 1.289,-0.3 0.538,0.002 1.081,0.133 1.542,0.429 v 0 l 2.53,1.643 3.461,-1.332 v 0 l 0.066,-0.031 0.008,-0.005 0.094,0.131 -0.133,-0.083 0.039,-0.048 0.094,0.131 -0.133,-0.083 0.297,0.185 h -0.348 l 0.051,-0.185 0.297,0.185 h -0.348 0.298 l -0.23,0.205 c -0.014,-0.013 -0.068,-0.092 -0.068,-0.205 h 0.298 l -0.23,0.205 0.047,-0.042 -0.041,0.048 -0.006,-0.006 0.047,-0.042 -0.041,0.048 -0.071,-0.042 H -0.52 l -7.077,-3.358 0.001,0.001 c -0.143,-0.071 -0.433,-0.132 -0.705,-0.129 -0.215,-0.002 -0.423,0.035 -0.539,0.081 l -0.215,-0.56 0.536,-0.268 v 0 c 0.076,0.152 0.084,0.328 0.023,0.486 -0.061,0.157 -0.186,0.282 -0.344,0.343 l -5.138,1.976 h -10e-4 l -0.066,0.031 -0.008,0.005 -0.094,-0.131 0.134,0.083 -0.04,0.048 -0.094,-0.131 0.134,0.083 -0.298,-0.185 h 0.348 l -0.05,0.185 -0.298,-0.185 h 0.348 -0.297 l 0.229,-0.206 c 0.015,0.014 0.069,0.093 0.068,0.206 h -0.297 l 0.229,-0.206 -0.046,0.042 0.041,-0.047 0.005,0.005 -0.046,0.042 0.041,-0.047 0.071,0.042 h 10e-4 z m 14.151,-2.274 -0.257,0.543 -7.01,-3.326 h 10e-4 c -0.234,-0.113 -0.605,-0.189 -0.963,-0.187 -0.287,-10e-4 -0.567,0.047 -0.759,0.122 l -5.128,1.972 c -0.196,0.076 -0.417,0.043 -0.583,-0.086 -0.099,-0.077 -0.192,-0.171 -0.267,-0.294 -0.075,-0.122 -0.127,-0.279 -0.127,-0.445 -10e-4,-0.256 0.125,-0.481 0.267,-0.62 0.145,-0.144 0.309,-0.233 0.488,-0.303 h -0.001 l 5.138,-1.976 0.216,0.56 v 0.6 0 c -0.29,0 -0.537,-0.206 -0.59,-0.491 -0.053,-0.285 0.104,-0.565 0.374,-0.669 0.309,-0.118 0.638,-0.161 0.971,-0.162 0.42,0.003 0.839,0.069 1.217,0.244 v 0.001 l 7.077,3.357 v 0 c 0.165,0.079 0.316,0.176 0.446,0.319 0.128,0.14 0.239,0.352 0.238,0.596 0,0.33 -0.196,0.586 -0.387,0.724 -0.179,0.135 -0.416,0.16 -0.618,0.064 l 0.257,-0.543 -0.362,-0.478 0.107,0.141 -0.149,-0.089 0.042,-0.052 0.107,0.141 -0.149,-0.089 0.302,0.181 h -0.35 l 0.048,-0.181 0.302,0.181 h -0.35 0.298 l -0.23,0.205 c -0.014,-0.013 -0.069,-0.092 -0.068,-0.205 h 0.298 l -0.23,0.205 0.047,-0.041 -0.041,0.047 -0.006,-0.006 0.047,-0.041 -0.041,0.047 -0.071,-0.041 -0.001,-0.001 -7.077,-3.357 h 0.001 c -0.143,-0.071 -0.433,-0.132 -0.704,-0.129 -0.216,-0.001 -0.424,0.035 -0.54,0.082 l -0.215,-0.56 v -0.6 0 c 0.29,0 0.537,0.205 0.59,0.49 0.053,0.285 -0.104,0.566 -0.375,0.67 l -5.138,1.976 -10e-4,10e-4 -0.066,0.031 -0.008,0.004 -0.094,-0.131 0.133,0.084 -0.039,0.047 -0.094,-0.131 0.133,0.084 -0.297,-0.186 h 0.348 l -0.051,0.186 -0.297,-0.186 h 0.348 -0.336 l 0.29,-0.175 0.046,0.175 h -0.336 l 0.29,-0.175 -0.166,0.1 0.143,-0.132 0.023,0.032 -0.166,0.1 0.143,-0.132 -0.048,0.044 0.044,-0.048 0.004,0.004 -0.048,0.044 0.044,-0.048 0.002,0.002 -0.367,0.474 -0.216,-0.56 5.128,-1.972 c 0.373,-0.142 0.78,-0.201 1.19,-0.202 0.511,0.002 1.025,0.092 1.476,0.303 h 0.001 l 7.009,3.325 -0.257,0.542 -0.362,-0.478 z m -0.193,1.783 0.257,-0.542 c 0.165,0.079 0.316,0.176 0.446,0.32 0.128,0.14 0.239,0.351 0.238,0.595 0,0.33 -0.196,0.586 -0.386,0.725 -0.179,0.135 -0.417,0.159 -0.619,0.063 l -7.01,-3.326 10e-4,10e-4 c -0.234,-0.113 -0.605,-0.19 -0.963,-0.188 -0.287,-10e-4 -0.567,0.047 -0.759,0.122 l -5.128,1.973 c -0.196,0.075 -0.417,0.043 -0.583,-0.086 -0.099,-0.078 -0.192,-0.171 -0.267,-0.295 -0.075,-0.121 -0.127,-0.279 -0.127,-0.445 -10e-4,-0.255 0.125,-0.481 0.267,-0.62 0.145,-0.144 0.309,-0.233 0.488,-0.303 l -0.001,0.001 5.138,-1.977 v 0 c 0.31,-0.118 0.638,-0.16 0.971,-0.162 0.42,0.003 0.839,0.069 1.217,0.244 v 0.001 l 7.078,3.357 h -0.001 l -0.257,0.542 -0.257,0.543 -7.077,-3.358 v 0 c -0.142,-0.071 -0.431,-0.131 -0.703,-0.129 -0.216,-0.001 -0.424,0.036 -0.54,0.082 l -5.138,1.977 h -10e-4 l -0.066,0.031 -0.008,0.005 -0.094,-0.131 0.133,0.083 -0.039,0.048 -0.094,-0.131 0.133,0.083 -0.297,-0.186 h 0.348 l -0.051,0.186 -0.297,-0.186 h 0.348 -0.336 l 0.29,-0.175 0.046,0.175 h -0.336 l 0.29,-0.175 -0.166,0.101 0.143,-0.133 0.023,0.032 -0.166,0.101 0.143,-0.133 -0.048,0.044 0.044,-0.048 0.004,0.004 -0.048,0.044 0.044,-0.048 0.002,0.003 -0.367,0.474 -0.216,-0.56 5.128,-1.973 c 0.373,-0.142 0.78,-0.201 1.19,-0.202 0.511,0.002 1.025,0.092 1.476,0.303 h 0.001 l 7.009,3.326 -0.257,0.542 -0.362,-0.479 0.107,0.141 -0.149,-0.089 0.042,-0.052 0.107,0.141 -0.149,-0.089 0.302,0.181 h -0.35 l 0.048,-0.181 0.302,0.181 h -0.35 0.298 l -0.23,0.206 c -0.014,-0.014 -0.069,-0.093 -0.068,-0.206 h 0.298 l -0.23,0.206 0.047,-0.042 -0.041,0.047 -0.006,-0.005 0.047,-0.042 -0.041,0.047 -0.071,-0.041 H -0.52 Z m 0.193,-0.582 -0.257,0.542 -7.01,-3.325 h 10e-4 c -0.234,-0.113 -0.605,-0.189 -0.964,-0.187 -0.286,-10e-4 -0.566,0.046 -0.759,0.122 l 10e-4,-10e-4 -5.128,1.973 c -0.196,0.076 -0.417,0.043 -0.583,-0.086 -0.099,-0.077 -0.192,-0.171 -0.267,-0.294 -0.075,-0.122 -0.127,-0.279 -0.127,-0.445 -10e-4,-0.256 0.125,-0.481 0.267,-0.621 0.145,-0.143 0.309,-0.233 0.488,-0.302 h -0.001 l 5.138,-1.977 v 0 c 0.31,-0.117 0.638,-0.16 0.971,-0.161 0.42,0.002 0.839,0.069 1.217,0.244 v 0 l 7.078,3.358 h -0.001 c 0.166,0.079 0.316,0.176 0.446,0.319 0.128,0.14 0.239,0.352 0.238,0.596 0,0.329 -0.196,0.585 -0.387,0.724 -0.179,0.135 -0.416,0.159 -0.618,0.063 l 0.257,-0.542 -0.362,-0.479 0.107,0.142 -0.149,-0.089 0.042,-0.053 0.107,0.142 -0.149,-0.089 0.302,0.181 h -0.35 l 0.048,-0.181 0.302,0.181 h -0.35 0.298 l -0.23,0.205 c -0.014,-0.013 -0.069,-0.092 -0.068,-0.205 h 0.298 l -0.23,0.205 0.047,-0.042 -0.041,0.048 -0.006,-0.006 0.047,-0.042 -0.041,0.048 -0.071,-0.042 H -0.52 l -7.077,-3.358 v 0 c -0.142,-0.07 -0.431,-0.131 -0.703,-0.128 -0.216,-0.002 -0.424,0.035 -0.54,0.081 v 0 l -5.138,1.977 h -10e-4 l -0.066,0.031 -0.008,0.005 -0.094,-0.131 0.133,0.083 -0.039,0.048 -0.094,-0.131 0.133,0.083 -0.297,-0.185 h 0.348 l -0.051,0.185 -0.297,-0.185 h 0.348 -0.336 l 0.29,-0.175 0.046,0.175 h -0.336 l 0.29,-0.175 -0.166,0.1 0.143,-0.132 0.023,0.032 -0.166,0.1 0.143,-0.132 -0.048,0.044 0.044,-0.048 0.004,0.004 -0.048,0.044 0.044,-0.048 0.002,0.002 -0.367,0.474 -0.216,-0.56 5.128,-1.973 v 0 c 0.373,-0.142 0.78,-0.201 1.189,-0.201 0.512,10e-4 1.026,0.091 1.477,0.302 l 0.001,10e-4 7.009,3.325 -0.257,0.542 -0.362,-0.479 z m -14.123,-4.637 -0.216,-0.56 5.138,-1.977 0.216,0.56 v 0.6 0 c -0.29,0 -0.537,-0.205 -0.59,-0.49 -0.053,-0.285 0.104,-0.566 0.374,-0.67 0.309,-0.117 0.638,-0.16 0.97,-0.161 0.421,0.002 0.84,0.069 1.218,0.244 v 0 l 7.078,3.358 -0.001,-10e-4 c 0.166,0.08 0.316,0.176 0.446,0.32 0.128,0.14 0.239,0.351 0.238,0.595 0.002,0.234 -0.105,0.447 -0.233,0.585 -0.129,0.141 -0.277,0.232 -0.436,0.304 -0.159,0.07 -0.344,0.068 -0.5,-0.007 l -6.846,-3.248 10e-4,10e-4 c -0.234,-0.113 -0.605,-0.19 -0.963,-0.188 -0.287,-0.001 -0.567,0.047 -0.759,0.122 l -4.954,1.906 c -0.153,0.059 -0.326,0.052 -0.474,-0.019 -0.164,-0.079 -0.313,-0.176 -0.441,-0.319 -0.127,-0.14 -0.236,-0.35 -0.236,-0.592 -10e-4,-0.256 0.125,-0.481 0.267,-0.621 0.145,-0.143 0.309,-0.233 0.487,-0.302 v 0 l 0.216,0.56 0.215,0.56 -0.067,0.031 -0.008,0.005 -0.094,-0.131 0.134,0.083 -0.04,0.048 -0.094,-0.131 0.134,0.083 -0.298,-0.185 h 0.348 l -0.05,0.185 -0.298,-0.185 h 0.348 -0.298 l 0.231,-0.206 c 0.014,0.014 0.068,0.093 0.067,0.206 h -0.298 l 0.231,-0.206 h 0.002 l 0.06,0.035 -0.259,0.541 -0.215,-0.56 4.953,-1.906 c 0.373,-0.142 0.78,-0.201 1.19,-0.202 0.511,0.002 1.025,0.092 1.476,0.303 h 0.001 l 6.845,3.248 -0.257,0.542 -0.243,-0.549 0.043,-0.022 0.002,-0.002 0.123,0.154 -0.168,-0.096 0.045,-0.058 0.123,0.154 -0.168,-0.096 0.308,0.175 h -0.353 l 0.045,-0.175 0.308,0.175 h -0.353 0.298 l -0.23,0.206 c -0.014,-0.013 -0.068,-0.092 -0.068,-0.206 h 0.298 l -0.23,0.206 0.047,-0.042 -0.041,0.048 -0.006,-0.006 0.047,-0.042 -0.041,0.048 -0.071,-0.042 H -0.52 l -7.077,-3.358 v 0.001 c -0.142,-0.071 -0.432,-0.132 -0.704,-0.129 -0.215,-0.002 -0.423,0.035 -0.539,0.081 l -0.215,-0.56 v -0.6 0 c 0.29,0 0.537,0.206 0.59,0.491 0.053,0.285 -0.104,0.565 -0.375,0.669 l -5.138,1.977 v 0 z"
       style="fill:#4c5057;fill-opacity:1;fill-rule:nonzero;stroke:none"
       transform="matrix(0.35277776,0,0,-0.35277776,107.74278,146.86844)"
       clip-path="url(#clipPath9598)" />
    <path
       id="path9599"
       d="m 0,0 5.146,-1.979 v 0 c 0.482,-0.185 1.252,-0.155 1.718,0.065 l 7.089,3.362 c 0.466,0.22 0.453,0.551 -0.029,0.736 L 10.172,3.628 7.382,1.817 C 6.763,1.415 5.805,1.372 5.153,1.715 L 3.675,2.493 -0.028,0.737 C -0.494,0.516 -0.482,0.185 0,0"
       style="fill:#ffffff;fill-opacity:1;fill-rule:nonzero;stroke:none"
       transform="matrix(0.35277776,0,0,-0.35277776,102.73183,149.67186)"
       clip-path="url(#clipPath9600)" />
    <path
       id="path9601"
       d="m 0,0 -7.02,-3.329 c -0.618,-0.292 -1.56,-0.329 -2.198,-0.084 l -5.136,1.975 c -0.271,-0.211 -0.2,-0.472 0.208,-0.629 l 5.147,-1.979 v 0 c 0.482,-0.185 1.252,-0.155 1.718,0.065 l 7.088,3.362 C 0.186,-0.44 0.249,-0.187 0,0"
       style="fill:#ffffff;fill-opacity:1;fill-rule:nonzero;stroke:none"
       transform="matrix(0.35277776,0,0,-0.35277776,107.72187,149.79081)"
       clip-path="url(#clipPath9602)" />
    <path
       id="path9603"
       d="M 0,0 7.088,3.361 C 7.467,3.541 7.53,3.793 7.281,3.98 L 0.261,0.651 C -0.357,0.359 -1.299,0.323 -1.937,0.568 l -5.136,1.974 c -0.271,-0.21 -0.2,-0.472 0.209,-0.628 l 5.146,-1.979 v 0 C -1.236,-0.251 -0.466,-0.221 0,0"
       style="fill:#ffffff;fill-opacity:1;fill-rule:nonzero;stroke:none"
       transform="matrix(0.35277776,0,0,-0.35277776,105.1533,151.61905)"
       clip-path="url(#clipPath9604)" />
    <path
       id="path9605"
       d="m 0,0 -7.02,-3.329 c -0.618,-0.293 -1.56,-0.329 -2.198,-0.084 l -5.136,1.975 c -0.271,-0.211 -0.2,-0.472 0.208,-0.629 l 5.147,-1.979 v 0 c 0.482,-0.185 1.252,-0.155 1.718,0.065 l 7.088,3.362 C 0.186,-0.44 0.249,-0.188 0,0"
       style="fill:#ffffff;fill-opacity:1;fill-rule:nonzero;stroke:none"
       transform="matrix(0.35277776,0,0,-0.35277776,107.72187,149.36674)"
       clip-path="url(#clipPath9606)" />
    <path
       id="path9607"
       d="m 0,0 -6.856,-3.251 c -0.617,-0.292 -1.56,-0.329 -2.198,-0.084 l -4.961,1.908 c -0.46,-0.221 -0.446,-0.55 0.034,-0.734 l 5.146,-1.979 v 0 c 0.482,-0.185 1.252,-0.155 1.718,0.065 l 7.089,3.362 C 0.419,-0.502 0.425,-0.188 0,0"
       style="fill:#ffffff;fill-opacity:1;fill-rule:nonzero;stroke:none"
       transform="matrix(0.35277776,0,0,-0.35277776,107.66393,150.66637)"
       clip-path="url(#clipPath9608)" />
    <path
       id="path9609"
       d="M 0,0 -2.967,1.567 -2.971,1.593 -3.387,1.806 V 0.665 -0.027 h -0.692 -2.104 v -2.415 h -3.326 v 2.415 h -1.519 l -1.251,-0.819 0.003,-0.003 -1.782,-1.147 c -0.433,-0.281 -0.414,-0.705 0.043,-0.946 l 5.236,-2.756 v 0 c 0.457,-0.24 1.18,-0.207 1.613,0.074 l 7.209,4.679 C 0.476,-0.664 0.457,-0.241 0,0"
       style="fill:#ffffff;fill-opacity:1;fill-rule:nonzero;stroke:none"
       transform="matrix(0.35277776,0,0,-0.35277776,107.74674,146.86653)"
       clip-path="url(#clipPath9610)" />
    <path
       id="path9611"
       d="M 0,0 V -2.641 H 2.641 V -4.476 H 0 v -2.641 h -1.835 v 2.641 h -2.641 v 1.835 h 2.641 V 0 Z"
       style="fill:#fdda04;fill-opacity:1;fill-rule:nonzero;stroke:none"
       transform="matrix(0.35277776,0,0,-0.35277776,105.30252,144.93479)"
       clip-path="url(#clipPath9612)" />
  </g>
</svg>
