<?xml version="1.0" encoding="UTF-8" standalone="no"?>
<!-- Created with Inkscape (http://www.inkscape.org/) -->

<svg
   width="12.263966mm"
   height="12.264318mm"
   viewBox="0 0 12.263966 12.264318"
   version="1.1"
   id="svg1"
   inkscape:version="1.4 (e7c3feb100, 2024-10-09)"
   sodipodi:docname="Expansion.svg"
   xmlns:inkscape="http://www.inkscape.org/namespaces/inkscape"
   xmlns:sodipodi="http://sodipodi.sourceforge.net/DTD/sodipodi-0.dtd"
   xmlns="http://www.w3.org/2000/svg"
   xmlns:svg="http://www.w3.org/2000/svg">
  <sodipodi:namedview
     id="namedview1"
     pagecolor="#ffffff"
     bordercolor="#000000"
     borderopacity="0.25"
     inkscape:showpageshadow="2"
     inkscape:pageopacity="0.0"
     inkscape:pagecheckerboard="0"
     inkscape:deskcolor="#d1d1d1"
     inkscape:document-units="mm"
     inkscape:zoom="9.595066"
     inkscape:cx="-16.049916"
     inkscape:cy="-6.3574341"
     inkscape:window-width="1920"
     inkscape:window-height="1163"
     inkscape:window-x="0"
     inkscape:window-y="0"
     inkscape:window-maximized="1"
     inkscape:current-layer="layer1" />
  <defs
     id="defs1">
    <clipPath
       clipPathUnits="userSpaceOnUse"
       id="clipPath6174">
      <path
         d="M 15,15 H 610.275 V 610.275 H 15 Z"
         transform="translate(-91.878002,-478.87781)"
         id="path6174" />
    </clipPath>
    <clipPath
       clipPathUnits="userSpaceOnUse"
       id="clipPath6176">
      <path
         d="m 75.011,495.744 c 0,-9.315 7.551,-16.867 16.867,-16.867 v 0 c 5.517,0 10.415,2.65 13.492,6.745 v 0 20.245 c -3.077,4.094 -7.975,6.743 -13.492,6.743 v 0 c -9.316,0 -16.867,-7.551 -16.867,-16.866"
         transform="matrix(1.9396922,0,0,1.9343374,-194.95536,-961.74281)"
         id="path6176" />
    </clipPath>
    <clipPath
       clipPathUnits="userSpaceOnUse"
       id="clipPath6178">
      <path
         d="m 75.011,495.744 c 0,-9.315 7.551,-16.867 16.867,-16.867 v 0 c 5.517,0 10.415,2.65 13.492,6.745 v 0 20.245 c -3.077,4.094 -7.975,6.743 -13.492,6.743 v 0 c -9.316,0 -16.867,-7.551 -16.867,-16.866"
         transform="matrix(1.9396922,0,0,1.9343374,-128.06086,-961.74281)"
         id="path6178" />
    </clipPath>
    <clipPath
       clipPathUnits="userSpaceOnUse"
       id="clipPath6180">
      <path
         d="m 75.011,495.744 c 0,-9.315 7.551,-16.867 16.867,-16.867 v 0 c 5.517,0 10.415,2.65 13.492,6.745 v 0 20.245 c -3.077,4.094 -7.975,6.743 -13.492,6.743 v 0 c -9.316,0 -16.867,-7.551 -16.867,-16.866"
         transform="matrix(1.9396922,0,0,1.9343374,-172.91445,-966.6412)"
         id="path6180" />
    </clipPath>
    <clipPath
       clipPathUnits="userSpaceOnUse"
       id="clipPath6182">
      <path
         d="M 15,15 H 610.275 V 610.275 H 15 Z"
         transform="translate(-91.878002,-478.87781)"
         id="path6182" />
    </clipPath>
    <clipPath
       clipPathUnits="userSpaceOnUse"
       id="clipPath7758">
      <path
         d="M 15,15 H 610.275 V 610.275 H 15 Z"
         transform="translate(-338.55351,-479.36571)"
         id="path7758" />
    </clipPath>
    <clipPath
       clipPathUnits="userSpaceOnUse"
       id="clipPath7760">
      <path
         d="m 321.687,496.232 c 0,-9.315 7.551,-16.867 16.867,-16.867 v 0 c 9.315,0 16.866,7.552 16.866,16.867 v 0 c 0,9.315 -7.551,16.866 -16.866,16.866 v 0 c -9.316,0 -16.867,-7.551 -16.867,-16.866"
         transform="translate(-340.95493,-488.49001)"
         id="path7760" />
    </clipPath>
    <clipPath
       clipPathUnits="userSpaceOnUse"
       id="clipPath7762">
      <path
         d="m 321.687,496.232 c 0,-9.315 7.551,-16.867 16.867,-16.867 v 0 c 9.315,0 16.866,7.552 16.866,16.867 v 0 c 0,9.315 -7.551,16.866 -16.866,16.866 v 0 c -9.316,0 -16.867,-7.551 -16.867,-16.866"
         transform="translate(-341.07628,-492.79581)"
         id="path7762" />
    </clipPath>
    <clipPath
       clipPathUnits="userSpaceOnUse"
       id="clipPath7764">
      <path
         d="m 321.687,496.232 c 0,-9.315 7.551,-16.867 16.867,-16.867 v 0 c 9.315,0 16.866,7.552 16.866,16.867 v 0 c 0,9.315 -7.551,16.866 -16.866,16.866 v 0 c -9.316,0 -16.867,-7.551 -16.867,-16.866"
         transform="translate(-340.87011,-500.89371)"
         id="path7764" />
    </clipPath>
    <clipPath
       clipPathUnits="userSpaceOnUse"
       id="clipPath7766">
      <path
         d="m 321.687,496.232 c 0,-9.315 7.551,-16.867 16.867,-16.867 v 0 c 9.315,0 16.866,7.552 16.866,16.867 v 0 c 0,9.315 -7.551,16.866 -16.866,16.866 v 0 c -9.316,0 -16.867,-7.551 -16.867,-16.866"
         transform="translate(-340.87011,-508.99172)"
         id="path7766" />
    </clipPath>
    <clipPath
       clipPathUnits="userSpaceOnUse"
       id="clipPath7768">
      <path
         d="m 321.687,496.232 c 0,-9.315 7.551,-16.867 16.867,-16.867 v 0 c 9.315,0 16.866,7.552 16.866,16.867 v 0 c 0,9.315 -7.551,16.866 -16.866,16.866 v 0 c -9.316,0 -16.867,-7.551 -16.867,-16.866"
         transform="translate(-340.80298,-503.62631)"
         id="path7768" />
    </clipPath>
    <clipPath
       clipPathUnits="userSpaceOnUse"
       id="clipPath7770">
      <path
         d="m 321.687,496.232 c 0,-9.315 7.551,-16.867 16.867,-16.867 v 0 c 9.315,0 16.866,7.552 16.866,16.867 v 0 c 0,9.315 -7.551,16.866 -16.866,16.866 v 0 c -9.316,0 -16.867,-7.551 -16.867,-16.866"
         transform="translate(-338.52628,-494.36681)"
         id="path7770" />
    </clipPath>
    <clipPath
       clipPathUnits="userSpaceOnUse"
       id="clipPath7772">
      <path
         d="m 321.687,496.232 c 0,-9.315 7.551,-16.867 16.867,-16.867 v 0 c 9.315,0 16.866,7.552 16.866,16.867 v 0 c 0,9.315 -7.551,16.866 -16.866,16.866 v 0 c -9.316,0 -16.867,-7.551 -16.867,-16.866"
         transform="translate(-338.52643,-499.84621)"
         id="path7772" />
    </clipPath>
    <clipPath
       clipPathUnits="userSpaceOnUse"
       id="clipPath7774">
      <path
         d="m 321.687,496.232 c 0,-9.315 7.551,-16.867 16.867,-16.867 v 0 c 9.315,0 16.866,7.552 16.866,16.867 v 0 c 0,9.315 -7.551,16.866 -16.866,16.866 v 0 c -9.316,0 -16.867,-7.551 -16.867,-16.866"
         transform="translate(-337.67308,-497.10031)"
         id="path7774" />
    </clipPath>
    <clipPath
       clipPathUnits="userSpaceOnUse"
       id="clipPath7776">
      <path
         d="m 321.687,496.232 c 0,-9.315 7.551,-16.867 16.867,-16.867 v 0 c 9.315,0 16.866,7.552 16.866,16.867 v 0 c 0,9.315 -7.551,16.866 -16.866,16.866 v 0 c -9.316,0 -16.867,-7.551 -16.867,-16.866"
         transform="translate(-328.62561,-491.65041)"
         id="path7776" />
    </clipPath>
    <clipPath
       clipPathUnits="userSpaceOnUse"
       id="clipPath7778">
      <path
         d="m 321.687,496.232 c 0,-9.315 7.551,-16.867 16.867,-16.867 v 0 c 9.315,0 16.866,7.552 16.866,16.867 v 0 c 0,9.315 -7.551,16.866 -16.866,16.866 v 0 c -9.316,0 -16.867,-7.551 -16.867,-16.866"
         transform="translate(-334.37781,-495.36951)"
         id="path7778" />
    </clipPath>
    <clipPath
       clipPathUnits="userSpaceOnUse"
       id="clipPath7780">
      <path
         d="m 321.687,496.232 c 0,-9.315 7.551,-16.867 16.867,-16.867 v 0 c 9.315,0 16.866,7.552 16.866,16.867 v 0 c 0,9.315 -7.551,16.866 -16.866,16.866 v 0 c -9.316,0 -16.867,-7.551 -16.867,-16.866"
         transform="translate(-331.12371,-491.05141)"
         id="path7780" />
    </clipPath>
    <clipPath
       clipPathUnits="userSpaceOnUse"
       id="clipPath7782">
      <path
         d="M 15,15 H 610.275 V 610.275 H 15 Z"
         transform="translate(-338.55351,-479.36571)"
         id="path7782" />
    </clipPath>
    <clipPath
       clipPathUnits="userSpaceOnUse"
       id="clipPath6897">
      <path
         d="M 15,15 H 610.275 V 610.275 H 15 Z"
         transform="translate(-338.77383,-479.72631)"
         id="path6897" />
    </clipPath>
    <clipPath
       clipPathUnits="userSpaceOnUse"
       id="clipPath6899">
      <path
         d="m 328.578,510.03 c -1.538,-1.169 -2.87,-2.597 -3.93,-4.218 v 0 -18.439 c 1.524,-2.33 3.61,-4.261 6.065,-5.599 v 0 h 16.121 c 2.458,1.339 4.545,3.272 6.07,5.607 v 0 18.424 c -1.061,1.624 -2.394,3.054 -3.935,4.225 v 0 z"
         transform="translate(-330.78228,-492.63981)"
         id="path6899" />
    </clipPath>
    <clipPath
       clipPathUnits="userSpaceOnUse"
       id="clipPath6901">
      <path
         d="m 328.578,510.03 c -1.538,-1.169 -2.87,-2.597 -3.93,-4.218 v 0 -18.439 c 1.524,-2.33 3.61,-4.261 6.065,-5.599 v 0 h 16.121 c 2.458,1.339 4.545,3.272 6.07,5.607 v 0 18.424 c -1.061,1.624 -2.394,3.054 -3.935,4.225 v 0 z"
         transform="translate(-346.70673,-492.26021)"
         id="path6901" />
    </clipPath>
    <clipPath
       clipPathUnits="userSpaceOnUse"
       id="clipPath6903">
      <path
         d="m 328.578,510.03 c -1.538,-1.169 -2.87,-2.597 -3.93,-4.218 v 0 -18.439 c 1.524,-2.33 3.61,-4.261 6.065,-5.599 v 0 h 16.121 c 2.458,1.339 4.545,3.272 6.07,5.607 v 0 18.424 c -1.061,1.624 -2.394,3.054 -3.935,4.225 v 0 z"
         transform="translate(-338.50991,-486.42611)"
         id="path6903" />
    </clipPath>
    <clipPath
       clipPathUnits="userSpaceOnUse"
       id="clipPath6905">
      <path
         d="m 328.578,510.03 c -1.538,-1.169 -2.87,-2.597 -3.93,-4.218 v 0 -18.439 c 1.524,-2.33 3.61,-4.261 6.065,-5.599 v 0 h 16.121 c 2.458,1.339 4.545,3.272 6.07,5.607 v 0 18.424 c -1.061,1.624 -2.394,3.054 -3.935,4.225 v 0 z"
         transform="translate(-346.70673,-493.61351)"
         id="path6905" />
    </clipPath>
    <clipPath
       clipPathUnits="userSpaceOnUse"
       id="clipPath6907">
      <path
         d="m 328.578,510.03 c -1.538,-1.169 -2.87,-2.597 -3.93,-4.218 v 0 -18.439 c 1.524,-2.33 3.61,-4.261 6.065,-5.599 v 0 h 16.121 c 2.458,1.339 4.545,3.272 6.07,5.607 v 0 18.424 c -1.061,1.624 -2.394,3.054 -3.935,4.225 v 0 z"
         transform="translate(-346.52171,-489.46621)"
         id="path6907" />
    </clipPath>
    <clipPath
       clipPathUnits="userSpaceOnUse"
       id="clipPath6909">
      <path
         d="m 328.578,510.03 c -1.538,-1.169 -2.87,-2.597 -3.93,-4.218 v 0 -18.439 c 1.524,-2.33 3.61,-4.261 6.065,-5.599 v 0 h 16.121 c 2.458,1.339 4.545,3.272 6.07,5.607 v 0 18.424 c -1.061,1.624 -2.394,3.054 -3.935,4.225 v 0 z"
         transform="translate(-346.78578,-501.59192)"
         id="path6909" />
    </clipPath>
    <clipPath
       clipPathUnits="userSpaceOnUse"
       id="clipPath6911">
      <path
         d="m 328.578,510.03 c -1.538,-1.169 -2.87,-2.597 -3.93,-4.218 v 0 -18.439 c 1.524,-2.33 3.61,-4.261 6.065,-5.599 v 0 h 16.121 c 2.458,1.339 4.545,3.272 6.07,5.607 v 0 18.424 c -1.061,1.624 -2.394,3.054 -3.935,4.225 v 0 z"
         transform="translate(-338.98601,-507.75632)"
         id="path6911" />
    </clipPath>
    <clipPath
       clipPathUnits="userSpaceOnUse"
       id="clipPath6913">
      <path
         d="M 15,15 H 610.275 V 610.275 H 15 Z"
         transform="translate(-338.77383,-479.72631)"
         id="path6913" />
    </clipPath>
    <clipPath
       clipPathUnits="userSpaceOnUse"
       id="clipPath8089">
      <path
         d="M 15,15 H 610.275 V 610.275 H 15 Z"
         transform="translate(-92.159627,-467.43521)"
         id="path8089" />
    </clipPath>
    <clipPath
       clipPathUnits="userSpaceOnUse"
       id="clipPath8091">
      <path
         d="m 75.293,484.302 c 0,-9.315 7.551,-16.866 16.866,-16.866 v 0 c 9.316,0 16.867,7.551 16.867,16.866 v 0 c 0,9.315 -7.551,16.866 -16.867,16.866 v 0 c -9.315,0 -16.866,-7.551 -16.866,-16.866"
         transform="matrix(2.8009329,0,0,2.8119611,-249.79084,-1348.3765)"
         id="path8091" />
    </clipPath>
    <clipPath
       clipPathUnits="userSpaceOnUse"
       id="clipPath8093">
      <path
         d="m 75.293,484.302 c 0,-9.315 7.551,-16.866 16.866,-16.866 v 0 c 9.316,0 16.867,7.551 16.867,16.866 v 0 c 0,9.315 -7.551,16.866 -16.867,16.866 v 0 c -9.315,0 -16.866,-7.551 -16.866,-16.866"
         transform="matrix(2.8009329,0,0,2.8119611,-266.8397,-1358.3071)"
         id="path8093" />
    </clipPath>
    <clipPath
       clipPathUnits="userSpaceOnUse"
       id="clipPath8095">
      <path
         d="m 75.293,484.302 c 0,-9.315 7.551,-16.866 16.866,-16.866 v 0 c 9.316,0 16.867,7.551 16.867,16.866 v 0 c 0,9.315 -7.551,16.866 -16.867,16.866 v 0 c -9.315,0 -16.866,-7.551 -16.866,-16.866"
         transform="matrix(2.8009329,0,0,2.8119611,-266.8397,-1377.7983)"
         id="path8095" />
    </clipPath>
    <clipPath
       clipPathUnits="userSpaceOnUse"
       id="clipPath8097">
      <path
         d="m 75.293,484.302 c 0,-9.315 7.551,-16.866 16.866,-16.866 v 0 c 9.316,0 16.867,7.551 16.867,16.866 v 0 c 0,9.315 -7.551,16.866 -16.867,16.866 v 0 c -9.315,0 -16.866,-7.551 -16.866,-16.866"
         transform="matrix(2.8009329,0,0,2.8119611,-283.82175,-1387.697)"
         id="path8097" />
    </clipPath>
    <clipPath
       clipPathUnits="userSpaceOnUse"
       id="clipPath8099">
      <path
         d="m 82.428,498.079 c -1.713,-1.212 -3.189,-2.735 -4.348,-4.487 v 0 -18.581 c 2.371,-3.585 6.075,-6.212 10.405,-7.174 v 0 h 7.349 c 6.114,1.359 10.98,6.036 12.607,12.045 v 0 8.839 c -1.038,3.833 -3.393,7.124 -6.55,9.358 v 0 z"
         transform="matrix(2.8009329,0,0,2.8119611,-283.84633,-1377.8311)"
         id="path8099" />
    </clipPath>
    <clipPath
       clipPathUnits="userSpaceOnUse"
       id="clipPath8101">
      <path
         d="m 82.428,498.079 c -1.713,-1.212 -3.189,-2.735 -4.348,-4.487 v 0 -18.581 c 2.371,-3.585 6.075,-6.212 10.405,-7.174 v 0 h 7.349 c 6.114,1.359 10.98,6.036 12.607,12.045 v 0 8.839 c -1.038,3.833 -3.393,7.124 -6.55,9.358 v 0 z"
         transform="matrix(2.8009329,0,0,2.8119611,-230.85387,-1349.4082)"
         id="path8101" />
    </clipPath>
    <clipPath
       clipPathUnits="userSpaceOnUse"
       id="clipPath8103">
      <path
         d="m 82.428,498.079 c -1.713,-1.212 -3.189,-2.735 -4.348,-4.487 v 0 -18.581 c 2.371,-3.585 6.075,-6.212 10.405,-7.174 v 0 h 7.349 c 6.114,1.359 10.98,6.036 12.607,12.045 v 0 8.839 c -1.038,3.833 -3.393,7.124 -6.55,9.358 v 0 z"
         transform="matrix(2.8009329,0,0,2.8119611,-250.85568,-1383.5494)"
         id="path8103" />
    </clipPath>
    <clipPath
       clipPathUnits="userSpaceOnUse"
       id="clipPath8105">
      <path
         d="M 15,15 H 610.275 V 610.275 H 15 Z"
         transform="translate(-92.159627,-467.43521)"
         id="path8105" />
    </clipPath>
    <clipPath
       clipPathUnits="userSpaceOnUse"
       id="clipPath7469">
      <path
         d="M 15,15 H 610.275 V 610.275 H 15 Z"
         transform="translate(-91.710202,-479.36551)"
         id="path7469" />
    </clipPath>
    <clipPath
       clipPathUnits="userSpaceOnUse"
       id="clipPath7471">
      <path
         d="m 74.844,496.232 c 0,-9.315 7.551,-16.867 16.866,-16.867 v 0 c 9.315,0 16.867,7.552 16.867,16.867 v 0 c 0,9.315 -7.552,16.866 -16.867,16.866 v 0 c -9.315,0 -16.866,-7.551 -16.866,-16.866"
         transform="translate(-102.54658,-490.93991)"
         id="path7471" />
    </clipPath>
    <clipPath
       clipPathUnits="userSpaceOnUse"
       id="clipPath7473">
      <path
         d="m 74.844,496.232 c 0,-9.315 7.551,-16.867 16.866,-16.867 v 0 c 9.315,0 16.867,7.552 16.867,16.867 v 0 c 0,9.315 -7.552,16.866 -16.867,16.866 v 0 c -9.315,0 -16.866,-7.551 -16.866,-16.866"
         transform="translate(-93.943477,-494.72001)"
         id="path7473" />
    </clipPath>
    <clipPath
       clipPathUnits="userSpaceOnUse"
       id="clipPath7475">
      <path
         d="m 74.844,496.232 c 0,-9.315 7.551,-16.867 16.866,-16.867 v 0 c 9.315,0 16.867,7.552 16.867,16.867 v 0 c 0,9.315 -7.552,16.866 -16.867,16.866 v 0 c -9.315,0 -16.866,-7.551 -16.866,-16.866"
         transform="translate(-93.943477,-502.55402)"
         id="path7475" />
    </clipPath>
    <clipPath
       clipPathUnits="userSpaceOnUse"
       id="clipPath7477">
      <path
         d="m 74.844,496.232 c 0,-9.315 7.551,-16.867 16.866,-16.867 v 0 c 9.315,0 16.867,7.552 16.867,16.867 v 0 c 0,9.315 -7.552,16.866 -16.867,16.866 v 0 c -9.315,0 -16.866,-7.551 -16.866,-16.866"
         transform="translate(-91.568077,-503.30081)"
         id="path7477" />
    </clipPath>
    <clipPath
       clipPathUnits="userSpaceOnUse"
       id="clipPath7479">
      <path
         d="m 74.844,496.232 c 0,-9.315 7.551,-16.867 16.866,-16.867 v 0 c 9.315,0 16.867,7.552 16.867,16.867 v 0 c 0,9.315 -7.552,16.866 -16.867,16.866 v 0 c -9.315,0 -16.866,-7.551 -16.866,-16.866"
         transform="translate(-79.812427,-511.71632)"
         id="path7479" />
    </clipPath>
    <clipPath
       clipPathUnits="userSpaceOnUse"
       id="clipPath7481">
      <path
         d="m 74.844,496.232 c 0,-9.315 7.551,-16.867 16.866,-16.867 v 0 c 9.315,0 16.867,7.552 16.867,16.867 v 0 c 0,9.315 -7.552,16.866 -16.867,16.866 v 0 c -9.315,0 -16.866,-7.551 -16.866,-16.866"
         transform="translate(-87.605902,-506.50371)"
         id="path7481" />
    </clipPath>
    <clipPath
       clipPathUnits="userSpaceOnUse"
       id="clipPath7483">
      <path
         d="M 15,15 H 610.275 V 610.275 H 15 Z"
         transform="translate(-91.710202,-479.36551)"
         id="path7483" />
    </clipPath>
  </defs>
  <g
     inkscape:label="Calque 1"
     inkscape:groupmode="layer"
     id="layer1"
     transform="translate(-114.03542,-92.075014)">
    <path
       id="path7468"
       d="m 0,0 c -9.315,0 -16.867,7.551 -16.867,16.867 0,9.315 7.552,16.866 16.867,16.866 9.315,0 16.867,-7.551 16.867,-16.866 C 16.867,7.551 9.315,0 0,0"
       style="fill:#586374;fill-opacity:1;fill-rule:nonzero;stroke:none"
       transform="matrix(0.35277776,0,0,-0.35277776,120.1674,104.1573)"
       clip-path="url(#clipPath7469)" />
    <path
       id="path7470"
       d="M 0,0 -2.062,-3.57 H -6.185 L -8.246,0 -6.185,3.571 h 4.124 z m -8.775,-7.444 h -4.123 l -2.062,3.57 2.062,3.571 h 4.123 l 2.061,-3.571 z m -6.713,3.874 h -4.123 l -2.062,3.57 2.062,3.571 h 4.123 L -13.427,0 Z m -6.185,11.319 2.062,3.57 h 4.116 l 2.065,-3.576 -2.058,-3.564 h -4.123 z m 8.766,7.445 h 4.123 l 2.062,-3.571 -2.062,-3.57 h -4.117 l -2.064,3.576 z M -6.712,3.78 -8.77,0.216 h -4.114 l -2.057,3.564 2.057,3.563 h 4.114 z m 0.527,7.539 h 4.123 L 0,7.749 -2.061,4.179 h -4.124 l -2.061,3.57 z m 6.886,-3.57 -2.412,4.179 h -4.486 l -2.236,3.874 h -4.825 l -2.236,-3.874 h -4.468 L -22.374,7.749 -20.137,3.875 -22.374,0 l 2.412,-4.178 h 4.477 l 2.236,-3.874 h 4.825 l 2.236,3.874 h 4.477 L 0.701,0 -1.535,3.875 Z"
       style="fill:#ffffff;fill-opacity:1;fill-rule:nonzero;stroke:none"
       transform="matrix(0.35277776,0,0,-0.35277776,123.99024,100.07411)"
       clip-path="url(#clipPath7471)" />
    <path
       id="path7472"
       d="m 0,0 c 0,-1.235 -1.001,-2.236 -2.236,-2.236 -1.234,0 -2.235,1.001 -2.235,2.236 0,1.235 1.001,2.236 2.235,2.236 C -1.001,2.236 0,1.235 0,0"
       style="fill:#ffffff;fill-opacity:1;fill-rule:nonzero;stroke:none"
       transform="matrix(0.35277776,0,0,-0.35277776,120.95525,98.740571)"
       clip-path="url(#clipPath7473)" />
    <path
       id="path7474"
       d="m 0,0 c 0,-1.235 -1.001,-2.236 -2.236,-2.236 -1.234,0 -2.235,1.001 -2.235,2.236 0,1.235 1.001,2.236 2.235,2.236 C -1.001,2.236 0,1.235 0,0"
       style="fill:#ffffff;fill-opacity:1;fill-rule:nonzero;stroke:none"
       transform="matrix(0.35277776,0,0,-0.35277776,120.95525,95.976908)"
       clip-path="url(#clipPath7475)" />
    <path
       id="path7476"
       d="M 0,0 0.793,5.033 -0.814,4.414 c -2.379,3.656 -6.752,5.593 -11.087,4.841 l 0.29,-1.679 c 3.544,0.615 7.116,-0.895 9.166,-3.789 L -3.962,3.203 Z"
       style="fill:#586374;fill-opacity:1;fill-rule:nonzero;stroke:#586374;stroke-width:1.703;stroke-linecap:butt;stroke-linejoin:miter;stroke-miterlimit:10;stroke-dasharray:none;stroke-opacity:1"
       transform="matrix(0.35277776,0,0,-0.35277776,120.11726,95.713455)"
       clip-path="url(#clipPath7477)" />
    <path
       id="path7478"
       d="M 0,0 C 4.152,0.72 8.401,-1.225 10.534,-4.956"
       style="fill:none;stroke:#fdda04;stroke-width:1.703;stroke-linecap:butt;stroke-linejoin:miter;stroke-miterlimit:10;stroke-dasharray:none;stroke-opacity:1"
       transform="matrix(0.35277776,0,0,-0.35277776,115.97013,92.744653)"
       clip-path="url(#clipPath7479)" />
    <path
       id="path7480"
       d="M 0,0 3.962,-3.203 4.756,1.83 Z"
       style="fill:#fdda04;fill-opacity:1;fill-rule:nonzero;stroke:none"
       transform="matrix(0.35277776,0,0,-0.35277776,118.7195,94.583544)"
       clip-path="url(#clipPath7481)" />
    <path
       id="path7482"
       d="m 0,0 v -0.516 c -9.6,0.001 -17.382,7.782 -17.382,17.383 0,9.6 7.782,17.381 17.382,17.382 C 9.6,34.248 17.382,26.467 17.382,16.867 17.382,7.266 9.6,-0.515 0,-0.516 V 0 0.516 c 4.517,0 8.601,1.829 11.562,4.789 2.96,2.96 4.789,7.045 4.789,11.562 0,4.516 -1.829,8.601 -4.789,11.561 -2.961,2.96 -7.045,4.789 -11.562,4.79 -4.517,-0.001 -8.601,-1.83 -11.562,-4.79 -2.96,-2.96 -4.789,-7.045 -4.789,-11.561 0,-4.517 1.829,-8.602 4.789,-11.562 C -8.601,2.345 -4.517,0.516 0,0.516 Z"
       style="fill:#ffffff;fill-opacity:1;fill-rule:nonzero;stroke:none"
       transform="matrix(0.35277776,0,0,-0.35277776,120.1674,104.1573)"
       clip-path="url(#clipPath7483)" />
  </g>
</svg>
