<?xml version="1.0" encoding="UTF-8" standalone="no"?>
<!-- Created with Inkscape (http://www.inkscape.org/) -->

<svg
   width="12.263966mm"
   height="12.263966mm"
   viewBox="0 0 12.263966 12.263965"
   version="1.1"
   id="svg1"
   inkscape:version="1.4 (e7c3feb100, 2024-10-09)"
   sodipodi:docname="Migration*.svg"
   xmlns:inkscape="http://www.inkscape.org/namespaces/inkscape"
   xmlns:sodipodi="http://sodipodi.sourceforge.net/DTD/sodipodi-0.dtd"
   xmlns="http://www.w3.org/2000/svg"
   xmlns:svg="http://www.w3.org/2000/svg">
  <sodipodi:namedview
     id="namedview1"
     pagecolor="#ffffff"
     bordercolor="#000000"
     borderopacity="0.25"
     inkscape:showpageshadow="2"
     inkscape:pageopacity="0.0"
     inkscape:pagecheckerboard="0"
     inkscape:deskcolor="#d1d1d1"
     inkscape:document-units="mm"
     inkscape:zoom="9.595066"
     inkscape:cx="25.950838"
     inkscape:cy="7.6080769"
     inkscape:window-width="1920"
     inkscape:window-height="1163"
     inkscape:window-x="0"
     inkscape:window-y="0"
     inkscape:window-maximized="1"
     inkscape:current-layer="layer1" />
  <defs
     id="defs1">
    <clipPath
       clipPathUnits="userSpaceOnUse"
       id="clipPath6174">
      <path
         d="M 15,15 H 610.275 V 610.275 H 15 Z"
         transform="translate(-91.878002,-478.87781)"
         id="path6174" />
    </clipPath>
    <clipPath
       clipPathUnits="userSpaceOnUse"
       id="clipPath6176">
      <path
         d="m 75.011,495.744 c 0,-9.315 7.551,-16.867 16.867,-16.867 v 0 c 5.517,0 10.415,2.65 13.492,6.745 v 0 20.245 c -3.077,4.094 -7.975,6.743 -13.492,6.743 v 0 c -9.316,0 -16.867,-7.551 -16.867,-16.866"
         transform="matrix(1.9396922,0,0,1.9343374,-194.95536,-961.74281)"
         id="path6176" />
    </clipPath>
    <clipPath
       clipPathUnits="userSpaceOnUse"
       id="clipPath6178">
      <path
         d="m 75.011,495.744 c 0,-9.315 7.551,-16.867 16.867,-16.867 v 0 c 5.517,0 10.415,2.65 13.492,6.745 v 0 20.245 c -3.077,4.094 -7.975,6.743 -13.492,6.743 v 0 c -9.316,0 -16.867,-7.551 -16.867,-16.866"
         transform="matrix(1.9396922,0,0,1.9343374,-128.06086,-961.74281)"
         id="path6178" />
    </clipPath>
    <clipPath
       clipPathUnits="userSpaceOnUse"
       id="clipPath6180">
      <path
         d="m 75.011,495.744 c 0,-9.315 7.551,-16.867 16.867,-16.867 v 0 c 5.517,0 10.415,2.65 13.492,6.745 v 0 20.245 c -3.077,4.094 -7.975,6.743 -13.492,6.743 v 0 c -9.316,0 -16.867,-7.551 -16.867,-16.866"
         transform="matrix(1.9396922,0,0,1.9343374,-172.91445,-966.6412)"
         id="path6180" />
    </clipPath>
    <clipPath
       clipPathUnits="userSpaceOnUse"
       id="clipPath6182">
      <path
         d="M 15,15 H 610.275 V 610.275 H 15 Z"
         transform="translate(-91.878002,-478.87781)"
         id="path6182" />
    </clipPath>
    <clipPath
       clipPathUnits="userSpaceOnUse"
       id="clipPath7758">
      <path
         d="M 15,15 H 610.275 V 610.275 H 15 Z"
         transform="translate(-338.55351,-479.36571)"
         id="path7758" />
    </clipPath>
    <clipPath
       clipPathUnits="userSpaceOnUse"
       id="clipPath7760">
      <path
         d="m 321.687,496.232 c 0,-9.315 7.551,-16.867 16.867,-16.867 v 0 c 9.315,0 16.866,7.552 16.866,16.867 v 0 c 0,9.315 -7.551,16.866 -16.866,16.866 v 0 c -9.316,0 -16.867,-7.551 -16.867,-16.866"
         transform="translate(-340.95493,-488.49001)"
         id="path7760" />
    </clipPath>
    <clipPath
       clipPathUnits="userSpaceOnUse"
       id="clipPath7762">
      <path
         d="m 321.687,496.232 c 0,-9.315 7.551,-16.867 16.867,-16.867 v 0 c 9.315,0 16.866,7.552 16.866,16.867 v 0 c 0,9.315 -7.551,16.866 -16.866,16.866 v 0 c -9.316,0 -16.867,-7.551 -16.867,-16.866"
         transform="translate(-341.07628,-492.79581)"
         id="path7762" />
    </clipPath>
    <clipPath
       clipPathUnits="userSpaceOnUse"
       id="clipPath7764">
      <path
         d="m 321.687,496.232 c 0,-9.315 7.551,-16.867 16.867,-16.867 v 0 c 9.315,0 16.866,7.552 16.866,16.867 v 0 c 0,9.315 -7.551,16.866 -16.866,16.866 v 0 c -9.316,0 -16.867,-7.551 -16.867,-16.866"
         transform="translate(-340.87011,-500.89371)"
         id="path7764" />
    </clipPath>
    <clipPath
       clipPathUnits="userSpaceOnUse"
       id="clipPath7766">
      <path
         d="m 321.687,496.232 c 0,-9.315 7.551,-16.867 16.867,-16.867 v 0 c 9.315,0 16.866,7.552 16.866,16.867 v 0 c 0,9.315 -7.551,16.866 -16.866,16.866 v 0 c -9.316,0 -16.867,-7.551 -16.867,-16.866"
         transform="translate(-340.87011,-508.99172)"
         id="path7766" />
    </clipPath>
    <clipPath
       clipPathUnits="userSpaceOnUse"
       id="clipPath7768">
      <path
         d="m 321.687,496.232 c 0,-9.315 7.551,-16.867 16.867,-16.867 v 0 c 9.315,0 16.866,7.552 16.866,16.867 v 0 c 0,9.315 -7.551,16.866 -16.866,16.866 v 0 c -9.316,0 -16.867,-7.551 -16.867,-16.866"
         transform="translate(-340.80298,-503.62631)"
         id="path7768" />
    </clipPath>
    <clipPath
       clipPathUnits="userSpaceOnUse"
       id="clipPath7770">
      <path
         d="m 321.687,496.232 c 0,-9.315 7.551,-16.867 16.867,-16.867 v 0 c 9.315,0 16.866,7.552 16.866,16.867 v 0 c 0,9.315 -7.551,16.866 -16.866,16.866 v 0 c -9.316,0 -16.867,-7.551 -16.867,-16.866"
         transform="translate(-338.52628,-494.36681)"
         id="path7770" />
    </clipPath>
    <clipPath
       clipPathUnits="userSpaceOnUse"
       id="clipPath7772">
      <path
         d="m 321.687,496.232 c 0,-9.315 7.551,-16.867 16.867,-16.867 v 0 c 9.315,0 16.866,7.552 16.866,16.867 v 0 c 0,9.315 -7.551,16.866 -16.866,16.866 v 0 c -9.316,0 -16.867,-7.551 -16.867,-16.866"
         transform="translate(-338.52643,-499.84621)"
         id="path7772" />
    </clipPath>
    <clipPath
       clipPathUnits="userSpaceOnUse"
       id="clipPath7774">
      <path
         d="m 321.687,496.232 c 0,-9.315 7.551,-16.867 16.867,-16.867 v 0 c 9.315,0 16.866,7.552 16.866,16.867 v 0 c 0,9.315 -7.551,16.866 -16.866,16.866 v 0 c -9.316,0 -16.867,-7.551 -16.867,-16.866"
         transform="translate(-337.67308,-497.10031)"
         id="path7774" />
    </clipPath>
    <clipPath
       clipPathUnits="userSpaceOnUse"
       id="clipPath7776">
      <path
         d="m 321.687,496.232 c 0,-9.315 7.551,-16.867 16.867,-16.867 v 0 c 9.315,0 16.866,7.552 16.866,16.867 v 0 c 0,9.315 -7.551,16.866 -16.866,16.866 v 0 c -9.316,0 -16.867,-7.551 -16.867,-16.866"
         transform="translate(-328.62561,-491.65041)"
         id="path7776" />
    </clipPath>
    <clipPath
       clipPathUnits="userSpaceOnUse"
       id="clipPath7778">
      <path
         d="m 321.687,496.232 c 0,-9.315 7.551,-16.867 16.867,-16.867 v 0 c 9.315,0 16.866,7.552 16.866,16.867 v 0 c 0,9.315 -7.551,16.866 -16.866,16.866 v 0 c -9.316,0 -16.867,-7.551 -16.867,-16.866"
         transform="translate(-334.37781,-495.36951)"
         id="path7778" />
    </clipPath>
    <clipPath
       clipPathUnits="userSpaceOnUse"
       id="clipPath7780">
      <path
         d="m 321.687,496.232 c 0,-9.315 7.551,-16.867 16.867,-16.867 v 0 c 9.315,0 16.866,7.552 16.866,16.867 v 0 c 0,9.315 -7.551,16.866 -16.866,16.866 v 0 c -9.316,0 -16.867,-7.551 -16.867,-16.866"
         transform="translate(-331.12371,-491.05141)"
         id="path7780" />
    </clipPath>
    <clipPath
       clipPathUnits="userSpaceOnUse"
       id="clipPath7782">
      <path
         d="M 15,15 H 610.275 V 610.275 H 15 Z"
         transform="translate(-338.55351,-479.36571)"
         id="path7782" />
    </clipPath>
    <clipPath
       clipPathUnits="userSpaceOnUse"
       id="clipPath6897">
      <path
         d="M 15,15 H 610.275 V 610.275 H 15 Z"
         transform="translate(-338.77383,-479.72631)"
         id="path6897" />
    </clipPath>
    <clipPath
       clipPathUnits="userSpaceOnUse"
       id="clipPath6899">
      <path
         d="m 328.578,510.03 c -1.538,-1.169 -2.87,-2.597 -3.93,-4.218 v 0 -18.439 c 1.524,-2.33 3.61,-4.261 6.065,-5.599 v 0 h 16.121 c 2.458,1.339 4.545,3.272 6.07,5.607 v 0 18.424 c -1.061,1.624 -2.394,3.054 -3.935,4.225 v 0 z"
         transform="translate(-330.78228,-492.63981)"
         id="path6899" />
    </clipPath>
    <clipPath
       clipPathUnits="userSpaceOnUse"
       id="clipPath6901">
      <path
         d="m 328.578,510.03 c -1.538,-1.169 -2.87,-2.597 -3.93,-4.218 v 0 -18.439 c 1.524,-2.33 3.61,-4.261 6.065,-5.599 v 0 h 16.121 c 2.458,1.339 4.545,3.272 6.07,5.607 v 0 18.424 c -1.061,1.624 -2.394,3.054 -3.935,4.225 v 0 z"
         transform="translate(-346.70673,-492.26021)"
         id="path6901" />
    </clipPath>
    <clipPath
       clipPathUnits="userSpaceOnUse"
       id="clipPath6903">
      <path
         d="m 328.578,510.03 c -1.538,-1.169 -2.87,-2.597 -3.93,-4.218 v 0 -18.439 c 1.524,-2.33 3.61,-4.261 6.065,-5.599 v 0 h 16.121 c 2.458,1.339 4.545,3.272 6.07,5.607 v 0 18.424 c -1.061,1.624 -2.394,3.054 -3.935,4.225 v 0 z"
         transform="translate(-338.50991,-486.42611)"
         id="path6903" />
    </clipPath>
    <clipPath
       clipPathUnits="userSpaceOnUse"
       id="clipPath6905">
      <path
         d="m 328.578,510.03 c -1.538,-1.169 -2.87,-2.597 -3.93,-4.218 v 0 -18.439 c 1.524,-2.33 3.61,-4.261 6.065,-5.599 v 0 h 16.121 c 2.458,1.339 4.545,3.272 6.07,5.607 v 0 18.424 c -1.061,1.624 -2.394,3.054 -3.935,4.225 v 0 z"
         transform="translate(-346.70673,-493.61351)"
         id="path6905" />
    </clipPath>
    <clipPath
       clipPathUnits="userSpaceOnUse"
       id="clipPath6907">
      <path
         d="m 328.578,510.03 c -1.538,-1.169 -2.87,-2.597 -3.93,-4.218 v 0 -18.439 c 1.524,-2.33 3.61,-4.261 6.065,-5.599 v 0 h 16.121 c 2.458,1.339 4.545,3.272 6.07,5.607 v 0 18.424 c -1.061,1.624 -2.394,3.054 -3.935,4.225 v 0 z"
         transform="translate(-346.52171,-489.46621)"
         id="path6907" />
    </clipPath>
    <clipPath
       clipPathUnits="userSpaceOnUse"
       id="clipPath6909">
      <path
         d="m 328.578,510.03 c -1.538,-1.169 -2.87,-2.597 -3.93,-4.218 v 0 -18.439 c 1.524,-2.33 3.61,-4.261 6.065,-5.599 v 0 h 16.121 c 2.458,1.339 4.545,3.272 6.07,5.607 v 0 18.424 c -1.061,1.624 -2.394,3.054 -3.935,4.225 v 0 z"
         transform="translate(-346.78578,-501.59192)"
         id="path6909" />
    </clipPath>
    <clipPath
       clipPathUnits="userSpaceOnUse"
       id="clipPath6911">
      <path
         d="m 328.578,510.03 c -1.538,-1.169 -2.87,-2.597 -3.93,-4.218 v 0 -18.439 c 1.524,-2.33 3.61,-4.261 6.065,-5.599 v 0 h 16.121 c 2.458,1.339 4.545,3.272 6.07,5.607 v 0 18.424 c -1.061,1.624 -2.394,3.054 -3.935,4.225 v 0 z"
         transform="translate(-338.98601,-507.75632)"
         id="path6911" />
    </clipPath>
    <clipPath
       clipPathUnits="userSpaceOnUse"
       id="clipPath6913">
      <path
         d="M 15,15 H 610.275 V 610.275 H 15 Z"
         transform="translate(-338.77383,-479.72631)"
         id="path6913" />
    </clipPath>
    <clipPath
       clipPathUnits="userSpaceOnUse"
       id="clipPath8089">
      <path
         d="M 15,15 H 610.275 V 610.275 H 15 Z"
         transform="translate(-92.159627,-467.43521)"
         id="path8089" />
    </clipPath>
    <clipPath
       clipPathUnits="userSpaceOnUse"
       id="clipPath8091">
      <path
         d="m 75.293,484.302 c 0,-9.315 7.551,-16.866 16.866,-16.866 v 0 c 9.316,0 16.867,7.551 16.867,16.866 v 0 c 0,9.315 -7.551,16.866 -16.867,16.866 v 0 c -9.315,0 -16.866,-7.551 -16.866,-16.866"
         transform="matrix(2.8009329,0,0,2.8119611,-249.79084,-1348.3765)"
         id="path8091" />
    </clipPath>
    <clipPath
       clipPathUnits="userSpaceOnUse"
       id="clipPath8093">
      <path
         d="m 75.293,484.302 c 0,-9.315 7.551,-16.866 16.866,-16.866 v 0 c 9.316,0 16.867,7.551 16.867,16.866 v 0 c 0,9.315 -7.551,16.866 -16.867,16.866 v 0 c -9.315,0 -16.866,-7.551 -16.866,-16.866"
         transform="matrix(2.8009329,0,0,2.8119611,-266.8397,-1358.3071)"
         id="path8093" />
    </clipPath>
    <clipPath
       clipPathUnits="userSpaceOnUse"
       id="clipPath8095">
      <path
         d="m 75.293,484.302 c 0,-9.315 7.551,-16.866 16.866,-16.866 v 0 c 9.316,0 16.867,7.551 16.867,16.866 v 0 c 0,9.315 -7.551,16.866 -16.867,16.866 v 0 c -9.315,0 -16.866,-7.551 -16.866,-16.866"
         transform="matrix(2.8009329,0,0,2.8119611,-266.8397,-1377.7983)"
         id="path8095" />
    </clipPath>
    <clipPath
       clipPathUnits="userSpaceOnUse"
       id="clipPath8097">
      <path
         d="m 75.293,484.302 c 0,-9.315 7.551,-16.866 16.866,-16.866 v 0 c 9.316,0 16.867,7.551 16.867,16.866 v 0 c 0,9.315 -7.551,16.866 -16.867,16.866 v 0 c -9.315,0 -16.866,-7.551 -16.866,-16.866"
         transform="matrix(2.8009329,0,0,2.8119611,-283.82175,-1387.697)"
         id="path8097" />
    </clipPath>
    <clipPath
       clipPathUnits="userSpaceOnUse"
       id="clipPath8099">
      <path
         d="m 82.428,498.079 c -1.713,-1.212 -3.189,-2.735 -4.348,-4.487 v 0 -18.581 c 2.371,-3.585 6.075,-6.212 10.405,-7.174 v 0 h 7.349 c 6.114,1.359 10.98,6.036 12.607,12.045 v 0 8.839 c -1.038,3.833 -3.393,7.124 -6.55,9.358 v 0 z"
         transform="matrix(2.8009329,0,0,2.8119611,-283.84633,-1377.8311)"
         id="path8099" />
    </clipPath>
    <clipPath
       clipPathUnits="userSpaceOnUse"
       id="clipPath8101">
      <path
         d="m 82.428,498.079 c -1.713,-1.212 -3.189,-2.735 -4.348,-4.487 v 0 -18.581 c 2.371,-3.585 6.075,-6.212 10.405,-7.174 v 0 h 7.349 c 6.114,1.359 10.98,6.036 12.607,12.045 v 0 8.839 c -1.038,3.833 -3.393,7.124 -6.55,9.358 v 0 z"
         transform="matrix(2.8009329,0,0,2.8119611,-230.85387,-1349.4082)"
         id="path8101" />
    </clipPath>
    <clipPath
       clipPathUnits="userSpaceOnUse"
       id="clipPath8103">
      <path
         d="m 82.428,498.079 c -1.713,-1.212 -3.189,-2.735 -4.348,-4.487 v 0 -18.581 c 2.371,-3.585 6.075,-6.212 10.405,-7.174 v 0 h 7.349 c 6.114,1.359 10.98,6.036 12.607,12.045 v 0 8.839 c -1.038,3.833 -3.393,7.124 -6.55,9.358 v 0 z"
         transform="matrix(2.8009329,0,0,2.8119611,-250.85568,-1383.5494)"
         id="path8103" />
    </clipPath>
    <clipPath
       clipPathUnits="userSpaceOnUse"
       id="clipPath8105">
      <path
         d="M 15,15 H 610.275 V 610.275 H 15 Z"
         transform="translate(-92.159627,-467.43521)"
         id="path8105" />
    </clipPath>
  </defs>
  <g
     inkscape:label="Calque 1"
     inkscape:groupmode="layer"
     id="layer1"
     transform="translate(-102.92292,-88.370837)">
    <path
       id="path8088"
       d="m 0,0 c 9.315,0 16.866,7.551 16.866,16.866 0,9.315 -7.551,16.867 -16.866,16.867 -9.315,0 -16.866,-7.552 -16.866,-16.867 C -16.866,7.551 -9.315,0 0,0"
       style="fill:#586374;fill-opacity:1;fill-rule:nonzero;stroke:none"
       transform="matrix(0.35277776,0,0,-0.35277776,109.0549,100.45277)"
       clip-path="url(#clipPath8089)" />
    <path
       id="path8090"
       d="m 0,0 h -11.392 l -5.696,-9.866 5.696,-9.866 H 0 l 5.696,9.866 z"
       style="fill:none;stroke:#ffffff;stroke-width:1.6;stroke-linecap:butt;stroke-linejoin:miter;stroke-miterlimit:10;stroke-dasharray:none;stroke-opacity:1"
       transform="matrix(0.1259501,0,0,-0.12545614,108.00421,96.191409)"
       clip-path="url(#clipPath8091)" />
    <path
       id="path8092"
       d="m 0,0 h -11.392 l -5.696,-9.866 5.696,-9.866 H 0 l 5.696,9.866 z"
       style="fill:none;stroke:#ffffff;stroke-width:1.6;stroke-linecap:butt;stroke-linejoin:miter;stroke-miterlimit:10;stroke-dasharray:none;stroke-opacity:1"
       transform="matrix(0.1259501,0,0,-0.12545614,110.15152,94.945555)"
       clip-path="url(#clipPath8093)" />
    <path
       id="path8094"
       d="m 0,0 h -11.392 l -5.696,-9.866 5.696,-9.866 H 0 l 5.696,9.866 z"
       style="fill:none;stroke:#ffffff;stroke-width:1.6;stroke-linecap:butt;stroke-linejoin:miter;stroke-miterlimit:10;stroke-dasharray:none;stroke-opacity:1"
       transform="matrix(0.1259501,0,0,-0.12545614,110.15152,92.500263)"
       clip-path="url(#clipPath8095)" />
    <path
       id="path8096"
       d="m 0,0 h -11.392 l -5.696,-9.866 5.696,-9.866 H 0 l 5.696,9.866 z"
       style="fill:none;stroke:#ffffff;stroke-width:1.6;stroke-linecap:butt;stroke-linejoin:miter;stroke-miterlimit:10;stroke-dasharray:none;stroke-opacity:1"
       transform="matrix(0.1259501,0,0,-0.12545614,112.29041,91.258412)"
       clip-path="url(#clipPath8097)" />
    <path
       id="path8098"
       d="m 0,0 c 0,-3.159 -2.561,-5.721 -5.721,-5.721 -3.159,0 -5.72,2.562 -5.72,5.721 0,3.159 2.561,5.721 5.72,5.721 C -2.561,5.721 0,3.159 0,0"
       style="fill:#ffffff;fill-opacity:1;fill-rule:nonzero;stroke:#ffffff;stroke-width:1;stroke-linecap:butt;stroke-linejoin:miter;stroke-miterlimit:10;stroke-dasharray:2.991, 1.495;stroke-dashoffset:0;stroke-opacity:1"
       transform="matrix(0.1259501,0,0,-0.12545614,112.2935,92.496149)"
       clip-path="url(#clipPath8099)" />
    <path
       id="path8100"
       d="m 0,0 c -1.167,3.165 -1.805,6.587 -1.805,10.158 0,15.066 12.65,29.598 27.45,31.58"
       style="fill:none;stroke:#fdda04;stroke-width:5.361;stroke-linecap:butt;stroke-linejoin:miter;stroke-miterlimit:10;stroke-dasharray:none;stroke-opacity:1"
       transform="matrix(0.1259501,0,0,-0.12545614,105.6191,96.061975)"
       clip-path="url(#clipPath8101)" />
    <path
       id="path8102"
       d="M 0,0 15.878,2.24 6.001,14.872 Z"
       style="fill:#fdda04;fill-opacity:1;fill-rule:nonzero;stroke:none"
       transform="matrix(0.1259501,0,0,-0.12545614,108.13833,91.778752)"
       clip-path="url(#clipPath8103)" />
    <path
       id="path8104"
       d="m 0,0 v -0.516 c 9.6,0.001 17.382,7.782 17.382,17.382 0,9.6 -7.782,17.382 -17.382,17.382 -9.6,0 -17.382,-7.782 -17.382,-17.382 0,-9.6 7.782,-17.381 17.382,-17.382 V 0 0.516 c -4.517,0 -8.601,1.829 -11.562,4.789 -2.959,2.96 -4.788,7.045 -4.789,11.561 10e-4,4.517 1.83,8.602 4.789,11.562 2.961,2.96 7.045,4.789 11.562,4.789 4.517,0 8.601,-1.829 11.562,-4.789 2.959,-2.96 4.788,-7.045 4.789,-11.562 C 16.35,12.35 14.521,8.265 11.562,5.305 8.601,2.345 4.517,0.516 0,0.516 Z"
       style="fill:#ffffff;fill-opacity:1;fill-rule:nonzero;stroke:none"
       transform="matrix(0.35277776,0,0,-0.35277776,109.0549,100.45277)"
       clip-path="url(#clipPath8105)" />
  </g>
</svg>
