<?xml version="1.0" encoding="UTF-8" standalone="no"?>
<!-- Created with Inkscape (http://www.inkscape.org/) -->

<svg
   width="8.9931984mm"
   height="5.7241721mm"
   viewBox="0 0 8.9931982 5.724172"
   version="1.1"
   id="svg1"
   inkscape:version="1.4 (e7c3feb100, 2024-10-09)"
   sodipodi:docname="PredatorReaction.svg"
   xmlns:inkscape="http://www.inkscape.org/namespaces/inkscape"
   xmlns:sodipodi="http://sodipodi.sourceforge.net/DTD/sodipodi-0.dtd"
   xmlns="http://www.w3.org/2000/svg"
   xmlns:svg="http://www.w3.org/2000/svg">
  <sodipodi:namedview
     id="namedview1"
     pagecolor="#ffffff"
     bordercolor="#000000"
     borderopacity="0.25"
     inkscape:showpageshadow="2"
     inkscape:pageopacity="0.0"
     inkscape:pagecheckerboard="0"
     inkscape:deskcolor="#d1d1d1"
     inkscape:document-units="mm"
     inkscape:zoom="13.569472"
     inkscape:cx="16.581337"
     inkscape:cy="10.612056"
     inkscape:window-width="1920"
     inkscape:window-height="1163"
     inkscape:window-x="0"
     inkscape:window-y="0"
     inkscape:window-maximized="1"
     inkscape:current-layer="layer1" />
  <defs
     id="defs1">
    <clipPath
       clipPathUnits="userSpaceOnUse"
       id="clipPath9596">
      <path
         d="M 15,15 H 610.275 V 610.275 H 15 Z"
         transform="translate(-95.095952,-214.25201)"
         id="path9596" />
    </clipPath>
    <clipPath
       clipPathUnits="userSpaceOnUse"
       id="clipPath9598">
      <path
         d="M 15,15 H 610.275 V 610.275 H 15 Z"
         transform="translate(-95.095952,-214.25201)"
         id="path9598" />
    </clipPath>
    <clipPath
       clipPathUnits="userSpaceOnUse"
       id="clipPath9600">
      <path
         d="M 15,15 H 610.275 V 610.275 H 15 Z"
         transform="translate(-80.891702,-206.30531)"
         id="path9600" />
    </clipPath>
    <clipPath
       clipPathUnits="userSpaceOnUse"
       id="clipPath9602">
      <path
         d="M 15,15 H 610.275 V 610.275 H 15 Z"
         transform="translate(-95.036702,-205.96811)"
         id="path9602" />
    </clipPath>
    <clipPath
       clipPathUnits="userSpaceOnUse"
       id="clipPath9604">
      <path
         d="M 15,15 H 610.275 V 610.275 H 15 Z"
         transform="translate(-87.755702,-200.7857)"
         id="path9604" />
    </clipPath>
    <clipPath
       clipPathUnits="userSpaceOnUse"
       id="clipPath9606">
      <path
         d="M 15,15 H 610.275 V 610.275 H 15 Z"
         transform="translate(-95.036702,-207.17021)"
         id="path9606" />
    </clipPath>
    <clipPath
       clipPathUnits="userSpaceOnUse"
       id="clipPath9608">
      <path
         d="M 15,15 H 610.275 V 610.275 H 15 Z"
         transform="translate(-94.872452,-203.48621)"
         id="path9608" />
    </clipPath>
    <clipPath
       clipPathUnits="userSpaceOnUse"
       id="clipPath9610">
      <path
         d="M 15,15 H 610.275 V 610.275 H 15 Z"
         transform="translate(-95.107202,-214.25741)"
         id="path9610" />
    </clipPath>
    <clipPath
       clipPathUnits="userSpaceOnUse"
       id="clipPath9612">
      <path
         d="M 15,15 H 610.275 V 610.275 H 15 Z"
         transform="translate(-88.178702,-219.73321)"
         id="path9612" />
    </clipPath>
    <clipPath
       clipPathUnits="userSpaceOnUse"
       id="clipPath9615">
      <path
         d="M 15,15 H 610.275 V 610.275 H 15 Z"
         transform="translate(-87.991952,-159.8042)"
         id="path9615" />
    </clipPath>
    <clipPath
       clipPathUnits="userSpaceOnUse"
       id="clipPath9617">
      <path
         d="m 77.15,170.328 c 0,-5.988 4.854,-10.843 10.842,-10.843 v 0 c 5.989,0 10.842,4.855 10.842,10.843 v 0 c 0,5.988 -4.853,10.842 -10.842,10.842 v 0 c -5.988,0 -10.842,-4.854 -10.842,-10.842"
         transform="translate(-75.688202,-163.8589)"
         id="path9617" />
    </clipPath>
    <clipPath
       clipPathUnits="userSpaceOnUse"
       id="clipPath9619">
      <path
         d="M 15,15 H 610.275 V 610.275 H 15 Z"
         transform="translate(-87.991952,-159.8042)"
         id="path9619" />
    </clipPath>
    <clipPath
       clipPathUnits="userSpaceOnUse"
       id="clipPath9624">
      <path
         d="M 15,15 H 610.275 V 610.275 H 15 Z"
         transform="translate(-339.37021,-513.57122)"
         id="path9624" />
    </clipPath>
    <clipPath
       clipPathUnits="userSpaceOnUse"
       id="clipPath9626">
      <path
         d="M 15,15 H 610.275 V 610.275 H 15 Z"
         transform="translate(-339.37021,-513.57122)"
         id="path9626" />
    </clipPath>
    <clipPath
       clipPathUnits="userSpaceOnUse"
       id="clipPath9629">
      <path
         d="M 15,15 H 610.275 V 610.275 H 15 Z"
         transform="translate(-347.53171,-521.26801)"
         id="path9629" />
    </clipPath>
    <clipPath
       clipPathUnits="userSpaceOnUse"
       id="clipPath9631">
      <path
         d="M 15,15 H 610.275 V 610.275 H 15 Z"
         transform="translate(-347.53171,-521.26801)"
         id="path9631" />
    </clipPath>
    <clipPath
       clipPathUnits="userSpaceOnUse"
       id="clipPath9633">
      <path
         d="M 15,15 H 610.275 V 610.275 H 15 Z"
         transform="translate(-347.27671,-521.01512)"
         id="path9633" />
    </clipPath>
    <clipPath
       clipPathUnits="userSpaceOnUse"
       id="clipPath9635">
      <path
         d="M 15,15 H 610.275 V 610.275 H 15 Z"
         transform="translate(-347.27671,-521.01512)"
         id="path9635" />
    </clipPath>
    <clipPath
       clipPathUnits="userSpaceOnUse"
       id="clipPath9637">
      <path
         d="M 15,15 H 610.275 V 610.275 H 15 Z"
         transform="translate(-352.45321,-519.96291)"
         id="path9637" />
    </clipPath>
    <clipPath
       clipPathUnits="userSpaceOnUse"
       id="clipPath9639">
      <path
         d="M 15,15 H 610.275 V 610.275 H 15 Z"
         transform="translate(-352.45321,-519.96291)"
         id="path9639" />
    </clipPath>
    <clipPath
       clipPathUnits="userSpaceOnUse"
       id="clipPath9641">
      <path
         d="M 15,15 H 610.275 V 610.275 H 15 Z"
         transform="translate(-347.46796,-520.96091)"
         id="path9641" />
    </clipPath>
    <clipPath
       clipPathUnits="userSpaceOnUse"
       id="clipPath9643">
      <path
         d="M 15,15 H 610.275 V 610.275 H 15 Z"
         transform="translate(-347.23471,-521.32171)"
         id="path9643" />
    </clipPath>
    <clipPath
       clipPathUnits="userSpaceOnUse"
       id="clipPath9645">
      <path
         d="M 15,15 H 610.275 V 610.275 H 15 Z"
         transform="translate(-352.47721,-519.65642)"
         id="path9645" />
    </clipPath>
    <clipPath
       clipPathUnits="userSpaceOnUse"
       id="clipPath9647">
      <path
         d="M 15,15 H 610.275 V 610.275 H 15 Z"
         transform="translate(-350.42971,-517.59161)"
         id="path9647" />
    </clipPath>
    <clipPath
       clipPathUnits="userSpaceOnUse"
       id="clipPath9649">
      <path
         d="M 15,15 H 610.275 V 610.275 H 15 Z"
         transform="translate(-350.42971,-517.59161)"
         id="path9649" />
    </clipPath>
    <clipPath
       clipPathUnits="userSpaceOnUse"
       id="clipPath9651">
      <path
         d="M 15,15 H 610.275 V 610.275 H 15 Z"
         transform="translate(-336.18421,-515.88602)"
         id="path9651" />
    </clipPath>
    <clipPath
       clipPathUnits="userSpaceOnUse"
       id="clipPath9653">
      <path
         d="M 15,15 H 610.275 V 610.275 H 15 Z"
         transform="translate(-336.18421,-515.88602)"
         id="path9653" />
    </clipPath>
    <clipPath
       clipPathUnits="userSpaceOnUse"
       id="clipPath9655">
      <path
         d="M 15,15 H 610.275 V 610.275 H 15 Z"
         transform="translate(-335.90371,-510.33591)"
         id="path9655" />
    </clipPath>
    <clipPath
       clipPathUnits="userSpaceOnUse"
       id="clipPath9657">
      <path
         d="M 15,15 H 610.275 V 610.275 H 15 Z"
         transform="translate(-328.42321,-510.33591)"
         id="path9657" />
    </clipPath>
    <clipPath
       clipPathUnits="userSpaceOnUse"
       id="clipPath9659">
      <path
         d="M 15,15 H 610.275 V 610.275 H 15 Z"
         transform="translate(-332.15821,-517.78281)"
         id="path9659" />
    </clipPath>
    <clipPath
       clipPathUnits="userSpaceOnUse"
       id="clipPath9701">
      <path
         d="M 15,15 H 610.275 V 610.275 H 15 Z"
         transform="translate(-357.27196,-468.94621)"
         id="path9701" />
    </clipPath>
    <clipPath
       clipPathUnits="userSpaceOnUse"
       id="clipPath9703">
      <path
         d="M 15,15 H 610.275 V 610.275 H 15 Z"
         transform="translate(-357.27196,-468.94621)"
         id="path9703" />
    </clipPath>
    <clipPath
       clipPathUnits="userSpaceOnUse"
       id="clipPath9706">
      <path
         d="M 15,15 H 610.275 V 610.275 H 15 Z"
         transform="translate(-330.89521,-475.46411)"
         id="path9706" />
    </clipPath>
    <clipPath
       clipPathUnits="userSpaceOnUse"
       id="clipPath9708">
      <path
         d="M 15,15 H 610.275 V 610.275 H 15 Z"
         transform="translate(-330.89521,-475.46411)"
         id="path9708" />
    </clipPath>
    <clipPath
       clipPathUnits="userSpaceOnUse"
       id="clipPath9710">
      <path
         d="M 15,15 H 610.275 V 610.275 H 15 Z"
         transform="translate(-330.63796,-475.20981)"
         id="path9710" />
    </clipPath>
    <clipPath
       clipPathUnits="userSpaceOnUse"
       id="clipPath9712">
      <path
         d="M 15,15 H 610.275 V 610.275 H 15 Z"
         transform="translate(-330.63796,-475.20981)"
         id="path9712" />
    </clipPath>
    <clipPath
       clipPathUnits="userSpaceOnUse"
       id="clipPath9714">
      <path
         d="M 15,15 H 610.275 V 610.275 H 15 Z"
         transform="translate(-335.84521,-474.15131)"
         id="path9714" />
    </clipPath>
    <clipPath
       clipPathUnits="userSpaceOnUse"
       id="clipPath9716">
      <path
         d="M 15,15 H 610.275 V 610.275 H 15 Z"
         transform="translate(-335.84521,-474.15131)"
         id="path9716" />
    </clipPath>
    <clipPath
       clipPathUnits="userSpaceOnUse"
       id="clipPath9718">
      <path
         d="M 15,15 H 610.275 V 610.275 H 15 Z"
         transform="translate(-330.83071,-475.15521)"
         id="path9718" />
    </clipPath>
    <clipPath
       clipPathUnits="userSpaceOnUse"
       id="clipPath9720">
      <path
         d="M 15,15 H 610.275 V 610.275 H 15 Z"
         transform="translate(-330.59596,-475.51821)"
         id="path9720" />
    </clipPath>
    <clipPath
       clipPathUnits="userSpaceOnUse"
       id="clipPath9722">
      <path
         d="M 15,15 H 610.275 V 610.275 H 15 Z"
         transform="translate(-335.86921,-473.84301)"
         id="path9722" />
    </clipPath>
    <clipPath
       clipPathUnits="userSpaceOnUse"
       id="clipPath9724">
      <path
         d="M 15,15 H 610.275 V 610.275 H 15 Z"
         transform="translate(-351.80521,-471.76611)"
         id="path9724" />
    </clipPath>
    <clipPath
       clipPathUnits="userSpaceOnUse"
       id="clipPath9726">
      <path
         d="M 15,15 H 610.275 V 610.275 H 15 Z"
         transform="translate(-351.80521,-471.76611)"
         id="path9726" />
    </clipPath>
    <clipPath
       clipPathUnits="userSpaceOnUse"
       id="clipPath9728">
      <path
         d="M 15,15 H 610.275 V 610.275 H 15 Z"
         transform="translate(-337.47571,-470.05051)"
         id="path9728" />
    </clipPath>
    <clipPath
       clipPathUnits="userSpaceOnUse"
       id="clipPath9730">
      <path
         d="M 15,15 H 610.275 V 610.275 H 15 Z"
         transform="translate(-337.47571,-470.05051)"
         id="path9730" />
    </clipPath>
    <clipPath
       clipPathUnits="userSpaceOnUse"
       id="clipPath9732">
      <path
         d="M 15,15 H 610.275 V 610.275 H 15 Z"
         transform="translate(-337.19371,-464.46771)"
         id="path9732" />
    </clipPath>
    <clipPath
       clipPathUnits="userSpaceOnUse"
       id="clipPath9734">
      <path
         d="M 15,15 H 610.275 V 610.275 H 15 Z"
         transform="translate(-329.66896,-464.46771)"
         id="path9734" />
    </clipPath>
    <clipPath
       clipPathUnits="userSpaceOnUse"
       id="clipPath9736">
      <path
         d="M 15,15 H 610.275 V 610.275 H 15 Z"
         transform="translate(-333.42571,-471.95851)"
         id="path9736" />
    </clipPath>
    <clipPath
       clipPathUnits="userSpaceOnUse"
       id="clipPath9797">
      <path
         d="M 15,15 H 610.275 V 610.275 H 15 Z"
         transform="translate(-340.01596,-410.15441)"
         id="path9797" />
    </clipPath>
    <clipPath
       clipPathUnits="userSpaceOnUse"
       id="clipPath9799">
      <path
         d="M 15,15 H 610.275 V 610.275 H 15 Z"
         transform="translate(-340.01596,-410.15441)"
         id="path9799" />
    </clipPath>
    <clipPath
       clipPathUnits="userSpaceOnUse"
       id="clipPath9802">
      <path
         d="M 15,15 H 610.275 V 610.275 H 15 Z"
         transform="translate(-357.38521,-410.15441)"
         id="path9802" />
    </clipPath>
    <clipPath
       clipPathUnits="userSpaceOnUse"
       id="clipPath9804">
      <path
         d="M 15,15 H 610.275 V 610.275 H 15 Z"
         transform="translate(-357.38521,-410.15441)"
         id="path9804" />
    </clipPath>
    <clipPath
       clipPathUnits="userSpaceOnUse"
       id="clipPath9806">
      <path
         d="M 15,15 H 610.275 V 610.275 H 15 Z"
         transform="translate(-351.07546,-414.17471)"
         id="path9806" />
    </clipPath>
    <clipPath
       clipPathUnits="userSpaceOnUse"
       id="clipPath9808">
      <path
         d="M 15,15 H 610.275 V 610.275 H 15 Z"
         transform="translate(-351.07546,-414.17471)"
         id="path9808" />
    </clipPath>
    <clipPath
       clipPathUnits="userSpaceOnUse"
       id="clipPath9810">
      <path
         d="M 15,15 H 610.275 V 610.275 H 15 Z"
         transform="translate(-336.82921,-412.46921)"
         id="path9810" />
    </clipPath>
    <clipPath
       clipPathUnits="userSpaceOnUse"
       id="clipPath9812">
      <path
         d="M 15,15 H 610.275 V 610.275 H 15 Z"
         transform="translate(-336.82921,-412.46921)"
         id="path9812" />
    </clipPath>
    <clipPath
       clipPathUnits="userSpaceOnUse"
       id="clipPath9814">
      <path
         d="M 15,15 H 610.275 V 610.275 H 15 Z"
         transform="translate(-336.54946,-406.91911)"
         id="path9814" />
    </clipPath>
    <clipPath
       clipPathUnits="userSpaceOnUse"
       id="clipPath9816">
      <path
         d="M 15,15 H 610.275 V 610.275 H 15 Z"
         transform="translate(-329.06821,-406.91911)"
         id="path9816" />
    </clipPath>
    <clipPath
       clipPathUnits="userSpaceOnUse"
       id="clipPath9818">
      <path
         d="M 15,15 H 610.275 V 610.275 H 15 Z"
         transform="translate(-332.80321,-414.36601)"
         id="path9818" />
    </clipPath>
    <clipPath
       clipPathUnits="userSpaceOnUse"
       id="clipPath9747">
      <path
         d="M 15,15 H 610.275 V 610.275 H 15 Z"
         transform="translate(-331.98421,-309.86141)"
         id="path9747" />
    </clipPath>
    <clipPath
       clipPathUnits="userSpaceOnUse"
       id="clipPath9749">
      <path
         d="m 327.927,330.443 c -2.653,-1.071 -4.785,-3.162 -5.911,-5.786 v 0 -8.543 c 1.066,-2.486 3.035,-4.493 5.495,-5.609 v 0 h 8.947 c 2.459,1.116 4.429,3.123 5.495,5.609 v 0 8.543 c -1.126,2.624 -3.258,4.715 -5.911,5.786 v 0 z"
         transform="translate(-330.68671,-320.53051)"
         id="path9749" />
    </clipPath>
    <clipPath
       clipPathUnits="userSpaceOnUse"
       id="clipPath9751">
      <path
         d="m 327.927,330.443 c -2.653,-1.071 -4.785,-3.162 -5.911,-5.786 v 0 -8.543 c 1.066,-2.486 3.035,-4.493 5.495,-5.609 v 0 h 8.947 c 2.459,1.116 4.429,3.123 5.495,5.609 v 0 8.543 c -1.126,2.624 -3.258,4.715 -5.911,5.786 v 0 z"
         transform="translate(-334.50646,-322.45901)"
         id="path9751" />
    </clipPath>
    <clipPath
       clipPathUnits="userSpaceOnUse"
       id="clipPath9753">
      <path
         d="m 327.927,330.443 c -2.653,-1.071 -4.785,-3.162 -5.911,-5.786 v 0 -8.543 c 1.066,-2.486 3.035,-4.493 5.495,-5.609 v 0 h 8.947 c 2.459,1.116 4.429,3.123 5.495,5.609 v 0 8.543 c -1.126,2.624 -3.258,4.715 -5.911,5.786 v 0 z"
         transform="translate(-329.56921,-319.06731)"
         id="path9753" />
    </clipPath>
    <clipPath
       clipPathUnits="userSpaceOnUse"
       id="clipPath9755">
      <path
         d="m 327.927,330.443 c -2.653,-1.071 -4.785,-3.162 -5.911,-5.786 v 0 -8.543 c 1.066,-2.486 3.035,-4.493 5.495,-5.609 v 0 h 8.947 c 2.459,1.116 4.429,3.123 5.495,5.609 v 0 8.543 c -1.126,2.624 -3.258,4.715 -5.911,5.786 v 0 z"
         transform="translate(-330.30571,-325.98181)"
         id="path9755" />
    </clipPath>
    <clipPath
       clipPathUnits="userSpaceOnUse"
       id="clipPath9757">
      <path
         d="m 327.927,330.443 c -2.653,-1.071 -4.785,-3.162 -5.911,-5.786 v 0 -8.543 c 1.066,-2.486 3.035,-4.493 5.495,-5.609 v 0 h 8.947 c 2.459,1.116 4.429,3.123 5.495,5.609 v 0 8.543 c -1.126,2.624 -3.258,4.715 -5.911,5.786 v 0 z"
         transform="translate(-330.72871,-324.18411)"
         id="path9757" />
    </clipPath>
    <clipPath
       clipPathUnits="userSpaceOnUse"
       id="clipPath9759">
      <path
         d="m 327.927,330.443 c -2.653,-1.071 -4.785,-3.162 -5.911,-5.786 v 0 -8.543 c 1.066,-2.486 3.035,-4.493 5.495,-5.609 v 0 h 8.947 c 2.459,1.116 4.429,3.123 5.495,5.609 v 0 8.543 c -1.126,2.624 -3.258,4.715 -5.911,5.786 v 0 z"
         transform="translate(-332.81296,-320.70161)"
         id="path9759" />
    </clipPath>
    <clipPath
       clipPathUnits="userSpaceOnUse"
       id="clipPath9761">
      <path
         d="m 327.927,330.443 c -2.653,-1.071 -4.785,-3.162 -5.911,-5.786 v 0 -8.543 c 1.066,-2.486 3.035,-4.493 5.495,-5.609 v 0 h 8.947 c 2.459,1.116 4.429,3.123 5.495,5.609 v 0 8.543 c -1.126,2.624 -3.258,4.715 -5.911,5.786 v 0 z"
         transform="translate(-333.65521,-315.06791)"
         id="path9761" />
    </clipPath>
    <clipPath
       clipPathUnits="userSpaceOnUse"
       id="clipPath9763">
      <path
         d="m 327.927,330.443 c -2.653,-1.071 -4.785,-3.162 -5.911,-5.786 v 0 -8.543 c 1.066,-2.486 3.035,-4.493 5.495,-5.609 v 0 h 8.947 c 2.459,1.116 4.429,3.123 5.495,5.609 v 0 8.543 c -1.126,2.624 -3.258,4.715 -5.911,5.786 v 0 z"
         transform="translate(-337.05571,-323.20811)"
         id="path9763" />
    </clipPath>
    <clipPath
       clipPathUnits="userSpaceOnUse"
       id="clipPath9765">
      <path
         d="m 327.927,330.443 c -2.653,-1.071 -4.785,-3.162 -5.911,-5.786 v 0 -8.543 c 1.066,-2.486 3.035,-4.493 5.495,-5.609 v 0 h 8.947 c 2.459,1.116 4.429,3.123 5.495,5.609 v 0 8.543 c -1.126,2.624 -3.258,4.715 -5.911,5.786 v 0 z"
         transform="translate(-331.01671,-320.33001)"
         id="path9765" />
    </clipPath>
    <clipPath
       clipPathUnits="userSpaceOnUse"
       id="clipPath9767">
      <path
         d="m 327.927,330.443 c -2.653,-1.071 -4.785,-3.162 -5.911,-5.786 v 0 -8.543 c 1.066,-2.486 3.035,-4.493 5.495,-5.609 v 0 h 8.947 c 2.459,1.116 4.429,3.123 5.495,5.609 v 0 8.543 c -1.126,2.624 -3.258,4.715 -5.911,5.786 v 0 z"
         transform="translate(-333.12346,-317.66191)"
         id="path9767" />
    </clipPath>
    <clipPath
       clipPathUnits="userSpaceOnUse"
       id="clipPath9769">
      <path
         d="m 327.927,330.443 c -2.653,-1.071 -4.785,-3.162 -5.911,-5.786 v 0 -8.543 c 1.066,-2.486 3.035,-4.493 5.495,-5.609 v 0 h 8.947 c 2.459,1.116 4.429,3.123 5.495,5.609 v 0 8.543 c -1.126,2.624 -3.258,4.715 -5.911,5.786 v 0 z"
         transform="translate(-338.55871,-322.16941)"
         id="path9769" />
    </clipPath>
    <clipPath
       clipPathUnits="userSpaceOnUse"
       id="clipPath9771">
      <path
         d="m 327.927,330.443 c -2.653,-1.071 -4.785,-3.162 -5.911,-5.786 v 0 -8.543 c 1.066,-2.486 3.035,-4.493 5.495,-5.609 v 0 h 8.947 c 2.459,1.116 4.429,3.123 5.495,5.609 v 0 8.543 c -1.126,2.624 -3.258,4.715 -5.911,5.786 v 0 z"
         transform="translate(-325.40971,-322.16941)"
         id="path9771" />
    </clipPath>
    <clipPath
       clipPathUnits="userSpaceOnUse"
       id="clipPath9773">
      <path
         d="m 327.927,330.443 c -2.653,-1.071 -4.785,-3.162 -5.911,-5.786 v 0 -8.543 c 1.066,-2.486 3.035,-4.493 5.495,-5.609 v 0 h 8.947 c 2.459,1.116 4.429,3.123 5.495,5.609 v 0 8.543 c -1.126,2.624 -3.258,4.715 -5.911,5.786 v 0 z"
         transform="translate(-333.11221,-313.36201)"
         id="path9773" />
    </clipPath>
    <clipPath
       clipPathUnits="userSpaceOnUse"
       id="clipPath9775">
      <path
         d="m 327.927,330.443 c -2.653,-1.071 -4.785,-3.162 -5.911,-5.786 v 0 -8.543 c 1.066,-2.486 3.035,-4.493 5.495,-5.609 v 0 h 8.947 c 2.459,1.116 4.429,3.123 5.495,5.609 v 0 8.543 c -1.126,2.624 -3.258,4.715 -5.911,5.786 v 0 z"
         transform="translate(-333.11221,-327.40831)"
         id="path9775" />
    </clipPath>
    <clipPath
       clipPathUnits="userSpaceOnUse"
       id="clipPath9777">
      <path
         d="M 15,15 H 610.275 V 610.275 H 15 Z"
         transform="translate(-331.98421,-309.86141)"
         id="path9777" />
    </clipPath>
    <clipPath
       clipPathUnits="userSpaceOnUse"
       id="clipPath9788">
      <path
         d="M 15,15 H 610.275 V 610.275 H 15 Z"
         transform="translate(-331.98421,-251.04691)"
         id="path9788" />
    </clipPath>
    <clipPath
       clipPathUnits="userSpaceOnUse"
       id="clipPath9790">
      <path
         d="m 322.02,265.853 v -8.564 c 0.566,-1.315 1.385,-2.496 2.395,-3.481 v 0 h 15.139 c 2.019,1.969 3.273,4.72 3.273,7.763 v 0 c 0,5.988 -4.854,10.842 -10.843,10.842 v 0 c -4.467,0 -8.303,-2.701 -9.964,-6.56"
         transform="translate(-332.40121,-277.38211)"
         id="path9790" />
    </clipPath>
    <clipPath
       clipPathUnits="userSpaceOnUse"
       id="clipPath9792">
      <path
         d="M 15,15 H 610.275 V 610.275 H 15 Z"
         transform="translate(-331.98421,-251.04691)"
         id="path9792" />
    </clipPath>
    <clipPath
       clipPathUnits="userSpaceOnUse"
       id="clipPath9825">
      <path
         d="M 15,15 H 610.275 V 610.275 H 15 Z"
         transform="translate(-330.81421,-173.2873)"
         id="path9825" />
    </clipPath>
    <clipPath
       clipPathUnits="userSpaceOnUse"
       id="clipPath9827">
      <path
         d="M 15,15 H 610.275 V 610.275 H 15 Z"
         transform="translate(-330.81421,-173.2873)"
         id="path9827" />
    </clipPath>
    <clipPath
       clipPathUnits="userSpaceOnUse"
       id="clipPath9829">
      <path
         d="M 15,15 H 610.275 V 610.275 H 15 Z"
         transform="translate(-337.77496,-160.31611)"
         id="path9829" />
    </clipPath>
    <clipPath
       clipPathUnits="userSpaceOnUse"
       id="clipPath9831">
      <path
         d="m 333.992,166.28 -0.36,-1.711 c -0.037,-0.893 0.174,-1.707 0.582,-2.378 v 0 h 7.91 c 0.077,0.076 0.154,0.153 0.228,0.233 v 0 l 1.261,6.002 c -0.66,1.277 -1.991,2.107 -3.69,2.107 v 0 c -2.53,0 -5.017,-1.84 -5.931,-4.253"
         transform="matrix(9.2730316,0,-1.9492703,9.2730316,-2815.281,-1600.0375)"
         id="path9831" />
    </clipPath>
    <clipPath
       clipPathUnits="userSpaceOnUse"
       id="clipPath9833">
      <path
         d="M 15,15 H 610.275 V 610.275 H 15 Z"
         transform="translate(-337.77496,-160.31611)"
         id="path9833" />
    </clipPath>
  </defs>
  <g
     inkscape:label="Calque 1"
     inkscape:groupmode="layer"
     id="layer1"
     transform="translate(-101.06978,-144.72708)">
    <path
       id="path9824"
       d="m 0,0 c -0.783,0 -1.551,-0.635 -1.715,-1.417 l -2.71,-12.891 c -0.165,-0.783 0.337,-1.418 1.119,-1.418 h 19.375 c 0.783,0 1.551,0.635 1.716,1.418 l 2.709,12.891 C 20.659,-0.635 20.158,0 19.375,0 Z"
       style="fill:#ffffff;fill-opacity:1;fill-rule:nonzero;stroke:none"
       transform="matrix(0.35277776,0,0,-0.35277776,102.73193,144.81527)"
       clip-path="url(#clipPath9825)" />
    <path
       id="path9826"
       d="m 0,0 0.053,0.25 c -0.921,0 -1.825,-0.746 -2.018,-1.667 l -2.71,-12.891 c -0.193,-0.921 0.396,-1.667 1.317,-1.668 h 19.375 c 0.921,0.001 1.824,0.747 2.018,1.668 l 2.709,12.891 C 20.938,-0.496 20.348,0.25 19.428,0.25 H 0.053 L 0,0 -0.053,-0.25 h 19.375 c 0.645,-0.001 1.057,-0.523 0.922,-1.167 l -2.709,-12.891 c -0.137,-0.645 -0.768,-1.166 -1.413,-1.168 H -3.253 c -0.644,0.002 -1.056,0.523 -0.922,1.168 l 2.71,12.891 c 0.136,0.644 0.768,1.166 1.412,1.167 z"
       style="fill:#4c5057;fill-opacity:1;fill-rule:nonzero;stroke:none"
       transform="matrix(0.35277776,0,0,-0.35277776,102.73193,144.81527)"
       clip-path="url(#clipPath9827)" />
    <path
       id="path9828"
       d="M 0,0 C 2.821,0 5.589,2.287 6.182,5.108 6.775,7.93 4.969,10.217 2.148,10.217 -0.674,10.217 -3.441,7.93 -4.035,5.108 -4.628,2.287 -2.821,0 0,0"
       style="fill:#e85b37;fill-opacity:1;fill-rule:nonzero;stroke:none"
       transform="matrix(0.35277776,0,0,-0.35277776,105.18753,149.39122)"
       clip-path="url(#clipPath9829)" />
    <path
       id="path9830"
       d="m 0,0 c 0,0 -7.09,-31.727 2.558,-48.206 2.931,-5.005 -1.198,-9.951 -1.29,-10.523 -1.784,0.763 -4.25,0.757 -7.036,2.255 -2.787,1.497 -6.114,3.955 -8.906,6.903 -2.792,2.948 -5.973,3.188 -8.48,1.821 -3.02,0.862 -7.445,-0.593 -9.184,-3.247 -1.739,-2.653 -0.952,-6.129 1.212,-7.476 0.262,1.322 2.442,4.395 4.42,4.237 -0.168,-1.667 1.157,-3.748 2.671,-4.454 1.898,-0.885 4.231,0.101 5.455,1.822 3.962,-1.6 6.219,-5.288 11.331,-6.179 -2.814,-2.017 -6.351,-3.419 -12.145,-3.296 -3.07,0.065 -7.099,-2.491 -7.281,-6.58 -3.143,-3.306 -2.008,-6.351 -0.806,-8.264 1.098,-1.748 4.428,-4.488 8.292,-3.461 -1.61,1.394 -2.919,3.558 -2.036,5.394 2.306,-0.366 5.896,2.408 5.958,5.823 1.31,-0.168 6.041,-0.06 11.483,2.833 -2.02,-2.784 -8.138,-8.063 -9.263,-12.578 -0.631,-2.535 0.138,-5.342 3.345,-6.726 3.506,-6.771 10.304,-3.719 12.197,0.175 -2.326,-0.439 -4.812,-0.003 -6.107,1.423 1.545,2.964 -0.238,5.473 -1.574,6.286 0.95,3.468 8.852,8.15 10.127,12.051 6.978,1.568 9.869,0.961 13.223,-1.061 -0.449,-1.131 -0.47,-3.267 1.688,-4.494 -0.154,-0.907 -2.3,-3.247 -5.068,-3.773 3.441,-3.411 8.782,-1.218 10.013,2.713 5.426,4.274 2.09,9.157 -1.237,11.365 -3.565,2.366 -8.179,3.007 -10.324,3.745 -1.232,1.869 -0.73,3.374 0.524,4.639 17.749,4.689 31.521,45.052 31.521,45.052 L 22.29,1.31 Z"
       style="fill:#ffffff;fill-opacity:1;fill-rule:nonzero;stroke:none"
       transform="matrix(0.03804341,0,0.00799705,-0.03804341,105.92651,145.07629)"
       clip-path="url(#clipPath9831)" />
    <path
       id="path9832"
       d="m 0,0 -0.057,-0.273 c 2.972,0.001 5.887,2.409 6.512,5.381 0.624,2.972 -1.278,5.381 -4.25,5.381 -2.972,0 -5.887,-2.409 -6.512,-5.381 -0.625,-2.972 1.278,-5.38 4.25,-5.381 L 0,0 0.057,0.273 c -1.336,0 -2.429,0.54 -3.121,1.416 -0.692,0.876 -0.979,2.083 -0.698,3.419 0.281,1.337 1.075,2.544 2.135,3.42 1.06,0.875 2.381,1.416 3.717,1.416 1.337,0 2.43,-0.541 3.122,-1.416 C 5.904,7.652 6.19,6.445 5.91,5.108 5.629,3.772 4.834,2.565 3.775,1.689 2.714,0.813 1.394,0.273 0.057,0.273 Z"
       style="fill:#4c5057;fill-opacity:1;fill-rule:nonzero;stroke:none"
       transform="matrix(0.35277776,0,0,-0.35277776,105.18753,149.39122)"
       clip-path="url(#clipPath9833)" />
  </g>
</svg>
