<?xml version="1.0" encoding="UTF-8" standalone="no"?>
<!-- Created with Inkscape (http://www.inkscape.org/) -->

<svg
   width="50.525253mm"
   height="12.263967mm"
   viewBox="0 0 50.525252 12.263967"
   version="1.1"
   id="svg1"
   inkscape:version="1.4 (e7c3feb100, 2024-10-09)"
   sodipodi:docname="ReproductionAction.svg"
   xmlns:inkscape="http://www.inkscape.org/namespaces/inkscape"
   xmlns:sodipodi="http://sodipodi.sourceforge.net/DTD/sodipodi-0.dtd"
   xmlns="http://www.w3.org/2000/svg"
   xmlns:svg="http://www.w3.org/2000/svg">
  <sodipodi:namedview
     id="namedview1"
     pagecolor="#ffffff"
     bordercolor="#000000"
     borderopacity="0.25"
     inkscape:showpageshadow="2"
     inkscape:pageopacity="0.0"
     inkscape:pagecheckerboard="0"
     inkscape:deskcolor="#d1d1d1"
     inkscape:document-units="mm"
     inkscape:zoom="4"
     inkscape:cx="55.75"
     inkscape:cy="9"
     inkscape:window-width="1920"
     inkscape:window-height="1163"
     inkscape:window-x="0"
     inkscape:window-y="0"
     inkscape:window-maximized="1"
     inkscape:current-layer="layer1" />
  <defs
     id="defs1">
    <clipPath
       clipPathUnits="userSpaceOnUse"
       id="clipPath770">
      <path
         d="M 15,15 H 610.275 V 610.275 H 15 Z"
         transform="translate(-356.83961,-179.32351)"
         id="path770" />
    </clipPath>
    <clipPath
       clipPathUnits="userSpaceOnUse"
       id="clipPath768">
      <path
         d="M 15,15 H 610.275 V 610.275 H 15 Z"
         transform="translate(-350.46123,-166.6795)"
         id="path768" />
    </clipPath>
    <clipPath
       clipPathUnits="userSpaceOnUse"
       id="clipPath766">
      <path
         d="M 15,15 H 610.275 V 610.275 H 15 Z"
         transform="translate(-363.23733,-166.6795)"
         id="path766" />
    </clipPath>
    <clipPath
       clipPathUnits="userSpaceOnUse"
       id="clipPath731">
      <path
         d="M 15,15 H 610.275 V 610.275 H 15 Z"
         transform="translate(-349.94418,-175.9357)"
         id="path731" />
    </clipPath>
    <clipPath
       clipPathUnits="userSpaceOnUse"
       id="clipPath731-5">
      <path
         d="M 15,15 H 610.275 V 610.275 H 15 Z"
         transform="translate(-349.94418,-175.9357)"
         id="path731-6" />
    </clipPath>
    <clipPath
       clipPathUnits="userSpaceOnUse"
       id="clipPath729">
      <path
         d="M 15,15 H 610.275 V 610.275 H 15 Z"
         transform="translate(-349.94418,-175.9357)"
         id="path729" />
    </clipPath>
    <clipPath
       clipPathUnits="userSpaceOnUse"
       id="clipPath770-2">
      <path
         d="M 15,15 H 610.275 V 610.275 H 15 Z"
         transform="translate(-356.83961,-179.32351)"
         id="path770-9" />
    </clipPath>
    <clipPath
       clipPathUnits="userSpaceOnUse"
       id="clipPath766-1">
      <path
         d="M 15,15 H 610.275 V 610.275 H 15 Z"
         transform="translate(-363.23733,-166.6795)"
         id="path766-2" />
    </clipPath>
    <clipPath
       clipPathUnits="userSpaceOnUse"
       id="clipPath768-7">
      <path
         d="M 15,15 H 610.275 V 610.275 H 15 Z"
         transform="translate(-350.46123,-166.6795)"
         id="path768-0" />
    </clipPath>
    <clipPath
       clipPathUnits="userSpaceOnUse"
       id="clipPath758">
      <path
         d="M 15,15 H 610.275 V 610.275 H 15 Z"
         transform="translate(-533.19904,-179.6276)"
         id="path758" />
    </clipPath>
    <clipPath
       clipPathUnits="userSpaceOnUse"
       id="clipPath756">
      <path
         d="M 15,15 H 610.275 V 610.275 H 15 Z"
         transform="translate(-526.82059,-166.98361)"
         id="path756" />
    </clipPath>
    <clipPath
       clipPathUnits="userSpaceOnUse"
       id="clipPath754">
      <path
         d="M 15,15 H 610.275 V 610.275 H 15 Z"
         transform="translate(-539.59661,-166.98361)"
         id="path754" />
    </clipPath>
    <clipPath
       clipPathUnits="userSpaceOnUse"
       id="clipPath734">
      <path
         d="M 15,15 H 610.275 V 610.275 H 15 Z"
         transform="translate(-540.17554,-176.3821)"
         id="path734" />
    </clipPath>
    <clipPath
       clipPathUnits="userSpaceOnUse"
       id="clipPath736">
      <path
         d="M 15,15 H 610.275 V 610.275 H 15 Z"
         transform="translate(-540.17554,-176.3821)"
         id="path736" />
    </clipPath>
    <clipPath
       clipPathUnits="userSpaceOnUse"
       id="clipPath741">
      <path
         d="M 15,15 H 610.275 V 610.275 H 15 Z"
         transform="translate(-540.17554,-110.5487)"
         id="path741" />
    </clipPath>
    <clipPath
       clipPathUnits="userSpaceOnUse"
       id="clipPath739">
      <path
         d="M 15,15 H 610.275 V 610.275 H 15 Z"
         transform="translate(-540.17554,-110.5487)"
         id="path739" />
    </clipPath>
    <clipPath
       clipPathUnits="userSpaceOnUse"
       id="clipPath764">
      <path
         d="M 15,15 H 610.275 V 610.275 H 15 Z"
         transform="translate(-533.19904,-113.7941)"
         id="path764" />
    </clipPath>
    <clipPath
       clipPathUnits="userSpaceOnUse"
       id="clipPath760">
      <path
         d="M 15,15 H 610.275 V 610.275 H 15 Z"
         transform="translate(-539.59661,-101.15011)"
         id="path760" />
    </clipPath>
    <clipPath
       clipPathUnits="userSpaceOnUse"
       id="clipPath762">
      <path
         d="M 15,15 H 610.275 V 610.275 H 15 Z"
         transform="translate(-526.82059,-101.15011)"
         id="path762" />
    </clipPath>
    <clipPath
       clipPathUnits="userSpaceOnUse"
       id="clipPath752">
      <path
         d="M 15,15 H 610.275 V 610.275 H 15 Z"
         transform="translate(-356.83961,-113.7941)"
         id="path752" />
    </clipPath>
    <clipPath
       clipPathUnits="userSpaceOnUse"
       id="clipPath748">
      <path
         d="M 15,15 H 610.275 V 610.275 H 15 Z"
         transform="translate(-363.23733,-101.15011)"
         id="path748" />
    </clipPath>
    <clipPath
       clipPathUnits="userSpaceOnUse"
       id="clipPath750">
      <path
         d="M 15,15 H 610.275 V 610.275 H 15 Z"
         transform="translate(-350.46123,-101.15011)"
         id="path750" />
    </clipPath>
    <clipPath
       clipPathUnits="userSpaceOnUse"
       id="clipPath744">
      <path
         d="M 15,15 H 610.275 V 610.275 H 15 Z"
         transform="translate(-363.81633,-110.5487)"
         id="path744" />
    </clipPath>
    <clipPath
       clipPathUnits="userSpaceOnUse"
       id="clipPath746">
      <path
         d="M 15,15 H 610.275 V 610.275 H 15 Z"
         transform="translate(-363.81633,-110.5487)"
         id="path746" />
    </clipPath>
    <clipPath
       clipPathUnits="userSpaceOnUse"
       id="clipPath4705">
      <path
         d="m 74.527,74.777 h 229.606 v 80.209 H 74.527 Z"
         transform="translate(-173.5087,-145.59061)"
         id="path4705" />
    </clipPath>
    <clipPath
       clipPathUnits="userSpaceOnUse"
       id="clipPath4687">
      <path
         d="m 74.527,74.777 h 229.606 v 80.209 H 74.527 Z"
         transform="translate(-2.5000002e-5)"
         id="path4687" />
    </clipPath>
    <clipPath
       clipPathUnits="userSpaceOnUse"
       id="clipPath4689">
      <path
         d="m 172.72,134.547 h 11.831 v 11.832 H 172.72 Z"
         transform="translate(-179.24193,-140.69701)"
         id="path4689" />
    </clipPath>
    <clipPath
       clipPathUnits="userSpaceOnUse"
       id="clipPath4691">
      <path
         d="m 74.527,74.777 h 229.606 v 80.209 H 74.527 Z"
         transform="translate(-2.5000002e-5)"
         id="path4691" />
    </clipPath>
    <clipPath
       clipPathUnits="userSpaceOnUse"
       id="clipPath4707">
      <path
         d="m 74.527,74.777 h 229.606 v 80.209 H 74.527 Z"
         transform="translate(-186.04578,-145.59061)"
         id="path4707" />
    </clipPath>
    <clipPath
       clipPathUnits="userSpaceOnUse"
       id="clipPath4695">
      <path
         d="m 185.313,134.593 h 11.723 v 11.724 h -11.723 z"
         transform="translate(-187.6987,-138.2759)"
         id="path4695" />
    </clipPath>
    <clipPath
       clipPathUnits="userSpaceOnUse"
       id="clipPath4699">
      <path
         d="m 172.72,122.048 h 11.831 V 133.88 H 172.72 Z"
         transform="translate(-181.88343,-127.4867)"
         id="path4699" />
    </clipPath>
    <clipPath
       clipPathUnits="userSpaceOnUse"
       id="clipPath4697">
      <path
         d="m 74.527,74.777 h 229.606 v 80.209 H 74.527 Z"
         transform="translate(-2.5000002e-5)"
         id="path4697" />
    </clipPath>
    <clipPath
       clipPathUnits="userSpaceOnUse"
       id="clipPath4711">
      <path
         d="m 74.527,74.777 h 229.606 v 80.209 H 74.527 Z"
         transform="translate(-173.5342,-133.0913)"
         id="path4711" />
    </clipPath>
    <clipPath
       clipPathUnits="userSpaceOnUse"
       id="clipPath4703">
      <path
         d="m 185.755,122.454 h 10.622 v 10.72 h -10.622 z"
         transform="translate(-189.72588,-125.76031)"
         id="path4703" />
    </clipPath>
    <clipPath
       clipPathUnits="userSpaceOnUse"
       id="clipPath4701">
      <path
         d="m 74.527,74.777 h 229.606 v 80.209 H 74.527 Z"
         transform="translate(-2.5000002e-5)"
         id="path4701" />
    </clipPath>
    <clipPath
       clipPathUnits="userSpaceOnUse"
       id="clipPath4709">
      <path
         d="m 74.527,74.777 h 229.606 v 80.209 H 74.527 Z"
         transform="translate(-186.09708,-133.09141)"
         id="path4709" />
    </clipPath>
    <clipPath
       clipPathUnits="userSpaceOnUse"
       id="clipPath4609">
      <path
         d="m 135.448,142.589 h 2.53 v 1.759 h -2.53 z"
         transform="translate(-137.25723,-144.3473)"
         id="path4609" />
    </clipPath>
    <clipPath
       clipPathUnits="userSpaceOnUse"
       id="clipPath4601">
      <path
         d="m 130.874,134.566 h 11.813 v 11.813 h -11.813 z"
         transform="translate(-142.68708,-146.37931)"
         id="path4601" />
    </clipPath>
    <clipPath
       clipPathUnits="userSpaceOnUse"
       id="clipPath4605">
      <path
         d="m 130.874,134.566 h 11.813 v 11.813 h -11.813 z"
         transform="translate(-139.5397,-144.8585)"
         id="path4605" />
    </clipPath>
    <clipPath
       clipPathUnits="userSpaceOnUse"
       id="clipPath4607">
      <path
         d="m 130.874,134.566 h 11.813 v 11.813 h -11.813 z"
         transform="translate(-134.3203,-140.6131)"
         id="path4607" />
    </clipPath>
    <clipPath
       clipPathUnits="userSpaceOnUse"
       id="clipPath4603">
      <path
         d="m 130.874,134.566 h 11.813 v 11.813 h -11.813 z"
         transform="translate(-142.68708,-135.2227)"
         id="path4603" />
    </clipPath>
    <clipPath
       clipPathUnits="userSpaceOnUse"
       id="clipPath4679">
      <path
         d="m 74.527,74.777 h 229.606 v 80.209 H 74.527 Z"
         transform="translate(-131.6617,-145.59181)"
         id="path4679" />
    </clipPath>
    <clipPath
       clipPathUnits="userSpaceOnUse"
       id="clipPath4649">
      <path
         d="m 143.393,134.566 h 11.813 v 11.813 h -11.813 z"
         transform="translate(-149.40408,-144.9343)"
         id="path4649" />
    </clipPath>
    <clipPath
       clipPathUnits="userSpaceOnUse"
       id="clipPath4647">
      <path
         d="m 143.393,134.566 h 11.813 v 11.813 h -11.813 z"
         transform="translate(-149.40423,-145.2448)"
         id="path4647" />
    </clipPath>
    <clipPath
       clipPathUnits="userSpaceOnUse"
       id="clipPath4645">
      <path
         d="m 143.393,134.566 h 11.813 v 11.813 h -11.813 z"
         transform="translate(-147.17238,-142.34)"
         id="path4645" />
    </clipPath>
    <clipPath
       clipPathUnits="userSpaceOnUse"
       id="clipPath4643">
      <path
         d="m 143.393,134.566 h 11.813 v 11.813 h -11.813 z"
         transform="translate(-144.6565,-142.68811)"
         id="path4643" />
    </clipPath>
    <clipPath
       clipPathUnits="userSpaceOnUse"
       id="clipPath4641">
      <path
         d="m 143.393,134.566 h 11.813 v 11.813 h -11.813 z"
         transform="translate(-154.3645,-143.9548)"
         id="path4641" />
    </clipPath>
    <clipPath
       clipPathUnits="userSpaceOnUse"
       id="clipPath4639">
      <path
         d="m 143.393,134.566 h 11.813 v 11.813 h -11.813 z"
         transform="translate(-144.65658,-143.0152)"
         id="path4639" />
    </clipPath>
    <clipPath
       clipPathUnits="userSpaceOnUse"
       id="clipPath4637">
      <path
         d="m 143.393,134.566 h 11.813 v 11.813 h -11.813 z"
         transform="translate(-144.53598,-142.6672)"
         id="path4637" />
    </clipPath>
    <clipPath
       clipPathUnits="userSpaceOnUse"
       id="clipPath4635">
      <path
         d="m 143.393,134.566 h 11.813 v 11.813 h -11.813 z"
         transform="translate(-155.2048,-138.1991)"
         id="path4635" />
    </clipPath>
    <clipPath
       clipPathUnits="userSpaceOnUse"
       id="clipPath4633">
      <path
         d="m 143.393,134.566 h 11.813 v 11.813 h -11.813 z"
         transform="translate(-154.36443,-144.2653)"
         id="path4633" />
    </clipPath>
    <clipPath
       clipPathUnits="userSpaceOnUse"
       id="clipPath4631">
      <path
         d="m 143.393,134.566 h 11.813 v 11.813 h -11.813 z"
         transform="translate(-154.88598,-137.54611)"
         id="path4631" />
    </clipPath>
    <clipPath
       clipPathUnits="userSpaceOnUse"
       id="clipPath4629">
      <path
         d="m 143.393,134.566 h 11.813 v 11.813 h -11.813 z"
         transform="translate(-154.43703,-143.9489)"
         id="path4629" />
    </clipPath>
    <clipPath
       clipPathUnits="userSpaceOnUse"
       id="clipPath4627">
      <path
         d="m 143.393,134.566 h 11.813 v 11.813 h -11.813 z"
         transform="translate(-152.05638,-144.4396)"
         id="path4627" />
    </clipPath>
    <clipPath
       clipPathUnits="userSpaceOnUse"
       id="clipPath4625">
      <path
         d="m 143.393,134.566 h 11.813 v 11.813 h -11.813 z"
         transform="translate(-152.05638,-144.6674)"
         id="path4625" />
    </clipPath>
    <clipPath
       clipPathUnits="userSpaceOnUse"
       id="clipPath4623">
      <path
         d="m 143.393,134.566 h 11.813 v 11.813 h -11.813 z"
         transform="translate(-152.05638,-144.4396)"
         id="path4623" />
    </clipPath>
    <clipPath
       clipPathUnits="userSpaceOnUse"
       id="clipPath4621">
      <path
         d="m 143.393,134.566 h 11.813 v 11.813 h -11.813 z"
         transform="translate(-146.7142,-144.69661)"
         id="path4621" />
    </clipPath>
    <clipPath
       clipPathUnits="userSpaceOnUse"
       id="clipPath4619">
      <path
         d="m 143.393,134.566 h 11.813 v 11.813 h -11.813 z"
         transform="translate(-146.7142,-144.98)"
         id="path4619" />
    </clipPath>
    <clipPath
       clipPathUnits="userSpaceOnUse"
       id="clipPath4617">
      <path
         d="m 143.393,134.566 h 11.813 v 11.813 h -11.813 z"
         transform="translate(-146.7814,-144.6892)"
         id="path4617" />
    </clipPath>
    <clipPath
       clipPathUnits="userSpaceOnUse"
       id="clipPath4615">
      <path
         d="m 143.393,134.566 h 11.813 v 11.813 h -11.813 z"
         transform="translate(-155.2048,-137.8885)"
         id="path4615" />
    </clipPath>
    <clipPath
       clipPathUnits="userSpaceOnUse"
       id="clipPath4613">
      <path
         d="m 143.393,134.566 h 11.813 v 11.813 h -11.813 z"
         transform="translate(-155.2048,-146.37931)"
         id="path4613" />
    </clipPath>
    <clipPath
       clipPathUnits="userSpaceOnUse"
       id="clipPath4611">
      <path
         d="m 74.527,74.777 h 229.606 v 80.209 H 74.527 Z"
         transform="translate(-2.5000002e-5)"
         id="path4611" />
    </clipPath>
    <clipPath
       clipPathUnits="userSpaceOnUse"
       id="clipPath4649-0">
      <path
         d="m 143.393,134.566 h 11.813 v 11.813 h -11.813 z"
         transform="translate(-149.40408,-144.9343)"
         id="path4649-6" />
    </clipPath>
    <clipPath
       clipPathUnits="userSpaceOnUse"
       id="clipPath4647-1">
      <path
         d="m 143.393,134.566 h 11.813 v 11.813 h -11.813 z"
         transform="translate(-149.40423,-145.2448)"
         id="path4647-5" />
    </clipPath>
    <clipPath
       clipPathUnits="userSpaceOnUse"
       id="clipPath4645-5">
      <path
         d="m 143.393,134.566 h 11.813 v 11.813 h -11.813 z"
         transform="translate(-147.17238,-142.34)"
         id="path4645-4" />
    </clipPath>
    <clipPath
       clipPathUnits="userSpaceOnUse"
       id="clipPath4643-7">
      <path
         d="m 143.393,134.566 h 11.813 v 11.813 h -11.813 z"
         transform="translate(-144.6565,-142.68811)"
         id="path4643-6" />
    </clipPath>
    <clipPath
       clipPathUnits="userSpaceOnUse"
       id="clipPath4641-5">
      <path
         d="m 143.393,134.566 h 11.813 v 11.813 h -11.813 z"
         transform="translate(-154.3645,-143.9548)"
         id="path4641-6" />
    </clipPath>
    <clipPath
       clipPathUnits="userSpaceOnUse"
       id="clipPath4639-9">
      <path
         d="m 143.393,134.566 h 11.813 v 11.813 h -11.813 z"
         transform="translate(-144.65658,-143.0152)"
         id="path4639-3" />
    </clipPath>
    <clipPath
       clipPathUnits="userSpaceOnUse"
       id="clipPath4637-7">
      <path
         d="m 143.393,134.566 h 11.813 v 11.813 h -11.813 z"
         transform="translate(-144.53598,-142.6672)"
         id="path4637-4" />
    </clipPath>
    <clipPath
       clipPathUnits="userSpaceOnUse"
       id="clipPath4635-5">
      <path
         d="m 143.393,134.566 h 11.813 v 11.813 h -11.813 z"
         transform="translate(-155.2048,-138.1991)"
         id="path4635-2" />
    </clipPath>
    <clipPath
       clipPathUnits="userSpaceOnUse"
       id="clipPath4633-5">
      <path
         d="m 143.393,134.566 h 11.813 v 11.813 h -11.813 z"
         transform="translate(-154.36443,-144.2653)"
         id="path4633-4" />
    </clipPath>
    <clipPath
       clipPathUnits="userSpaceOnUse"
       id="clipPath4631-7">
      <path
         d="m 143.393,134.566 h 11.813 v 11.813 h -11.813 z"
         transform="translate(-154.88598,-137.54611)"
         id="path4631-4" />
    </clipPath>
    <clipPath
       clipPathUnits="userSpaceOnUse"
       id="clipPath4629-4">
      <path
         d="m 143.393,134.566 h 11.813 v 11.813 h -11.813 z"
         transform="translate(-154.43703,-143.9489)"
         id="path4629-3" />
    </clipPath>
    <clipPath
       clipPathUnits="userSpaceOnUse"
       id="clipPath4627-0">
      <path
         d="m 143.393,134.566 h 11.813 v 11.813 h -11.813 z"
         transform="translate(-152.05638,-144.4396)"
         id="path4627-7" />
    </clipPath>
    <clipPath
       clipPathUnits="userSpaceOnUse"
       id="clipPath4625-8">
      <path
         d="m 143.393,134.566 h 11.813 v 11.813 h -11.813 z"
         transform="translate(-152.05638,-144.6674)"
         id="path4625-6" />
    </clipPath>
    <clipPath
       clipPathUnits="userSpaceOnUse"
       id="clipPath4623-8">
      <path
         d="m 143.393,134.566 h 11.813 v 11.813 h -11.813 z"
         transform="translate(-152.05638,-144.4396)"
         id="path4623-8" />
    </clipPath>
    <clipPath
       clipPathUnits="userSpaceOnUse"
       id="clipPath4621-4">
      <path
         d="m 143.393,134.566 h 11.813 v 11.813 h -11.813 z"
         transform="translate(-146.7142,-144.69661)"
         id="path4621-3" />
    </clipPath>
    <clipPath
       clipPathUnits="userSpaceOnUse"
       id="clipPath4619-1">
      <path
         d="m 143.393,134.566 h 11.813 v 11.813 h -11.813 z"
         transform="translate(-146.7142,-144.98)"
         id="path4619-4" />
    </clipPath>
    <clipPath
       clipPathUnits="userSpaceOnUse"
       id="clipPath4617-9">
      <path
         d="m 143.393,134.566 h 11.813 v 11.813 h -11.813 z"
         transform="translate(-146.7814,-144.6892)"
         id="path4617-2" />
    </clipPath>
    <clipPath
       clipPathUnits="userSpaceOnUse"
       id="clipPath4615-0">
      <path
         d="m 143.393,134.566 h 11.813 v 11.813 h -11.813 z"
         transform="translate(-155.2048,-137.8885)"
         id="path4615-6" />
    </clipPath>
    <clipPath
       clipPathUnits="userSpaceOnUse"
       id="clipPath4613-8">
      <path
         d="m 143.393,134.566 h 11.813 v 11.813 h -11.813 z"
         transform="translate(-155.2048,-146.37931)"
         id="path4613-9" />
    </clipPath>
    <clipPath
       clipPathUnits="userSpaceOnUse"
       id="clipPath4611-2">
      <path
         d="m 74.527,74.777 h 229.606 v 80.209 H 74.527 Z"
         transform="translate(-2.5000002e-5)"
         id="path4611-6" />
    </clipPath>
    <clipPath
       clipPathUnits="userSpaceOnUse"
       id="clipPath4681">
      <path
         d="m 74.527,74.777 h 229.606 v 80.209 H 74.527 Z"
         transform="translate(-144.17928,-145.59181)"
         id="path4681" />
    </clipPath>
    <clipPath
       clipPathUnits="userSpaceOnUse"
       id="clipPath4653">
      <path
         d="m 143.393,122.048 h 11.813 v 11.813 h -11.813 z"
         transform="translate(-155.2048,-133.8616)"
         id="path4653" />
    </clipPath>
    <clipPath
       clipPathUnits="userSpaceOnUse"
       id="clipPath4655">
      <path
         d="m 143.393,122.048 h 11.813 v 11.813 h -11.813 z"
         transform="translate(-148.44093,-130.0289)"
         id="path4655" />
    </clipPath>
    <clipPath
       clipPathUnits="userSpaceOnUse"
       id="clipPath4657">
      <path
         d="m 143.393,122.048 h 11.813 v 11.813 h -11.813 z"
         transform="translate(-145.42398,-128.8315)"
         id="path4657" />
    </clipPath>
    <clipPath
       clipPathUnits="userSpaceOnUse"
       id="clipPath4659">
      <path
         d="m 143.393,122.048 h 11.813 v 11.813 h -11.813 z"
         transform="translate(-148.5499,-127.35391)"
         id="path4659" />
    </clipPath>
    <clipPath
       clipPathUnits="userSpaceOnUse"
       id="clipPath4661">
      <path
         d="m 143.393,122.048 h 11.813 v 11.813 h -11.813 z"
         transform="translate(-146.2963,-126.1565)"
         id="path4661" />
    </clipPath>
    <clipPath
       clipPathUnits="userSpaceOnUse"
       id="clipPath4683">
      <path
         d="m 74.527,74.777 h 229.606 v 80.209 H 74.527 Z"
         transform="translate(-144.17928,-133.0742)"
         id="path4683" />
    </clipPath>
    <clipPath
       clipPathUnits="userSpaceOnUse"
       id="clipPath4653-7">
      <path
         d="m 143.393,122.048 h 11.813 v 11.813 h -11.813 z"
         transform="translate(-155.2048,-133.8616)"
         id="path4653-1" />
    </clipPath>
    <clipPath
       clipPathUnits="userSpaceOnUse"
       id="clipPath4655-7">
      <path
         d="m 143.393,122.048 h 11.813 v 11.813 h -11.813 z"
         transform="translate(-148.44093,-130.0289)"
         id="path4655-2" />
    </clipPath>
    <clipPath
       clipPathUnits="userSpaceOnUse"
       id="clipPath4657-7">
      <path
         d="m 143.393,122.048 h 11.813 v 11.813 h -11.813 z"
         transform="translate(-145.42398,-128.8315)"
         id="path4657-2" />
    </clipPath>
    <clipPath
       clipPathUnits="userSpaceOnUse"
       id="clipPath4659-2">
      <path
         d="m 143.393,122.048 h 11.813 v 11.813 h -11.813 z"
         transform="translate(-148.5499,-127.35391)"
         id="path4659-6" />
    </clipPath>
    <clipPath
       clipPathUnits="userSpaceOnUse"
       id="clipPath4661-1">
      <path
         d="m 143.393,122.048 h 11.813 v 11.813 h -11.813 z"
         transform="translate(-146.2963,-126.1565)"
         id="path4661-0" />
    </clipPath>
    <clipPath
       clipPathUnits="userSpaceOnUse"
       id="clipPath4683-6">
      <path
         d="m 74.527,74.777 h 229.606 v 80.209 H 74.527 Z"
         transform="translate(-144.17928,-133.0742)"
         id="path4683-1" />
    </clipPath>
    <clipPath
       clipPathUnits="userSpaceOnUse"
       id="clipPath4677">
      <path
         d="m 130.848,122.048 h 11.813 v 11.813 h -11.813 z"
         transform="translate(-2.5000002e-5)"
         id="path4677" />
    </clipPath>
    <clipPath
       clipPathUnits="userSpaceOnUse"
       id="clipPath4675">
      <path
         d="m 130.848,122.048 h 11.813 v 11.813 h -11.813 z"
         transform="translate(-140.81643,-128.77201)"
         id="path4675" />
    </clipPath>
    <clipPath
       clipPathUnits="userSpaceOnUse"
       id="clipPath4673">
      <path
         d="m 130.848,122.048 h 11.813 v 11.813 h -11.813 z"
         transform="translate(-142.66158,-130.15231)"
         id="path4673" />
    </clipPath>
    <clipPath
       clipPathUnits="userSpaceOnUse"
       id="clipPath4671">
      <path
         d="m 130.848,122.048 h 11.813 v 11.813 h -11.813 z"
         transform="translate(-136.74783,-131.26741)"
         id="path4671" />
    </clipPath>
    <clipPath
       clipPathUnits="userSpaceOnUse"
       id="clipPath4669">
      <path
         d="m 130.848,122.048 h 11.813 v 11.813 h -11.813 z"
         transform="translate(-132.2584,-130.085)"
         id="path4669" />
    </clipPath>
    <clipPath
       clipPathUnits="userSpaceOnUse"
       id="clipPath4667">
      <path
         d="m 130.848,122.048 h 11.813 v 11.813 h -11.813 z"
         transform="translate(-142.66158,-130.5899)"
         id="path4667" />
    </clipPath>
    <clipPath
       clipPathUnits="userSpaceOnUse"
       id="clipPath4665">
      <path
         d="m 130.848,122.048 h 11.813 v 11.813 h -11.813 z"
         transform="translate(-142.66158,-133.8616)"
         id="path4665" />
    </clipPath>
    <clipPath
       clipPathUnits="userSpaceOnUse"
       id="clipPath4663">
      <path
         d="m 74.527,74.777 h 229.606 v 80.209 H 74.527 Z"
         transform="translate(-2.5000002e-5)"
         id="path4663" />
    </clipPath>
    <clipPath
       clipPathUnits="userSpaceOnUse"
       id="clipPath4685">
      <path
         d="m 74.527,74.777 h 229.606 v 80.209 H 74.527 Z"
         transform="translate(-131.63628,-133.0742)"
         id="path4685" />
    </clipPath>
    <clipPath
       clipPathUnits="userSpaceOnUse"
       id="clipPath4373">
      <path
         d="m 74.527,74.777 h 229.606 v 80.209 H 74.527 Z"
         transform="translate(-226.64163,-109.7603)"
         id="path4373" />
    </clipPath>
    <clipPath
       clipPathUnits="userSpaceOnUse"
       id="clipPath4369">
      <path
         d="m 223.717,112.686 c 0,-1.616 1.309,-2.926 2.925,-2.926 v 0 c 1.615,0 2.926,1.31 2.926,2.926 v 0 c 0,1.615 -1.311,2.925 -2.926,2.925 v 0 c -1.616,0 -2.925,-1.31 -2.925,-2.925"
         transform="translate(-2.5000002e-5)"
         id="path4369" />
    </clipPath>
    <clipPath
       clipPathUnits="userSpaceOnUse"
       id="clipPath4371">
      <path
         d="m 223.717,112.686 c 0,-1.616 1.309,-2.926 2.925,-2.926 v 0 c 1.615,0 2.926,1.31 2.926,2.926 v 0 c 0,1.615 -1.311,2.925 -2.926,2.925 v 0 c -1.616,0 -2.925,-1.31 -2.925,-2.925"
         transform="translate(-226.64171,-114.8056)"
         id="path4371" />
    </clipPath>
    <clipPath
       clipPathUnits="userSpaceOnUse"
       id="clipPath4373-1">
      <path
         d="m 74.527,74.777 h 229.606 v 80.209 H 74.527 Z"
         transform="translate(-226.64163,-109.7603)"
         id="path4373-1" />
    </clipPath>
    <clipPath
       clipPathUnits="userSpaceOnUse"
       id="clipPath4371-5">
      <path
         d="m 223.717,112.686 c 0,-1.616 1.309,-2.926 2.925,-2.926 v 0 c 1.615,0 2.926,1.31 2.926,2.926 v 0 c 0,1.615 -1.311,2.925 -2.926,2.925 v 0 c -1.616,0 -2.925,-1.31 -2.925,-2.925"
         transform="translate(-226.64171,-114.8056)"
         id="path4371-9" />
    </clipPath>
    <clipPath
       clipPathUnits="userSpaceOnUse"
       id="clipPath4369-8">
      <path
         d="m 223.717,112.686 c 0,-1.616 1.309,-2.926 2.925,-2.926 v 0 c 1.615,0 2.926,1.31 2.926,2.926 v 0 c 0,1.615 -1.311,2.925 -2.926,2.925 v 0 c -1.616,0 -2.925,-1.31 -2.925,-2.925"
         transform="translate(-2.5000002e-5)"
         id="path4369-4" />
    </clipPath>
    <clipPath
       clipPathUnits="userSpaceOnUse"
       id="clipPath6079">
      <path
         d="M 15,15 H 610.275 V 610.275 H 15 Z m 444.135,568.556 c 12.872,-0.827 32.839,-1.153 52.711,-1.153 v 0 c 1.562,0 3.126,10e-4 4.683,0.005 v 0 c 0.862,-0.277 2.693,-0.377 5.072,-0.377 v 0 c 3.058,0 7.022,0.165 10.991,0.333 v 0 l -3.093,0.374 c 11.801,-0.175 19.715,-0.293 26.309,-0.392 v 0 c 3.395,-0.02 6.451,-0.038 9.498,-0.056 v 0 c 4.893,0.025 9.771,0.05 15.169,0.077 v 0 c 0.075,-7.582 0.17,-17.125 0.314,-31.471 v 0 l 0.638,-4.81 c -0.089,0.461 -0.181,0.66 -0.272,0.66 v 0 c -0.466,0 -0.913,-5.311 -1.011,-7.768 v 0 c -0.021,-6.751 0.435,-18.369 0.525,-28.587 v 0 l -0.368,0.302 c -0.191,17.238 -0.715,42.426 -0.785,55.88 v 0 l -0.799,-0.011 -0.48,-13.707 1.045,-4.536 c -0.881,-18.233 -0.079,-27.15 -0.118,-38.564 v 0 c 0.038,-8.036 0.426,-13.984 0.928,-15.362 v 0 l 0.038,-1.593 c 0.058,0.085 0.101,0.49 0.137,1.118 v 0 l 0.027,-0.101 c -0.561,-9.1 -0.843,-13.666 -1.24,-25.076 v 0 l -0.083,11.405 -0.882,-11.471 c -0.439,-9.112 1.97,-2.201 0.447,-25.04 v 0 l -0.842,-6.846 c 0.884,-2.264 -0.196,-22.811 -0.717,-34.198 v 0 l 2.56,14.313 c -0.014,-13.493 -0.421,-29.039 0.13,-40.176 v 0 c -0.03,0 -0.07,0.139 -0.117,0.277 v 0 c -0.046,0.137 -0.101,0.276 -0.161,0.276 v 0 c -0.121,0 -0.262,-0.573 -0.403,-2.888 v 0 l 0.483,-6.836 -0.401,-4.543 c 0.603,-6.799 1.527,-3.156 2.532,-5.412 v 0 l -0.241,-0.002 c 1.339,-2.037 -1.022,-42.89 -0.414,-52.631 v 0 c 0.055,1.502 0.288,3.243 0.385,3.243 v 0 c 0.073,0 0.071,-0.957 -0.132,-3.679 v 0 c 0.243,0.04 0.403,4.589 0.602,6.882 v 0 c 0,-6.839 -0.482,-6.881 -0.918,-22.837 v 0 c 1.234,-3.626 0.29,-22.279 0.292,-34.101 v 0 c -0.122,-0.805 -0.276,-2.482 -0.414,-2.482 v 0 c -0.112,0 -0.211,1.1 -0.275,4.656 v 0 l -0.72,-13.684 c 0.012,-0.7 0.045,-0.971 0.091,-0.971 v 0 c 0.081,0 0.201,0.843 0.321,1.686 v 0 c 0.12,0.843 0.239,1.686 0.317,1.686 v 0 c 0.089,0 0.121,-1.123 0.035,-4.663 v 0 c -0.441,-9.142 -1.206,-0.049 -1.242,-18.256 v 0 c -0.281,-11.426 0.768,-22.769 0.086,-31.924 v 0 c 0.026,-5.707 -0.971,-23.091 -1.421,-36.942 v 0 l 0.877,-100.515 -1.791,-0.016 1.798,-0.739 -42.683,-5.033 c 0.711,0.109 1.111,0.226 1.111,0.226 v 0 c -3.63,0.137 -7.181,0.191 -10.673,0.191 v 0 c -6.407,0 -12.615,-0.181 -18.743,-0.364 v 0 c -6.129,-0.182 -12.177,-0.364 -18.266,-0.364 v 0 c -3.707,0 -7.43,0.068 -11.193,0.243 v 0 l -0.165,-0.13 c -0.1,0.325 -1.815,0.445 -4.506,0.445 v 0 c -3.798,0 -9.538,-0.239 -15.416,-0.478 v 0 c -5.878,-0.239 -11.896,-0.478 -16.254,-0.478 v 0 c -2.739,0 -4.823,0.094 -5.805,0.342 v 0 c -2.072,0.068 -4.054,0.098 -5.958,0.098 v 0 c -11.68,0 -20.457,-1.116 -29.589,-1.42 v 0 c 1.083,0.143 -3.262,0.724 -9.314,0.724 v 0 c -2.118,0 -4.444,-0.071 -6.819,-0.257 v 0 c -3.131,-0.084 -11.814,-1.44 -20.156,-1.44 v 0 c -1.327,0 -2.648,0.035 -3.934,0.114 v 0 c -2.91,0.18 -6.394,0.243 -10.189,0.243 v 0 c -8.414,0 -18.344,-0.309 -26.846,-0.329 v 0 l 2.136,-0.394 c -1.788,0.005 -3.583,0.007 -5.387,0.007 v 0 c -18.767,0 -38.337,-0.245 -57.644,-0.488 v 0 c -19.296,-0.244 -38.331,-0.488 -56.047,-0.488 v 0 c -9.202,0 -18.049,0.065 -26.392,0.231 v 0 c 1.752,0.287 2.321,0.393 2.182,0.393 v 0 c -0.201,0 -1.894,-0.225 -3.622,-0.45 v 0 c -1.727,-0.225 -3.488,-0.45 -3.825,-0.45 v 0 c -0.263,0 0.341,0.137 2.501,0.518 v 0 l -16.113,0.011 c -0.528,-0.103 -0.638,-0.177 -0.637,-0.239 v 0 c -6.804,-0.374 -13.799,-1.578 -21.525,-1.578 v 0 c -2.738,0 -5.567,0.152 -8.512,0.544 v 0 c -0.163,0.348 -1.388,0.456 -2.958,0.456 v 0 c -1.311,0 -2.864,-0.075 -4.237,-0.152 v 0 c -1.375,-0.075 -2.57,-0.152 -3.168,-0.152 v 0 c -0.694,0 -0.584,0.103 0.989,0.427 v 0 C 107.944,42.084 96.746,41.834 86.297,41.783 v 0 C 73.584,41.81 61.782,41.837 49.325,41.864 v 0 C 49.304,47.5 49.282,53.239 49.26,59.161 v 0 c -0.023,3.67 -0.071,7.453 -0.156,11.403 v 0 c -0.17,7.898 -0.489,16.459 -1.053,26.09 v 0 l 0.23,-2.924 0.085,10.929 -1.036,-3.539 c 0.788,6.301 -0.743,23.976 0.125,23.976 v 0 c 0.02,0 0.041,-0.009 0.063,-0.028 v 0 l 0.115,-1.465 c 0.035,-0.028 0.067,-0.041 0.097,-0.041 v 0 c 0.87,0 0.376,11.081 0.666,16.657 v 0 c -0.494,-0.444 -0.631,-1.839 -0.661,-2.755 v 0 c -0.038,1.15 -0.169,3.745 -0.556,8.694 v 0 c 1.042,20.215 -0.679,42.19 0.445,56.599 v 0 l -0.837,5.926 c 0.928,21.674 -1.99,51.735 -0.19,71.883 v 0 c -0.747,33.47 -1.464,54.628 -2.341,87.375 v 0 c 0.003,16.754 -0.678,42.226 0.657,51.535 v 0 c 0.584,26.11 -1.123,37.697 -1.181,59.171 v 0 c 0.152,-0.323 0.278,-0.473 0.382,-0.473 v 0 c 1.062,0 -0.149,15.509 0.536,21.13 v 0 c -0.052,-0.039 -0.101,-0.058 -0.146,-0.058 v 0 c -1.219,0 0.141,13.674 -1.029,16.779 v 0 l 0.857,0.462 -0.026,32.688 0.238,-2.452 c 0.03,-0.023 0.058,-0.035 0.083,-0.035 v 0 c 0.579,0 -0.177,5.945 0.069,10.079 v 0 l -0.54,3.231 -0.271,1.615 -0.033,0.202 -0.036,0.35 -0.07,0.726 -0.141,1.469 0.554,-1.808 c 0.092,-0.265 0.185,-0.64 0.277,-0.802 v 0 l 0.272,-0.493 c 0.012,0.217 0.023,0.424 0.034,0.622 v 0 c 0.006,0.325 0.013,0.635 0.02,0.933 v 0 c 0.004,0.595 0.009,1.138 0.012,1.64 v 0 c -0.002,1.004 -0.023,1.85 -0.057,2.628 v 0 c -0.066,1.556 -0.18,2.844 -0.272,4.544 v 0 c 0.096,-0.897 0.231,-1.237 0.371,-1.464 v 0 c 0.071,2.525 0.101,5.08 0.097,7.586 v 0 c 5.023,0.01 9.661,0.154 13.328,0.395 v 0 c 0.915,0.06 1.767,0.126 2.541,0.198 v 0 c 0.481,0.069 0.865,0.143 1.216,0.222 v 0 c 0.69,0.16 1.145,0.338 1.299,0.532 v 0 c 3,-0.12 1.922,-0.64 4.39,-0.64 v 0 c 0.223,0 0.474,0.005 0.761,0.014 v 0 c 4.711,0.231 1.593,0.606 -0.447,0.858 v 0 c 4.886,-0.197 6.485,-0.586 11.769,-0.586 v 0 c 1.821,0 4.082,0.046 7.065,0.163 v 0 l -4.909,-0.475 c 1.244,0.081 2.379,0.111 3.459,0.111 v 0 c 1.47,0 2.837,-0.055 4.234,-0.11 v 0 c 1.398,-0.056 2.825,-0.11 4.418,-0.11 v 0 c 2.348,0 5.053,0.119 8.546,0.536 v 0 l 1.153,1.464 -9.582,-0.705 15.884,1.54 c 3.277,-0.131 0.842,-0.368 1.639,-0.737 v 0 c 2.245,0.164 3.968,0.217 5.359,0.217 v 0 c 1.269,0 2.263,-0.044 3.126,-0.088 v 0 c 0.862,-0.044 1.593,-0.088 2.338,-0.088 v 0 c 1.201,0 2.437,0.114 4.314,0.526 v 0 l 1.48,-0.982 7.52,0.954 c -1.611,-0.604 -5.875,-1.692 5.184,-1.969 v 0 l 10.042,-0.149 -2.501,1.104 c 3.758,-0.268 5.998,-1.019 9.699,-1.019 v 0 c 1.55,0 3.356,0.133 5.636,0.485 v 0 l 0.446,-0.855 c 0.649,-0.02 1.222,-0.03 1.727,-0.03 v 0 c 2.634,0 3.466,0.248 4.03,0.497 v 0 c 0.562,0.248 0.855,0.496 2.414,0.496 v 0 c 0.634,0 1.476,-0.041 2.631,-0.139 v 0 l -2.836,-0.725 c 16.807,0.234 29.741,1.212 43.342,1.212 v 0 c 3.915,0 7.886,-0.081 12.019,-0.285 v 0 l -0.236,-0.344 c 1.859,-0.076 4.112,-0.104 6.467,-0.104 v 0 c 5.943,0 12.529,0.183 15.029,0.263 v 0 l -2.039,0.149 14.857,0.321 0.661,-0.612 10.405,0.335 -0.364,-0.486 c 2.998,-0.121 5.939,-0.175 8.819,-0.175 v 0 c 6.52,0 12.726,0.278 18.556,0.685 v 0 l -3.079,0.273 c 2.58,0.084 5.227,1.635 7.526,2.615 v 0 c 6.375,0.031 5.028,0.697 9.698,0.697 v 0 c 1.148,0 2.66,-0.041 4.741,-0.141 v 0 c -2.617,-0.48 -3.881,-0.599 -2.05,-1.093 v 0 c 11.855,0.698 6.987,0.224 15.917,1.541 v 0 c -6.495,-1.08 -1.74,-2.193 8.083,-2.588 v 0 c 16.579,0.148 21.293,1.081 30.013,1.081 v 0 c 2.033,0 4.286,-0.051 6.957,-0.174 v 0 l 7.832,-1.283 c 0.296,-0.006 0.579,-0.008 0.854,-0.008 v 0 c 2.969,0 4.798,0.308 6.3,0.617 v 0 c 1.501,0.31 2.673,0.618 4.333,0.618 v 0 c 0.583,0 1.227,-0.037 1.966,-0.127 v 0 c 2.457,-0.062 4.203,-0.089 5.449,-0.089 v 0 c 2.957,0 3.103,0.145 3.254,0.289 v 0 c 0.153,0.144 0.311,0.289 3.298,0.289 v 0 c 0.959,0 2.208,-0.015 3.841,-0.049 v 0 l -0.077,0.077 c 0.439,-0.032 0.894,-0.066 1.326,-0.1 v 0 l 0.038,-0.002 c 2.09,-0.143 3.892,-0.192 5.555,-0.192 v 0 c 1.92,0 3.655,0.066 5.433,0.133 v 0 c 1.782,0.067 3.608,0.133 5.708,0.133 v 0 c 0.091,0 0.183,0 0.275,-10e-4 v 0 l 9.638,0.501 c 0.717,0.439 1.93,0.587 3.395,0.587 v 0 c 2.997,0 7.049,-0.618 10.081,-0.627 v 0 z"
         transform="matrix(0.00167912,0,0,-0.00167912,-0.0250736,1.0249143)"
         id="path6079" />
    </clipPath>
    <clipPath
       clipPathUnits="userSpaceOnUse"
       id="clipPath6168">
      <path
         d="M 15,15 H 610.275 V 610.275 H 15 Z"
         transform="translate(-91.783127,-512.68841)"
         id="path6168" />
    </clipPath>
    <clipPath
       clipPathUnits="userSpaceOnUse"
       id="clipPath6170">
      <path
         d="M 15,15 H 610.275 V 610.275 H 15 Z"
         transform="translate(-91.783127,-512.68841)"
         id="path6170" />
    </clipPath>
    <clipPath
       clipPathUnits="userSpaceOnUse"
       id="clipPath6172">
      <path
         d="M 15,15 H 610.275 V 610.275 H 15 Z"
         transform="translate(-93.091427,-512.68841)"
         id="path6172" />
    </clipPath>
    <clipPath
       clipPathUnits="userSpaceOnUse"
       id="clipPath6174">
      <path
         d="M 15,15 H 610.275 V 610.275 H 15 Z"
         transform="translate(-91.878002,-478.87781)"
         id="path6174" />
    </clipPath>
    <clipPath
       clipPathUnits="userSpaceOnUse"
       id="clipPath6176">
      <path
         d="m 75.011,495.744 c 0,-9.315 7.551,-16.867 16.867,-16.867 v 0 c 5.517,0 10.415,2.65 13.492,6.745 v 0 20.245 c -3.077,4.094 -7.975,6.743 -13.492,6.743 v 0 c -9.316,0 -16.867,-7.551 -16.867,-16.866"
         transform="matrix(1.9396922,0,0,1.9343374,-194.95536,-961.74281)"
         id="path6176" />
    </clipPath>
    <clipPath
       clipPathUnits="userSpaceOnUse"
       id="clipPath6178">
      <path
         d="m 75.011,495.744 c 0,-9.315 7.551,-16.867 16.867,-16.867 v 0 c 5.517,0 10.415,2.65 13.492,6.745 v 0 20.245 c -3.077,4.094 -7.975,6.743 -13.492,6.743 v 0 c -9.316,0 -16.867,-7.551 -16.867,-16.866"
         transform="matrix(1.9396922,0,0,1.9343374,-128.06086,-961.74281)"
         id="path6178" />
    </clipPath>
    <clipPath
       clipPathUnits="userSpaceOnUse"
       id="clipPath6180">
      <path
         d="m 75.011,495.744 c 0,-9.315 7.551,-16.867 16.867,-16.867 v 0 c 5.517,0 10.415,2.65 13.492,6.745 v 0 20.245 c -3.077,4.094 -7.975,6.743 -13.492,6.743 v 0 c -9.316,0 -16.867,-7.551 -16.867,-16.866"
         transform="matrix(1.9396922,0,0,1.9343374,-172.91445,-966.6412)"
         id="path6180" />
    </clipPath>
    <clipPath
       clipPathUnits="userSpaceOnUse"
       id="clipPath6182">
      <path
         d="M 15,15 H 610.275 V 610.275 H 15 Z"
         transform="translate(-91.878002,-478.87781)"
         id="path6182" />
    </clipPath>
    <clipPath
       clipPathUnits="userSpaceOnUse"
       id="clipPath6184">
      <path
         d="M 15,15 H 610.275 V 610.275 H 15 Z"
         id="path6184" />
    </clipPath>
    <clipPath
       clipPathUnits="userSpaceOnUse"
       id="clipPath6186">
      <path
         d="M 15,15 H 610.275 V 610.275 H 15 Z"
         transform="translate(-196.14578,-499.97941)"
         id="path6186" />
    </clipPath>
    <clipPath
       clipPathUnits="userSpaceOnUse"
       id="clipPath6188">
      <path
         d="M 15,15 H 610.275 V 610.275 H 15 Z"
         transform="translate(-196.14578,-499.97941)"
         id="path6188" />
    </clipPath>
    <clipPath
       clipPathUnits="userSpaceOnUse"
       id="clipPath6190">
      <path
         d="M 15,15 H 610.275 V 610.275 H 15 Z"
         transform="translate(-195.77228,-500.24792)"
         id="path6190" />
    </clipPath>
    <clipPath
       clipPathUnits="userSpaceOnUse"
       id="clipPath6192">
      <path
         d="M 15,15 H 610.275 V 610.275 H 15 Z"
         transform="translate(-195.77228,-500.24792)"
         id="path6192" />
    </clipPath>
    <clipPath
       clipPathUnits="userSpaceOnUse"
       id="clipPath6194">
      <path
         d="M 15,15 H 610.275 V 610.275 H 15 Z"
         transform="translate(-200.57243,-498.66731)"
         id="path6194" />
    </clipPath>
    <clipPath
       clipPathUnits="userSpaceOnUse"
       id="clipPath6196">
      <path
         d="M 15,15 H 610.275 V 610.275 H 15 Z"
         transform="translate(-200.57243,-498.66731)"
         id="path6196" />
    </clipPath>
    <clipPath
       clipPathUnits="userSpaceOnUse"
       id="clipPath6198">
      <path
         d="M 15,15 H 610.275 V 610.275 H 15 Z"
         transform="translate(-195.73403,-499.86981)"
         id="path6198" />
    </clipPath>
    <clipPath
       clipPathUnits="userSpaceOnUse"
       id="clipPath6200">
      <path
         d="M 15,15 H 610.275 V 610.275 H 15 Z"
         transform="translate(-195.5016,-500.22951)"
         id="path6200" />
    </clipPath>
    <clipPath
       clipPathUnits="userSpaceOnUse"
       id="clipPath6202">
      <path
         d="M 15,15 H 610.275 V 610.275 H 15 Z"
         transform="translate(-200.72828,-498.56921)"
         id="path6202" />
    </clipPath>
    <clipPath
       clipPathUnits="userSpaceOnUse"
       id="clipPath6204">
      <path
         d="M 15,15 H 610.275 V 610.275 H 15 Z"
         transform="translate(-188.34128,-503.26622)"
         id="path6204" />
    </clipPath>
    <clipPath
       clipPathUnits="userSpaceOnUse"
       id="clipPath6206">
      <path
         d="M 15,15 H 610.275 V 610.275 H 15 Z"
         transform="translate(-188.34128,-503.26622)"
         id="path6206" />
    </clipPath>
    <clipPath
       clipPathUnits="userSpaceOnUse"
       id="clipPath6208">
      <path
         d="M 15,15 H 610.275 V 610.275 H 15 Z"
         transform="translate(-167.49248,-503.17142)"
         id="path6208" />
    </clipPath>
    <clipPath
       clipPathUnits="userSpaceOnUse"
       id="clipPath6210">
      <path
         d="M 15,15 H 610.275 V 610.275 H 15 Z"
         transform="translate(-167.49248,-503.17142)"
         id="path6210" />
    </clipPath>
    <clipPath
       clipPathUnits="userSpaceOnUse"
       id="clipPath6212">
      <path
         d="M 15,15 H 610.275 V 610.275 H 15 Z"
         transform="translate(-167.1411,-495.56571)"
         id="path6212" />
    </clipPath>
    <clipPath
       clipPathUnits="userSpaceOnUse"
       id="clipPath6214">
      <path
         d="M 15,15 H 610.275 V 610.275 H 15 Z"
         transform="translate(-156.60458,-495.56571)"
         id="path6214" />
    </clipPath>
    <clipPath
       clipPathUnits="userSpaceOnUse"
       id="clipPath6216">
      <path
         d="M 15,15 H 610.275 V 610.275 H 15 Z"
         transform="translate(-161.86493,-506.07332)"
         id="path6216" />
    </clipPath>
    <clipPath
       clipPathUnits="userSpaceOnUse"
       id="clipPath6218">
      <path
         d="M 15,15 H 610.275 V 610.275 H 15 Z"
         transform="translate(-158.68283,-497.74871)"
         id="path6218" />
    </clipPath>
    <clipPath
       clipPathUnits="userSpaceOnUse"
       id="clipPath6220">
      <path
         d="M 15,15 H 610.275 V 610.275 H 15 Z"
         transform="translate(-158.68283,-497.74871)"
         id="path6220" />
    </clipPath>
    <clipPath
       clipPathUnits="userSpaceOnUse"
       id="clipPath6222">
      <path
         d="M 15,15 H 610.275 V 610.275 H 15 Z"
         transform="translate(-158.33138,-490.14301)"
         id="path6222" />
    </clipPath>
    <clipPath
       clipPathUnits="userSpaceOnUse"
       id="clipPath6224">
      <path
         d="M 15,15 H 610.275 V 610.275 H 15 Z"
         transform="translate(-147.79493,-490.14301)"
         id="path6224" />
    </clipPath>
    <clipPath
       clipPathUnits="userSpaceOnUse"
       id="clipPath6226">
      <path
         d="M 15,15 H 610.275 V 610.275 H 15 Z"
         transform="translate(-153.0552,-500.65052)"
         id="path6226" />
    </clipPath>
    <clipPath
       clipPathUnits="userSpaceOnUse"
       id="clipPath6228">
      <path
         d="M 15,15 H 610.275 V 610.275 H 15 Z"
         transform="translate(-171.39788,-496.10091)"
         id="path6228" />
    </clipPath>
    <clipPath
       clipPathUnits="userSpaceOnUse"
       id="clipPath6230">
      <path
         d="M 15,15 H 610.275 V 610.275 H 15 Z"
         transform="translate(-171.39788,-496.10091)"
         id="path6230" />
    </clipPath>
    <clipPath
       clipPathUnits="userSpaceOnUse"
       id="clipPath6232">
      <path
         d="M 15,15 H 610.275 V 610.275 H 15 Z"
         transform="translate(-171.04658,-488.49521)"
         id="path6232" />
    </clipPath>
    <clipPath
       clipPathUnits="userSpaceOnUse"
       id="clipPath6234">
      <path
         d="M 15,15 H 610.275 V 610.275 H 15 Z"
         transform="translate(-160.51013,-488.49521)"
         id="path6234" />
    </clipPath>
    <clipPath
       clipPathUnits="userSpaceOnUse"
       id="clipPath6236">
      <path
         d="M 15,15 H 610.275 V 610.275 H 15 Z"
         transform="translate(-165.7704,-499.00281)"
         id="path6236" />
    </clipPath>
    <clipPath
       clipPathUnits="userSpaceOnUse"
       id="clipPath6238">
      <path
         d="M 15,15 H 610.275 V 610.275 H 15 Z"
         transform="translate(-117.17648,-503.66372)"
         id="path6238" />
    </clipPath>
    <clipPath
       clipPathUnits="userSpaceOnUse"
       id="clipPath6240">
      <path
         d="M 15,15 H 610.275 V 610.275 H 15 Z"
         transform="translate(-117.61838,-503.66372)"
         id="path6240" />
    </clipPath>
    <clipPath
       clipPathUnits="userSpaceOnUse"
       id="clipPath6242">
      <path
         d="M 15,15 H 610.275 V 610.275 H 15 Z"
         transform="translate(-118.74158,-500.21561)"
         id="path6242" />
    </clipPath>
    <clipPath
       clipPathUnits="userSpaceOnUse"
       id="clipPath6244">
      <path
         d="M 15,15 H 610.275 V 610.275 H 15 Z"
         transform="translate(-118.44023,-497.28551)"
         id="path6244" />
    </clipPath>
    <clipPath
       clipPathUnits="userSpaceOnUse"
       id="clipPath6246">
      <path
         d="M 15,15 H 610.275 V 610.275 H 15 Z"
         transform="translate(-118.1325,-494.35831)"
         id="path6246" />
    </clipPath>
    <clipPath
       clipPathUnits="userSpaceOnUse"
       id="clipPath6452">
      <path
         d="M 0,0 H 625.276 V 625.276 H 0 Z"
         transform="translate(-15,-596.10241)"
         id="path6452" />
    </clipPath>
    <clipPath
       clipPathUnits="userSpaceOnUse"
       id="clipPath6454">
      <path
         d="M 0,0 H 625.276 V 625.276 H 0 Z"
         transform="translate(-15,-596.10241)"
         id="path6454" />
    </clipPath>
    <clipPath
       clipPathUnits="userSpaceOnUse"
       id="clipPath6277">
      <path
         d="M 15,15 H 610.275 V 610.275 H 15 Z"
         transform="translate(-338.39918,-512.68841)"
         id="path6277" />
    </clipPath>
    <clipPath
       clipPathUnits="userSpaceOnUse"
       id="clipPath6279">
      <path
         d="M 15,15 H 610.275 V 610.275 H 15 Z"
         transform="translate(-338.39918,-512.68841)"
         id="path6279" />
    </clipPath>
    <clipPath
       clipPathUnits="userSpaceOnUse"
       id="clipPath6281">
      <path
         d="M 15,15 H 610.275 V 610.275 H 15 Z"
         transform="translate(-338.39918,-512.68841)"
         id="path6281" />
    </clipPath>
    <clipPath
       clipPathUnits="userSpaceOnUse"
       id="clipPath6283">
      <path
         d="M 15,15 H 610.275 V 610.275 H 15 Z"
         transform="translate(-338.10698,-478.86641)"
         id="path6283" />
    </clipPath>
    <clipPath
       clipPathUnits="userSpaceOnUse"
       id="clipPath6285">
      <path
         d="m 321.229,495.744 c 0,-9.321 7.556,-16.877 16.878,-16.877 v 0 c 9.322,0 16.878,7.556 16.878,16.877 v 0 c 0,9.322 -7.556,16.879 -16.878,16.879 v 0 c -9.322,0 -16.878,-7.557 -16.878,-16.879"
         transform="translate(-347.41298,-499.56981)"
         id="path6285" />
    </clipPath>
    <clipPath
       clipPathUnits="userSpaceOnUse"
       id="clipPath6287">
      <path
         d="m 321.229,495.744 c 0,-9.321 7.556,-16.877 16.878,-16.877 v 0 c 9.322,0 16.878,7.556 16.878,16.877 v 0 c 0,9.322 -7.556,16.879 -16.878,16.879 v 0 c -9.322,0 -16.878,-7.557 -16.878,-16.879"
         transform="translate(-330.38491,-497.64771)"
         id="path6287" />
    </clipPath>
    <clipPath
       clipPathUnits="userSpaceOnUse"
       id="clipPath6289">
      <path
         d="m 321.229,495.744 c 0,-9.321 7.556,-16.877 16.878,-16.877 v 0 c 9.322,0 16.878,7.556 16.878,16.877 v 0 c 0,9.322 -7.556,16.879 -16.878,16.879 v 0 c -9.322,0 -16.878,-7.557 -16.878,-16.879"
         transform="translate(-333.71408,-491.49011)"
         id="path6289" />
    </clipPath>
    <clipPath
       clipPathUnits="userSpaceOnUse"
       id="clipPath6291">
      <path
         d="m 321.229,495.744 c 0,-9.321 7.556,-16.877 16.878,-16.877 v 0 c 9.322,0 16.878,7.556 16.878,16.877 v 0 c 0,9.322 -7.556,16.879 -16.878,16.879 v 0 c -9.322,0 -16.878,-7.557 -16.878,-16.879"
         transform="translate(-336.33653,-493.52861)"
         id="path6291" />
    </clipPath>
    <clipPath
       clipPathUnits="userSpaceOnUse"
       id="clipPath6293">
      <path
         d="m 321.229,495.744 c 0,-9.321 7.556,-16.877 16.878,-16.877 v 0 c 9.322,0 16.878,7.556 16.878,16.877 v 0 c 0,9.322 -7.556,16.879 -16.878,16.879 v 0 c -9.322,0 -16.878,-7.557 -16.878,-16.879"
         id="path6293" />
    </clipPath>
    <clipPath
       clipPathUnits="userSpaceOnUse"
       id="clipPath6295">
      <path
         d="m 321.229,495.744 c 0,-9.321 7.556,-16.877 16.878,-16.877 v 0 c 9.322,0 16.878,7.556 16.878,16.877 v 0 c 0,9.322 -7.556,16.879 -16.878,16.879 v 0 c -9.322,0 -16.878,-7.557 -16.878,-16.879"
         id="path6295" />
    </clipPath>
    <clipPath
       clipPathUnits="userSpaceOnUse"
       id="clipPath6297">
      <path
         d="m 321.229,495.744 c 0,-9.321 7.556,-16.877 16.878,-16.877 v 0 c 9.322,0 16.878,7.556 16.878,16.877 v 0 c 0,9.322 -7.556,16.879 -16.878,16.879 v 0 c -9.322,0 -16.878,-7.557 -16.878,-16.879"
         id="path6297" />
    </clipPath>
    <clipPath
       clipPathUnits="userSpaceOnUse"
       id="clipPath6299">
      <path
         d="m 321.229,495.744 c 0,-9.321 7.556,-16.877 16.878,-16.877 v 0 c 9.322,0 16.878,7.556 16.878,16.877 v 0 c 0,9.322 -7.556,16.879 -16.878,16.879 v 0 c -9.322,0 -16.878,-7.557 -16.878,-16.879"
         transform="translate(-334.34483,-485.87141)"
         id="path6299" />
    </clipPath>
    <clipPath
       clipPathUnits="userSpaceOnUse"
       id="clipPath6301">
      <path
         d="m 321.229,495.744 c 0,-9.321 7.556,-16.877 16.878,-16.877 v 0 c 9.322,0 16.878,7.556 16.878,16.877 v 0 c 0,9.322 -7.556,16.879 -16.878,16.879 v 0 c -9.322,0 -16.878,-7.557 -16.878,-16.879"
         transform="translate(-343.33801,-493.19881)"
         id="path6301" />
    </clipPath>
    <clipPath
       clipPathUnits="userSpaceOnUse"
       id="clipPath6303">
      <path
         d="m 321.229,495.744 c 0,-9.321 7.556,-16.877 16.878,-16.877 v 0 c 9.322,0 16.878,7.556 16.878,16.877 v 0 c 0,9.322 -7.556,16.879 -16.878,16.879 v 0 c -9.322,0 -16.878,-7.557 -16.878,-16.879"
         transform="translate(-337.73071,-494.33761)"
         id="path6303" />
    </clipPath>
    <clipPath
       clipPathUnits="userSpaceOnUse"
       id="clipPath6305">
      <path
         d="m 321.229,495.744 c 0,-9.321 7.556,-16.877 16.878,-16.877 v 0 c 9.322,0 16.878,7.556 16.878,16.877 v 0 c 0,9.322 -7.556,16.879 -16.878,16.879 v 0 c -9.322,0 -16.878,-7.557 -16.878,-16.879"
         transform="translate(-341.94383,-494.00781)"
         id="path6305" />
    </clipPath>
    <clipPath
       clipPathUnits="userSpaceOnUse"
       id="clipPath6307">
      <path
         d="m 321.229,495.744 c 0,-9.321 7.556,-16.877 16.878,-16.877 v 0 c 9.322,0 16.878,7.556 16.878,16.877 v 0 c 0,9.322 -7.556,16.879 -16.878,16.879 v 0 c -9.322,0 -16.878,-7.557 -16.878,-16.879"
         transform="translate(-340.54973,-494.81671)"
         id="path6307" />
    </clipPath>
    <clipPath
       clipPathUnits="userSpaceOnUse"
       id="clipPath6309">
      <path
         d="m 321.229,495.744 c 0,-9.321 7.556,-16.877 16.878,-16.877 v 0 c 9.322,0 16.878,7.556 16.878,16.877 v 0 c 0,9.322 -7.556,16.879 -16.878,16.879 v 0 c -9.322,0 -16.878,-7.557 -16.878,-16.879"
         transform="translate(-339.12481,-495.14661)"
         id="path6309" />
    </clipPath>
    <clipPath
       clipPathUnits="userSpaceOnUse"
       id="clipPath6311">
      <path
         d="m 321.229,495.744 c 0,-9.321 7.556,-16.877 16.878,-16.877 v 0 c 9.322,0 16.878,7.556 16.878,16.877 v 0 c 0,9.322 -7.556,16.879 -16.878,16.879 v 0 c -9.322,0 -16.878,-7.557 -16.878,-16.879"
         transform="translate(-340.42613,-484.07831)"
         id="path6311" />
    </clipPath>
    <clipPath
       clipPathUnits="userSpaceOnUse"
       id="clipPath6313">
      <path
         d="m 321.229,495.744 c 0,-9.321 7.556,-16.877 16.878,-16.877 v 0 c 9.322,0 16.878,7.556 16.878,16.877 v 0 c 0,9.322 -7.556,16.879 -16.878,16.879 v 0 c -9.322,0 -16.878,-7.557 -16.878,-16.879"
         transform="translate(-343.50458,-485.87141)"
         id="path6313" />
    </clipPath>
    <clipPath
       clipPathUnits="userSpaceOnUse"
       id="clipPath6315">
      <path
         d="m 321.229,495.744 c 0,-9.321 7.556,-16.877 16.878,-16.877 v 0 c 9.322,0 16.878,7.556 16.878,16.877 v 0 c 0,9.322 -7.556,16.879 -16.878,16.879 v 0 c -9.322,0 -16.878,-7.557 -16.878,-16.879"
         transform="translate(-344.06191,-492.66441)"
         id="path6315" />
    </clipPath>
    <clipPath
       clipPathUnits="userSpaceOnUse"
       id="clipPath6317">
      <path
         d="m 321.229,495.744 c 0,-9.321 7.556,-16.877 16.878,-16.877 v 0 c 9.322,0 16.878,7.556 16.878,16.877 v 0 c 0,9.322 -7.556,16.879 -16.878,16.879 v 0 c -9.322,0 -16.878,-7.557 -16.878,-16.879"
         id="path6317" />
    </clipPath>
    <clipPath
       clipPathUnits="userSpaceOnUse"
       id="clipPath6319">
      <path
         d="m 321.229,495.744 c 0,-9.321 7.556,-16.877 16.878,-16.877 v 0 c 9.322,0 16.878,7.556 16.878,16.877 v 0 c 0,9.322 -7.556,16.879 -16.878,16.879 v 0 c -9.322,0 -16.878,-7.557 -16.878,-16.879"
         id="path6319" />
    </clipPath>
    <clipPath
       clipPathUnits="userSpaceOnUse"
       id="clipPath6321">
      <path
         d="m 321.229,495.744 c 0,-9.321 7.556,-16.877 16.878,-16.877 v 0 c 9.322,0 16.878,7.556 16.878,16.877 v 0 c 0,9.322 -7.556,16.879 -16.878,16.879 v 0 c -9.322,0 -16.878,-7.557 -16.878,-16.879"
         id="path6321" />
    </clipPath>
    <clipPath
       clipPathUnits="userSpaceOnUse"
       id="clipPath6323">
      <path
         d="m 321.229,495.744 c 0,-9.321 7.556,-16.877 16.878,-16.877 v 0 c 9.322,0 16.878,7.556 16.878,16.877 v 0 c 0,9.322 -7.556,16.879 -16.878,16.879 v 0 c -9.322,0 -16.878,-7.557 -16.878,-16.879"
         transform="translate(-334.81883,-484.86041)"
         id="path6323" />
    </clipPath>
    <clipPath
       clipPathUnits="userSpaceOnUse"
       id="clipPath6325">
      <path
         d="m 321.229,495.744 c 0,-9.321 7.556,-16.877 16.878,-16.877 v 0 c 9.322,0 16.878,7.556 16.878,16.877 v 0 c 0,9.322 -7.556,16.879 -16.878,16.879 v 0 c -9.322,0 -16.878,-7.557 -16.878,-16.879"
         transform="translate(-341.82023,-484.88721)"
         id="path6325" />
    </clipPath>
    <clipPath
       clipPathUnits="userSpaceOnUse"
       id="clipPath6327">
      <path
         d="m 321.229,495.744 c 0,-9.321 7.556,-16.877 16.878,-16.877 v 0 c 9.322,0 16.878,7.556 16.878,16.877 v 0 c 0,9.322 -7.556,16.879 -16.878,16.879 v 0 c -9.322,0 -16.878,-7.557 -16.878,-16.879"
         transform="translate(-337.60711,-483.24241)"
         id="path6327" />
    </clipPath>
    <clipPath
       clipPathUnits="userSpaceOnUse"
       id="clipPath6329">
      <path
         d="m 321.229,495.744 c 0,-9.321 7.556,-16.877 16.878,-16.877 v 0 c 9.322,0 16.878,7.556 16.878,16.877 v 0 c 0,9.322 -7.556,16.879 -16.878,16.879 v 0 c -9.322,0 -16.878,-7.557 -16.878,-16.879"
         transform="translate(-339.03203,-483.26931)"
         id="path6329" />
    </clipPath>
    <clipPath
       clipPathUnits="userSpaceOnUse"
       id="clipPath6331">
      <path
         d="m 321.229,495.744 c 0,-9.321 7.556,-16.877 16.878,-16.877 v 0 c 9.322,0 16.878,7.556 16.878,16.877 v 0 c 0,9.322 -7.556,16.879 -16.878,16.879 v 0 c -9.322,0 -16.878,-7.557 -16.878,-16.879"
         transform="translate(-336.21301,-484.05151)"
         id="path6331" />
    </clipPath>
    <clipPath
       clipPathUnits="userSpaceOnUse"
       id="clipPath6333">
      <path
         d="m 321.229,495.744 c 0,-9.321 7.556,-16.877 16.878,-16.877 v 0 c 9.322,0 16.878,7.556 16.878,16.877 v 0 c 0,9.322 -7.556,16.879 -16.878,16.879 v 0 c -9.322,0 -16.878,-7.557 -16.878,-16.879"
         transform="translate(-339.97711,-489.99581)"
         id="path6333" />
    </clipPath>
    <clipPath
       clipPathUnits="userSpaceOnUse"
       id="clipPath6335">
      <path
         d="m 321.229,495.744 c 0,-9.321 7.556,-16.877 16.878,-16.877 v 0 c 9.322,0 16.878,7.556 16.878,16.877 v 0 c 0,9.322 -7.556,16.879 -16.878,16.879 v 0 c -9.322,0 -16.878,-7.557 -16.878,-16.879"
         transform="translate(-336.88643,-490.52471)"
         id="path6335" />
    </clipPath>
    <clipPath
       clipPathUnits="userSpaceOnUse"
       id="clipPath6337">
      <path
         d="m 321.229,495.744 c 0,-9.321 7.556,-16.877 16.878,-16.877 v 0 c 9.322,0 16.878,7.556 16.878,16.877 v 0 c 0,9.322 -7.556,16.879 -16.878,16.879 v 0 c -9.322,0 -16.878,-7.557 -16.878,-16.879"
         transform="translate(-335.50501,-491.35531)"
         id="path6337" />
    </clipPath>
    <clipPath
       clipPathUnits="userSpaceOnUse"
       id="clipPath6339">
      <path
         d="m 321.229,495.744 c 0,-9.321 7.556,-16.877 16.878,-16.877 v 0 c 9.322,0 16.878,7.556 16.878,16.877 v 0 c 0,9.322 -7.556,16.879 -16.878,16.879 v 0 c -9.322,0 -16.878,-7.557 -16.878,-16.879"
         transform="translate(-341.36678,-490.81241)"
         id="path6339" />
    </clipPath>
    <clipPath
       clipPathUnits="userSpaceOnUse"
       id="clipPath6341">
      <path
         d="m 321.229,495.744 c 0,-9.321 7.556,-16.877 16.878,-16.877 v 0 c 9.322,0 16.878,7.556 16.878,16.877 v 0 c 0,9.322 -7.556,16.879 -16.878,16.879 v 0 c -9.322,0 -16.878,-7.557 -16.878,-16.879"
         id="path6341" />
    </clipPath>
    <clipPath
       clipPathUnits="userSpaceOnUse"
       id="clipPath6343">
      <path
         d="m 321.229,495.744 c 0,-9.321 7.556,-16.877 16.878,-16.877 v 0 c 9.322,0 16.878,7.556 16.878,16.877 v 0 c 0,9.322 -7.556,16.879 -16.878,16.879 v 0 c -9.322,0 -16.878,-7.557 -16.878,-16.879"
         transform="translate(-339.17611,-489.52511)"
         id="path6343" />
    </clipPath>
    <clipPath
       clipPathUnits="userSpaceOnUse"
       id="clipPath6345">
      <path
         d="m 321.229,495.744 c 0,-9.321 7.556,-16.877 16.878,-16.877 v 0 c 9.322,0 16.878,7.556 16.878,16.877 v 0 c 0,9.322 -7.556,16.879 -16.878,16.879 v 0 c -9.322,0 -16.878,-7.557 -16.878,-16.879"
         id="path6345" />
    </clipPath>
    <clipPath
       clipPathUnits="userSpaceOnUse"
       id="clipPath6347">
      <path
         d="m 321.229,495.744 c 0,-9.321 7.556,-16.877 16.878,-16.877 v 0 c 9.322,0 16.878,7.556 16.878,16.877 v 0 c 0,9.322 -7.556,16.879 -16.878,16.879 v 0 c -9.322,0 -16.878,-7.557 -16.878,-16.879"
         id="path6347" />
    </clipPath>
    <clipPath
       clipPathUnits="userSpaceOnUse"
       id="clipPath6349">
      <path
         d="M 15,15 H 610.275 V 610.275 H 15 Z"
         transform="translate(-338.10698,-478.86641)"
         id="path6349" />
    </clipPath>
    <clipPath
       clipPathUnits="userSpaceOnUse"
       id="clipPath6351">
      <path
         d="M 15,15 H 610.275 V 610.275 H 15 Z"
         id="path6351" />
    </clipPath>
    <clipPath
       clipPathUnits="userSpaceOnUse"
       id="clipPath6353">
      <path
         d="M 15,15 H 610.275 V 610.275 H 15 Z"
         id="path6353" />
    </clipPath>
    <clipPath
       clipPathUnits="userSpaceOnUse"
       id="clipPath6355">
      <path
         d="M 15,15 H 610.275 V 610.275 H 15 Z"
         id="path6355" />
    </clipPath>
    <clipPath
       clipPathUnits="userSpaceOnUse"
       id="clipPath6357">
      <path
         d="M 15,15 H 610.275 V 610.275 H 15 Z"
         id="path6357" />
    </clipPath>
    <clipPath
       clipPathUnits="userSpaceOnUse"
       id="clipPath6359">
      <path
         d="M 15,15 H 610.275 V 610.275 H 15 Z"
         transform="translate(-360.57421,-485.39971)"
         id="path6359" />
    </clipPath>
    <clipPath
       clipPathUnits="userSpaceOnUse"
       id="clipPath6361">
      <path
         d="M 15,15 H 610.275 V 610.275 H 15 Z"
         transform="translate(-377.14141,-499.37191)"
         id="path6361" />
    </clipPath>
    <clipPath
       clipPathUnits="userSpaceOnUse"
       id="clipPath6363">
      <path
         d="M 15,15 H 610.275 V 610.275 H 15 Z"
         transform="translate(-377.14141,-499.37191)"
         id="path6363" />
    </clipPath>
    <clipPath
       clipPathUnits="userSpaceOnUse"
       id="clipPath6365">
      <path
         d="M 15,15 H 610.275 V 610.275 H 15 Z"
         transform="translate(-376.85671,-492.25921)"
         id="path6365" />
    </clipPath>
    <clipPath
       clipPathUnits="userSpaceOnUse"
       id="clipPath6367">
      <path
         d="M 15,15 H 610.275 V 610.275 H 15 Z"
         transform="translate(-366.96923,-492.25921)"
         id="path6367" />
    </clipPath>
    <clipPath
       clipPathUnits="userSpaceOnUse"
       id="clipPath6369">
      <path
         d="M 15,15 H 610.275 V 610.275 H 15 Z"
         transform="translate(-371.90551,-502.11962)"
         id="path6369" />
    </clipPath>
    <clipPath
       clipPathUnits="userSpaceOnUse"
       id="clipPath6371">
      <path
         d="M 15,15 H 610.275 V 610.275 H 15 Z"
         transform="translate(-405.74371,-484.31301)"
         id="path6371" />
    </clipPath>
    <clipPath
       clipPathUnits="userSpaceOnUse"
       id="clipPath6373">
      <path
         d="m 394.312,495.744 c 0,-6.313 5.119,-11.431 11.431,-11.431 v 0 c 6.314,0 11.432,5.118 11.432,11.431 v 0 c 0,6.314 -5.118,11.432 -11.432,11.432 v 0 c -6.312,0 -11.431,-5.118 -11.431,-11.432"
         transform="translate(-402.63189,-490.67261)"
         id="path6373" />
    </clipPath>
    <clipPath
       clipPathUnits="userSpaceOnUse"
       id="clipPath6375">
      <path
         d="M 15,15 H 610.275 V 610.275 H 15 Z"
         transform="translate(-441.15519,-484.31301)"
         id="path6375" />
    </clipPath>
    <clipPath
       clipPathUnits="userSpaceOnUse"
       id="clipPath6377">
      <path
         d="m 429.724,495.744 c 0,-6.313 5.117,-11.431 11.431,-11.431 v 0 c 6.313,0 11.432,5.118 11.432,11.431 v 0 c 0,6.314 -5.119,11.432 -11.432,11.432 v 0 c -6.314,0 -11.431,-5.118 -11.431,-11.432"
         transform="matrix(2.9074019,0,0,2.9159118,-1286.7495,-1446.8711)"
         id="path6377" />
    </clipPath>
    <clipPath
       clipPathUnits="userSpaceOnUse"
       id="clipPath6379">
      <path
         d="M 15,15 H 610.275 V 610.275 H 15 Z"
         transform="translate(-425.46661,-499.60241)"
         id="path6379" />
    </clipPath>
    <clipPath
       clipPathUnits="userSpaceOnUse"
       id="clipPath6381">
      <path
         d="M 15,15 H 610.275 V 610.275 H 15 Z"
         id="path6381" />
    </clipPath>
  </defs>
  <g
     inkscape:label="Calque 1"
     inkscape:groupmode="layer"
     id="layer1"
     transform="translate(-63.586503,16.528133)">
    <path
       id="path6276"
       d="m 0,0 v -33.888 h 108.165 c 9.343,0 16.944,7.601 16.944,16.944 0,9.343 -7.601,16.944 -16.944,16.944 z"
       style="fill:#d7d9df;fill-opacity:1;fill-rule:nonzero;stroke:none"
       transform="matrix(0.35277776,0,0,-0.35277776,69.821568,-16.373616)"
       clip-path="url(#clipPath6277)" />
    <path
       id="path6278"
       d="m 0,0 h -0.438 v -33.888 -0.438 H 0 108.165 c 9.586,10e-4 17.382,7.796 17.382,17.382 0,9.586 -7.796,17.381 -17.382,17.382 L 0,0.438 H -0.438 V 0 H 0 v -0.438 h 108.165 c 4.552,0 8.676,-1.85 11.666,-4.84 2.99,-2.991 4.84,-7.115 4.841,-11.666 -10e-4,-4.551 -1.851,-8.676 -4.841,-11.666 -2.99,-2.99 -7.114,-4.84 -11.666,-4.84 H 0 v -0.438 H 0.438 V 0 H 0 v -0.438 z"
       style="fill:#ffffff;fill-opacity:1;fill-rule:nonzero;stroke:none"
       transform="matrix(0.35277776,0,0,-0.35277776,69.821568,-16.373616)"
       clip-path="url(#clipPath6279)" />
    <path
       id="path6280"
       d="m 0,0 h -0.438 v -33.888 -0.438 H 0 108.165 c 9.586,10e-4 17.382,7.796 17.382,17.382 0,9.586 -7.796,17.381 -17.382,17.382 L 0,0.438 H -0.438 V 0 H 0 v -0.438 h 108.165 c 4.552,0 8.676,-1.85 11.666,-4.84 2.99,-2.991 4.84,-7.115 4.841,-11.666 -10e-4,-4.551 -1.851,-8.676 -4.841,-11.666 -2.99,-2.99 -7.114,-4.84 -11.666,-4.84 H 0 v -0.438 H 0.438 V 0 H 0 v -0.438 z"
       style="fill:#ffffff;fill-opacity:1;fill-rule:nonzero;stroke:none"
       transform="matrix(0.35277776,0,0,-0.35277776,69.821568,-16.373616)"
       clip-path="url(#clipPath6281)" />
    <path
       id="path6282"
       d="m 0,0 c 9.321,0 16.878,7.557 16.878,16.878 0,9.321 -7.557,16.878 -16.878,16.878 -9.321,0 -16.878,-7.557 -16.878,-16.878 C -16.878,7.557 -9.321,0 0,0"
       style="fill:#586374;fill-opacity:1;fill-rule:nonzero;stroke:none"
       transform="matrix(0.35277776,0,0,-0.35277776,69.718486,-4.4419659)"
       clip-path="url(#clipPath6283)" />
    <path
       id="path6284"
       d="m 0,0 v -1.872 l -4.133,-2.416 v 5.92 l 2.788,1.64 0.452,0.266 0.513,0.3 L 0,4.06 V 1.109 Z m -5.857,2.91 -1.326,0.779 -1.323,0.776 1.323,0.778 0.466,0.274 2.343,1.378 L -2.647,5.882 -1.736,5.346 -1.345,5.117 -0.38,4.55 -0.234,4.465 -0.38,4.379 -1.128,3.939 -1.345,3.811 -4.366,2.035 Z m 1.259,-7.198 -4.134,2.416 v 5.181 0.75 l 2.413,-1.417 1.721,-1.01 z m 5.268,9.341 -1.05,0.611 -0.965,0.561 -0.274,0.16 -0.966,0.561 -1.512,0.88 c -0.169,0.099 -0.381,0.099 -0.553,0 L -6.717,6.62 -7.183,6.349 -9.427,5.04 C -9.487,5.005 -9.539,4.958 -9.581,4.904 -9.655,4.809 -9.698,4.691 -9.698,4.568 V 3.869 -2.107 c 0,-0.194 0.104,-0.375 0.272,-0.474 l 4.786,-2.774 c 0.084,-0.049 0.179,-0.074 0.273,-0.074 0.096,0 0.191,0.025 0.276,0.074 l 4.783,2.774 c 0.169,0.098 0.273,0.279 0.273,0.474 v 1.547 1.105 4.023 c 0,0.193 -0.104,0.375 -0.295,0.485"
       style="fill:#ffffff;fill-opacity:1;fill-rule:nonzero;stroke:none"
       transform="matrix(0.35277776,0,0,-0.35277776,73.001436,-11.745664)"
       clip-path="url(#clipPath6285)" />
    <path
       id="path6286"
       d="M 0,0 -1.326,0.778 -2.649,1.555 -1.326,2.333 -0.861,2.607 1.483,3.985 3.21,2.972 4.121,2.436 4.512,2.207 5.477,1.64 5.623,1.555 5.477,1.469 4.729,1.029 4.512,0.901 1.491,-0.876 Z m 1.259,-7.198 -4.134,2.416 v 5.181 0.75 l 2.413,-1.417 1.721,-1.01 z m 0.465,0 v 5.92 l 2.788,1.64 0.452,0.266 0.513,0.3 0.38,0.222 V -1.801 -2.91 -3.809 l 0.965,0.56 v 0.884 4.023 c 0,0.193 -0.104,0.375 -0.295,0.485 L 5.477,2.754 4.512,3.315 4.238,3.475 3.272,4.036 1.76,4.916 c -0.169,0.099 -0.381,0.099 -0.553,0 L -0.861,3.71 -1.326,3.439 -3.57,2.13 C -3.63,2.095 -3.683,2.048 -3.725,1.994 -3.798,1.899 -3.841,1.781 -3.841,1.658 V 0.959 -5.017 c 0,-0.194 0.104,-0.375 0.272,-0.474 l 4.786,-2.774 c 0.084,-0.049 0.179,-0.074 0.273,-0.074 0.096,0 0.191,0.025 0.276,0.074 l 1.879,1.089 v 1.1 z"
       style="fill:#ffffff;fill-opacity:1;fill-rule:nonzero;stroke:none"
       transform="matrix(0.35277776,0,0,-0.35277776,66.99431,-11.06759)"
       clip-path="url(#clipPath6287)" />
    <path
       id="path6288"
       d="M 0,0 H 0.631 V 0.563 L 1.431,0.082 1.756,0.622 0.983,1.087 1.228,1.229 0.912,1.775 0.32,1.432 C 0.22,1.374 0.139,1.291 0.083,1.191 H 0 V 1.026 L -0.073,0.878 0,0.841 Z"
       style="fill:#f8da18;fill-opacity:1;fill-rule:nonzero;stroke:none"
       transform="matrix(0.35277776,0,0,-0.35277776,68.168768,-8.8953266)"
       clip-path="url(#clipPath6289)" />
    <path
       id="path6290"
       d="m 0,0 -0.317,0.546 -1.03,-0.598 0.317,-0.546 z"
       style="fill:#f8da18;fill-opacity:1;fill-rule:nonzero;stroke:none"
       transform="matrix(0.35277776,0,0,-0.35277776,69.093911,-9.6144641)"
       clip-path="url(#clipPath6291)" />
    <path
       id="path6292"
       d="m 334.345,489.458 h -0.631 v -1.191 h 0.631 z"
       style="fill:#f8da18;fill-opacity:1;fill-rule:nonzero;stroke:none"
       transform="matrix(0.35277776,0,0,-0.35277776,-49.55814,164.49146)"
       clip-path="url(#clipPath6293)" />
    <path
       id="path6294"
       d="m 333.714,486.655 h 0.631 v 1.191 h -0.631 z"
       style="fill:#f8da18;fill-opacity:1;fill-rule:nonzero;stroke:none"
       transform="matrix(0.35277776,0,0,-0.35277776,-49.55814,164.49146)"
       clip-path="url(#clipPath6295)" />
    <path
       id="path6296"
       d="m 334.345,491.07 h -0.631 v -1.191 h 0.631 z"
       style="fill:#f8da18;fill-opacity:1;fill-rule:nonzero;stroke:none"
       transform="matrix(0.35277776,0,0,-0.35277776,-49.55814,164.49146)"
       clip-path="url(#clipPath6297)" />
    <path
       id="path6298"
       d="M 0,0 V 0.363 H -0.631 V 0 c 0,-0.228 0.123,-0.441 0.32,-0.556 L 0.11,-0.8 0.427,-0.254 0.006,-0.01 C 0.002,-0.008 0,-0.004 0,0"
       style="fill:#f8da18;fill-opacity:1;fill-rule:nonzero;stroke:none"
       transform="matrix(0.35277776,0,0,-0.35277776,68.391283,-6.9131742)"
       clip-path="url(#clipPath6299)" />
    <path
       id="path6300"
       d="m 0,0 -1.03,0.598 -0.317,-0.546 1.03,-0.598 z"
       style="fill:#f8da18;fill-opacity:1;fill-rule:nonzero;stroke:none"
       transform="matrix(0.35277776,0,0,-0.35277776,71.563875,-9.4981189)"
       clip-path="url(#clipPath6301)" />
    <path
       id="path6302"
       d="m 0,0 -0.317,0.546 -1.03,-0.598 0.317,-0.546 z"
       style="fill:#f8da18;fill-opacity:1;fill-rule:nonzero;stroke:none"
       transform="matrix(0.35277776,0,0,-0.35277776,69.585745,-9.8998622)"
       clip-path="url(#clipPath6303)" />
    <path
       id="path6304"
       d="m 0,0 -1.03,0.598 -0.317,-0.546 1.03,-0.598 z"
       style="fill:#f8da18;fill-opacity:1;fill-rule:nonzero;stroke:none"
       transform="matrix(0.35277776,0,0,-0.35277776,71.072041,-9.7835143)"
       clip-path="url(#clipPath6305)" />
    <path
       id="path6306"
       d="m 0,0 -1.03,0.598 -0.317,-0.546 1.03,-0.598 z"
       style="fill:#f8da18;fill-opacity:1;fill-rule:nonzero;stroke:none"
       transform="matrix(0.35277776,0,0,-0.35277776,70.580234,-10.068878)"
       clip-path="url(#clipPath6307)" />
    <path
       id="path6308"
       d="m 0,0 -0.317,0.546 -1.03,-0.598 0.317,-0.546 z"
       style="fill:#f8da18;fill-opacity:1;fill-rule:nonzero;stroke:none"
       transform="matrix(0.35277776,0,0,-0.35277776,70.077552,-10.185258)"
       clip-path="url(#clipPath6309)" />
    <path
       id="path6310"
       d="M 0,0 0.317,-0.546 1.347,0.052 1.03,0.598 Z"
       style="fill:#f8da18;fill-opacity:1;fill-rule:nonzero;stroke:none"
       transform="matrix(0.35277776,0,0,-0.35277776,70.536631,-6.2806083)"
       clip-path="url(#clipPath6311)" />
    <path
       id="path6312"
       d="M 0,0 C 0,-0.004 -0.002,-0.008 -0.006,-0.01 L -0.29,-0.176 0.027,-0.721 0.311,-0.556 C 0.508,-0.441 0.631,-0.228 0.631,0 V 0.521 H 0 Z"
       style="fill:#f8da18;fill-opacity:1;fill-rule:nonzero;stroke:none"
       transform="matrix(0.35277776,0,0,-0.35277776,71.622639,-6.9131742)"
       clip-path="url(#clipPath6313)" />
    <path
       id="path6314"
       d="m 0,0 -0.146,0.279 -0.559,-0.293 0.146,-0.279 c 0.001,-0.002 0.002,-0.003 0.002,-0.005 v -0.146 l -0.254,0.431 -0.814,-0.479 0.32,-0.543 0.748,0.439 v -0.42 h 0.63 v 0.718 C 0.073,-0.195 0.048,-0.092 0,0"
       style="fill:#f8da18;fill-opacity:1;fill-rule:nonzero;stroke:none"
       transform="matrix(0.35277776,0,0,-0.35277776,71.819251,-9.3095927)"
       clip-path="url(#clipPath6315)" />
    <path
       id="path6316"
       d="m 343.505,486.813 h 0.631 v 1.191 h -0.631 z"
       style="fill:#f8da18;fill-opacity:1;fill-rule:nonzero;stroke:none"
       transform="matrix(0.35277776,0,0,-0.35277776,-49.55814,164.49146)"
       clip-path="url(#clipPath6317)" />
    <path
       id="path6318"
       d="m 343.505,490.036 h 0.631 v 1.191 h -0.631 z"
       style="fill:#f8da18;fill-opacity:1;fill-rule:nonzero;stroke:none"
       transform="matrix(0.35277776,0,0,-0.35277776,-49.55814,164.49146)"
       clip-path="url(#clipPath6319)" />
    <path
       id="path6320"
       d="m 343.505,488.424 h 0.631 v 1.191 h -0.631 z"
       style="fill:#f8da18;fill-opacity:1;fill-rule:nonzero;stroke:none"
       transform="matrix(0.35277776,0,0,-0.35277776,-49.55814,164.49146)"
       clip-path="url(#clipPath6321)" />
    <path
       id="path6322"
       d="m 0,0 1.03,-0.598 0.317,0.546 -1.03,0.598 z"
       style="fill:#f8da18;fill-opacity:1;fill-rule:nonzero;stroke:none"
       transform="matrix(0.35277776,0,0,-0.35277776,68.5585,-6.5565158)"
       clip-path="url(#clipPath6323)" />
    <path
       id="path6324"
       d="M 0,0 0.317,-0.546 1.347,0.052 1.03,0.598 Z"
       style="fill:#f8da18;fill-opacity:1;fill-rule:nonzero;stroke:none"
       transform="matrix(0.35277776,0,0,-0.35277776,71.028438,-6.5659694)"
       clip-path="url(#clipPath6325)" />
    <path
       id="path6326"
       d="m 0,0 1.03,-0.598 0.317,0.546 -1.03,0.598 z"
       style="fill:#f8da18;fill-opacity:1;fill-rule:nonzero;stroke:none"
       transform="matrix(0.35277776,0,0,-0.35277776,69.542141,-5.9857223)"
       clip-path="url(#clipPath6327)" />
    <path
       id="path6328"
       d="M 0,0 0.317,-0.546 1.347,0.052 1.03,0.598 Z"
       style="fill:#f8da18;fill-opacity:1;fill-rule:nonzero;stroke:none"
       transform="matrix(0.35277776,0,0,-0.35277776,70.044823,-5.9952102)"
       clip-path="url(#clipPath6329)" />
    <path
       id="path6330"
       d="m 0,0 1.03,-0.598 0.317,0.546 -1.03,0.597 z"
       style="fill:#f8da18;fill-opacity:1;fill-rule:nonzero;stroke:none"
       transform="matrix(0.35277776,0,0,-0.35277776,69.050334,-6.2711548)"
       clip-path="url(#clipPath6331)" />
    <path
       id="path6332"
       d="M 0,0 1.027,0.604 0.708,1.147 -0.32,0.544 Z"
       style="fill:#f8da18;fill-opacity:1;fill-rule:nonzero;stroke:none"
       transform="matrix(0.35277776,0,0,-0.35277776,70.378225,-8.3681708)"
       clip-path="url(#clipPath6333)" />
    <path
       id="path6334"
       d="M 0,0 1.021,-0.614 1.346,-0.073 0.325,0.541 Z"
       style="fill:#f8da18;fill-opacity:1;fill-rule:nonzero;stroke:none"
       transform="matrix(0.35277776,0,0,-0.35277776,69.287903,-8.554755)"
       clip-path="url(#clipPath6335)" />
    <path
       id="path6336"
       d="M 0,0 1.021,-0.614 1.346,-0.073 0.325,0.541 Z"
       style="fill:#f8da18;fill-opacity:1;fill-rule:nonzero;stroke:none"
       transform="matrix(0.35277776,0,0,-0.35277776,68.800567,-8.8477731)"
       clip-path="url(#clipPath6337)" />
    <path
       id="path6338"
       d="M 0,0 1.027,0.604 0.708,1.147 -0.32,0.544 Z"
       style="fill:#f8da18;fill-opacity:1;fill-rule:nonzero;stroke:none"
       transform="matrix(0.35277776,0,0,-0.35277776,70.868471,-8.6562491)"
       clip-path="url(#clipPath6339)" />
    <path
       id="path6340"
       d="m 339.176,486.797 h -0.631 v -1.191 h 0.631 z"
       style="fill:#f8da18;fill-opacity:1;fill-rule:nonzero;stroke:none"
       transform="matrix(0.35277776,0,0,-0.35277776,-49.55814,164.49146)"
       clip-path="url(#clipPath6341)" />
    <path
       id="path6342"
       d="M 0,0 0.438,0.258 0.119,0.801 -0.314,0.547 -0.583,0.71 -0.908,0.169 -0.631,0.002 V -0.696 H 0 Z"
       style="fill:#f8da18;fill-opacity:1;fill-rule:nonzero;stroke:none"
       transform="matrix(0.35277776,0,0,-0.35277776,70.09565,-8.2021183)"
       clip-path="url(#clipPath6343)" />
    <path
       id="path6344"
       d="m 339.176,488.409 h -0.631 v -1.191 h 0.631 z"
       style="fill:#f8da18;fill-opacity:1;fill-rule:nonzero;stroke:none"
       transform="matrix(0.35277776,0,0,-0.35277776,-49.55814,164.49146)"
       clip-path="url(#clipPath6345)" />
    <path
       id="path6346"
       d="m 338.545,483.994 h 0.631 v 1.191 h -0.631 z"
       style="fill:#f8da18;fill-opacity:1;fill-rule:nonzero;stroke:none"
       transform="matrix(0.35277776,0,0,-0.35277776,-49.55814,164.49146)"
       clip-path="url(#clipPath6347)" />
    <path
       id="path6348"
       d="m 0,0 v -0.504 c 9.6,0 17.382,7.782 17.382,17.382 0,9.6 -7.782,17.382 -17.382,17.382 -9.6,0 -17.382,-7.782 -17.382,-17.382 0,-9.6 7.782,-17.382 17.382,-17.382 V 0 0.504 c -4.523,0 -8.613,1.832 -11.578,4.796 -2.964,2.965 -4.796,7.055 -4.796,11.578 0,4.523 1.832,8.613 4.796,11.578 2.965,2.964 7.055,4.796 11.578,4.796 4.523,0 8.613,-1.832 11.578,-4.796 2.964,-2.965 4.796,-7.055 4.796,-11.578 C 16.374,12.355 14.542,8.265 11.578,5.3 8.613,2.336 4.523,0.504 0,0.504 Z"
       style="fill:#ffffff;fill-opacity:1;fill-rule:nonzero;stroke:none"
       transform="matrix(0.35277776,0,0,-0.35277776,69.718486,-4.4419659)"
       clip-path="url(#clipPath6349)" />
    <path
       id="path6350"
       d="m 360.574,503.625 h 0.504 v 1.484 h -0.504 z m 0,-2.463 h 0.504 v 1.484 h -0.504 z m 0,-2.464 h 0.504 v 1.484 h -0.504 z m 0,-2.464 h 0.504 v 1.484 h -0.504 z m 0,-2.463 h 0.504 v 1.484 h -0.504 z m 0,-2.464 h 0.504 v 1.484 h -0.504 z m 0,-2.464 h 0.504 v 1.484 h -0.504 z m 0,-2.463 h 0.504 v 1.484 h -0.504 z"
       style="fill:#738497;fill-opacity:1;fill-rule:nonzero;stroke:none"
       transform="matrix(0.35277776,0,0,-0.35277776,-49.55814,164.49146)"
       clip-path="url(#clipPath6351)" />
    <path
       id="path6352"
       d="m 362.548,484.406 h 1.484 v 0.504 h -1.484 z m 2.464,0 h 1.484 v 0.504 h -1.484 z m 2.463,0 h 1.484 v 0.504 h -1.484 z m 2.464,0 h 1.484 v 0.504 h -1.484 z m 2.464,0 h 1.484 v 0.504 h -1.484 z m 2.463,0 h 1.484 v 0.504 h -1.484 z m 2.464,0 h 1.484 v 0.504 h -1.484 z m 2.464,0 h 1.484 v 0.504 h -1.484 z"
       style="fill:#738497;fill-opacity:1;fill-rule:nonzero;stroke:none"
       transform="matrix(0.35277776,0,0,-0.35277776,-49.55814,164.49146)"
       clip-path="url(#clipPath6353)" />
    <path
       id="path6354"
       d="m 383.251,487.863 h -0.504 v -1.484 h 0.504 z m 0,2.464 h -0.504 v -1.484 h 0.504 z m 0,2.464 h -0.504 v -1.484 h 0.504 z m 0,2.463 h -0.504 v -1.484 h 0.504 z m 0,2.464 h -0.504 v -1.484 h 0.504 z m 0,2.464 h -0.504 v -1.484 h 0.504 z m 0,2.463 h -0.504 v -1.484 h 0.504 z m 0,2.464 h -0.504 v -1.484 h 0.504 z"
       style="fill:#738497;fill-opacity:1;fill-rule:nonzero;stroke:none"
       transform="matrix(0.35277776,0,0,-0.35277776,-49.55814,164.49146)"
       clip-path="url(#clipPath6355)" />
    <path
       id="path6356"
       d="m 381.278,507.083 h -1.484 v -0.504 h 1.484 z m -2.464,0 h -1.484 v -0.504 h 1.484 z m -2.464,0 h -1.484 v -0.504 h 1.484 z m -2.463,0 h -1.484 v -0.504 h 1.484 z m -2.464,0 h -1.484 v -0.504 h 1.484 z m -2.464,0 h -1.484 v -0.504 h 1.484 z m -2.463,0 h -1.484 v -0.504 h 1.484 z m -2.464,0 h -1.484 v -0.504 h 1.484 z"
       style="fill:#738497;fill-opacity:1;fill-rule:nonzero;stroke:none"
       transform="matrix(0.35277776,0,0,-0.35277776,-49.55814,164.49146)"
       clip-path="url(#clipPath6357)" />
    <path
       id="path6358"
       d="M 0,0 V -0.742 -0.994 H 0.994 V -0.49 H 0.504 V 0 Z m 21.683,-0.994 h 0.742 0.252 V 0 h -0.504 v -0.49 h -0.49 z m 0.994,21.683 v 0.742 0.252 h -0.994 v -0.504 h 0.49 v -0.49 z M 0.994,21.683 H 0.252 0 v -0.994 h 0.504 v 0.49 h 0.49 z"
       style="fill:#738497;fill-opacity:1;fill-rule:nonzero;stroke:none"
       transform="matrix(0.35277776,0,0,-0.35277776,77.644424,-6.7467698)"
       clip-path="url(#clipPath6359)" />
    <path
       id="path6360"
       d="M 0,0 -1.324,-0.765 -0.008,0 -5.236,3.034 -10.457,0 v -7.269 l 5.229,-3.02 5.228,3.02 z"
       style="fill:#3e532d;fill-opacity:1;fill-rule:nonzero;stroke:none"
       transform="matrix(0.35277776,0,0,-0.35277776,83.488964,-11.675851)"
       clip-path="url(#clipPath6361)" />
    <path
       id="path6362"
       d="M 0,0 -0.126,0.218 -1.45,-0.547 -1.197,-0.983 0.494,0 -5.236,3.326 -10.709,0.145 v -7.56 l 5.481,-3.165 5.48,3.165 V 0.437 L -0.126,0.218 0,0 h -0.252 v -7.124 l -4.976,-2.874 -4.977,2.874 v 6.979 L -5.236,2.743 -0.51,0 -1.451,-0.547 -1.198,-0.983 0.126,-0.218 0,0 h -0.252 z"
       style="fill:#3e532d;fill-opacity:1;fill-rule:nonzero;stroke:none"
       transform="matrix(0.35277776,0,0,-0.35277776,83.488964,-11.675851)"
       clip-path="url(#clipPath6363)" />
    <path
       id="path6364"
       d="M 0,0 -4.944,-2.89 V 4.066 L 0,6.957 Z"
       style="fill:#6fcbd4;fill-opacity:1;fill-rule:nonzero;stroke:none"
       transform="matrix(0.35277776,0,0,-0.35277776,83.388528,-9.1666489)"
       clip-path="url(#clipPath6365)" />
    <path
       id="path6366"
       d="M 0,0 4.944,-2.89 V 4.066 L 0,6.957 Z"
       style="fill:#249979;fill-opacity:1;fill-rule:nonzero;stroke:none"
       transform="matrix(0.35277776,0,0,-0.35277776,79.900446,-9.1666489)"
       clip-path="url(#clipPath6367)" />
    <path
       id="path6368"
       d="m 0,0 -4.936,-2.904 4.944,-2.903 4.936,2.904 z"
       style="fill:#fee864;fill-opacity:1;fill-rule:nonzero;stroke:none"
       transform="matrix(0.35277776,0,0,-0.35277776,81.641854,-12.645179)"
       clip-path="url(#clipPath6369)" />
    <path
       id="path6370"
       d="m 0,0 c 6.313,0 11.431,5.118 11.431,11.431 0,6.314 -5.118,11.432 -11.431,11.432 -6.313,0 -11.431,-5.118 -11.431,-11.432 C -11.431,5.118 -6.313,0 0,0"
       style="fill:#e85b37;fill-opacity:1;fill-rule:nonzero;stroke:none"
       transform="matrix(0.35277776,0,0,-0.35277776,93.579219,-6.3634044)"
       clip-path="url(#clipPath6371)" />
    <path
       id="path6372"
       d="m 0,0 c 0,0 0.679,1.025 -0.422,1.771 -1.1,0.743 -2.666,-0.361 -2.959,-1.563 -0.292,-1.202 0.57,-2.757 2.198,-3.199 1.628,-0.441 3.676,0.819 4.378,2.626 0,0 0.364,1.739 0.295,2.654 -0.07,0.914 1.57,1.57 1.57,1.57 0,0 0.233,-0.427 -0.125,-0.761 C 4.577,2.763 4.054,3.052 3.944,2.74 3.835,2.429 4.493,2.499 4.639,2.629 4.785,2.759 5,2.789 5.11,2.629 5.22,2.468 4.802,2.006 4.866,1.784 4.929,1.563 5.4,1.563 5.409,1.98 5.416,2.398 5.493,2.627 5.695,2.678 5.896,2.727 6.071,2.259 6.346,2.243 6.622,2.227 6.733,2.45 6.475,2.655 6.216,2.86 5.894,2.815 5.959,2.977 6.024,3.14 6.372,2.848 6.612,3.013 6.852,3.179 6.646,3.478 6.364,3.374 6.084,3.268 5.816,3.143 5.847,3.312 5.878,3.481 6.32,3.608 6.365,3.757 6.411,3.905 5.975,4.152 5.929,3.965 5.881,3.777 5.746,3.331 5.597,3.464 5.447,3.596 6.302,4.448 5.736,5.06 c 0,0 -0.06,0.342 -0.921,-0.161 0,0 1.443,1.668 1.527,2.874 0,0 0.483,-0.787 0.797,-0.689 0.315,0.1 0.66,0.454 0.867,0.067 C 8.214,6.764 7.865,6.758 8.075,6.58 8.286,6.401 8.646,6.648 8.42,6.934 8.194,7.22 8.354,7.332 8.354,7.332 c 0,0 0.107,0.014 0.234,-0.341 C 8.714,6.637 9.14,6.959 9.058,7.079 8.975,7.198 8.399,7.48 8.471,7.589 8.543,7.697 8.806,7.701 9.03,7.59 9.254,7.477 9.426,7.655 9.397,7.784 9.368,7.911 9.161,8.041 8.988,7.992 8.816,7.942 8.549,7.818 8.494,7.898 8.439,7.979 8.551,8.201 8.722,8.379 8.896,8.556 8.818,8.797 8.694,8.829 8.568,8.861 8.376,8.67 8.358,8.394 8.343,8.117 8.094,8.094 8.1,8.216 8.104,8.337 8.228,8.627 8.045,8.766 7.86,8.904 7.615,8.707 7.747,8.386 7.879,8.064 7.882,7.889 7.593,7.839 7.304,7.786 6.668,8.026 6.736,8.486 6.804,8.943 7.443,8.913 7.73,9.052 8.018,9.19 8.702,9.394 9.017,9.964 c 0,0 0.422,0.115 0.3,0.59 0,0 0.58,0.957 0.188,1.483 -0.391,0.526 -1.581,0.032 -1.581,0.032 0,0 -0.185,0.225 -0.467,0.121 -0.28,-0.105 -0.261,-0.475 -0.261,-0.475 0,0 -0.942,-0.088 -1.248,-0.799 -0.307,-0.71 -0.412,-0.813 -0.971,-0.814 -0.557,0 -1.008,0.397 -0.699,0.933 0,0 0.267,0.124 0.457,0.02 0.19,-0.105 0.346,0.267 0.102,0.364 -0.243,0.098 -0.448,-0.16 -0.604,-0.062 -0.156,0.098 0.036,0.29 0.224,0.359 0.186,0.07 0.116,0.346 0.061,0.425 C 4.463,12.22 4.177,11.995 4.047,11.67 3.917,11.345 3.755,11.794 3.765,12.036 3.775,12.278 3.672,12.56 3.537,12.498 3.404,12.434 3.179,12.163 3.385,11.862 3.591,11.563 3.423,11.507 3.309,11.546 3.194,11.584 2.812,11.881 2.737,11.565 2.661,11.247 3.095,11.428 3.178,11.308 3.26,11.188 3.194,11.113 2.978,11.084 2.764,11.053 2.712,10.871 2.782,10.77 c 0.068,-0.099 0.381,0.087 0.544,0.022 0.162,-0.065 0.208,-0.004 0.224,-0.199 0.017,-0.194 0.074,-0.92 0.966,-1.19 0,0 -2.384,-1.669 -2.139,-4.296 0,0 -0.125,-0.203 -0.398,0.109 C 1.704,5.527 1.278,6.147 0.998,6.043 0.716,5.938 0.9,5.328 0.75,5.077 0.598,4.826 0.44,4.541 0.425,4.736 0.407,4.931 0.456,5.288 0.168,5.324 -0.123,5.361 0.241,4.786 0.241,4.786 c 0,0 0.221,-0.407 -0.063,-0.249 C -0.107,4.694 -0.287,5.13 -0.487,4.905 -0.685,4.68 -0.389,4.59 -0.13,4.473 L 0.127,4.355 c 0,0 -0.172,-0.265 -0.543,-0.197 -0.37,0.07 -0.535,-0.248 -0.465,-0.349 0.068,-0.1 0.393,-0.23 0.599,-0.058 0.207,0.17 0.481,0.241 0.525,0.007 C 0.286,3.523 0.354,3.51 0.238,3.166 0.121,2.821 0.479,2.772 0.479,2.772 c 0,0 0.261,0.091 0.133,0.534 C 0.485,3.748 0.802,3.76 0.877,3.693 0.952,3.627 1.196,3.442 1.274,3.201 1.35,2.959 1.519,2.928 1.652,3.078 1.784,3.228 1.499,3.385 1.26,3.692 1.02,3.998 0.965,4.548 1.223,4.814 c 0,0 1.566,-1.759 1.362,-3.479 C 2.369,-0.491 1.106,-2.825 -1.047,-2.083 -3.014,-1.404 -3.02,0.041 -2.205,0.897 -1.317,1.831 0.413,1.284 0,0"
       style="fill:#ffffff;fill-opacity:1;fill-rule:nonzero;stroke:none"
       transform="matrix(0.35277776,0,0,-0.35277776,92.481437,-8.6069308)"
       clip-path="url(#clipPath6373)" />
    <path
       id="path6374"
       d="m 0,0 c 6.313,0 11.431,5.118 11.431,11.431 0,6.314 -5.118,11.432 -11.431,11.432 -6.313,0 -11.431,-5.118 -11.431,-11.432 C -11.431,5.118 -6.313,0 0,0"
       style="fill:#8f598c;fill-opacity:1;fill-rule:nonzero;stroke:none"
       transform="matrix(0.35277776,0,0,-0.35277776,106.0716,-6.3634044)"
       clip-path="url(#clipPath6375)" />
    <path
       id="path6376"
       d="M 0,0 C -0.844,-0.77 -1.606,-1.465 -2.464,-2.248 -1.44,-2.385 -0.637,-2.493 0.245,-2.612 0.163,-1.733 0.083,-0.885 0,0 m -5.477,-2.306 c -0.981,0.933 -1.828,1.738 -2.716,2.582 -0.086,-0.898 -0.175,-1.83 -0.263,-2.756 0.975,0.057 1.832,0.107 2.979,0.174 M 9.949,19.537 C 5.494,19.212 2.796,16.109 -0.431,14.523 0.233,13.599 0.903,12.933 1.249,12.127 1.905,10.601 1.523,10.089 -0.302,9.622 0.215,8.609 0.735,7.59 1.353,6.38 1.844,6.565 2.459,6.796 2.801,6.925 2.635,8.082 2.523,9.006 2.365,9.923 c -0.113,0.656 -0.496,1.338 -0.388,1.942 0.181,1.014 0.292,2.128 1.143,2.899 0.101,0.091 0.291,0.084 0.752,0.203 C 3.589,13.996 3.492,13.154 3.11,12.471 2.51,11.396 2.72,10.448 3.173,9.441 3.377,8.988 3.508,8.502 3.668,8.03 4.197,6.479 3.626,5.662 2.301,4.652 1.203,3.816 1.08,2.644 2.187,1.747 2.959,1.121 3.822,0.608 4.586,0.084 6.34,0.535 8.088,0.985 9.977,1.471 10.053,1.403 10.296,1.185 10.762,0.767 10.305,0.632 9.996,0.527 9.68,0.451 8.033,0.059 6.392,-0.36 4.732,-0.686 4.358,-0.76 3.843,-0.606 3.527,-0.374 3.027,-0.006 2.64,0.515 1.997,1.19 c 0.428,-1.707 0.781,-3.118 1.16,-4.632 0.39,0.138 0.72,0.265 1.057,0.371 1.17,0.368 1.372,0.181 1.483,-1.042 0.219,-2.427 0.421,-4.86 0.783,-7.267 0.37,-2.46 1.394,-4.704 2.721,-6.803 0.3,-0.473 0.639,-0.921 0.961,-1.38 -0.089,-0.095 -0.178,-0.189 -0.267,-0.284 -0.375,0.12 -0.749,0.241 -0.898,0.289 -0.689,1.532 -1.188,2.948 -1.929,4.225 -1.614,2.786 -1.98,5.849 -2.231,8.953 -0.058,0.717 -0.009,1.444 -0.009,2.401 -0.618,-0.955 -1.155,-1.667 -0.95,-2.782 0.612,-3.317 1.206,-6.641 1.666,-9.981 0.184,-1.339 0.118,-2.744 -0.065,-4.087 -0.101,-0.738 -0.596,-1.476 -1.067,-2.097 -0.588,-0.776 -1.232,-0.675 -1.57,0.232 -0.288,0.774 -0.451,1.607 -0.566,2.429 -0.301,2.147 -0.546,4.302 -0.78,6.195 -0.772,-1.467 -1.622,-3.087 -2.475,-4.705 -0.031,-0.058 -0.081,-0.106 -0.123,-0.158 -1.991,-2.429 -4.064,-2.489 -5.911,0.049 -1.099,1.509 -1.852,3.27 -2.711,4.827 -0.132,-1.056 -0.282,-2.347 -0.46,-3.633 -0.192,-1.39 -0.348,-2.79 -0.653,-4.155 -0.107,-0.477 -0.539,-1.077 -0.958,-1.217 -0.276,-0.092 -0.996,0.452 -1.162,0.858 -0.408,0.995 -0.812,2.066 -0.858,3.122 -0.159,3.669 0.646,7.242 1.34,10.819 0.243,1.252 0.809,2.518 -0.131,3.731 -0.079,0.102 -0.143,0.219 -0.232,0.312 -0.037,0.038 -0.122,0.028 -0.284,0.058 0.342,-2.595 -0.192,-5.091 -0.694,-7.585 -0.136,-0.677 -0.388,-1.344 -0.68,-1.972 -0.718,-1.548 -1.503,-3.064 -2.23,-4.608 -0.164,-0.347 -0.201,-0.753 -0.312,-1.192 -0.301,-0.095 -0.66,-0.207 -1.019,-0.32 -0.089,0.074 -0.179,0.147 -0.268,0.221 0.391,0.675 0.739,1.38 1.18,2.02 2.316,3.356 2.788,7.228 3.149,11.13 0.077,0.832 0.075,1.671 0.134,2.505 0.076,1.076 0.298,1.228 1.317,0.931 0.348,-0.102 0.688,-0.235 1.119,-0.383 0.354,1.411 0.698,2.781 1.036,4.13 -0.777,-0.525 -1.468,-1.31 -2.268,-1.445 -0.84,-0.141 -1.786,0.334 -2.684,0.551 -0.81,0.196 -1.617,0.409 -2.427,0.61 -0.362,0.09 -0.728,0.167 -1.261,0.289 0.479,0.43 0.724,0.65 0.814,0.731 1.195,-0.277 2.274,-0.529 3.355,-0.776 0.093,-0.021 0.218,0.025 0.285,-0.022 1.768,-1.237 2.904,0.193 4.111,1.042 1.107,0.779 0.997,2.259 -0.106,2.994 -1.504,1.004 -1.941,2.441 -0.95,4.364 0.865,1.676 0.544,3.088 -0.263,4.59 -0.169,0.313 -0.09,0.76 -0.142,1.327 0.665,-0.264 1.194,-0.394 1.214,-1.146 0.005,-0.194 0.054,-0.408 0.151,-0.573 0.415,-0.705 0.45,-1.408 0.215,-2.197 -0.155,-0.524 -0.047,-1.12 -0.149,-1.667 -0.138,-0.737 -0.364,-1.457 -0.608,-2.401 0.448,-0.18 1.052,-0.424 1.534,-0.618 0.513,1.219 0.952,2.264 1.413,3.359 -0.752,0.23 -1.458,0.717 -1.418,1.748 0.05,1.268 0.57,2.259 2.051,2.737 -0.403,0.359 -0.677,0.684 -1.021,0.895 -1.243,0.765 -2.571,1.407 -3.752,2.255 -1.579,1.135 -3.294,1.824 -5.196,2.109 -0.126,0.019 -0.246,0.081 -0.493,0.166 0.549,0.712 1.226,0.725 1.883,0.532 1.872,-0.549 3.609,-1.394 5.2,-2.536 1.443,-1.036 2.89,-2.069 4.366,-3.056 0.261,-0.175 0.675,-0.16 1.019,-0.165 0.766,-0.011 1.561,0.155 2.295,0.005 1.23,-0.251 2.112,0.28 2.972,0.987 2.286,1.88 4.67,3.599 7.504,4.577 0.839,0.29 1.693,0.538 2.695,-0.444"
       style="fill:#ffffff;fill-opacity:1;fill-rule:nonzero;stroke:none"
       transform="matrix(0.12133781,0,0,-0.12098369,106.57322,-10.556349)"
       clip-path="url(#clipPath6377)" />
    <path
       id="path6378"
       d="M 0,0 -3.766,-7.716 H -4.641 L -0.875,0 Z"
       style="fill:#6c7383;fill-opacity:1;fill-rule:nonzero;stroke:none"
       transform="matrix(0.35277776,0,0,-0.35277776,100.53702,-11.757166)"
       clip-path="url(#clipPath6379)" />
    <path
       id="path6380"
       d="m 387.857,498.379 h 1.327 v -1.367 h -1.327 z m 0,-3.902 h 1.327 v -1.367 h -1.327 z"
       style="fill:#6c7383;fill-opacity:1;fill-rule:nonzero;stroke:none"
       transform="matrix(0.35277776,0,0,-0.35277776,-49.55814,164.49146)"
       clip-path="url(#clipPath6381)" />
  </g>
</svg>
