<?xml version="1.0" encoding="UTF-8" standalone="no"?>
<!-- Created with Inkscape (http://www.inkscape.org/) -->

<svg
   width="12.263966mm"
   height="12.264318mm"
   viewBox="0 0 12.263966 12.264318"
   version="1.1"
   id="svg1"
   inkscape:version="1.4 (e7c3feb100, 2024-10-09)"
   sodipodi:docname="Transfer.svg"
   xmlns:inkscape="http://www.inkscape.org/namespaces/inkscape"
   xmlns:sodipodi="http://sodipodi.sourceforge.net/DTD/sodipodi-0.dtd"
   xmlns="http://www.w3.org/2000/svg"
   xmlns:svg="http://www.w3.org/2000/svg">
  <sodipodi:namedview
     id="namedview1"
     pagecolor="#ffffff"
     bordercolor="#000000"
     borderopacity="0.25"
     inkscape:showpageshadow="2"
     inkscape:pageopacity="0.0"
     inkscape:pagecheckerboard="0"
     inkscape:deskcolor="#d1d1d1"
     inkscape:document-units="mm"
     inkscape:zoom="9.595066"
     inkscape:cx="-11.985327"
     inkscape:cy="-1.2506428"
     inkscape:window-width="1920"
     inkscape:window-height="1163"
     inkscape:window-x="0"
     inkscape:window-y="0"
     inkscape:window-maximized="1"
     inkscape:current-layer="layer1" />
  <defs
     id="defs1">
    <clipPath
       clipPathUnits="userSpaceOnUse"
       id="clipPath6174">
      <path
         d="M 15,15 H 610.275 V 610.275 H 15 Z"
         transform="translate(-91.878002,-478.87781)"
         id="path6174" />
    </clipPath>
    <clipPath
       clipPathUnits="userSpaceOnUse"
       id="clipPath6176">
      <path
         d="m 75.011,495.744 c 0,-9.315 7.551,-16.867 16.867,-16.867 v 0 c 5.517,0 10.415,2.65 13.492,6.745 v 0 20.245 c -3.077,4.094 -7.975,6.743 -13.492,6.743 v 0 c -9.316,0 -16.867,-7.551 -16.867,-16.866"
         transform="matrix(1.9396922,0,0,1.9343374,-194.95536,-961.74281)"
         id="path6176" />
    </clipPath>
    <clipPath
       clipPathUnits="userSpaceOnUse"
       id="clipPath6178">
      <path
         d="m 75.011,495.744 c 0,-9.315 7.551,-16.867 16.867,-16.867 v 0 c 5.517,0 10.415,2.65 13.492,6.745 v 0 20.245 c -3.077,4.094 -7.975,6.743 -13.492,6.743 v 0 c -9.316,0 -16.867,-7.551 -16.867,-16.866"
         transform="matrix(1.9396922,0,0,1.9343374,-128.06086,-961.74281)"
         id="path6178" />
    </clipPath>
    <clipPath
       clipPathUnits="userSpaceOnUse"
       id="clipPath6180">
      <path
         d="m 75.011,495.744 c 0,-9.315 7.551,-16.867 16.867,-16.867 v 0 c 5.517,0 10.415,2.65 13.492,6.745 v 0 20.245 c -3.077,4.094 -7.975,6.743 -13.492,6.743 v 0 c -9.316,0 -16.867,-7.551 -16.867,-16.866"
         transform="matrix(1.9396922,0,0,1.9343374,-172.91445,-966.6412)"
         id="path6180" />
    </clipPath>
    <clipPath
       clipPathUnits="userSpaceOnUse"
       id="clipPath6182">
      <path
         d="M 15,15 H 610.275 V 610.275 H 15 Z"
         transform="translate(-91.878002,-478.87781)"
         id="path6182" />
    </clipPath>
    <clipPath
       clipPathUnits="userSpaceOnUse"
       id="clipPath7758">
      <path
         d="M 15,15 H 610.275 V 610.275 H 15 Z"
         transform="translate(-338.55351,-479.36571)"
         id="path7758" />
    </clipPath>
    <clipPath
       clipPathUnits="userSpaceOnUse"
       id="clipPath7760">
      <path
         d="m 321.687,496.232 c 0,-9.315 7.551,-16.867 16.867,-16.867 v 0 c 9.315,0 16.866,7.552 16.866,16.867 v 0 c 0,9.315 -7.551,16.866 -16.866,16.866 v 0 c -9.316,0 -16.867,-7.551 -16.867,-16.866"
         transform="translate(-340.95493,-488.49001)"
         id="path7760" />
    </clipPath>
    <clipPath
       clipPathUnits="userSpaceOnUse"
       id="clipPath7762">
      <path
         d="m 321.687,496.232 c 0,-9.315 7.551,-16.867 16.867,-16.867 v 0 c 9.315,0 16.866,7.552 16.866,16.867 v 0 c 0,9.315 -7.551,16.866 -16.866,16.866 v 0 c -9.316,0 -16.867,-7.551 -16.867,-16.866"
         transform="translate(-341.07628,-492.79581)"
         id="path7762" />
    </clipPath>
    <clipPath
       clipPathUnits="userSpaceOnUse"
       id="clipPath7764">
      <path
         d="m 321.687,496.232 c 0,-9.315 7.551,-16.867 16.867,-16.867 v 0 c 9.315,0 16.866,7.552 16.866,16.867 v 0 c 0,9.315 -7.551,16.866 -16.866,16.866 v 0 c -9.316,0 -16.867,-7.551 -16.867,-16.866"
         transform="translate(-340.87011,-500.89371)"
         id="path7764" />
    </clipPath>
    <clipPath
       clipPathUnits="userSpaceOnUse"
       id="clipPath7766">
      <path
         d="m 321.687,496.232 c 0,-9.315 7.551,-16.867 16.867,-16.867 v 0 c 9.315,0 16.866,7.552 16.866,16.867 v 0 c 0,9.315 -7.551,16.866 -16.866,16.866 v 0 c -9.316,0 -16.867,-7.551 -16.867,-16.866"
         transform="translate(-340.87011,-508.99172)"
         id="path7766" />
    </clipPath>
    <clipPath
       clipPathUnits="userSpaceOnUse"
       id="clipPath7768">
      <path
         d="m 321.687,496.232 c 0,-9.315 7.551,-16.867 16.867,-16.867 v 0 c 9.315,0 16.866,7.552 16.866,16.867 v 0 c 0,9.315 -7.551,16.866 -16.866,16.866 v 0 c -9.316,0 -16.867,-7.551 -16.867,-16.866"
         transform="translate(-340.80298,-503.62631)"
         id="path7768" />
    </clipPath>
    <clipPath
       clipPathUnits="userSpaceOnUse"
       id="clipPath7770">
      <path
         d="m 321.687,496.232 c 0,-9.315 7.551,-16.867 16.867,-16.867 v 0 c 9.315,0 16.866,7.552 16.866,16.867 v 0 c 0,9.315 -7.551,16.866 -16.866,16.866 v 0 c -9.316,0 -16.867,-7.551 -16.867,-16.866"
         transform="translate(-338.52628,-494.36681)"
         id="path7770" />
    </clipPath>
    <clipPath
       clipPathUnits="userSpaceOnUse"
       id="clipPath7772">
      <path
         d="m 321.687,496.232 c 0,-9.315 7.551,-16.867 16.867,-16.867 v 0 c 9.315,0 16.866,7.552 16.866,16.867 v 0 c 0,9.315 -7.551,16.866 -16.866,16.866 v 0 c -9.316,0 -16.867,-7.551 -16.867,-16.866"
         transform="translate(-338.52643,-499.84621)"
         id="path7772" />
    </clipPath>
    <clipPath
       clipPathUnits="userSpaceOnUse"
       id="clipPath7774">
      <path
         d="m 321.687,496.232 c 0,-9.315 7.551,-16.867 16.867,-16.867 v 0 c 9.315,0 16.866,7.552 16.866,16.867 v 0 c 0,9.315 -7.551,16.866 -16.866,16.866 v 0 c -9.316,0 -16.867,-7.551 -16.867,-16.866"
         transform="translate(-337.67308,-497.10031)"
         id="path7774" />
    </clipPath>
    <clipPath
       clipPathUnits="userSpaceOnUse"
       id="clipPath7776">
      <path
         d="m 321.687,496.232 c 0,-9.315 7.551,-16.867 16.867,-16.867 v 0 c 9.315,0 16.866,7.552 16.866,16.867 v 0 c 0,9.315 -7.551,16.866 -16.866,16.866 v 0 c -9.316,0 -16.867,-7.551 -16.867,-16.866"
         transform="translate(-328.62561,-491.65041)"
         id="path7776" />
    </clipPath>
    <clipPath
       clipPathUnits="userSpaceOnUse"
       id="clipPath7778">
      <path
         d="m 321.687,496.232 c 0,-9.315 7.551,-16.867 16.867,-16.867 v 0 c 9.315,0 16.866,7.552 16.866,16.867 v 0 c 0,9.315 -7.551,16.866 -16.866,16.866 v 0 c -9.316,0 -16.867,-7.551 -16.867,-16.866"
         transform="translate(-334.37781,-495.36951)"
         id="path7778" />
    </clipPath>
    <clipPath
       clipPathUnits="userSpaceOnUse"
       id="clipPath7780">
      <path
         d="m 321.687,496.232 c 0,-9.315 7.551,-16.867 16.867,-16.867 v 0 c 9.315,0 16.866,7.552 16.866,16.867 v 0 c 0,9.315 -7.551,16.866 -16.866,16.866 v 0 c -9.316,0 -16.867,-7.551 -16.867,-16.866"
         transform="translate(-331.12371,-491.05141)"
         id="path7780" />
    </clipPath>
    <clipPath
       clipPathUnits="userSpaceOnUse"
       id="clipPath7782">
      <path
         d="M 15,15 H 610.275 V 610.275 H 15 Z"
         transform="translate(-338.55351,-479.36571)"
         id="path7782" />
    </clipPath>
    <clipPath
       clipPathUnits="userSpaceOnUse"
       id="clipPath6897">
      <path
         d="M 15,15 H 610.275 V 610.275 H 15 Z"
         transform="translate(-338.77383,-479.72631)"
         id="path6897" />
    </clipPath>
    <clipPath
       clipPathUnits="userSpaceOnUse"
       id="clipPath6899">
      <path
         d="m 328.578,510.03 c -1.538,-1.169 -2.87,-2.597 -3.93,-4.218 v 0 -18.439 c 1.524,-2.33 3.61,-4.261 6.065,-5.599 v 0 h 16.121 c 2.458,1.339 4.545,3.272 6.07,5.607 v 0 18.424 c -1.061,1.624 -2.394,3.054 -3.935,4.225 v 0 z"
         transform="translate(-330.78228,-492.63981)"
         id="path6899" />
    </clipPath>
    <clipPath
       clipPathUnits="userSpaceOnUse"
       id="clipPath6901">
      <path
         d="m 328.578,510.03 c -1.538,-1.169 -2.87,-2.597 -3.93,-4.218 v 0 -18.439 c 1.524,-2.33 3.61,-4.261 6.065,-5.599 v 0 h 16.121 c 2.458,1.339 4.545,3.272 6.07,5.607 v 0 18.424 c -1.061,1.624 -2.394,3.054 -3.935,4.225 v 0 z"
         transform="translate(-346.70673,-492.26021)"
         id="path6901" />
    </clipPath>
    <clipPath
       clipPathUnits="userSpaceOnUse"
       id="clipPath6903">
      <path
         d="m 328.578,510.03 c -1.538,-1.169 -2.87,-2.597 -3.93,-4.218 v 0 -18.439 c 1.524,-2.33 3.61,-4.261 6.065,-5.599 v 0 h 16.121 c 2.458,1.339 4.545,3.272 6.07,5.607 v 0 18.424 c -1.061,1.624 -2.394,3.054 -3.935,4.225 v 0 z"
         transform="translate(-338.50991,-486.42611)"
         id="path6903" />
    </clipPath>
    <clipPath
       clipPathUnits="userSpaceOnUse"
       id="clipPath6905">
      <path
         d="m 328.578,510.03 c -1.538,-1.169 -2.87,-2.597 -3.93,-4.218 v 0 -18.439 c 1.524,-2.33 3.61,-4.261 6.065,-5.599 v 0 h 16.121 c 2.458,1.339 4.545,3.272 6.07,5.607 v 0 18.424 c -1.061,1.624 -2.394,3.054 -3.935,4.225 v 0 z"
         transform="translate(-346.70673,-493.61351)"
         id="path6905" />
    </clipPath>
    <clipPath
       clipPathUnits="userSpaceOnUse"
       id="clipPath6907">
      <path
         d="m 328.578,510.03 c -1.538,-1.169 -2.87,-2.597 -3.93,-4.218 v 0 -18.439 c 1.524,-2.33 3.61,-4.261 6.065,-5.599 v 0 h 16.121 c 2.458,1.339 4.545,3.272 6.07,5.607 v 0 18.424 c -1.061,1.624 -2.394,3.054 -3.935,4.225 v 0 z"
         transform="translate(-346.52171,-489.46621)"
         id="path6907" />
    </clipPath>
    <clipPath
       clipPathUnits="userSpaceOnUse"
       id="clipPath6909">
      <path
         d="m 328.578,510.03 c -1.538,-1.169 -2.87,-2.597 -3.93,-4.218 v 0 -18.439 c 1.524,-2.33 3.61,-4.261 6.065,-5.599 v 0 h 16.121 c 2.458,1.339 4.545,3.272 6.07,5.607 v 0 18.424 c -1.061,1.624 -2.394,3.054 -3.935,4.225 v 0 z"
         transform="translate(-346.78578,-501.59192)"
         id="path6909" />
    </clipPath>
    <clipPath
       clipPathUnits="userSpaceOnUse"
       id="clipPath6911">
      <path
         d="m 328.578,510.03 c -1.538,-1.169 -2.87,-2.597 -3.93,-4.218 v 0 -18.439 c 1.524,-2.33 3.61,-4.261 6.065,-5.599 v 0 h 16.121 c 2.458,1.339 4.545,3.272 6.07,5.607 v 0 18.424 c -1.061,1.624 -2.394,3.054 -3.935,4.225 v 0 z"
         transform="translate(-338.98601,-507.75632)"
         id="path6911" />
    </clipPath>
    <clipPath
       clipPathUnits="userSpaceOnUse"
       id="clipPath6913">
      <path
         d="M 15,15 H 610.275 V 610.275 H 15 Z"
         transform="translate(-338.77383,-479.72631)"
         id="path6913" />
    </clipPath>
    <clipPath
       clipPathUnits="userSpaceOnUse"
       id="clipPath8089">
      <path
         d="M 15,15 H 610.275 V 610.275 H 15 Z"
         transform="translate(-92.159627,-467.43521)"
         id="path8089" />
    </clipPath>
    <clipPath
       clipPathUnits="userSpaceOnUse"
       id="clipPath8091">
      <path
         d="m 75.293,484.302 c 0,-9.315 7.551,-16.866 16.866,-16.866 v 0 c 9.316,0 16.867,7.551 16.867,16.866 v 0 c 0,9.315 -7.551,16.866 -16.867,16.866 v 0 c -9.315,0 -16.866,-7.551 -16.866,-16.866"
         transform="matrix(2.8009329,0,0,2.8119611,-249.79084,-1348.3765)"
         id="path8091" />
    </clipPath>
    <clipPath
       clipPathUnits="userSpaceOnUse"
       id="clipPath8093">
      <path
         d="m 75.293,484.302 c 0,-9.315 7.551,-16.866 16.866,-16.866 v 0 c 9.316,0 16.867,7.551 16.867,16.866 v 0 c 0,9.315 -7.551,16.866 -16.867,16.866 v 0 c -9.315,0 -16.866,-7.551 -16.866,-16.866"
         transform="matrix(2.8009329,0,0,2.8119611,-266.8397,-1358.3071)"
         id="path8093" />
    </clipPath>
    <clipPath
       clipPathUnits="userSpaceOnUse"
       id="clipPath8095">
      <path
         d="m 75.293,484.302 c 0,-9.315 7.551,-16.866 16.866,-16.866 v 0 c 9.316,0 16.867,7.551 16.867,16.866 v 0 c 0,9.315 -7.551,16.866 -16.867,16.866 v 0 c -9.315,0 -16.866,-7.551 -16.866,-16.866"
         transform="matrix(2.8009329,0,0,2.8119611,-266.8397,-1377.7983)"
         id="path8095" />
    </clipPath>
    <clipPath
       clipPathUnits="userSpaceOnUse"
       id="clipPath8097">
      <path
         d="m 75.293,484.302 c 0,-9.315 7.551,-16.866 16.866,-16.866 v 0 c 9.316,0 16.867,7.551 16.867,16.866 v 0 c 0,9.315 -7.551,16.866 -16.867,16.866 v 0 c -9.315,0 -16.866,-7.551 -16.866,-16.866"
         transform="matrix(2.8009329,0,0,2.8119611,-283.82175,-1387.697)"
         id="path8097" />
    </clipPath>
    <clipPath
       clipPathUnits="userSpaceOnUse"
       id="clipPath8099">
      <path
         d="m 82.428,498.079 c -1.713,-1.212 -3.189,-2.735 -4.348,-4.487 v 0 -18.581 c 2.371,-3.585 6.075,-6.212 10.405,-7.174 v 0 h 7.349 c 6.114,1.359 10.98,6.036 12.607,12.045 v 0 8.839 c -1.038,3.833 -3.393,7.124 -6.55,9.358 v 0 z"
         transform="matrix(2.8009329,0,0,2.8119611,-283.84633,-1377.8311)"
         id="path8099" />
    </clipPath>
    <clipPath
       clipPathUnits="userSpaceOnUse"
       id="clipPath8101">
      <path
         d="m 82.428,498.079 c -1.713,-1.212 -3.189,-2.735 -4.348,-4.487 v 0 -18.581 c 2.371,-3.585 6.075,-6.212 10.405,-7.174 v 0 h 7.349 c 6.114,1.359 10.98,6.036 12.607,12.045 v 0 8.839 c -1.038,3.833 -3.393,7.124 -6.55,9.358 v 0 z"
         transform="matrix(2.8009329,0,0,2.8119611,-230.85387,-1349.4082)"
         id="path8101" />
    </clipPath>
    <clipPath
       clipPathUnits="userSpaceOnUse"
       id="clipPath8103">
      <path
         d="m 82.428,498.079 c -1.713,-1.212 -3.189,-2.735 -4.348,-4.487 v 0 -18.581 c 2.371,-3.585 6.075,-6.212 10.405,-7.174 v 0 h 7.349 c 6.114,1.359 10.98,6.036 12.607,12.045 v 0 8.839 c -1.038,3.833 -3.393,7.124 -6.55,9.358 v 0 z"
         transform="matrix(2.8009329,0,0,2.8119611,-250.85568,-1383.5494)"
         id="path8103" />
    </clipPath>
    <clipPath
       clipPathUnits="userSpaceOnUse"
       id="clipPath8105">
      <path
         d="M 15,15 H 610.275 V 610.275 H 15 Z"
         transform="translate(-92.159627,-467.43521)"
         id="path8105" />
    </clipPath>
    <clipPath
       clipPathUnits="userSpaceOnUse"
       id="clipPath7469">
      <path
         d="M 15,15 H 610.275 V 610.275 H 15 Z"
         transform="translate(-91.710202,-479.36551)"
         id="path7469" />
    </clipPath>
    <clipPath
       clipPathUnits="userSpaceOnUse"
       id="clipPath7471">
      <path
         d="m 74.844,496.232 c 0,-9.315 7.551,-16.867 16.866,-16.867 v 0 c 9.315,0 16.867,7.552 16.867,16.867 v 0 c 0,9.315 -7.552,16.866 -16.867,16.866 v 0 c -9.315,0 -16.866,-7.551 -16.866,-16.866"
         transform="translate(-102.54658,-490.93991)"
         id="path7471" />
    </clipPath>
    <clipPath
       clipPathUnits="userSpaceOnUse"
       id="clipPath7473">
      <path
         d="m 74.844,496.232 c 0,-9.315 7.551,-16.867 16.866,-16.867 v 0 c 9.315,0 16.867,7.552 16.867,16.867 v 0 c 0,9.315 -7.552,16.866 -16.867,16.866 v 0 c -9.315,0 -16.866,-7.551 -16.866,-16.866"
         transform="translate(-93.943477,-494.72001)"
         id="path7473" />
    </clipPath>
    <clipPath
       clipPathUnits="userSpaceOnUse"
       id="clipPath7475">
      <path
         d="m 74.844,496.232 c 0,-9.315 7.551,-16.867 16.866,-16.867 v 0 c 9.315,0 16.867,7.552 16.867,16.867 v 0 c 0,9.315 -7.552,16.866 -16.867,16.866 v 0 c -9.315,0 -16.866,-7.551 -16.866,-16.866"
         transform="translate(-93.943477,-502.55402)"
         id="path7475" />
    </clipPath>
    <clipPath
       clipPathUnits="userSpaceOnUse"
       id="clipPath7477">
      <path
         d="m 74.844,496.232 c 0,-9.315 7.551,-16.867 16.866,-16.867 v 0 c 9.315,0 16.867,7.552 16.867,16.867 v 0 c 0,9.315 -7.552,16.866 -16.867,16.866 v 0 c -9.315,0 -16.866,-7.551 -16.866,-16.866"
         transform="translate(-91.568077,-503.30081)"
         id="path7477" />
    </clipPath>
    <clipPath
       clipPathUnits="userSpaceOnUse"
       id="clipPath7479">
      <path
         d="m 74.844,496.232 c 0,-9.315 7.551,-16.867 16.866,-16.867 v 0 c 9.315,0 16.867,7.552 16.867,16.867 v 0 c 0,9.315 -7.552,16.866 -16.867,16.866 v 0 c -9.315,0 -16.866,-7.551 -16.866,-16.866"
         transform="translate(-79.812427,-511.71632)"
         id="path7479" />
    </clipPath>
    <clipPath
       clipPathUnits="userSpaceOnUse"
       id="clipPath7481">
      <path
         d="m 74.844,496.232 c 0,-9.315 7.551,-16.867 16.866,-16.867 v 0 c 9.315,0 16.867,7.552 16.867,16.867 v 0 c 0,9.315 -7.552,16.866 -16.867,16.866 v 0 c -9.315,0 -16.866,-7.551 -16.866,-16.866"
         transform="translate(-87.605902,-506.50371)"
         id="path7481" />
    </clipPath>
    <clipPath
       clipPathUnits="userSpaceOnUse"
       id="clipPath7483">
      <path
         d="M 15,15 H 610.275 V 610.275 H 15 Z"
         transform="translate(-91.710202,-479.36551)"
         id="path7483" />
    </clipPath>
    <clipPath
       clipPathUnits="userSpaceOnUse"
       id="clipPath6283">
      <path
         d="M 15,15 H 610.275 V 610.275 H 15 Z"
         transform="translate(-338.10698,-478.86641)"
         id="path6283" />
    </clipPath>
    <clipPath
       clipPathUnits="userSpaceOnUse"
       id="clipPath6285">
      <path
         d="m 321.229,495.744 c 0,-9.321 7.556,-16.877 16.878,-16.877 v 0 c 9.322,0 16.878,7.556 16.878,16.877 v 0 c 0,9.322 -7.556,16.879 -16.878,16.879 v 0 c -9.322,0 -16.878,-7.557 -16.878,-16.879"
         transform="translate(-347.41298,-499.56981)"
         id="path6285" />
    </clipPath>
    <clipPath
       clipPathUnits="userSpaceOnUse"
       id="clipPath6287">
      <path
         d="m 321.229,495.744 c 0,-9.321 7.556,-16.877 16.878,-16.877 v 0 c 9.322,0 16.878,7.556 16.878,16.877 v 0 c 0,9.322 -7.556,16.879 -16.878,16.879 v 0 c -9.322,0 -16.878,-7.557 -16.878,-16.879"
         transform="translate(-330.38491,-497.64771)"
         id="path6287" />
    </clipPath>
    <clipPath
       clipPathUnits="userSpaceOnUse"
       id="clipPath6289">
      <path
         d="m 321.229,495.744 c 0,-9.321 7.556,-16.877 16.878,-16.877 v 0 c 9.322,0 16.878,7.556 16.878,16.877 v 0 c 0,9.322 -7.556,16.879 -16.878,16.879 v 0 c -9.322,0 -16.878,-7.557 -16.878,-16.879"
         transform="translate(-333.71408,-491.49011)"
         id="path6289" />
    </clipPath>
    <clipPath
       clipPathUnits="userSpaceOnUse"
       id="clipPath6291">
      <path
         d="m 321.229,495.744 c 0,-9.321 7.556,-16.877 16.878,-16.877 v 0 c 9.322,0 16.878,7.556 16.878,16.877 v 0 c 0,9.322 -7.556,16.879 -16.878,16.879 v 0 c -9.322,0 -16.878,-7.557 -16.878,-16.879"
         transform="translate(-336.33653,-493.52861)"
         id="path6291" />
    </clipPath>
    <clipPath
       clipPathUnits="userSpaceOnUse"
       id="clipPath6293">
      <path
         d="m 321.229,495.744 c 0,-9.321 7.556,-16.877 16.878,-16.877 v 0 c 9.322,0 16.878,7.556 16.878,16.877 v 0 c 0,9.322 -7.556,16.879 -16.878,16.879 v 0 c -9.322,0 -16.878,-7.557 -16.878,-16.879"
         id="path6293" />
    </clipPath>
    <clipPath
       clipPathUnits="userSpaceOnUse"
       id="clipPath6295">
      <path
         d="m 321.229,495.744 c 0,-9.321 7.556,-16.877 16.878,-16.877 v 0 c 9.322,0 16.878,7.556 16.878,16.877 v 0 c 0,9.322 -7.556,16.879 -16.878,16.879 v 0 c -9.322,0 -16.878,-7.557 -16.878,-16.879"
         id="path6295" />
    </clipPath>
    <clipPath
       clipPathUnits="userSpaceOnUse"
       id="clipPath6297">
      <path
         d="m 321.229,495.744 c 0,-9.321 7.556,-16.877 16.878,-16.877 v 0 c 9.322,0 16.878,7.556 16.878,16.877 v 0 c 0,9.322 -7.556,16.879 -16.878,16.879 v 0 c -9.322,0 -16.878,-7.557 -16.878,-16.879"
         id="path6297" />
    </clipPath>
    <clipPath
       clipPathUnits="userSpaceOnUse"
       id="clipPath6299">
      <path
         d="m 321.229,495.744 c 0,-9.321 7.556,-16.877 16.878,-16.877 v 0 c 9.322,0 16.878,7.556 16.878,16.877 v 0 c 0,9.322 -7.556,16.879 -16.878,16.879 v 0 c -9.322,0 -16.878,-7.557 -16.878,-16.879"
         transform="translate(-334.34483,-485.87141)"
         id="path6299" />
    </clipPath>
    <clipPath
       clipPathUnits="userSpaceOnUse"
       id="clipPath6301">
      <path
         d="m 321.229,495.744 c 0,-9.321 7.556,-16.877 16.878,-16.877 v 0 c 9.322,0 16.878,7.556 16.878,16.877 v 0 c 0,9.322 -7.556,16.879 -16.878,16.879 v 0 c -9.322,0 -16.878,-7.557 -16.878,-16.879"
         transform="translate(-343.33801,-493.19881)"
         id="path6301" />
    </clipPath>
    <clipPath
       clipPathUnits="userSpaceOnUse"
       id="clipPath6303">
      <path
         d="m 321.229,495.744 c 0,-9.321 7.556,-16.877 16.878,-16.877 v 0 c 9.322,0 16.878,7.556 16.878,16.877 v 0 c 0,9.322 -7.556,16.879 -16.878,16.879 v 0 c -9.322,0 -16.878,-7.557 -16.878,-16.879"
         transform="translate(-337.73071,-494.33761)"
         id="path6303" />
    </clipPath>
    <clipPath
       clipPathUnits="userSpaceOnUse"
       id="clipPath6305">
      <path
         d="m 321.229,495.744 c 0,-9.321 7.556,-16.877 16.878,-16.877 v 0 c 9.322,0 16.878,7.556 16.878,16.877 v 0 c 0,9.322 -7.556,16.879 -16.878,16.879 v 0 c -9.322,0 -16.878,-7.557 -16.878,-16.879"
         transform="translate(-341.94383,-494.00781)"
         id="path6305" />
    </clipPath>
    <clipPath
       clipPathUnits="userSpaceOnUse"
       id="clipPath6307">
      <path
         d="m 321.229,495.744 c 0,-9.321 7.556,-16.877 16.878,-16.877 v 0 c 9.322,0 16.878,7.556 16.878,16.877 v 0 c 0,9.322 -7.556,16.879 -16.878,16.879 v 0 c -9.322,0 -16.878,-7.557 -16.878,-16.879"
         transform="translate(-340.54973,-494.81671)"
         id="path6307" />
    </clipPath>
    <clipPath
       clipPathUnits="userSpaceOnUse"
       id="clipPath6309">
      <path
         d="m 321.229,495.744 c 0,-9.321 7.556,-16.877 16.878,-16.877 v 0 c 9.322,0 16.878,7.556 16.878,16.877 v 0 c 0,9.322 -7.556,16.879 -16.878,16.879 v 0 c -9.322,0 -16.878,-7.557 -16.878,-16.879"
         transform="translate(-339.12481,-495.14661)"
         id="path6309" />
    </clipPath>
    <clipPath
       clipPathUnits="userSpaceOnUse"
       id="clipPath6311">
      <path
         d="m 321.229,495.744 c 0,-9.321 7.556,-16.877 16.878,-16.877 v 0 c 9.322,0 16.878,7.556 16.878,16.877 v 0 c 0,9.322 -7.556,16.879 -16.878,16.879 v 0 c -9.322,0 -16.878,-7.557 -16.878,-16.879"
         transform="translate(-340.42613,-484.07831)"
         id="path6311" />
    </clipPath>
    <clipPath
       clipPathUnits="userSpaceOnUse"
       id="clipPath6313">
      <path
         d="m 321.229,495.744 c 0,-9.321 7.556,-16.877 16.878,-16.877 v 0 c 9.322,0 16.878,7.556 16.878,16.877 v 0 c 0,9.322 -7.556,16.879 -16.878,16.879 v 0 c -9.322,0 -16.878,-7.557 -16.878,-16.879"
         transform="translate(-343.50458,-485.87141)"
         id="path6313" />
    </clipPath>
    <clipPath
       clipPathUnits="userSpaceOnUse"
       id="clipPath6315">
      <path
         d="m 321.229,495.744 c 0,-9.321 7.556,-16.877 16.878,-16.877 v 0 c 9.322,0 16.878,7.556 16.878,16.877 v 0 c 0,9.322 -7.556,16.879 -16.878,16.879 v 0 c -9.322,0 -16.878,-7.557 -16.878,-16.879"
         transform="translate(-344.06191,-492.66441)"
         id="path6315" />
    </clipPath>
    <clipPath
       clipPathUnits="userSpaceOnUse"
       id="clipPath6317">
      <path
         d="m 321.229,495.744 c 0,-9.321 7.556,-16.877 16.878,-16.877 v 0 c 9.322,0 16.878,7.556 16.878,16.877 v 0 c 0,9.322 -7.556,16.879 -16.878,16.879 v 0 c -9.322,0 -16.878,-7.557 -16.878,-16.879"
         id="path6317" />
    </clipPath>
    <clipPath
       clipPathUnits="userSpaceOnUse"
       id="clipPath6319">
      <path
         d="m 321.229,495.744 c 0,-9.321 7.556,-16.877 16.878,-16.877 v 0 c 9.322,0 16.878,7.556 16.878,16.877 v 0 c 0,9.322 -7.556,16.879 -16.878,16.879 v 0 c -9.322,0 -16.878,-7.557 -16.878,-16.879"
         id="path6319" />
    </clipPath>
    <clipPath
       clipPathUnits="userSpaceOnUse"
       id="clipPath6321">
      <path
         d="m 321.229,495.744 c 0,-9.321 7.556,-16.877 16.878,-16.877 v 0 c 9.322,0 16.878,7.556 16.878,16.877 v 0 c 0,9.322 -7.556,16.879 -16.878,16.879 v 0 c -9.322,0 -16.878,-7.557 -16.878,-16.879"
         id="path6321" />
    </clipPath>
    <clipPath
       clipPathUnits="userSpaceOnUse"
       id="clipPath6323">
      <path
         d="m 321.229,495.744 c 0,-9.321 7.556,-16.877 16.878,-16.877 v 0 c 9.322,0 16.878,7.556 16.878,16.877 v 0 c 0,9.322 -7.556,16.879 -16.878,16.879 v 0 c -9.322,0 -16.878,-7.557 -16.878,-16.879"
         transform="translate(-334.81883,-484.86041)"
         id="path6323" />
    </clipPath>
    <clipPath
       clipPathUnits="userSpaceOnUse"
       id="clipPath6325">
      <path
         d="m 321.229,495.744 c 0,-9.321 7.556,-16.877 16.878,-16.877 v 0 c 9.322,0 16.878,7.556 16.878,16.877 v 0 c 0,9.322 -7.556,16.879 -16.878,16.879 v 0 c -9.322,0 -16.878,-7.557 -16.878,-16.879"
         transform="translate(-341.82023,-484.88721)"
         id="path6325" />
    </clipPath>
    <clipPath
       clipPathUnits="userSpaceOnUse"
       id="clipPath6327">
      <path
         d="m 321.229,495.744 c 0,-9.321 7.556,-16.877 16.878,-16.877 v 0 c 9.322,0 16.878,7.556 16.878,16.877 v 0 c 0,9.322 -7.556,16.879 -16.878,16.879 v 0 c -9.322,0 -16.878,-7.557 -16.878,-16.879"
         transform="translate(-337.60711,-483.24241)"
         id="path6327" />
    </clipPath>
    <clipPath
       clipPathUnits="userSpaceOnUse"
       id="clipPath6329">
      <path
         d="m 321.229,495.744 c 0,-9.321 7.556,-16.877 16.878,-16.877 v 0 c 9.322,0 16.878,7.556 16.878,16.877 v 0 c 0,9.322 -7.556,16.879 -16.878,16.879 v 0 c -9.322,0 -16.878,-7.557 -16.878,-16.879"
         transform="translate(-339.03203,-483.26931)"
         id="path6329" />
    </clipPath>
    <clipPath
       clipPathUnits="userSpaceOnUse"
       id="clipPath6331">
      <path
         d="m 321.229,495.744 c 0,-9.321 7.556,-16.877 16.878,-16.877 v 0 c 9.322,0 16.878,7.556 16.878,16.877 v 0 c 0,9.322 -7.556,16.879 -16.878,16.879 v 0 c -9.322,0 -16.878,-7.557 -16.878,-16.879"
         transform="translate(-336.21301,-484.05151)"
         id="path6331" />
    </clipPath>
    <clipPath
       clipPathUnits="userSpaceOnUse"
       id="clipPath6333">
      <path
         d="m 321.229,495.744 c 0,-9.321 7.556,-16.877 16.878,-16.877 v 0 c 9.322,0 16.878,7.556 16.878,16.877 v 0 c 0,9.322 -7.556,16.879 -16.878,16.879 v 0 c -9.322,0 -16.878,-7.557 -16.878,-16.879"
         transform="translate(-339.97711,-489.99581)"
         id="path6333" />
    </clipPath>
    <clipPath
       clipPathUnits="userSpaceOnUse"
       id="clipPath6335">
      <path
         d="m 321.229,495.744 c 0,-9.321 7.556,-16.877 16.878,-16.877 v 0 c 9.322,0 16.878,7.556 16.878,16.877 v 0 c 0,9.322 -7.556,16.879 -16.878,16.879 v 0 c -9.322,0 -16.878,-7.557 -16.878,-16.879"
         transform="translate(-336.88643,-490.52471)"
         id="path6335" />
    </clipPath>
    <clipPath
       clipPathUnits="userSpaceOnUse"
       id="clipPath6337">
      <path
         d="m 321.229,495.744 c 0,-9.321 7.556,-16.877 16.878,-16.877 v 0 c 9.322,0 16.878,7.556 16.878,16.877 v 0 c 0,9.322 -7.556,16.879 -16.878,16.879 v 0 c -9.322,0 -16.878,-7.557 -16.878,-16.879"
         transform="translate(-335.50501,-491.35531)"
         id="path6337" />
    </clipPath>
    <clipPath
       clipPathUnits="userSpaceOnUse"
       id="clipPath6339">
      <path
         d="m 321.229,495.744 c 0,-9.321 7.556,-16.877 16.878,-16.877 v 0 c 9.322,0 16.878,7.556 16.878,16.877 v 0 c 0,9.322 -7.556,16.879 -16.878,16.879 v 0 c -9.322,0 -16.878,-7.557 -16.878,-16.879"
         transform="translate(-341.36678,-490.81241)"
         id="path6339" />
    </clipPath>
    <clipPath
       clipPathUnits="userSpaceOnUse"
       id="clipPath6341">
      <path
         d="m 321.229,495.744 c 0,-9.321 7.556,-16.877 16.878,-16.877 v 0 c 9.322,0 16.878,7.556 16.878,16.877 v 0 c 0,9.322 -7.556,16.879 -16.878,16.879 v 0 c -9.322,0 -16.878,-7.557 -16.878,-16.879"
         id="path6341" />
    </clipPath>
    <clipPath
       clipPathUnits="userSpaceOnUse"
       id="clipPath6343">
      <path
         d="m 321.229,495.744 c 0,-9.321 7.556,-16.877 16.878,-16.877 v 0 c 9.322,0 16.878,7.556 16.878,16.877 v 0 c 0,9.322 -7.556,16.879 -16.878,16.879 v 0 c -9.322,0 -16.878,-7.557 -16.878,-16.879"
         transform="translate(-339.17611,-489.52511)"
         id="path6343" />
    </clipPath>
    <clipPath
       clipPathUnits="userSpaceOnUse"
       id="clipPath6345">
      <path
         d="m 321.229,495.744 c 0,-9.321 7.556,-16.877 16.878,-16.877 v 0 c 9.322,0 16.878,7.556 16.878,16.877 v 0 c 0,9.322 -7.556,16.879 -16.878,16.879 v 0 c -9.322,0 -16.878,-7.557 -16.878,-16.879"
         id="path6345" />
    </clipPath>
    <clipPath
       clipPathUnits="userSpaceOnUse"
       id="clipPath6347">
      <path
         d="m 321.229,495.744 c 0,-9.321 7.556,-16.877 16.878,-16.877 v 0 c 9.322,0 16.878,7.556 16.878,16.877 v 0 c 0,9.322 -7.556,16.879 -16.878,16.879 v 0 c -9.322,0 -16.878,-7.557 -16.878,-16.879"
         id="path6347" />
    </clipPath>
    <clipPath
       clipPathUnits="userSpaceOnUse"
       id="clipPath6349">
      <path
         d="M 15,15 H 610.275 V 610.275 H 15 Z"
         transform="translate(-338.10698,-478.86641)"
         id="path6349" />
    </clipPath>
    <clipPath
       clipPathUnits="userSpaceOnUse"
       id="clipPath6645">
      <path
         d="M 15,15 H 610.275 V 610.275 H 15 Z"
         transform="translate(-90.994827,-467.58651)"
         id="path6645" />
    </clipPath>
    <clipPath
       clipPathUnits="userSpaceOnUse"
       id="clipPath6647">
      <path
         d="m 74.128,484.453 c 0,-9.315 7.552,-16.867 16.867,-16.867 v 0 c 9.315,0 16.866,7.552 16.866,16.867 v 0 c 0,9.315 -7.551,16.867 -16.866,16.867 v 0 c -9.315,0 -16.867,-7.552 -16.867,-16.867"
         transform="translate(-92.564577,-483.72131)"
         id="path6647" />
    </clipPath>
    <clipPath
       clipPathUnits="userSpaceOnUse"
       id="clipPath6649">
      <path
         d="m 74.128,484.453 c 0,-9.315 7.552,-16.867 16.867,-16.867 v 0 c 9.315,0 16.866,7.552 16.866,16.867 v 0 c 0,9.315 -7.551,16.867 -16.866,16.867 v 0 c -9.315,0 -16.867,-7.552 -16.867,-16.867"
         transform="translate(-116.51958,-483.72131)"
         id="path6649" />
    </clipPath>
    <clipPath
       clipPathUnits="userSpaceOnUse"
       id="clipPath6651">
      <path
         d="m 74.128,484.453 c 0,-9.315 7.552,-16.867 16.867,-16.867 v 0 c 9.315,0 16.866,7.552 16.866,16.867 v 0 c 0,9.315 -7.551,16.867 -16.866,16.867 v 0 c -9.315,0 -16.867,-7.552 -16.867,-16.867"
         transform="translate(-82.676502,-476.44701)"
         id="path6651" />
    </clipPath>
    <clipPath
       clipPathUnits="userSpaceOnUse"
       id="clipPath6653">
      <path
         d="m 74.128,484.453 c 0,-9.315 7.552,-16.867 16.867,-16.867 v 0 c 9.315,0 16.866,7.552 16.866,16.867 v 0 c 0,9.315 -7.551,16.867 -16.866,16.867 v 0 c -9.315,0 -16.867,-7.552 -16.867,-16.867"
         transform="translate(-82.676727,-476.44691)"
         id="path6653" />
    </clipPath>
    <clipPath
       clipPathUnits="userSpaceOnUse"
       id="clipPath6655">
      <path
         d="m 74.128,484.453 c 0,-9.315 7.552,-16.867 16.867,-16.867 v 0 c 9.315,0 16.866,7.552 16.866,16.867 v 0 c 0,9.315 -7.551,16.867 -16.866,16.867 v 0 c -9.315,0 -16.867,-7.552 -16.867,-16.867"
         transform="translate(-82.464102,-476.81731)"
         id="path6655" />
    </clipPath>
    <clipPath
       clipPathUnits="userSpaceOnUse"
       id="clipPath6657">
      <path
         d="m 74.128,484.453 c 0,-9.315 7.552,-16.867 16.867,-16.867 v 0 c 9.315,0 16.866,7.552 16.866,16.867 v 0 c 0,9.315 -7.551,16.867 -16.866,16.867 v 0 c -9.315,0 -16.867,-7.552 -16.867,-16.867"
         transform="translate(-99.091977,-488.20891)"
         id="path6657" />
    </clipPath>
    <clipPath
       clipPathUnits="userSpaceOnUse"
       id="clipPath6659">
      <path
         d="M 15,15 H 610.275 V 610.275 H 15 Z"
         transform="translate(-90.994827,-467.58651)"
         id="path6659" />
    </clipPath>
  </defs>
  <g
     inkscape:label="Calque 1"
     inkscape:groupmode="layer"
     id="layer1"
     transform="translate(-134.14376,-110.59583)">
    <path
       id="path6644"
       d="m 0,0 c 9.315,0 16.867,7.551 16.867,16.867 0,9.315 -7.552,16.866 -16.867,16.866 -9.315,0 -16.867,-7.551 -16.867,-16.866 C -16.867,7.551 -9.315,0 0,0"
       style="fill:#586374;fill-opacity:1;fill-rule:nonzero;stroke:none"
       transform="matrix(0.35277776,0,0,-0.35277776,140.27574,122.67812)"
       clip-path="url(#clipPath6645)" />
    <path
       id="path6646"
       d="m 0,0 h -5.018 v -4.911 c 0,-0.178 -0.095,-0.344 -0.249,-0.434 l -4.37,-2.534 c -0.078,-0.045 -0.165,-0.067 -0.252,-0.067 -0.086,0 -0.173,0.022 -0.25,0.067 l -4.372,2.534 c -0.153,0.091 -0.249,0.257 -0.249,0.434 V 0 h -4.672 c -0.946,0 -1.522,-0.569 -1.713,-1.712 l -2.549,-9.344 c 0,-0.945 0.767,-1.712 1.713,-1.712 H 0 c 0.946,0 1.712,0.767 1.712,1.712 v 9.344 C 1.509,-0.531 0.946,0 0,0"
       style="fill:#ffffff;fill-opacity:1;fill-rule:nonzero;stroke:none"
       transform="matrix(0.35277776,0,0,-0.35277776,140.82952,116.98612)"
       clip-path="url(#clipPath6647)" />
    <path
       id="path6648"
       d="m 0,0 c 0.946,0 1.509,-0.531 1.712,-1.712 l 2.549,-9.344 c 0,-0.945 -0.766,-1.712 -1.712,-1.712 h -21.981 c -0.946,0 -1.713,0.767 -1.713,1.712 v 9.344 C -20.954,-0.569 -20.378,0 -19.432,0 Z"
       style="fill:#ffffff;fill-opacity:1;fill-rule:nonzero;stroke:none"
       transform="matrix(0.35277776,0,0,-0.35277776,149.28031,116.98612)"
       clip-path="url(#clipPath6649)" />
    <path
       id="path6650"
       d="M 0,0 Z"
       style="fill:#ffffff;fill-opacity:1;fill-rule:nonzero;stroke:none"
       transform="matrix(0.35277776,0,0,-0.35277776,137.34122,119.55234)"
       clip-path="url(#clipPath6651)" />
    <path
       id="path6652"
       d="M 0,0 Z"
       style="fill:#ffffff;fill-opacity:1;fill-rule:nonzero;stroke:none"
       transform="matrix(0.35277776,0,0,-0.35277776,137.3413,119.55237)"
       clip-path="url(#clipPath6653)" />
    <path
       id="path6654"
       d="M 0,0 -3.777,2.208 V 7.625 L 0,5.408 Z M -3.57,7.997 0.206,10.217 3.987,7.997 3.17,7.517 0.212,5.776 Z M 4.201,2.208 0.425,0 v 5.408 l 2.96,1.742 0.816,0.476 z m 0.613,6.327 -4.356,2.533 c -0.155,0.09 -0.348,0.091 -0.505,0 L -4.411,8.522 C -4.564,8.433 -4.659,8.268 -4.659,8.091 V 1.993 c 0,-0.177 0.095,-0.343 0.249,-0.434 l 4.372,-2.534 c 0.076,-0.045 0.163,-0.067 0.25,-0.067 0.087,0 0.174,0.022 0.251,0.067 l 4.37,2.534 c 0.155,0.09 0.25,0.256 0.25,0.434 v 6.098 c 0,0.177 -0.095,0.342 -0.269,0.444"
       style="fill:#ffffff;fill-opacity:1;fill-rule:nonzero;stroke:none"
       transform="matrix(0.35277776,0,0,-0.35277776,137.26629,119.4217)"
       clip-path="url(#clipPath6655)" />
    <path
       id="path6656"
       d="M 0,0 1.213,4.911 -0.41,4.227 c -1.28,2.795 -4.057,4.552 -7.148,4.494 -2.962,-0.057 -5.631,-1.86 -6.848,-4.528 l 2.229,-1.284 c 0.758,1.905 2.61,3.204 4.668,3.244 2.033,0.038 3.856,-1.107 4.724,-2.927 L -4.52,2.493 Z"
       style="fill:#fdda04;fill-opacity:1;fill-rule:nonzero;stroke:none"
       transform="matrix(0.35277776,0,0,-0.35277776,143.13224,115.403)"
       clip-path="url(#clipPath6657)" />
    <path
       id="path6658"
       d="M 0,0 V -0.516 C 9.6,-0.515 17.382,7.266 17.382,16.867 17.382,26.467 9.6,34.248 0,34.249 -9.6,34.248 -17.382,26.467 -17.382,16.867 -17.382,7.266 -9.6,-0.515 0,-0.516 V 0 0.516 c -4.517,0 -8.601,1.829 -11.562,4.789 -2.96,2.96 -4.789,7.045 -4.789,11.562 0,4.516 1.829,8.601 4.789,11.561 2.961,2.96 7.045,4.789 11.562,4.79 4.517,-0.001 8.601,-1.83 11.562,-4.79 2.96,-2.96 4.789,-7.045 4.789,-11.561 0,-4.517 -1.829,-8.602 -4.789,-11.562 C 8.601,2.345 4.517,0.516 0,0.516 Z"
       style="fill:#ffffff;fill-opacity:1;fill-rule:nonzero;stroke:none"
       transform="matrix(0.35277776,0,0,-0.35277776,140.27574,122.67812)"
       clip-path="url(#clipPath6659)" />
  </g>
</svg>
