<?xml version="1.0" encoding="UTF-8" standalone="no"?>
<!-- Created with Inkscape (http://www.inkscape.org/) -->

<svg
   width="2.1738164mm"
   height="2.1738164mm"
   viewBox="0 0 2.1738164 2.1738165"
   version="1.1"
   id="svg1"
   inkscape:version="1.4 (e7c3feb100, 2024-10-09)"
   sodipodi:docname="VictoryPoint.svg"
   xmlns:inkscape="http://www.inkscape.org/namespaces/inkscape"
   xmlns:sodipodi="http://sodipodi.sourceforge.net/DTD/sodipodi-0.dtd"
   xmlns="http://www.w3.org/2000/svg"
   xmlns:svg="http://www.w3.org/2000/svg">
  <sodipodi:namedview
     id="namedview1"
     pagecolor="#ffffff"
     bordercolor="#000000"
     borderopacity="0.25"
     inkscape:showpageshadow="2"
     inkscape:pageopacity="0.0"
     inkscape:pagecheckerboard="0"
     inkscape:deskcolor="#d1d1d1"
     inkscape:document-units="mm"
     inkscape:zoom="22.627417"
     inkscape:cx="-3.6681164"
     inkscape:cy="11.004349"
     inkscape:window-width="1920"
     inkscape:window-height="1163"
     inkscape:window-x="0"
     inkscape:window-y="0"
     inkscape:window-maximized="1"
     inkscape:current-layer="layer1" />
  <defs
     id="defs1">
    <clipPath
       clipPathUnits="userSpaceOnUse"
       id="clipPath770">
      <path
         d="M 15,15 H 610.275 V 610.275 H 15 Z"
         transform="translate(-356.83961,-179.32351)"
         id="path770" />
    </clipPath>
    <clipPath
       clipPathUnits="userSpaceOnUse"
       id="clipPath768">
      <path
         d="M 15,15 H 610.275 V 610.275 H 15 Z"
         transform="translate(-350.46123,-166.6795)"
         id="path768" />
    </clipPath>
    <clipPath
       clipPathUnits="userSpaceOnUse"
       id="clipPath766">
      <path
         d="M 15,15 H 610.275 V 610.275 H 15 Z"
         transform="translate(-363.23733,-166.6795)"
         id="path766" />
    </clipPath>
    <clipPath
       clipPathUnits="userSpaceOnUse"
       id="clipPath731">
      <path
         d="M 15,15 H 610.275 V 610.275 H 15 Z"
         transform="translate(-349.94418,-175.9357)"
         id="path731" />
    </clipPath>
    <clipPath
       clipPathUnits="userSpaceOnUse"
       id="clipPath731-5">
      <path
         d="M 15,15 H 610.275 V 610.275 H 15 Z"
         transform="translate(-349.94418,-175.9357)"
         id="path731-6" />
    </clipPath>
    <clipPath
       clipPathUnits="userSpaceOnUse"
       id="clipPath729">
      <path
         d="M 15,15 H 610.275 V 610.275 H 15 Z"
         transform="translate(-349.94418,-175.9357)"
         id="path729" />
    </clipPath>
    <clipPath
       clipPathUnits="userSpaceOnUse"
       id="clipPath770-2">
      <path
         d="M 15,15 H 610.275 V 610.275 H 15 Z"
         transform="translate(-356.83961,-179.32351)"
         id="path770-9" />
    </clipPath>
    <clipPath
       clipPathUnits="userSpaceOnUse"
       id="clipPath766-1">
      <path
         d="M 15,15 H 610.275 V 610.275 H 15 Z"
         transform="translate(-363.23733,-166.6795)"
         id="path766-2" />
    </clipPath>
    <clipPath
       clipPathUnits="userSpaceOnUse"
       id="clipPath768-7">
      <path
         d="M 15,15 H 610.275 V 610.275 H 15 Z"
         transform="translate(-350.46123,-166.6795)"
         id="path768-0" />
    </clipPath>
    <clipPath
       clipPathUnits="userSpaceOnUse"
       id="clipPath758">
      <path
         d="M 15,15 H 610.275 V 610.275 H 15 Z"
         transform="translate(-533.19904,-179.6276)"
         id="path758" />
    </clipPath>
    <clipPath
       clipPathUnits="userSpaceOnUse"
       id="clipPath756">
      <path
         d="M 15,15 H 610.275 V 610.275 H 15 Z"
         transform="translate(-526.82059,-166.98361)"
         id="path756" />
    </clipPath>
    <clipPath
       clipPathUnits="userSpaceOnUse"
       id="clipPath754">
      <path
         d="M 15,15 H 610.275 V 610.275 H 15 Z"
         transform="translate(-539.59661,-166.98361)"
         id="path754" />
    </clipPath>
    <clipPath
       clipPathUnits="userSpaceOnUse"
       id="clipPath734">
      <path
         d="M 15,15 H 610.275 V 610.275 H 15 Z"
         transform="translate(-540.17554,-176.3821)"
         id="path734" />
    </clipPath>
    <clipPath
       clipPathUnits="userSpaceOnUse"
       id="clipPath736">
      <path
         d="M 15,15 H 610.275 V 610.275 H 15 Z"
         transform="translate(-540.17554,-176.3821)"
         id="path736" />
    </clipPath>
    <clipPath
       clipPathUnits="userSpaceOnUse"
       id="clipPath741">
      <path
         d="M 15,15 H 610.275 V 610.275 H 15 Z"
         transform="translate(-540.17554,-110.5487)"
         id="path741" />
    </clipPath>
    <clipPath
       clipPathUnits="userSpaceOnUse"
       id="clipPath739">
      <path
         d="M 15,15 H 610.275 V 610.275 H 15 Z"
         transform="translate(-540.17554,-110.5487)"
         id="path739" />
    </clipPath>
    <clipPath
       clipPathUnits="userSpaceOnUse"
       id="clipPath764">
      <path
         d="M 15,15 H 610.275 V 610.275 H 15 Z"
         transform="translate(-533.19904,-113.7941)"
         id="path764" />
    </clipPath>
    <clipPath
       clipPathUnits="userSpaceOnUse"
       id="clipPath760">
      <path
         d="M 15,15 H 610.275 V 610.275 H 15 Z"
         transform="translate(-539.59661,-101.15011)"
         id="path760" />
    </clipPath>
    <clipPath
       clipPathUnits="userSpaceOnUse"
       id="clipPath762">
      <path
         d="M 15,15 H 610.275 V 610.275 H 15 Z"
         transform="translate(-526.82059,-101.15011)"
         id="path762" />
    </clipPath>
    <clipPath
       clipPathUnits="userSpaceOnUse"
       id="clipPath752">
      <path
         d="M 15,15 H 610.275 V 610.275 H 15 Z"
         transform="translate(-356.83961,-113.7941)"
         id="path752" />
    </clipPath>
    <clipPath
       clipPathUnits="userSpaceOnUse"
       id="clipPath748">
      <path
         d="M 15,15 H 610.275 V 610.275 H 15 Z"
         transform="translate(-363.23733,-101.15011)"
         id="path748" />
    </clipPath>
    <clipPath
       clipPathUnits="userSpaceOnUse"
       id="clipPath750">
      <path
         d="M 15,15 H 610.275 V 610.275 H 15 Z"
         transform="translate(-350.46123,-101.15011)"
         id="path750" />
    </clipPath>
    <clipPath
       clipPathUnits="userSpaceOnUse"
       id="clipPath744">
      <path
         d="M 15,15 H 610.275 V 610.275 H 15 Z"
         transform="translate(-363.81633,-110.5487)"
         id="path744" />
    </clipPath>
    <clipPath
       clipPathUnits="userSpaceOnUse"
       id="clipPath746">
      <path
         d="M 15,15 H 610.275 V 610.275 H 15 Z"
         transform="translate(-363.81633,-110.5487)"
         id="path746" />
    </clipPath>
    <clipPath
       clipPathUnits="userSpaceOnUse"
       id="clipPath4705">
      <path
         d="m 74.527,74.777 h 229.606 v 80.209 H 74.527 Z"
         transform="translate(-173.5087,-145.59061)"
         id="path4705" />
    </clipPath>
    <clipPath
       clipPathUnits="userSpaceOnUse"
       id="clipPath4687">
      <path
         d="m 74.527,74.777 h 229.606 v 80.209 H 74.527 Z"
         transform="translate(-2.5000002e-5)"
         id="path4687" />
    </clipPath>
    <clipPath
       clipPathUnits="userSpaceOnUse"
       id="clipPath4689">
      <path
         d="m 172.72,134.547 h 11.831 v 11.832 H 172.72 Z"
         transform="translate(-179.24193,-140.69701)"
         id="path4689" />
    </clipPath>
    <clipPath
       clipPathUnits="userSpaceOnUse"
       id="clipPath4691">
      <path
         d="m 74.527,74.777 h 229.606 v 80.209 H 74.527 Z"
         transform="translate(-2.5000002e-5)"
         id="path4691" />
    </clipPath>
    <clipPath
       clipPathUnits="userSpaceOnUse"
       id="clipPath4707">
      <path
         d="m 74.527,74.777 h 229.606 v 80.209 H 74.527 Z"
         transform="translate(-186.04578,-145.59061)"
         id="path4707" />
    </clipPath>
    <clipPath
       clipPathUnits="userSpaceOnUse"
       id="clipPath4695">
      <path
         d="m 185.313,134.593 h 11.723 v 11.724 h -11.723 z"
         transform="translate(-187.6987,-138.2759)"
         id="path4695" />
    </clipPath>
    <clipPath
       clipPathUnits="userSpaceOnUse"
       id="clipPath4699">
      <path
         d="m 172.72,122.048 h 11.831 V 133.88 H 172.72 Z"
         transform="translate(-181.88343,-127.4867)"
         id="path4699" />
    </clipPath>
    <clipPath
       clipPathUnits="userSpaceOnUse"
       id="clipPath4697">
      <path
         d="m 74.527,74.777 h 229.606 v 80.209 H 74.527 Z"
         transform="translate(-2.5000002e-5)"
         id="path4697" />
    </clipPath>
    <clipPath
       clipPathUnits="userSpaceOnUse"
       id="clipPath4711">
      <path
         d="m 74.527,74.777 h 229.606 v 80.209 H 74.527 Z"
         transform="translate(-173.5342,-133.0913)"
         id="path4711" />
    </clipPath>
    <clipPath
       clipPathUnits="userSpaceOnUse"
       id="clipPath4703">
      <path
         d="m 185.755,122.454 h 10.622 v 10.72 h -10.622 z"
         transform="translate(-189.72588,-125.76031)"
         id="path4703" />
    </clipPath>
    <clipPath
       clipPathUnits="userSpaceOnUse"
       id="clipPath4701">
      <path
         d="m 74.527,74.777 h 229.606 v 80.209 H 74.527 Z"
         transform="translate(-2.5000002e-5)"
         id="path4701" />
    </clipPath>
    <clipPath
       clipPathUnits="userSpaceOnUse"
       id="clipPath4709">
      <path
         d="m 74.527,74.777 h 229.606 v 80.209 H 74.527 Z"
         transform="translate(-186.09708,-133.09141)"
         id="path4709" />
    </clipPath>
    <clipPath
       clipPathUnits="userSpaceOnUse"
       id="clipPath4609">
      <path
         d="m 135.448,142.589 h 2.53 v 1.759 h -2.53 z"
         transform="translate(-137.25723,-144.3473)"
         id="path4609" />
    </clipPath>
    <clipPath
       clipPathUnits="userSpaceOnUse"
       id="clipPath4601">
      <path
         d="m 130.874,134.566 h 11.813 v 11.813 h -11.813 z"
         transform="translate(-142.68708,-146.37931)"
         id="path4601" />
    </clipPath>
    <clipPath
       clipPathUnits="userSpaceOnUse"
       id="clipPath4605">
      <path
         d="m 130.874,134.566 h 11.813 v 11.813 h -11.813 z"
         transform="translate(-139.5397,-144.8585)"
         id="path4605" />
    </clipPath>
    <clipPath
       clipPathUnits="userSpaceOnUse"
       id="clipPath4607">
      <path
         d="m 130.874,134.566 h 11.813 v 11.813 h -11.813 z"
         transform="translate(-134.3203,-140.6131)"
         id="path4607" />
    </clipPath>
    <clipPath
       clipPathUnits="userSpaceOnUse"
       id="clipPath4603">
      <path
         d="m 130.874,134.566 h 11.813 v 11.813 h -11.813 z"
         transform="translate(-142.68708,-135.2227)"
         id="path4603" />
    </clipPath>
    <clipPath
       clipPathUnits="userSpaceOnUse"
       id="clipPath4679">
      <path
         d="m 74.527,74.777 h 229.606 v 80.209 H 74.527 Z"
         transform="translate(-131.6617,-145.59181)"
         id="path4679" />
    </clipPath>
    <clipPath
       clipPathUnits="userSpaceOnUse"
       id="clipPath4649">
      <path
         d="m 143.393,134.566 h 11.813 v 11.813 h -11.813 z"
         transform="translate(-149.40408,-144.9343)"
         id="path4649" />
    </clipPath>
    <clipPath
       clipPathUnits="userSpaceOnUse"
       id="clipPath4647">
      <path
         d="m 143.393,134.566 h 11.813 v 11.813 h -11.813 z"
         transform="translate(-149.40423,-145.2448)"
         id="path4647" />
    </clipPath>
    <clipPath
       clipPathUnits="userSpaceOnUse"
       id="clipPath4645">
      <path
         d="m 143.393,134.566 h 11.813 v 11.813 h -11.813 z"
         transform="translate(-147.17238,-142.34)"
         id="path4645" />
    </clipPath>
    <clipPath
       clipPathUnits="userSpaceOnUse"
       id="clipPath4643">
      <path
         d="m 143.393,134.566 h 11.813 v 11.813 h -11.813 z"
         transform="translate(-144.6565,-142.68811)"
         id="path4643" />
    </clipPath>
    <clipPath
       clipPathUnits="userSpaceOnUse"
       id="clipPath4641">
      <path
         d="m 143.393,134.566 h 11.813 v 11.813 h -11.813 z"
         transform="translate(-154.3645,-143.9548)"
         id="path4641" />
    </clipPath>
    <clipPath
       clipPathUnits="userSpaceOnUse"
       id="clipPath4639">
      <path
         d="m 143.393,134.566 h 11.813 v 11.813 h -11.813 z"
         transform="translate(-144.65658,-143.0152)"
         id="path4639" />
    </clipPath>
    <clipPath
       clipPathUnits="userSpaceOnUse"
       id="clipPath4637">
      <path
         d="m 143.393,134.566 h 11.813 v 11.813 h -11.813 z"
         transform="translate(-144.53598,-142.6672)"
         id="path4637" />
    </clipPath>
    <clipPath
       clipPathUnits="userSpaceOnUse"
       id="clipPath4635">
      <path
         d="m 143.393,134.566 h 11.813 v 11.813 h -11.813 z"
         transform="translate(-155.2048,-138.1991)"
         id="path4635" />
    </clipPath>
    <clipPath
       clipPathUnits="userSpaceOnUse"
       id="clipPath4633">
      <path
         d="m 143.393,134.566 h 11.813 v 11.813 h -11.813 z"
         transform="translate(-154.36443,-144.2653)"
         id="path4633" />
    </clipPath>
    <clipPath
       clipPathUnits="userSpaceOnUse"
       id="clipPath4631">
      <path
         d="m 143.393,134.566 h 11.813 v 11.813 h -11.813 z"
         transform="translate(-154.88598,-137.54611)"
         id="path4631" />
    </clipPath>
    <clipPath
       clipPathUnits="userSpaceOnUse"
       id="clipPath4629">
      <path
         d="m 143.393,134.566 h 11.813 v 11.813 h -11.813 z"
         transform="translate(-154.43703,-143.9489)"
         id="path4629" />
    </clipPath>
    <clipPath
       clipPathUnits="userSpaceOnUse"
       id="clipPath4627">
      <path
         d="m 143.393,134.566 h 11.813 v 11.813 h -11.813 z"
         transform="translate(-152.05638,-144.4396)"
         id="path4627" />
    </clipPath>
    <clipPath
       clipPathUnits="userSpaceOnUse"
       id="clipPath4625">
      <path
         d="m 143.393,134.566 h 11.813 v 11.813 h -11.813 z"
         transform="translate(-152.05638,-144.6674)"
         id="path4625" />
    </clipPath>
    <clipPath
       clipPathUnits="userSpaceOnUse"
       id="clipPath4623">
      <path
         d="m 143.393,134.566 h 11.813 v 11.813 h -11.813 z"
         transform="translate(-152.05638,-144.4396)"
         id="path4623" />
    </clipPath>
    <clipPath
       clipPathUnits="userSpaceOnUse"
       id="clipPath4621">
      <path
         d="m 143.393,134.566 h 11.813 v 11.813 h -11.813 z"
         transform="translate(-146.7142,-144.69661)"
         id="path4621" />
    </clipPath>
    <clipPath
       clipPathUnits="userSpaceOnUse"
       id="clipPath4619">
      <path
         d="m 143.393,134.566 h 11.813 v 11.813 h -11.813 z"
         transform="translate(-146.7142,-144.98)"
         id="path4619" />
    </clipPath>
    <clipPath
       clipPathUnits="userSpaceOnUse"
       id="clipPath4617">
      <path
         d="m 143.393,134.566 h 11.813 v 11.813 h -11.813 z"
         transform="translate(-146.7814,-144.6892)"
         id="path4617" />
    </clipPath>
    <clipPath
       clipPathUnits="userSpaceOnUse"
       id="clipPath4615">
      <path
         d="m 143.393,134.566 h 11.813 v 11.813 h -11.813 z"
         transform="translate(-155.2048,-137.8885)"
         id="path4615" />
    </clipPath>
    <clipPath
       clipPathUnits="userSpaceOnUse"
       id="clipPath4613">
      <path
         d="m 143.393,134.566 h 11.813 v 11.813 h -11.813 z"
         transform="translate(-155.2048,-146.37931)"
         id="path4613" />
    </clipPath>
    <clipPath
       clipPathUnits="userSpaceOnUse"
       id="clipPath4611">
      <path
         d="m 74.527,74.777 h 229.606 v 80.209 H 74.527 Z"
         transform="translate(-2.5000002e-5)"
         id="path4611" />
    </clipPath>
    <clipPath
       clipPathUnits="userSpaceOnUse"
       id="clipPath4649-0">
      <path
         d="m 143.393,134.566 h 11.813 v 11.813 h -11.813 z"
         transform="translate(-149.40408,-144.9343)"
         id="path4649-6" />
    </clipPath>
    <clipPath
       clipPathUnits="userSpaceOnUse"
       id="clipPath4647-1">
      <path
         d="m 143.393,134.566 h 11.813 v 11.813 h -11.813 z"
         transform="translate(-149.40423,-145.2448)"
         id="path4647-5" />
    </clipPath>
    <clipPath
       clipPathUnits="userSpaceOnUse"
       id="clipPath4645-5">
      <path
         d="m 143.393,134.566 h 11.813 v 11.813 h -11.813 z"
         transform="translate(-147.17238,-142.34)"
         id="path4645-4" />
    </clipPath>
    <clipPath
       clipPathUnits="userSpaceOnUse"
       id="clipPath4643-7">
      <path
         d="m 143.393,134.566 h 11.813 v 11.813 h -11.813 z"
         transform="translate(-144.6565,-142.68811)"
         id="path4643-6" />
    </clipPath>
    <clipPath
       clipPathUnits="userSpaceOnUse"
       id="clipPath4641-5">
      <path
         d="m 143.393,134.566 h 11.813 v 11.813 h -11.813 z"
         transform="translate(-154.3645,-143.9548)"
         id="path4641-6" />
    </clipPath>
    <clipPath
       clipPathUnits="userSpaceOnUse"
       id="clipPath4639-9">
      <path
         d="m 143.393,134.566 h 11.813 v 11.813 h -11.813 z"
         transform="translate(-144.65658,-143.0152)"
         id="path4639-3" />
    </clipPath>
    <clipPath
       clipPathUnits="userSpaceOnUse"
       id="clipPath4637-7">
      <path
         d="m 143.393,134.566 h 11.813 v 11.813 h -11.813 z"
         transform="translate(-144.53598,-142.6672)"
         id="path4637-4" />
    </clipPath>
    <clipPath
       clipPathUnits="userSpaceOnUse"
       id="clipPath4635-5">
      <path
         d="m 143.393,134.566 h 11.813 v 11.813 h -11.813 z"
         transform="translate(-155.2048,-138.1991)"
         id="path4635-2" />
    </clipPath>
    <clipPath
       clipPathUnits="userSpaceOnUse"
       id="clipPath4633-5">
      <path
         d="m 143.393,134.566 h 11.813 v 11.813 h -11.813 z"
         transform="translate(-154.36443,-144.2653)"
         id="path4633-4" />
    </clipPath>
    <clipPath
       clipPathUnits="userSpaceOnUse"
       id="clipPath4631-7">
      <path
         d="m 143.393,134.566 h 11.813 v 11.813 h -11.813 z"
         transform="translate(-154.88598,-137.54611)"
         id="path4631-4" />
    </clipPath>
    <clipPath
       clipPathUnits="userSpaceOnUse"
       id="clipPath4629-4">
      <path
         d="m 143.393,134.566 h 11.813 v 11.813 h -11.813 z"
         transform="translate(-154.43703,-143.9489)"
         id="path4629-3" />
    </clipPath>
    <clipPath
       clipPathUnits="userSpaceOnUse"
       id="clipPath4627-0">
      <path
         d="m 143.393,134.566 h 11.813 v 11.813 h -11.813 z"
         transform="translate(-152.05638,-144.4396)"
         id="path4627-7" />
    </clipPath>
    <clipPath
       clipPathUnits="userSpaceOnUse"
       id="clipPath4625-8">
      <path
         d="m 143.393,134.566 h 11.813 v 11.813 h -11.813 z"
         transform="translate(-152.05638,-144.6674)"
         id="path4625-6" />
    </clipPath>
    <clipPath
       clipPathUnits="userSpaceOnUse"
       id="clipPath4623-8">
      <path
         d="m 143.393,134.566 h 11.813 v 11.813 h -11.813 z"
         transform="translate(-152.05638,-144.4396)"
         id="path4623-8" />
    </clipPath>
    <clipPath
       clipPathUnits="userSpaceOnUse"
       id="clipPath4621-4">
      <path
         d="m 143.393,134.566 h 11.813 v 11.813 h -11.813 z"
         transform="translate(-146.7142,-144.69661)"
         id="path4621-3" />
    </clipPath>
    <clipPath
       clipPathUnits="userSpaceOnUse"
       id="clipPath4619-1">
      <path
         d="m 143.393,134.566 h 11.813 v 11.813 h -11.813 z"
         transform="translate(-146.7142,-144.98)"
         id="path4619-4" />
    </clipPath>
    <clipPath
       clipPathUnits="userSpaceOnUse"
       id="clipPath4617-9">
      <path
         d="m 143.393,134.566 h 11.813 v 11.813 h -11.813 z"
         transform="translate(-146.7814,-144.6892)"
         id="path4617-2" />
    </clipPath>
    <clipPath
       clipPathUnits="userSpaceOnUse"
       id="clipPath4615-0">
      <path
         d="m 143.393,134.566 h 11.813 v 11.813 h -11.813 z"
         transform="translate(-155.2048,-137.8885)"
         id="path4615-6" />
    </clipPath>
    <clipPath
       clipPathUnits="userSpaceOnUse"
       id="clipPath4613-8">
      <path
         d="m 143.393,134.566 h 11.813 v 11.813 h -11.813 z"
         transform="translate(-155.2048,-146.37931)"
         id="path4613-9" />
    </clipPath>
    <clipPath
       clipPathUnits="userSpaceOnUse"
       id="clipPath4611-2">
      <path
         d="m 74.527,74.777 h 229.606 v 80.209 H 74.527 Z"
         transform="translate(-2.5000002e-5)"
         id="path4611-6" />
    </clipPath>
    <clipPath
       clipPathUnits="userSpaceOnUse"
       id="clipPath4681">
      <path
         d="m 74.527,74.777 h 229.606 v 80.209 H 74.527 Z"
         transform="translate(-144.17928,-145.59181)"
         id="path4681" />
    </clipPath>
    <clipPath
       clipPathUnits="userSpaceOnUse"
       id="clipPath4653">
      <path
         d="m 143.393,122.048 h 11.813 v 11.813 h -11.813 z"
         transform="translate(-155.2048,-133.8616)"
         id="path4653" />
    </clipPath>
    <clipPath
       clipPathUnits="userSpaceOnUse"
       id="clipPath4655">
      <path
         d="m 143.393,122.048 h 11.813 v 11.813 h -11.813 z"
         transform="translate(-148.44093,-130.0289)"
         id="path4655" />
    </clipPath>
    <clipPath
       clipPathUnits="userSpaceOnUse"
       id="clipPath4657">
      <path
         d="m 143.393,122.048 h 11.813 v 11.813 h -11.813 z"
         transform="translate(-145.42398,-128.8315)"
         id="path4657" />
    </clipPath>
    <clipPath
       clipPathUnits="userSpaceOnUse"
       id="clipPath4659">
      <path
         d="m 143.393,122.048 h 11.813 v 11.813 h -11.813 z"
         transform="translate(-148.5499,-127.35391)"
         id="path4659" />
    </clipPath>
    <clipPath
       clipPathUnits="userSpaceOnUse"
       id="clipPath4661">
      <path
         d="m 143.393,122.048 h 11.813 v 11.813 h -11.813 z"
         transform="translate(-146.2963,-126.1565)"
         id="path4661" />
    </clipPath>
    <clipPath
       clipPathUnits="userSpaceOnUse"
       id="clipPath4683">
      <path
         d="m 74.527,74.777 h 229.606 v 80.209 H 74.527 Z"
         transform="translate(-144.17928,-133.0742)"
         id="path4683" />
    </clipPath>
    <clipPath
       clipPathUnits="userSpaceOnUse"
       id="clipPath4653-7">
      <path
         d="m 143.393,122.048 h 11.813 v 11.813 h -11.813 z"
         transform="translate(-155.2048,-133.8616)"
         id="path4653-1" />
    </clipPath>
    <clipPath
       clipPathUnits="userSpaceOnUse"
       id="clipPath4655-7">
      <path
         d="m 143.393,122.048 h 11.813 v 11.813 h -11.813 z"
         transform="translate(-148.44093,-130.0289)"
         id="path4655-2" />
    </clipPath>
    <clipPath
       clipPathUnits="userSpaceOnUse"
       id="clipPath4657-7">
      <path
         d="m 143.393,122.048 h 11.813 v 11.813 h -11.813 z"
         transform="translate(-145.42398,-128.8315)"
         id="path4657-2" />
    </clipPath>
    <clipPath
       clipPathUnits="userSpaceOnUse"
       id="clipPath4659-2">
      <path
         d="m 143.393,122.048 h 11.813 v 11.813 h -11.813 z"
         transform="translate(-148.5499,-127.35391)"
         id="path4659-6" />
    </clipPath>
    <clipPath
       clipPathUnits="userSpaceOnUse"
       id="clipPath4661-1">
      <path
         d="m 143.393,122.048 h 11.813 v 11.813 h -11.813 z"
         transform="translate(-146.2963,-126.1565)"
         id="path4661-0" />
    </clipPath>
    <clipPath
       clipPathUnits="userSpaceOnUse"
       id="clipPath4683-6">
      <path
         d="m 74.527,74.777 h 229.606 v 80.209 H 74.527 Z"
         transform="translate(-144.17928,-133.0742)"
         id="path4683-1" />
    </clipPath>
    <clipPath
       clipPathUnits="userSpaceOnUse"
       id="clipPath4677">
      <path
         d="m 130.848,122.048 h 11.813 v 11.813 h -11.813 z"
         transform="translate(-2.5000002e-5)"
         id="path4677" />
    </clipPath>
    <clipPath
       clipPathUnits="userSpaceOnUse"
       id="clipPath4675">
      <path
         d="m 130.848,122.048 h 11.813 v 11.813 h -11.813 z"
         transform="translate(-140.81643,-128.77201)"
         id="path4675" />
    </clipPath>
    <clipPath
       clipPathUnits="userSpaceOnUse"
       id="clipPath4673">
      <path
         d="m 130.848,122.048 h 11.813 v 11.813 h -11.813 z"
         transform="translate(-142.66158,-130.15231)"
         id="path4673" />
    </clipPath>
    <clipPath
       clipPathUnits="userSpaceOnUse"
       id="clipPath4671">
      <path
         d="m 130.848,122.048 h 11.813 v 11.813 h -11.813 z"
         transform="translate(-136.74783,-131.26741)"
         id="path4671" />
    </clipPath>
    <clipPath
       clipPathUnits="userSpaceOnUse"
       id="clipPath4669">
      <path
         d="m 130.848,122.048 h 11.813 v 11.813 h -11.813 z"
         transform="translate(-132.2584,-130.085)"
         id="path4669" />
    </clipPath>
    <clipPath
       clipPathUnits="userSpaceOnUse"
       id="clipPath4667">
      <path
         d="m 130.848,122.048 h 11.813 v 11.813 h -11.813 z"
         transform="translate(-142.66158,-130.5899)"
         id="path4667" />
    </clipPath>
    <clipPath
       clipPathUnits="userSpaceOnUse"
       id="clipPath4665">
      <path
         d="m 130.848,122.048 h 11.813 v 11.813 h -11.813 z"
         transform="translate(-142.66158,-133.8616)"
         id="path4665" />
    </clipPath>
    <clipPath
       clipPathUnits="userSpaceOnUse"
       id="clipPath4663">
      <path
         d="m 74.527,74.777 h 229.606 v 80.209 H 74.527 Z"
         transform="translate(-2.5000002e-5)"
         id="path4663" />
    </clipPath>
    <clipPath
       clipPathUnits="userSpaceOnUse"
       id="clipPath4685">
      <path
         d="m 74.527,74.777 h 229.606 v 80.209 H 74.527 Z"
         transform="translate(-131.63628,-133.0742)"
         id="path4685" />
    </clipPath>
    <clipPath
       clipPathUnits="userSpaceOnUse"
       id="clipPath4373">
      <path
         d="m 74.527,74.777 h 229.606 v 80.209 H 74.527 Z"
         transform="translate(-226.64163,-109.7603)"
         id="path4373" />
    </clipPath>
    <clipPath
       clipPathUnits="userSpaceOnUse"
       id="clipPath4369">
      <path
         d="m 223.717,112.686 c 0,-1.616 1.309,-2.926 2.925,-2.926 v 0 c 1.615,0 2.926,1.31 2.926,2.926 v 0 c 0,1.615 -1.311,2.925 -2.926,2.925 v 0 c -1.616,0 -2.925,-1.31 -2.925,-2.925"
         transform="translate(-2.5000002e-5)"
         id="path4369" />
    </clipPath>
    <clipPath
       clipPathUnits="userSpaceOnUse"
       id="clipPath4371">
      <path
         d="m 223.717,112.686 c 0,-1.616 1.309,-2.926 2.925,-2.926 v 0 c 1.615,0 2.926,1.31 2.926,2.926 v 0 c 0,1.615 -1.311,2.925 -2.926,2.925 v 0 c -1.616,0 -2.925,-1.31 -2.925,-2.925"
         transform="translate(-226.64171,-114.8056)"
         id="path4371" />
    </clipPath>
  </defs>
  <g
     inkscape:label="Calque 1"
     inkscape:groupmode="layer"
     id="layer1"
     transform="translate(-136.26009,-35.718752)">
    <path
       id="path4368"
       d="m 223.717,109.76 h 5.85 v 5.85 h -5.85 z"
       style="fill:#e3c709;fill-opacity:1;fill-rule:nonzero;stroke:none"
       transform="matrix(0.35277776,0,0,-0.35277776,57.392876,76.558528)"
       clip-path="url(#clipPath4369)" />
    <path
       id="path4370"
       d="M 0,0 V 0 L 0.632,-1.332 2.045,-1.545 1.022,-2.581 1.264,-4.046 0,-3.354 l -1.264,-0.692 0.242,1.465 -1.023,1.036 1.413,0.213 z"
       style="fill:#3e532d;fill-opacity:1;fill-rule:nonzero;stroke:none"
       transform="matrix(0.35277776,0,0,-0.35277776,137.34702,36.057665)"
       clip-path="url(#clipPath4371)" />
    <path
       id="path4372"
       d="m 0,0 v -0.156 c 1.702,0.001 3.081,1.38 3.081,3.081 0,1.702 -1.379,3.081 -3.081,3.081 -1.702,0 -3.081,-1.379 -3.081,-3.081 0,-1.701 1.379,-3.08 3.081,-3.081 V 0 0.156 c -0.765,0 -1.457,0.309 -1.959,0.811 -0.501,0.501 -0.811,1.193 -0.811,1.958 0,0.766 0.31,1.457 0.811,1.959 0.502,0.501 1.194,0.811 1.959,0.811 0.765,0 1.457,-0.31 1.959,-0.811 C 2.46,4.382 2.77,3.691 2.77,2.925 2.77,2.16 2.46,1.468 1.959,0.967 1.457,0.465 0.765,0.156 0,0.156 Z"
       style="fill:#4c5057;fill-opacity:1;fill-rule:nonzero;stroke:none"
       transform="matrix(0.35277776,0,0,-0.35277776,137.347,37.837535)"
       clip-path="url(#clipPath4373)" />
  </g>
</svg>
