<?xml version="1.0" encoding="UTF-8" standalone="no"?>
<!-- Created with Inkscape (http://www.inkscape.org/) -->

<svg
   width="4.1737137mm"
   height="4.1737137mm"
   viewBox="0 0 4.1737136 4.1737137"
   version="1.1"
   id="svg1"
   inkscape:version="1.4 (e7c3feb100, 2024-10-09)"
   sodipodi:docname="AmphibianReptileToken.svg"
   xmlns:inkscape="http://www.inkscape.org/namespaces/inkscape"
   xmlns:sodipodi="http://sodipodi.sourceforge.net/DTD/sodipodi-0.dtd"
   xmlns="http://www.w3.org/2000/svg"
   xmlns:svg="http://www.w3.org/2000/svg">
  <sodipodi:namedview
     id="namedview1"
     pagecolor="#ffffff"
     bordercolor="#000000"
     borderopacity="0.25"
     inkscape:showpageshadow="2"
     inkscape:pageopacity="0.0"
     inkscape:pagecheckerboard="0"
     inkscape:deskcolor="#d1d1d1"
     inkscape:document-units="mm"
     inkscape:zoom="27.138945"
     inkscape:cx="8.2906687"
     inkscape:cy="7.4431781"
     inkscape:window-width="1920"
     inkscape:window-height="1163"
     inkscape:window-x="0"
     inkscape:window-y="0"
     inkscape:window-maximized="1"
     inkscape:current-layer="layer1" />
  <defs
     id="defs1">
    <clipPath
       clipPathUnits="userSpaceOnUse"
       id="clipPath770">
      <path
         d="M 15,15 H 610.275 V 610.275 H 15 Z"
         transform="translate(-356.83961,-179.32351)"
         id="path770" />
    </clipPath>
    <clipPath
       clipPathUnits="userSpaceOnUse"
       id="clipPath768">
      <path
         d="M 15,15 H 610.275 V 610.275 H 15 Z"
         transform="translate(-350.46123,-166.6795)"
         id="path768" />
    </clipPath>
    <clipPath
       clipPathUnits="userSpaceOnUse"
       id="clipPath766">
      <path
         d="M 15,15 H 610.275 V 610.275 H 15 Z"
         transform="translate(-363.23733,-166.6795)"
         id="path766" />
    </clipPath>
    <clipPath
       clipPathUnits="userSpaceOnUse"
       id="clipPath731">
      <path
         d="M 15,15 H 610.275 V 610.275 H 15 Z"
         transform="translate(-349.94418,-175.9357)"
         id="path731" />
    </clipPath>
    <clipPath
       clipPathUnits="userSpaceOnUse"
       id="clipPath731-5">
      <path
         d="M 15,15 H 610.275 V 610.275 H 15 Z"
         transform="translate(-349.94418,-175.9357)"
         id="path731-6" />
    </clipPath>
    <clipPath
       clipPathUnits="userSpaceOnUse"
       id="clipPath729">
      <path
         d="M 15,15 H 610.275 V 610.275 H 15 Z"
         transform="translate(-349.94418,-175.9357)"
         id="path729" />
    </clipPath>
    <clipPath
       clipPathUnits="userSpaceOnUse"
       id="clipPath770-2">
      <path
         d="M 15,15 H 610.275 V 610.275 H 15 Z"
         transform="translate(-356.83961,-179.32351)"
         id="path770-9" />
    </clipPath>
    <clipPath
       clipPathUnits="userSpaceOnUse"
       id="clipPath766-1">
      <path
         d="M 15,15 H 610.275 V 610.275 H 15 Z"
         transform="translate(-363.23733,-166.6795)"
         id="path766-2" />
    </clipPath>
    <clipPath
       clipPathUnits="userSpaceOnUse"
       id="clipPath768-7">
      <path
         d="M 15,15 H 610.275 V 610.275 H 15 Z"
         transform="translate(-350.46123,-166.6795)"
         id="path768-0" />
    </clipPath>
    <clipPath
       clipPathUnits="userSpaceOnUse"
       id="clipPath758">
      <path
         d="M 15,15 H 610.275 V 610.275 H 15 Z"
         transform="translate(-533.19904,-179.6276)"
         id="path758" />
    </clipPath>
    <clipPath
       clipPathUnits="userSpaceOnUse"
       id="clipPath756">
      <path
         d="M 15,15 H 610.275 V 610.275 H 15 Z"
         transform="translate(-526.82059,-166.98361)"
         id="path756" />
    </clipPath>
    <clipPath
       clipPathUnits="userSpaceOnUse"
       id="clipPath754">
      <path
         d="M 15,15 H 610.275 V 610.275 H 15 Z"
         transform="translate(-539.59661,-166.98361)"
         id="path754" />
    </clipPath>
    <clipPath
       clipPathUnits="userSpaceOnUse"
       id="clipPath734">
      <path
         d="M 15,15 H 610.275 V 610.275 H 15 Z"
         transform="translate(-540.17554,-176.3821)"
         id="path734" />
    </clipPath>
    <clipPath
       clipPathUnits="userSpaceOnUse"
       id="clipPath736">
      <path
         d="M 15,15 H 610.275 V 610.275 H 15 Z"
         transform="translate(-540.17554,-176.3821)"
         id="path736" />
    </clipPath>
    <clipPath
       clipPathUnits="userSpaceOnUse"
       id="clipPath741">
      <path
         d="M 15,15 H 610.275 V 610.275 H 15 Z"
         transform="translate(-540.17554,-110.5487)"
         id="path741" />
    </clipPath>
    <clipPath
       clipPathUnits="userSpaceOnUse"
       id="clipPath739">
      <path
         d="M 15,15 H 610.275 V 610.275 H 15 Z"
         transform="translate(-540.17554,-110.5487)"
         id="path739" />
    </clipPath>
    <clipPath
       clipPathUnits="userSpaceOnUse"
       id="clipPath764">
      <path
         d="M 15,15 H 610.275 V 610.275 H 15 Z"
         transform="translate(-533.19904,-113.7941)"
         id="path764" />
    </clipPath>
    <clipPath
       clipPathUnits="userSpaceOnUse"
       id="clipPath760">
      <path
         d="M 15,15 H 610.275 V 610.275 H 15 Z"
         transform="translate(-539.59661,-101.15011)"
         id="path760" />
    </clipPath>
    <clipPath
       clipPathUnits="userSpaceOnUse"
       id="clipPath762">
      <path
         d="M 15,15 H 610.275 V 610.275 H 15 Z"
         transform="translate(-526.82059,-101.15011)"
         id="path762" />
    </clipPath>
    <clipPath
       clipPathUnits="userSpaceOnUse"
       id="clipPath752">
      <path
         d="M 15,15 H 610.275 V 610.275 H 15 Z"
         transform="translate(-356.83961,-113.7941)"
         id="path752" />
    </clipPath>
    <clipPath
       clipPathUnits="userSpaceOnUse"
       id="clipPath748">
      <path
         d="M 15,15 H 610.275 V 610.275 H 15 Z"
         transform="translate(-363.23733,-101.15011)"
         id="path748" />
    </clipPath>
    <clipPath
       clipPathUnits="userSpaceOnUse"
       id="clipPath750">
      <path
         d="M 15,15 H 610.275 V 610.275 H 15 Z"
         transform="translate(-350.46123,-101.15011)"
         id="path750" />
    </clipPath>
    <clipPath
       clipPathUnits="userSpaceOnUse"
       id="clipPath744">
      <path
         d="M 15,15 H 610.275 V 610.275 H 15 Z"
         transform="translate(-363.81633,-110.5487)"
         id="path744" />
    </clipPath>
    <clipPath
       clipPathUnits="userSpaceOnUse"
       id="clipPath746">
      <path
         d="M 15,15 H 610.275 V 610.275 H 15 Z"
         transform="translate(-363.81633,-110.5487)"
         id="path746" />
    </clipPath>
    <clipPath
       clipPathUnits="userSpaceOnUse"
       id="clipPath4705">
      <path
         d="m 74.527,74.777 h 229.606 v 80.209 H 74.527 Z"
         transform="translate(-173.5087,-145.59061)"
         id="path4705" />
    </clipPath>
    <clipPath
       clipPathUnits="userSpaceOnUse"
       id="clipPath4687">
      <path
         d="m 74.527,74.777 h 229.606 v 80.209 H 74.527 Z"
         transform="translate(-2.5000002e-5)"
         id="path4687" />
    </clipPath>
    <clipPath
       clipPathUnits="userSpaceOnUse"
       id="clipPath4689">
      <path
         d="m 172.72,134.547 h 11.831 v 11.832 H 172.72 Z"
         transform="translate(-179.24193,-140.69701)"
         id="path4689" />
    </clipPath>
    <clipPath
       clipPathUnits="userSpaceOnUse"
       id="clipPath4691">
      <path
         d="m 74.527,74.777 h 229.606 v 80.209 H 74.527 Z"
         transform="translate(-2.5000002e-5)"
         id="path4691" />
    </clipPath>
    <clipPath
       clipPathUnits="userSpaceOnUse"
       id="clipPath4707">
      <path
         d="m 74.527,74.777 h 229.606 v 80.209 H 74.527 Z"
         transform="translate(-186.04578,-145.59061)"
         id="path4707" />
    </clipPath>
    <clipPath
       clipPathUnits="userSpaceOnUse"
       id="clipPath4695">
      <path
         d="m 185.313,134.593 h 11.723 v 11.724 h -11.723 z"
         transform="translate(-187.6987,-138.2759)"
         id="path4695" />
    </clipPath>
    <clipPath
       clipPathUnits="userSpaceOnUse"
       id="clipPath4699">
      <path
         d="m 172.72,122.048 h 11.831 V 133.88 H 172.72 Z"
         transform="translate(-181.88343,-127.4867)"
         id="path4699" />
    </clipPath>
    <clipPath
       clipPathUnits="userSpaceOnUse"
       id="clipPath4697">
      <path
         d="m 74.527,74.777 h 229.606 v 80.209 H 74.527 Z"
         transform="translate(-2.5000002e-5)"
         id="path4697" />
    </clipPath>
    <clipPath
       clipPathUnits="userSpaceOnUse"
       id="clipPath4711">
      <path
         d="m 74.527,74.777 h 229.606 v 80.209 H 74.527 Z"
         transform="translate(-173.5342,-133.0913)"
         id="path4711" />
    </clipPath>
    <clipPath
       clipPathUnits="userSpaceOnUse"
       id="clipPath4703">
      <path
         d="m 185.755,122.454 h 10.622 v 10.72 h -10.622 z"
         transform="translate(-189.72588,-125.76031)"
         id="path4703" />
    </clipPath>
    <clipPath
       clipPathUnits="userSpaceOnUse"
       id="clipPath4701">
      <path
         d="m 74.527,74.777 h 229.606 v 80.209 H 74.527 Z"
         transform="translate(-2.5000002e-5)"
         id="path4701" />
    </clipPath>
    <clipPath
       clipPathUnits="userSpaceOnUse"
       id="clipPath4709">
      <path
         d="m 74.527,74.777 h 229.606 v 80.209 H 74.527 Z"
         transform="translate(-186.09708,-133.09141)"
         id="path4709" />
    </clipPath>
  </defs>
  <g
     inkscape:label="Calque 1"
     inkscape:groupmode="layer"
     id="layer1"
     transform="translate(-132.02697,-41.804171)">
    <g
       id="g1"
       inkscape:label="AmphibianReptileToken">
      <path
         id="path4700"
         d="M 185.309,122.049 H 197.14 V 133.88 H 185.309 Z"
         style="fill:#e85b37;fill-opacity:1;fill-rule:nonzero;stroke:none"
         transform="matrix(0.35277776,0,0,-0.35277776,66.654076,89.034058)"
         clip-path="url(#clipPath4701)" />
      <path
         id="path4702"
         d="m 0,0 c 0,0 0.293,0.447 -0.182,0.772 -0.475,0.324 -1.151,-0.158 -1.277,-0.681 -0.126,-0.524 0.246,-1.202 0.948,-1.394 0.703,-0.192 1.587,0.357 1.89,1.144 0,0 0.157,0.757 0.127,1.156 -0.03,0.399 0.678,0.684 0.678,0.684 0,0 0.101,-0.186 -0.054,-0.331 C 1.976,1.204 1.75,1.33 1.703,1.194 1.655,1.058 1.939,1.089 2.002,1.145 H 2.206 C 2.253,1.075 2.073,0.874 2.1,0.777 2.128,0.681 2.331,0.681 2.335,0.863 2.338,1.045 2.371,1.145 2.458,1.167 2.545,1.188 2.62,0.984 2.739,0.977 2.858,0.97 2.906,1.067 2.795,1.157 2.683,1.246 2.544,1.226 2.572,1.297 2.6,1.368 2.751,1.241 2.854,1.313 2.958,1.385 2.868,1.515 2.747,1.47 2.626,1.424 2.511,1.369 2.524,1.443 L 2.747,1.637 2.559,1.727 2.416,1.509 c -0.065,0.058 0.304,0.429 0.06,0.695 0,0 -0.026,0.15 -0.398,-0.069 0,0 0.623,0.726 0.659,1.252 0,0 0.209,-0.343 0.345,-0.3 C 3.218,3.13 3.367,3.284 3.456,3.116 3.546,2.947 3.395,2.944 3.486,2.867 3.577,2.789 3.732,2.897 3.635,3.021 3.537,3.146 3.606,3.194 3.606,3.194 c 0,0 0.046,0.007 0.101,-0.148 C 3.761,2.892 3.945,3.032 3.91,3.084 L 3.656,3.306 C 3.688,3.353 3.801,3.355 3.898,3.307 3.994,3.258 4.069,3.335 4.056,3.391 L 3.88,3.482 3.666,3.441 3.765,3.65 3.752,3.847 C 3.698,3.861 3.615,3.778 3.608,3.657 3.601,3.536 3.494,3.526 3.496,3.579 L 3.472,3.819 C 3.393,3.88 3.287,3.793 3.344,3.654 3.401,3.513 3.402,3.437 3.277,3.415 3.153,3.392 2.878,3.497 2.908,3.697 c 0.029,0.199 0.305,0.186 0.429,0.247 0.124,0.06 0.419,0.149 0.555,0.397 0,0 0.182,0.05 0.13,0.257 0,0 0.25,0.417 0.081,0.646 C 3.934,5.473 3.42,5.258 3.42,5.258 c 0,0 -0.08,0.098 -0.201,0.053 C 3.098,5.265 3.106,5.104 3.106,5.104 3.106,5.104 2.699,5.066 2.567,4.756 2.435,4.446 2.39,4.402 2.148,4.401 1.908,4.401 1.713,4.574 1.847,4.808 L 2.044,4.816 C 2.126,4.771 2.193,4.933 2.088,4.975 1.983,5.018 1.895,4.905 1.827,4.948 L 1.924,5.105 1.95,5.29 C 1.926,5.324 1.803,5.226 1.747,5.085 1.691,4.943 1.621,5.139 1.625,5.244 1.63,5.349 1.585,5.472 1.527,5.445 1.469,5.417 1.372,5.299 1.461,5.168 1.55,5.038 1.478,5.013 1.428,5.03 1.378,5.047 1.214,5.176 1.181,5.039 1.148,4.9 1.336,4.979 1.372,4.927 1.407,4.874 1.378,4.842 1.286,4.829 1.193,4.816 1.171,4.736 1.201,4.693 L 1.436,4.702 1.532,4.615 C 1.54,4.531 1.564,4.214 1.949,4.097 c 0,0 -1.029,-0.727 -0.923,-1.872 0,0 -0.054,-0.089 -0.172,0.047 C 0.736,2.408 0.552,2.678 0.431,2.633 0.309,2.587 0.388,2.321 0.324,2.212 0.258,2.102 0.19,1.978 0.183,2.063 0.176,2.148 0.197,2.304 0.072,2.319 -0.053,2.336 0.104,2.085 0.104,2.085 c 0,0 0.095,-0.177 -0.027,-0.108 C -0.046,2.045 -0.124,2.235 -0.21,2.137 -0.296,2.039 -0.168,2 -0.056,1.949 L 0.055,1.897 c 0,0 -0.074,-0.115 -0.235,-0.085 -0.159,0.03 -0.23,-0.109 -0.2,-0.153 L -0.122,1.634 C -0.033,1.708 0.086,1.739 0.105,1.637 0.123,1.535 0.153,1.529 0.103,1.379 0.052,1.229 0.207,1.208 0.207,1.208 c 0,0 0.112,0.039 0.057,0.232 C 0.209,1.633 0.346,1.638 0.378,1.609 0.411,1.58 0.516,1.5 0.55,1.395 0.583,1.289 0.656,1.276 0.713,1.341 0.77,1.406 0.647,1.475 0.544,1.608 0.44,1.742 0.416,1.982 0.528,2.097 c 0,0 0.676,-0.766 0.588,-1.516 -0.094,-0.795 -0.638,-1.812 -1.568,-1.488 -0.849,0.295 -0.852,0.925 -0.5,1.298 C -0.569,0.798 0.178,0.559 0,0"
         style="fill:#ffffff;fill-opacity:1;fill-rule:nonzero;stroke:none"
         transform="matrix(0.35277776,0,0,-0.35277776,133.58514,44.668619)"
         clip-path="url(#clipPath4703)" />
      <path
         id="path4708"
         d="M 0,0 H -0.177 V -10.431 H 10.431 V 0.178 H -0.177 V 0 H 0 v -0.177 h 10.076 v -9.899 H 0.177 V 0 H 0 v -0.177 z"
         style="fill:#ffffff;fill-opacity:1;fill-rule:nonzero;stroke:none"
         transform="matrix(0.35277776,0,0,-0.35277776,132.30498,42.08237)"
         clip-path="url(#clipPath4709)" />
    </g>
  </g>
</svg>
