<?xml version="1.0" encoding="UTF-8" standalone="no"?>
<!-- Created with Inkscape (http://www.inkscape.org/) -->

<svg
   width="4.1737137mm"
   height="4.1737137mm"
   viewBox="0 0 4.1737136 4.1737137"
   version="1.1"
   id="svg1"
   inkscape:version="1.4 (e7c3feb100, 2024-10-09)"
   sodipodi:docname="InsectToken.svg"
   xmlns:inkscape="http://www.inkscape.org/namespaces/inkscape"
   xmlns:sodipodi="http://sodipodi.sourceforge.net/DTD/sodipodi-0.dtd"
   xmlns="http://www.w3.org/2000/svg"
   xmlns:svg="http://www.w3.org/2000/svg">
  <sodipodi:namedview
     id="namedview1"
     pagecolor="#ffffff"
     bordercolor="#000000"
     borderopacity="0.25"
     inkscape:showpageshadow="2"
     inkscape:pageopacity="0.0"
     inkscape:pagecheckerboard="0"
     inkscape:deskcolor="#d1d1d1"
     inkscape:document-units="mm"
     inkscape:zoom="27.138945"
     inkscape:cx="0.29477933"
     inkscape:cy="15.439067"
     inkscape:window-width="1920"
     inkscape:window-height="1163"
     inkscape:window-x="0"
     inkscape:window-y="0"
     inkscape:window-maximized="1"
     inkscape:current-layer="g1" />
  <defs
     id="defs1">
    <clipPath
       clipPathUnits="userSpaceOnUse"
       id="clipPath770">
      <path
         d="M 15,15 H 610.275 V 610.275 H 15 Z"
         transform="translate(-356.83961,-179.32351)"
         id="path770" />
    </clipPath>
    <clipPath
       clipPathUnits="userSpaceOnUse"
       id="clipPath768">
      <path
         d="M 15,15 H 610.275 V 610.275 H 15 Z"
         transform="translate(-350.46123,-166.6795)"
         id="path768" />
    </clipPath>
    <clipPath
       clipPathUnits="userSpaceOnUse"
       id="clipPath766">
      <path
         d="M 15,15 H 610.275 V 610.275 H 15 Z"
         transform="translate(-363.23733,-166.6795)"
         id="path766" />
    </clipPath>
    <clipPath
       clipPathUnits="userSpaceOnUse"
       id="clipPath731">
      <path
         d="M 15,15 H 610.275 V 610.275 H 15 Z"
         transform="translate(-349.94418,-175.9357)"
         id="path731" />
    </clipPath>
    <clipPath
       clipPathUnits="userSpaceOnUse"
       id="clipPath731-5">
      <path
         d="M 15,15 H 610.275 V 610.275 H 15 Z"
         transform="translate(-349.94418,-175.9357)"
         id="path731-6" />
    </clipPath>
    <clipPath
       clipPathUnits="userSpaceOnUse"
       id="clipPath729">
      <path
         d="M 15,15 H 610.275 V 610.275 H 15 Z"
         transform="translate(-349.94418,-175.9357)"
         id="path729" />
    </clipPath>
    <clipPath
       clipPathUnits="userSpaceOnUse"
       id="clipPath770-2">
      <path
         d="M 15,15 H 610.275 V 610.275 H 15 Z"
         transform="translate(-356.83961,-179.32351)"
         id="path770-9" />
    </clipPath>
    <clipPath
       clipPathUnits="userSpaceOnUse"
       id="clipPath766-1">
      <path
         d="M 15,15 H 610.275 V 610.275 H 15 Z"
         transform="translate(-363.23733,-166.6795)"
         id="path766-2" />
    </clipPath>
    <clipPath
       clipPathUnits="userSpaceOnUse"
       id="clipPath768-7">
      <path
         d="M 15,15 H 610.275 V 610.275 H 15 Z"
         transform="translate(-350.46123,-166.6795)"
         id="path768-0" />
    </clipPath>
    <clipPath
       clipPathUnits="userSpaceOnUse"
       id="clipPath758">
      <path
         d="M 15,15 H 610.275 V 610.275 H 15 Z"
         transform="translate(-533.19904,-179.6276)"
         id="path758" />
    </clipPath>
    <clipPath
       clipPathUnits="userSpaceOnUse"
       id="clipPath756">
      <path
         d="M 15,15 H 610.275 V 610.275 H 15 Z"
         transform="translate(-526.82059,-166.98361)"
         id="path756" />
    </clipPath>
    <clipPath
       clipPathUnits="userSpaceOnUse"
       id="clipPath754">
      <path
         d="M 15,15 H 610.275 V 610.275 H 15 Z"
         transform="translate(-539.59661,-166.98361)"
         id="path754" />
    </clipPath>
    <clipPath
       clipPathUnits="userSpaceOnUse"
       id="clipPath734">
      <path
         d="M 15,15 H 610.275 V 610.275 H 15 Z"
         transform="translate(-540.17554,-176.3821)"
         id="path734" />
    </clipPath>
    <clipPath
       clipPathUnits="userSpaceOnUse"
       id="clipPath736">
      <path
         d="M 15,15 H 610.275 V 610.275 H 15 Z"
         transform="translate(-540.17554,-176.3821)"
         id="path736" />
    </clipPath>
    <clipPath
       clipPathUnits="userSpaceOnUse"
       id="clipPath741">
      <path
         d="M 15,15 H 610.275 V 610.275 H 15 Z"
         transform="translate(-540.17554,-110.5487)"
         id="path741" />
    </clipPath>
    <clipPath
       clipPathUnits="userSpaceOnUse"
       id="clipPath739">
      <path
         d="M 15,15 H 610.275 V 610.275 H 15 Z"
         transform="translate(-540.17554,-110.5487)"
         id="path739" />
    </clipPath>
    <clipPath
       clipPathUnits="userSpaceOnUse"
       id="clipPath764">
      <path
         d="M 15,15 H 610.275 V 610.275 H 15 Z"
         transform="translate(-533.19904,-113.7941)"
         id="path764" />
    </clipPath>
    <clipPath
       clipPathUnits="userSpaceOnUse"
       id="clipPath760">
      <path
         d="M 15,15 H 610.275 V 610.275 H 15 Z"
         transform="translate(-539.59661,-101.15011)"
         id="path760" />
    </clipPath>
    <clipPath
       clipPathUnits="userSpaceOnUse"
       id="clipPath762">
      <path
         d="M 15,15 H 610.275 V 610.275 H 15 Z"
         transform="translate(-526.82059,-101.15011)"
         id="path762" />
    </clipPath>
    <clipPath
       clipPathUnits="userSpaceOnUse"
       id="clipPath752">
      <path
         d="M 15,15 H 610.275 V 610.275 H 15 Z"
         transform="translate(-356.83961,-113.7941)"
         id="path752" />
    </clipPath>
    <clipPath
       clipPathUnits="userSpaceOnUse"
       id="clipPath748">
      <path
         d="M 15,15 H 610.275 V 610.275 H 15 Z"
         transform="translate(-363.23733,-101.15011)"
         id="path748" />
    </clipPath>
    <clipPath
       clipPathUnits="userSpaceOnUse"
       id="clipPath750">
      <path
         d="M 15,15 H 610.275 V 610.275 H 15 Z"
         transform="translate(-350.46123,-101.15011)"
         id="path750" />
    </clipPath>
    <clipPath
       clipPathUnits="userSpaceOnUse"
       id="clipPath744">
      <path
         d="M 15,15 H 610.275 V 610.275 H 15 Z"
         transform="translate(-363.81633,-110.5487)"
         id="path744" />
    </clipPath>
    <clipPath
       clipPathUnits="userSpaceOnUse"
       id="clipPath746">
      <path
         d="M 15,15 H 610.275 V 610.275 H 15 Z"
         transform="translate(-363.81633,-110.5487)"
         id="path746" />
    </clipPath>
    <clipPath
       clipPathUnits="userSpaceOnUse"
       id="clipPath4705">
      <path
         d="m 74.527,74.777 h 229.606 v 80.209 H 74.527 Z"
         transform="translate(-173.5087,-145.59061)"
         id="path4705" />
    </clipPath>
    <clipPath
       clipPathUnits="userSpaceOnUse"
       id="clipPath4687">
      <path
         d="m 74.527,74.777 h 229.606 v 80.209 H 74.527 Z"
         transform="translate(-2.5000002e-5)"
         id="path4687" />
    </clipPath>
    <clipPath
       clipPathUnits="userSpaceOnUse"
       id="clipPath4689">
      <path
         d="m 172.72,134.547 h 11.831 v 11.832 H 172.72 Z"
         transform="translate(-179.24193,-140.69701)"
         id="path4689" />
    </clipPath>
  </defs>
  <g
     inkscape:label="Calque 1"
     inkscape:groupmode="layer"
     id="layer1"
     transform="translate(-134.14375,-39.687502)">
    <g
       id="g1"
       inkscape:label="InsectToken">
      <path
         id="path4686"
         d="m 172.72,134.548 h 11.831 v 11.831 H 172.72 Z"
         style="fill:#8f598c;fill-opacity:1;fill-rule:nonzero;stroke:none"
         transform="matrix(0.35277776,0,0,-0.35277776,73.211976,91.326758)"
         clip-path="url(#clipPath4687)" />
      <path
         id="path4688"
         d="M 0,0 C -0.124,-0.113 -0.235,-0.215 -0.361,-0.329 -0.211,-0.35 -0.093,-0.366 0.036,-0.383 0.024,-0.254 0.012,-0.13 0,0 m -0.803,-0.338 c -0.144,0.137 -0.268,0.255 -0.399,0.378 -0.012,-0.131 -0.025,-0.268 -0.038,-0.403 0.143,0.008 0.269,0.015 0.437,0.025 M 1.459,2.865 C 0.806,2.817 0.41,2.362 -0.063,2.13 0.034,1.994 0.132,1.896 0.183,1.778 0.279,1.555 0.224,1.48 -0.044,1.411 0.031,1.263 0.108,1.113 0.198,0.936 l 0.213,0.08 C 0.387,1.185 0.37,1.321 0.347,1.455 0.33,1.551 0.274,1.651 0.29,1.74 0.316,1.888 0.333,2.052 0.457,2.165 l 0.111,0.03 C 0.526,2.053 0.512,1.929 0.456,1.829 0.368,1.671 0.399,1.532 0.465,1.385 L 0.538,1.178 C 0.616,0.95 0.532,0.831 0.337,0.682 0.177,0.559 0.158,0.388 0.321,0.256 0.434,0.164 0.561,0.089 0.672,0.012 0.93,0.078 1.186,0.144 1.463,0.215 L 1.578,0.112 1.42,0.066 C 1.178,0.009 0.937,-0.053 0.694,-0.1 l -0.177,0.045 c -0.073,0.054 -0.13,0.131 -0.224,0.229 0.063,-0.25 0.114,-0.457 0.17,-0.679 l 0.155,0.055 c 0.171,0.054 0.201,0.026 0.217,-0.153 0.033,-0.356 0.062,-0.713 0.115,-1.066 0.054,-0.36 0.205,-0.69 0.399,-0.998 L 1.49,-2.868 1.451,-2.911 1.319,-2.868 C 1.218,-2.643 1.145,-2.436 1.036,-2.249 0.8,-1.84 0.746,-1.391 0.71,-0.936 0.701,-0.831 0.708,-0.724 0.708,-0.584 0.617,-0.724 0.538,-0.828 0.569,-0.991 0.658,-1.478 0.746,-1.965 0.813,-2.455 0.84,-2.651 0.831,-2.858 0.804,-3.054 0.788,-3.163 0.716,-3.271 0.647,-3.362 0.561,-3.475 0.467,-3.461 0.417,-3.328 0.375,-3.214 0.35,-3.092 0.334,-2.972 0.289,-2.657 0.254,-2.341 0.219,-2.063 0.106,-2.278 -0.018,-2.516 -0.144,-2.753 l -0.017,-0.023 c -0.293,-0.357 -0.597,-0.365 -0.867,0.007 -0.162,0.221 -0.272,0.479 -0.398,0.708 -0.019,-0.155 -0.041,-0.345 -0.068,-0.533 -0.028,-0.204 -0.05,-0.409 -0.095,-0.609 L -1.73,-3.382 -1.9,-3.256 c -0.06,0.146 -0.119,0.303 -0.126,0.458 -0.023,0.538 0.095,1.062 0.196,1.586 0.036,0.184 0.119,0.37 -0.018,0.547 l -0.034,0.046 -0.042,0.009 c 0.05,-0.381 -0.028,-0.747 -0.102,-1.113 -0.02,-0.099 -0.057,-0.197 -0.099,-0.288 -0.106,-0.228 -0.221,-0.45 -0.328,-0.677 l -0.046,-0.174 -0.149,-0.047 -0.039,0.032 c 0.057,0.099 0.108,0.202 0.173,0.296 0.339,0.493 0.409,1.06 0.461,1.633 0.012,0.122 0.012,0.244 0.02,0.367 0.011,0.158 0.044,0.18 0.193,0.137 l 0.164,-0.057 c 0.052,0.207 0.103,0.408 0.153,0.606 -0.114,-0.077 -0.216,-0.192 -0.333,-0.212 -0.123,-0.021 -0.262,0.049 -0.394,0.081 -0.118,0.029 -0.237,0.059 -0.355,0.089 l -0.186,0.043 0.12,0.107 c 0.175,-0.041 0.333,-0.078 0.492,-0.114 l 0.042,-0.003 c 0.259,-0.182 0.425,0.028 0.602,0.152 0.163,0.115 0.147,0.332 -0.015,0.439 -0.221,0.148 -0.285,0.358 -0.14,0.64 0.127,0.247 0.08,0.453 -0.038,0.674 L -1.749,2.195 C -1.651,2.156 -1.574,2.137 -1.571,2.027 L -1.549,1.943 C -1.488,1.84 -1.483,1.737 -1.517,1.621 L -1.539,1.376 C -1.559,1.268 -1.592,1.163 -1.628,1.024 l 0.225,-0.09 c 0.075,0.178 0.139,0.332 0.207,0.492 -0.11,0.034 -0.214,0.105 -0.208,0.257 0.008,0.185 0.084,0.331 0.301,0.401 l -0.15,0.131 C -1.435,2.327 -1.63,2.421 -1.803,2.546 -2.035,2.712 -2.286,2.813 -2.565,2.855 L -2.637,2.88 c 0.08,0.104 0.179,0.106 0.276,0.078 0.274,-0.081 0.529,-0.205 0.763,-0.372 0.211,-0.152 0.423,-0.304 0.639,-0.449 l 0.15,-0.023 c 0.112,-0.002 0.229,0.022 0.336,0 0.181,-0.037 0.31,0.041 0.436,0.145 0.336,0.276 0.685,0.527 1.101,0.671 0.123,0.043 0.248,0.079 0.395,-0.065"
         style="fill:#ffffff;fill-opacity:1;fill-rule:nonzero;stroke:none"
         transform="matrix(0.35277776,0,0,-0.35277776,136.44453,41.691983)"
         clip-path="url(#clipPath4689)" />
      <path
         id="path4704"
         d="M 0,0 H -0.177 V -10.431 H 10.431 V 0.178 H -0.177 V 0 H 0 v -0.177 h 10.076 v -9.899 H 0.177 V 0 H 0 v -0.177 z"
         style="fill:#ffffff;fill-opacity:1;fill-rule:nonzero;stroke:none"
         transform="matrix(0.35277776,0,0,-0.35277776,134.42198,39.96563)"
         clip-path="url(#clipPath4705)" />
    </g>
  </g>
</svg>
