<?xml version="1.0" encoding="UTF-8" standalone="no"?>
<!-- Created with Inkscape (http://www.inkscape.org/) -->

<svg
   width="4.1737137mm"
   height="4.1737137mm"
   viewBox="0 0 4.1737136 4.1737137"
   version="1.1"
   id="svg1"
   inkscape:version="1.4 (e7c3feb100, 2024-10-09)"
   sodipodi:docname="MammalToken.svg"
   xmlns:inkscape="http://www.inkscape.org/namespaces/inkscape"
   xmlns:sodipodi="http://sodipodi.sourceforge.net/DTD/sodipodi-0.dtd"
   xmlns="http://www.w3.org/2000/svg"
   xmlns:svg="http://www.w3.org/2000/svg">
  <sodipodi:namedview
     id="namedview1"
     pagecolor="#ffffff"
     bordercolor="#000000"
     borderopacity="0.25"
     inkscape:showpageshadow="2"
     inkscape:pageopacity="0.0"
     inkscape:pagecheckerboard="0"
     inkscape:deskcolor="#d1d1d1"
     inkscape:document-units="mm"
     inkscape:zoom="27.138945"
     inkscape:cx="9.2855489"
     inkscape:cy="2.4319295"
     inkscape:window-width="1920"
     inkscape:window-height="1163"
     inkscape:window-x="0"
     inkscape:window-y="0"
     inkscape:window-maximized="1"
     inkscape:current-layer="g1" />
  <defs
     id="defs1">
    <clipPath
       clipPathUnits="userSpaceOnUse"
       id="clipPath770">
      <path
         d="M 15,15 H 610.275 V 610.275 H 15 Z"
         transform="translate(-356.83961,-179.32351)"
         id="path770" />
    </clipPath>
    <clipPath
       clipPathUnits="userSpaceOnUse"
       id="clipPath768">
      <path
         d="M 15,15 H 610.275 V 610.275 H 15 Z"
         transform="translate(-350.46123,-166.6795)"
         id="path768" />
    </clipPath>
    <clipPath
       clipPathUnits="userSpaceOnUse"
       id="clipPath766">
      <path
         d="M 15,15 H 610.275 V 610.275 H 15 Z"
         transform="translate(-363.23733,-166.6795)"
         id="path766" />
    </clipPath>
    <clipPath
       clipPathUnits="userSpaceOnUse"
       id="clipPath731">
      <path
         d="M 15,15 H 610.275 V 610.275 H 15 Z"
         transform="translate(-349.94418,-175.9357)"
         id="path731" />
    </clipPath>
    <clipPath
       clipPathUnits="userSpaceOnUse"
       id="clipPath731-5">
      <path
         d="M 15,15 H 610.275 V 610.275 H 15 Z"
         transform="translate(-349.94418,-175.9357)"
         id="path731-6" />
    </clipPath>
    <clipPath
       clipPathUnits="userSpaceOnUse"
       id="clipPath729">
      <path
         d="M 15,15 H 610.275 V 610.275 H 15 Z"
         transform="translate(-349.94418,-175.9357)"
         id="path729" />
    </clipPath>
    <clipPath
       clipPathUnits="userSpaceOnUse"
       id="clipPath770-2">
      <path
         d="M 15,15 H 610.275 V 610.275 H 15 Z"
         transform="translate(-356.83961,-179.32351)"
         id="path770-9" />
    </clipPath>
    <clipPath
       clipPathUnits="userSpaceOnUse"
       id="clipPath766-1">
      <path
         d="M 15,15 H 610.275 V 610.275 H 15 Z"
         transform="translate(-363.23733,-166.6795)"
         id="path766-2" />
    </clipPath>
    <clipPath
       clipPathUnits="userSpaceOnUse"
       id="clipPath768-7">
      <path
         d="M 15,15 H 610.275 V 610.275 H 15 Z"
         transform="translate(-350.46123,-166.6795)"
         id="path768-0" />
    </clipPath>
    <clipPath
       clipPathUnits="userSpaceOnUse"
       id="clipPath758">
      <path
         d="M 15,15 H 610.275 V 610.275 H 15 Z"
         transform="translate(-533.19904,-179.6276)"
         id="path758" />
    </clipPath>
    <clipPath
       clipPathUnits="userSpaceOnUse"
       id="clipPath756">
      <path
         d="M 15,15 H 610.275 V 610.275 H 15 Z"
         transform="translate(-526.82059,-166.98361)"
         id="path756" />
    </clipPath>
    <clipPath
       clipPathUnits="userSpaceOnUse"
       id="clipPath754">
      <path
         d="M 15,15 H 610.275 V 610.275 H 15 Z"
         transform="translate(-539.59661,-166.98361)"
         id="path754" />
    </clipPath>
    <clipPath
       clipPathUnits="userSpaceOnUse"
       id="clipPath734">
      <path
         d="M 15,15 H 610.275 V 610.275 H 15 Z"
         transform="translate(-540.17554,-176.3821)"
         id="path734" />
    </clipPath>
    <clipPath
       clipPathUnits="userSpaceOnUse"
       id="clipPath736">
      <path
         d="M 15,15 H 610.275 V 610.275 H 15 Z"
         transform="translate(-540.17554,-176.3821)"
         id="path736" />
    </clipPath>
    <clipPath
       clipPathUnits="userSpaceOnUse"
       id="clipPath741">
      <path
         d="M 15,15 H 610.275 V 610.275 H 15 Z"
         transform="translate(-540.17554,-110.5487)"
         id="path741" />
    </clipPath>
    <clipPath
       clipPathUnits="userSpaceOnUse"
       id="clipPath739">
      <path
         d="M 15,15 H 610.275 V 610.275 H 15 Z"
         transform="translate(-540.17554,-110.5487)"
         id="path739" />
    </clipPath>
    <clipPath
       clipPathUnits="userSpaceOnUse"
       id="clipPath764">
      <path
         d="M 15,15 H 610.275 V 610.275 H 15 Z"
         transform="translate(-533.19904,-113.7941)"
         id="path764" />
    </clipPath>
    <clipPath
       clipPathUnits="userSpaceOnUse"
       id="clipPath760">
      <path
         d="M 15,15 H 610.275 V 610.275 H 15 Z"
         transform="translate(-539.59661,-101.15011)"
         id="path760" />
    </clipPath>
    <clipPath
       clipPathUnits="userSpaceOnUse"
       id="clipPath762">
      <path
         d="M 15,15 H 610.275 V 610.275 H 15 Z"
         transform="translate(-526.82059,-101.15011)"
         id="path762" />
    </clipPath>
    <clipPath
       clipPathUnits="userSpaceOnUse"
       id="clipPath752">
      <path
         d="M 15,15 H 610.275 V 610.275 H 15 Z"
         transform="translate(-356.83961,-113.7941)"
         id="path752" />
    </clipPath>
    <clipPath
       clipPathUnits="userSpaceOnUse"
       id="clipPath748">
      <path
         d="M 15,15 H 610.275 V 610.275 H 15 Z"
         transform="translate(-363.23733,-101.15011)"
         id="path748" />
    </clipPath>
    <clipPath
       clipPathUnits="userSpaceOnUse"
       id="clipPath750">
      <path
         d="M 15,15 H 610.275 V 610.275 H 15 Z"
         transform="translate(-350.46123,-101.15011)"
         id="path750" />
    </clipPath>
    <clipPath
       clipPathUnits="userSpaceOnUse"
       id="clipPath744">
      <path
         d="M 15,15 H 610.275 V 610.275 H 15 Z"
         transform="translate(-363.81633,-110.5487)"
         id="path744" />
    </clipPath>
    <clipPath
       clipPathUnits="userSpaceOnUse"
       id="clipPath746">
      <path
         d="M 15,15 H 610.275 V 610.275 H 15 Z"
         transform="translate(-363.81633,-110.5487)"
         id="path746" />
    </clipPath>
    <clipPath
       clipPathUnits="userSpaceOnUse"
       id="clipPath4705">
      <path
         d="m 74.527,74.777 h 229.606 v 80.209 H 74.527 Z"
         transform="translate(-173.5087,-145.59061)"
         id="path4705" />
    </clipPath>
    <clipPath
       clipPathUnits="userSpaceOnUse"
       id="clipPath4687">
      <path
         d="m 74.527,74.777 h 229.606 v 80.209 H 74.527 Z"
         transform="translate(-2.5000002e-5)"
         id="path4687" />
    </clipPath>
    <clipPath
       clipPathUnits="userSpaceOnUse"
       id="clipPath4689">
      <path
         d="m 172.72,134.547 h 11.831 v 11.832 H 172.72 Z"
         transform="translate(-179.24193,-140.69701)"
         id="path4689" />
    </clipPath>
    <clipPath
       clipPathUnits="userSpaceOnUse"
       id="clipPath4691">
      <path
         d="m 74.527,74.777 h 229.606 v 80.209 H 74.527 Z"
         transform="translate(-2.5000002e-5)"
         id="path4691" />
    </clipPath>
    <clipPath
       clipPathUnits="userSpaceOnUse"
       id="clipPath4707">
      <path
         d="m 74.527,74.777 h 229.606 v 80.209 H 74.527 Z"
         transform="translate(-186.04578,-145.59061)"
         id="path4707" />
    </clipPath>
    <clipPath
       clipPathUnits="userSpaceOnUse"
       id="clipPath4695">
      <path
         d="m 185.313,134.593 h 11.723 v 11.724 h -11.723 z"
         transform="translate(-187.6987,-138.2759)"
         id="path4695" />
    </clipPath>
  </defs>
  <g
     inkscape:label="Calque 1"
     inkscape:groupmode="layer"
     id="layer1"
     transform="translate(-131.76243,-43.127082)">
    <g
       id="g1"
       inkscape:label="MammalToken">
      <path
         id="path4690"
         d="m 185.257,134.548 h 11.831 v 11.831 h -11.831 z"
         style="fill:#a57b4b;fill-opacity:1;fill-rule:nonzero;stroke:none"
         transform="matrix(0.35277776,0,0,-0.35277776,66.407876,94.766338)"
         clip-path="url(#clipPath4691)" />
      <path
         id="path4694"
         d="M 0,0 C 0.041,0.109 0.165,0.179 0.28,0.159 0.295,0.36 0.318,0.556 0.36,0.749 L 0.302,0.676 C 0.363,0.981 0.429,1.297 0.612,1.548 0.85,1.874 1.25,2.041 1.527,2.335 L 1.47,2.345 c 0.328,0.184 0.685,0.32 1.053,0.398 L 2.471,2.784 C 2.8,2.8 3.126,2.902 3.453,2.863 3.774,2.824 4.094,2.651 4.405,2.741 L 4.434,2.83 4.524,2.871 4.538,2.978 4.584,2.993 4.586,3.048 4.566,3.184 4.605,3.183 4.591,3.261 4.623,3.323 C 4.428,3.617 4.283,3.91 4.166,4.211 4.021,4.587 3.92,5.019 4.09,5.385 L 4.116,5.424 4.254,5.387 C 4.505,5.161 4.743,4.922 4.966,4.669 4.921,4.847 4.907,4.977 4.917,5.104 4.925,5.226 4.977,5.369 5.097,5.393 5.196,5.413 5.29,5.339 5.355,5.261 5.497,5.092 5.588,4.88 5.611,4.661 5.629,4.497 5.61,4.333 5.609,4.169 5.608,4.005 5.628,3.834 5.712,3.68 5.903,3.59 6.09,3.494 6.273,3.393 L 6.411,3.3 6.507,3.169 C 6.62,2.984 6.731,2.798 6.835,2.615 6.9,2.577 6.943,2.506 6.943,2.406 6.989,2.247 6.964,2.069 6.879,1.928 L 6.773,1.823 6.554,1.738 6.444,1.712 6.276,1.55 C 6.283,1.442 6.29,1.335 6.297,1.227 L 6.259,1.271 6.229,1.127 6.161,1.064 6.143,0.955 6.117,0.96 6.107,0.929 6.059,0.747 6.005,0.723 C 5.966,0.457 5.8,0.212 5.567,0.076 L 5.541,0.077 5.523,0.048 5.496,0.027 5.489,0.078 5.414,-0.012 5.382,0.011 5.261,-0.059 5.161,-0.185 5.143,-0.434 5.29,-0.583 5.372,-0.596 5.565,-0.64 5.716,-0.765 5.692,-0.764 5.791,-0.953 5.797,-0.978 5.783,-1.017 5.679,-1.053 5.619,-1.045 H 5.571 C 5.385,-1.055 5.2,-1.065 5.015,-1.075 l -0.189,0.006 -0.155,0.099 -0.032,0.046 -0.092,0.031 -0.09,0.067 0.028,0.02 -0.093,0.059 0.027,0.021 -0.085,0.042 -0.028,0.033 0.001,0.024 L 4.292,-0.609 4.145,-0.49 4.203,-0.477 4.098,-0.451 4.107,-0.4 4.061,-0.414 4.065,-0.363 3.992,-0.414 3.983,-0.389 3.898,-0.426 3.893,-0.395 3.776,-0.469 3.765,-0.418 3.626,-0.596 3.603,-0.569 3.593,-0.578 3.563,-0.628 3.553,-0.583 3.5,-0.689 3.602,-0.789 3.621,-0.82 3.618,-0.856 3.575,-0.944 C 3.461,-0.961 3.345,-0.957 3.223,-0.935 L 3.201,-1.012 3.117,-1.036 2.987,-1.024 2.951,-1.017 2.898,-1.024 2.795,-1.034 2.721,-1.037 C 2.594,-1.044 2.465,-1.05 2.347,-1.061 2.219,-1.044 2.091,-1.027 1.963,-1.011 l -0.129,0.02 C 1.739,-0.974 1.646,-0.947 1.558,-0.91 1.293,-0.981 1.004,-0.964 0.749,-0.863 l -0.14,0.128 -0.009,0.029 -0.026,0.013 -0.102,0.022 -0.008,0.051 -0.058,0.013 -0.05,0.029 -0.008,0.06 -0.049,0.03 -0.102,0.092 -0.026,0.048 -0.066,0.045 C 0.005,-0.244 -0.041,-0.109 0,0"
         style="fill:#ffffff;fill-opacity:1;fill-rule:nonzero;stroke:none"
         transform="matrix(0.35277776,0,0,-0.35277776,132.6238,45.985675)"
         clip-path="url(#clipPath4695)" />
      <path
         id="path4706"
         d="M 0,0 H -0.177 V -10.431 H 10.431 V 0.178 H -0.177 V 0 H 0 v -0.177 h 10.076 v -9.899 H 0.177 V 0 H 0 v -0.177 z"
         style="fill:#ffffff;fill-opacity:1;fill-rule:nonzero;stroke:none"
         transform="matrix(0.35277776,0,0,-0.35277776,132.04068,43.40521)"
         clip-path="url(#clipPath4707)" />
    </g>
  </g>
</svg>
