<?xml version="1.0" encoding="UTF-8" standalone="no"?>
<!-- Created with Inkscape (http://www.inkscape.org/) -->

<svg
   width="6.468533mm"
   height="6.4177332mm"
   viewBox="0 0 6.468533 6.4177332"
   version="1.1"
   id="svg1"
   inkscape:version="1.4 (e7c3feb100, 2024-10-09)"
   sodipodi:docname="CycleToken.svg"
   xmlns:inkscape="http://www.inkscape.org/namespaces/inkscape"
   xmlns:sodipodi="http://sodipodi.sourceforge.net/DTD/sodipodi-0.dtd"
   xmlns="http://www.w3.org/2000/svg"
   xmlns:svg="http://www.w3.org/2000/svg">
  <sodipodi:namedview
     id="namedview1"
     pagecolor="#ffffff"
     bordercolor="#000000"
     borderopacity="0.25"
     inkscape:showpageshadow="2"
     inkscape:pageopacity="0.0"
     inkscape:pagecheckerboard="0"
     inkscape:deskcolor="#d1d1d1"
     inkscape:document-units="mm"
     inkscape:zoom="19.190132"
     inkscape:cx="18.0301"
     inkscape:cy="15.268264"
     inkscape:window-width="1920"
     inkscape:window-height="1163"
     inkscape:window-x="0"
     inkscape:window-y="0"
     inkscape:window-maximized="1"
     inkscape:current-layer="layer1" />
  <defs
     id="defs1">
    <clipPath
       clipPathUnits="userSpaceOnUse"
       id="clipPath260">
      <path
         d="m 394.607,87.217 c 0,-4.925 3.992,-8.918 8.917,-8.918 v 0 c 4.925,0 8.918,3.993 8.918,8.918 v 0 c 0,4.925 -3.993,8.917 -8.918,8.917 v 0 c -4.925,0 -8.917,-3.992 -8.917,-8.917"
         transform="translate(-415.13211,-87.2168)"
         id="path260" />
    </clipPath>
    <clipPath
       clipPathUnits="userSpaceOnUse"
       id="clipPath262">
      <path
         d="m 394.607,87.217 c 0,-4.925 3.992,-8.918 8.917,-8.918 v 0 c 4.925,0 8.918,3.993 8.918,8.918 v 0 c 0,4.925 -3.993,8.917 -8.918,8.917 v 0 c -4.925,0 -8.917,-3.992 -8.917,-8.917"
         transform="translate(-404.97801,-85.759205)"
         id="path262" />
    </clipPath>
    <clipPath
       clipPathUnits="userSpaceOnUse"
       id="clipPath264">
      <path
         d="m 394.607,87.217 c 0,-4.925 3.992,-8.918 8.917,-8.918 v 0 c 4.925,0 8.918,3.993 8.918,8.918 v 0 c 0,4.925 -3.993,8.917 -8.918,8.917 v 0 c -4.925,0 -8.917,-3.992 -8.917,-8.917"
         transform="translate(-410.51511,-88.682705)"
         id="path264" />
    </clipPath>
    <clipPath
       clipPathUnits="userSpaceOnUse"
       id="clipPath266">
      <path
         d="M 0,0 H 566.929 V 566.929 H 0 Z"
         transform="translate(-403.52421,-78.299202)"
         id="path266" />
    </clipPath>
    <clipPath
       clipPathUnits="userSpaceOnUse"
       id="clipPath272">
      <path
         d="m 466.776,87.36 c 0,-4.886 3.992,-8.846 8.917,-8.846 v 0 c 4.926,0 8.918,3.96 8.918,8.846 v 0 c 0,4.885 -3.992,8.846 -8.918,8.846 v 0 c -4.925,0 -8.917,-3.961 -8.917,-8.846"
         transform="translate(-486.70611,-87.360005)"
         id="path272" />
    </clipPath>
    <clipPath
       clipPathUnits="userSpaceOnUse"
       id="clipPath274">
      <path
         d="m 466.776,87.36 c 0,-4.886 3.992,-8.846 8.917,-8.846 v 0 c 4.926,0 8.918,3.96 8.918,8.846 v 0 c 0,4.885 -3.992,8.846 -8.918,8.846 v 0 c -4.925,0 -8.917,-3.961 -8.917,-8.846"
         transform="translate(-472.55011,-83.7254)"
         id="path274" />
    </clipPath>
    <clipPath
       clipPathUnits="userSpaceOnUse"
       id="clipPath276">
      <path
         d="m 466.776,87.36 c 0,-4.886 3.992,-8.846 8.917,-8.846 v 0 c 4.926,0 8.918,3.96 8.918,8.846 v 0 c 0,4.885 -3.992,8.846 -8.918,8.846 v 0 c -4.925,0 -8.917,-3.961 -8.917,-8.846"
         transform="translate(-475.14141,-91.964802)"
         id="path276" />
    </clipPath>
    <clipPath
       clipPathUnits="userSpaceOnUse"
       id="clipPath278">
      <path
         d="m 466.776,87.36 c 0,-4.886 3.992,-8.846 8.917,-8.846 v 0 c 4.926,0 8.918,3.96 8.918,8.846 v 0 c 0,4.885 -3.992,8.846 -8.918,8.846 v 0 c -4.925,0 -8.917,-3.961 -8.917,-8.846"
         transform="translate(-480.27731,-88.657002)"
         id="path278" />
    </clipPath>
    <clipPath
       clipPathUnits="userSpaceOnUse"
       id="clipPath280">
      <path
         d="m 466.776,87.36 c 0,-4.886 3.992,-8.846 8.917,-8.846 v 0 c 4.926,0 8.918,3.96 8.918,8.846 v 0 c 0,4.885 -3.992,8.846 -8.918,8.846 v 0 c -4.925,0 -8.917,-3.961 -8.917,-8.846"
         transform="translate(-482.33801,-87.360005)"
         id="path280" />
    </clipPath>
    <clipPath
       clipPathUnits="userSpaceOnUse"
       id="clipPath282">
      <path
         d="m 466.776,87.36 c 0,-4.886 3.992,-8.846 8.917,-8.846 v 0 c 4.926,0 8.918,3.96 8.918,8.846 v 0 c 0,4.885 -3.992,8.846 -8.918,8.846 v 0 c -4.925,0 -8.917,-3.961 -8.917,-8.846"
         transform="translate(-482.79651,-87.360005)"
         id="path282" />
    </clipPath>
    <clipPath
       clipPathUnits="userSpaceOnUse"
       id="clipPath284">
      <path
         d="M 0,0 H 566.929 V 566.929 H 0 Z"
         transform="translate(-475.69351,-78.514099)"
         id="path284" />
    </clipPath>
  </defs>
  <g
     inkscape:label="Calque 1"
     inkscape:groupmode="layer"
     id="layer1"
     transform="translate(-64.558337,-111.38958)">
    <g
       id="group-MC4"
       transform="matrix(0.26458333,0,0,0.26458333,-100.02149,-54.582804)">
      <path
         id="path271"
         d="m 0,0 c 0,-6.082 -4.931,-11.013 -11.013,-11.013 -6.082,0 -11.012,4.931 -11.012,11.013 0,6.082 4.93,11.013 11.012,11.013 C -4.931,11.013 0,6.082 0,0"
         style="fill:#25b4cc;fill-opacity:1;fill-rule:nonzero;stroke:none"
         transform="matrix(1.3333333,0,0,-1.3333333,648.94147,639.42533)"
         clip-path="url(#clipPath272)" />
      <path
         id="path273"
         d="m 0,0 c 0.126,-0.034 0.246,-0.055 0.362,-0.055 0.095,0.002 0.186,0.014 0.272,0.036 C 0.619,-0.003 0.601,0.014 0.58,0.036 0.546,0.073 0.5,0.11 0.454,0.168 0.408,0.224 0.353,0.285 0.3,0.355 0.274,0.391 0.247,0.428 0.22,0.466 0.193,0.505 0.163,0.544 0.138,0.588 0.087,0.674 0.03,0.763 -0.017,0.862 -0.069,0.959 -0.112,1.063 -0.158,1.167 -0.18,1.22 -0.198,1.274 -0.219,1.328 -0.24,1.382 -0.259,1.437 -0.277,1.492 -0.314,1.601 -0.347,1.711 -0.38,1.819 -0.413,1.928 -0.444,2.034 -0.475,2.137 -0.505,2.24 -0.538,2.339 -0.568,2.432 -0.601,2.525 -0.63,2.614 -0.664,2.692 -0.697,2.771 -0.726,2.844 -0.76,2.906 -0.791,2.968 -0.816,3.024 -0.844,3.065 -0.896,3.151 -0.926,3.2 -0.926,3.2 c 0,0 0.032,-0.048 0.088,-0.131 0.029,-0.041 0.057,-0.095 0.091,-0.156 0.037,-0.061 0.069,-0.133 0.106,-0.211 0.038,-0.078 0.07,-0.165 0.108,-0.257 0.035,-0.093 0.072,-0.19 0.106,-0.292 0.035,-0.102 0.072,-0.207 0.108,-0.314 0.038,-0.106 0.076,-0.214 0.117,-0.32 0.02,-0.054 0.041,-0.107 0.064,-0.159 0.023,-0.052 0.043,-0.105 0.067,-0.155 0.049,-0.101 0.096,-0.2 0.15,-0.291 C 0.128,0.82 0.187,0.736 0.24,0.655 0.266,0.614 0.297,0.579 0.324,0.542 0.352,0.506 0.379,0.472 0.405,0.438 0.459,0.374 0.512,0.32 0.557,0.27 0.6,0.219 0.651,0.18 0.686,0.145 0.753,0.084 0.793,0.047 0.801,0.04 c 0,0 0.001,0 0.001,0.001 C 0.897,-0.043 0.99,-0.118 1.079,-0.182 1.123,-0.216 1.167,-0.247 1.209,-0.274 1.252,-0.302 1.292,-0.329 1.33,-0.354 1.408,-0.4 1.476,-0.443 1.532,-0.474 1.645,-0.535 1.709,-0.57 1.709,-0.57 l 0.073,0.142 c 0,0 -0.065,0.032 -0.179,0.089 C 1.546,-0.31 1.481,-0.272 1.405,-0.23 1.367,-0.208 1.328,-0.183 1.286,-0.158 1.244,-0.132 1.201,-0.104 1.157,-0.073 1.08,-0.021 1,0.038 0.919,0.104 1.025,0.171 1.119,0.26 1.202,0.369 1.34,0.552 1.419,0.752 1.46,0.949 1.48,1.048 1.49,1.146 1.492,1.242 1.496,1.338 1.498,1.436 1.489,1.528 1.486,1.575 1.477,1.618 1.473,1.664 1.469,1.71 1.464,1.755 1.456,1.798 1.449,1.842 1.437,1.883 1.43,1.926 1.422,1.97 1.412,2.011 1.401,2.052 1.395,2.072 1.389,2.092 1.382,2.112 1.377,2.133 1.371,2.155 1.364,2.176 1.351,2.218 1.336,2.258 1.319,2.298 1.303,2.342 1.285,2.386 1.264,2.428 1.254,2.45 1.244,2.469 1.232,2.493 1.221,2.517 1.209,2.541 1.197,2.565 1.179,2.502 1.15,2.454 1.126,2.422 1.102,2.391 1.082,2.377 1.082,2.377 c 0,0 -0.001,0.002 -0.003,0.005 C 1.077,2.386 1.074,2.391 1.07,2.399 1.062,2.414 1.05,2.436 1.036,2.462 1.004,2.518 0.961,2.595 0.913,2.681 0.9,2.703 0.886,2.726 0.873,2.75 0.858,2.774 0.844,2.799 0.829,2.824 0.797,2.876 0.764,2.929 0.731,2.979 0.715,3.004 0.696,3.031 0.678,3.058 0.659,3.084 0.64,3.11 0.622,3.134 0.584,3.183 0.55,3.225 0.511,3.265 0.509,3.189 0.481,3.138 0.457,3.102 0.433,3.067 0.41,3.051 0.41,3.051 c 0,0 -0.024,0.038 -0.065,0.101 -0.046,0.065 -0.109,0.154 -0.184,0.25 -0.04,0.049 -0.084,0.1 -0.128,0.15 -0.044,0.05 -0.09,0.1 -0.142,0.146 C -0.21,3.79 -0.306,3.875 -0.405,3.925 -0.395,3.884 -0.39,3.85 -0.389,3.821 -0.389,3.792 -0.392,3.768 -0.396,3.75 -0.403,3.713 -0.414,3.698 -0.414,3.698 c 0,0 -0.012,0.008 -0.032,0.022 -0.011,0.007 -0.024,0.016 -0.039,0.026 -0.015,0.009 -0.033,0.02 -0.053,0.031 -0.04,0.024 -0.087,0.05 -0.139,0.079 -0.026,0.013 -0.053,0.028 -0.082,0.043 -0.014,0.007 -0.028,0.015 -0.043,0.022 -0.015,0.007 -0.03,0.013 -0.046,0.02 -0.063,0.027 -0.129,0.053 -0.195,0.077 -0.066,0.024 -0.13,0.048 -0.198,0.062 -0.134,0.031 -0.26,0.05 -0.361,0.049 0.013,-0.103 0.042,-0.225 0.076,-0.346 0.018,-0.06 0.032,-0.124 0.047,-0.186 0.015,-0.06 0.03,-0.12 0.045,-0.176 0.003,-0.014 0.007,-0.028 0.01,-0.041 0.003,-0.014 0.006,-0.028 0.008,-0.041 0.006,-0.027 0.011,-0.052 0.016,-0.077 0.01,-0.047 0.019,-0.09 0.026,-0.126 0.004,-0.018 0.008,-0.034 0.01,-0.048 0.003,-0.014 0.005,-0.026 0.006,-0.037 0.004,-0.02 0.005,-0.031 0.005,-0.031 0,0 -0.017,-0.007 -0.05,-0.007 C -1.419,3.012 -1.439,3.014 -1.462,3.017 -1.487,3.02 -1.515,3.026 -1.546,3.035 -1.532,2.958 -1.515,2.863 -1.488,2.774 -1.481,2.752 -1.473,2.731 -1.467,2.707 -1.461,2.684 -1.454,2.661 -1.448,2.637 -1.434,2.592 -1.42,2.548 -1.406,2.506 -1.379,2.418 -1.353,2.34 -1.333,2.284 -1.312,2.225 -1.3,2.188 -1.3,2.188 c 0,0 -0.027,-0.009 -0.067,-0.011 -0.041,-0.002 -0.096,0.006 -0.152,0.03 0.004,-0.039 0.013,-0.089 0.025,-0.136 0.006,-0.025 0.012,-0.05 0.019,-0.075 0.007,-0.025 0.015,-0.05 0.024,-0.079 0.019,-0.056 0.039,-0.113 0.06,-0.168 l 0.015,-0.042 c 0.006,-0.015 0.012,-0.03 0.019,-0.044 0.012,-0.03 0.024,-0.059 0.036,-0.087 0.012,-0.028 0.024,-0.055 0.036,-0.081 0.011,-0.026 0.022,-0.052 0.035,-0.078 0.026,-0.051 0.049,-0.097 0.068,-0.135 0.02,-0.038 0.036,-0.069 0.047,-0.09 0.005,-0.011 0.01,-0.02 0.013,-0.025 0.004,-0.006 0.006,-0.009 0.006,-0.009 0,0 -0.025,-0.007 -0.068,-0.004 -0.042,0.003 -0.103,0.016 -0.176,0.058 0.018,-0.035 0.038,-0.07 0.057,-0.105 0.018,-0.033 0.043,-0.07 0.065,-0.105 0.046,-0.07 0.092,-0.139 0.141,-0.204 0.054,-0.067 0.108,-0.131 0.164,-0.192 0.027,-0.031 0.055,-0.061 0.084,-0.09 0.03,-0.028 0.06,-0.056 0.091,-0.082 C -0.697,0.38 -0.635,0.33 -0.574,0.284 -0.512,0.237 -0.445,0.199 -0.382,0.162 -0.317,0.126 -0.254,0.094 -0.191,0.065 -0.128,0.036 -0.062,0.018 0,0"
         style="fill:#ffffff;fill-opacity:1;fill-rule:nonzero;stroke:none"
         transform="matrix(1.3333333,0,0,-1.3333333,630.0668,644.27147)"
         clip-path="url(#clipPath274)" />
      <path
         id="path275"
         d="M 0,0 C 0.241,0.045 0.49,0.06 0.733,0.04 0.976,0.021 1.211,-0.031 1.425,-0.106 1.532,-0.142 1.634,-0.187 1.731,-0.233 1.827,-0.282 1.919,-0.332 2.005,-0.388 2.177,-0.498 2.327,-0.618 2.46,-0.742 2.594,-0.864 2.709,-0.992 2.816,-1.114 3.026,-1.361 3.193,-1.596 3.349,-1.791 3.104,-1.741 2.82,-1.72 2.527,-1.73 2.233,-1.741 1.931,-1.78 1.662,-1.859 1.595,-1.877 1.53,-1.9 1.468,-1.921 1.406,-1.946 1.346,-1.968 1.289,-1.995 1.175,-2.046 1.073,-2.102 0.976,-2.158 0.784,-2.271 0.607,-2.385 0.379,-2.49 0.238,-2.556 0.083,-2.607 -0.081,-2.64 c -0.164,-0.035 -0.337,-0.047 -0.508,-0.037 -0.341,0.023 -0.676,0.151 -0.91,0.438 -0.037,0.046 -0.07,0.095 -0.098,0.144 0.214,0.168 0.433,0.33 0.659,0.481 0.335,0.221 0.69,0.417 1.071,0.539 0.381,0.123 0.788,0.161 1.187,0.104 0.4,-0.055 0.785,-0.196 1.154,-0.363 C 2.111,-1.154 1.73,-1 1.327,-0.929 1.001,-0.872 0.664,-0.877 0.338,-0.941 L 0.242,-0.962 C 0.231,-0.965 0.219,-0.967 0.208,-0.97 0.175,-0.978 0.142,-0.986 0.109,-0.995 0.084,-1.002 0.06,-1.01 0.036,-1.018 l -0.103,-0.033 c -0.33,-0.113 -0.642,-0.276 -0.938,-0.458 -0.226,-0.139 -0.445,-0.289 -0.659,-0.445 -0.001,0.002 -0.001,0.003 -0.002,0.004 -0.042,-0.031 -0.084,-0.063 -0.126,-0.096 -0.071,-0.056 -0.141,-0.112 -0.211,-0.169 -0.204,-0.166 -0.403,-0.338 -0.599,-0.513 l -0.11,0.126 c 0.326,0.273 0.659,0.54 1.007,0.786 -0.041,0.188 -0.027,0.389 0.044,0.594 0.063,0.185 0.177,0.371 0.337,0.545 0.162,0.173 0.376,0.334 0.639,0.457 0.213,0.1 0.444,0.175 0.685,0.22"
         style="fill:#ffffff;fill-opacity:1;fill-rule:nonzero;stroke:none"
         transform="matrix(1.3333333,0,0,-1.3333333,633.52187,633.2856)"
         clip-path="url(#clipPath276)" />
      <path
         id="path277"
         d="m 0,0 c -0.04,-0.389 -0.121,-0.776 -0.232,-1.155 -0.029,-0.011 -0.059,-0.022 -0.093,-0.035 -0.09,-0.036 -0.198,-0.082 -0.318,-0.139 -0.118,-0.058 -0.251,-0.125 -0.387,-0.206 -0.273,-0.16 -0.569,-0.37 -0.836,-0.618 -0.266,-0.246 -0.503,-0.528 -0.668,-0.818 -0.168,-0.295 -0.283,-0.596 -0.371,-0.887 -0.087,-0.29 -0.147,-0.567 -0.213,-0.827 -0.067,-0.258 -0.14,-0.505 -0.259,-0.722 -0.116,-0.218 -0.278,-0.41 -0.462,-0.543 0.226,0.012 0.495,0.045 0.786,0.141 0.293,0.094 0.595,0.255 0.877,0.456 0.28,0.201 0.539,0.438 0.764,0.688 0.226,0.25 0.421,0.515 0.579,0.792 0.155,0.272 0.265,0.576 0.355,0.882 0.091,0.306 0.163,0.616 0.227,0.897 0.011,0.051 0.022,0.101 0.033,0.15 l -0.104,-0.238 c -0.042,-0.086 -0.086,-0.171 -0.129,-0.257 -0.041,-0.086 -0.094,-0.166 -0.14,-0.25 -0.024,-0.042 -0.047,-0.083 -0.072,-0.124 l -0.078,-0.121 c -0.206,-0.323 -0.436,-0.63 -0.686,-0.92 -0.126,-0.145 -0.254,-0.287 -0.389,-0.424 -0.134,-0.137 -0.274,-0.269 -0.42,-0.394 0.142,0.13 0.276,0.267 0.405,0.408 0.13,0.14 0.253,0.286 0.372,0.434 0.239,0.298 0.457,0.61 0.649,0.936 l 0.072,0.122 c 0.024,0.041 0.045,0.083 0.067,0.125 0.043,0.084 0.092,0.165 0.129,0.251 l 0.118,0.256 0.103,0.262 c 0.076,0.209 0.139,0.423 0.188,0.638 l 0.011,0.031 c 0.045,0.134 0.085,0.269 0.122,0.406 0.07,0.259 0.125,0.522 0.161,0.788 z"
         style="fill:#ffffff;fill-opacity:1;fill-rule:nonzero;stroke:none"
         transform="matrix(1.3333333,0,0,-1.3333333,640.36973,637.696)"
         clip-path="url(#clipPath278)" />
      <path
         id="path279"
         d="m 0,0 c 0,-3.67 -2.975,-6.644 -6.645,-6.644 -3.669,0 -6.644,2.974 -6.644,6.644 0,3.67 2.975,6.645 6.644,6.645 C -2.975,6.645 0,3.67 0,0 Z"
         style="fill:none;stroke:#00759b;stroke-width:0.277;stroke-linecap:butt;stroke-linejoin:miter;stroke-miterlimit:10;stroke-dasharray:none;stroke-opacity:1"
         transform="matrix(1.3333333,0,0,-1.3333333,643.11733,639.42533)"
         clip-path="url(#clipPath280)" />
      <path
         id="path281"
         d="m 0,0 c 0,-3.923 -3.18,-7.103 -7.103,-7.103 -3.923,0 -7.103,3.18 -7.103,7.103 0,3.923 3.18,7.103 7.103,7.103 C -3.18,7.103 0,3.923 0,0 Z"
         style="fill:none;stroke:#00759b;stroke-width:0.277;stroke-linecap:round;stroke-linejoin:miter;stroke-miterlimit:10;stroke-dasharray:0, 0.369;stroke-dashoffset:0;stroke-opacity:1"
         transform="matrix(1.3333333,0,0,-1.3333333,643.72867,639.42533)"
         clip-path="url(#clipPath282)" />
    </g>
    <path
       id="path283"
       d="m 0,0 c 4.925,0 8.918,3.96 8.918,8.846 0,4.885 -3.993,8.846 -8.918,8.846 -4.925,0 -8.918,-3.961 -8.918,-8.846 C -8.918,3.96 -4.925,0 0,0 Z"
       style="fill:none;stroke:#464d4f;stroke-width:0.5;stroke-linecap:butt;stroke-linejoin:miter;stroke-miterlimit:4;stroke-dasharray:none;stroke-opacity:1"
       transform="matrix(0.35277776,0,0,-0.35277776,67.792604,117.71912)"
       clip-path="url(#clipPath284)" />
  </g>
</svg>
