<?xml version="1.0" encoding="UTF-8" standalone="no"?>
<!-- Created with Inkscape (http://www.inkscape.org/) -->

<svg
   width="6.468533mm"
   height="6.4681802mm"
   viewBox="0 0 6.468533 6.4681802"
   version="1.1"
   id="svg1"
   inkscape:version="1.4 (e7c3feb100, 2024-10-09)"
   sodipodi:docname="InitiativeToken.svg"
   xmlns:inkscape="http://www.inkscape.org/namespaces/inkscape"
   xmlns:sodipodi="http://sodipodi.sourceforge.net/DTD/sodipodi-0.dtd"
   xmlns="http://www.w3.org/2000/svg"
   xmlns:svg="http://www.w3.org/2000/svg">
  <sodipodi:namedview
     id="namedview1"
     pagecolor="#ffffff"
     bordercolor="#000000"
     borderopacity="0.25"
     inkscape:showpageshadow="2"
     inkscape:pageopacity="0.0"
     inkscape:pagecheckerboard="0"
     inkscape:deskcolor="#d1d1d1"
     inkscape:document-units="mm"
     inkscape:zoom="19.190132"
     inkscape:cx="17.040008"
     inkscape:cy="15.268264"
     inkscape:window-width="1920"
     inkscape:window-height="1163"
     inkscape:window-x="0"
     inkscape:window-y="0"
     inkscape:window-maximized="1"
     inkscape:current-layer="layer1" />
  <defs
     id="defs1">
    <clipPath
       clipPathUnits="userSpaceOnUse"
       id="clipPath260">
      <path
         d="m 394.607,87.217 c 0,-4.925 3.992,-8.918 8.917,-8.918 v 0 c 4.925,0 8.918,3.993 8.918,8.918 v 0 c 0,4.925 -3.993,8.917 -8.918,8.917 v 0 c -4.925,0 -8.917,-3.992 -8.917,-8.917"
         transform="translate(-415.13211,-87.2168)"
         id="path260" />
    </clipPath>
    <clipPath
       clipPathUnits="userSpaceOnUse"
       id="clipPath262">
      <path
         d="m 394.607,87.217 c 0,-4.925 3.992,-8.918 8.917,-8.918 v 0 c 4.925,0 8.918,3.993 8.918,8.918 v 0 c 0,4.925 -3.993,8.917 -8.918,8.917 v 0 c -4.925,0 -8.917,-3.992 -8.917,-8.917"
         transform="translate(-404.97801,-85.759205)"
         id="path262" />
    </clipPath>
    <clipPath
       clipPathUnits="userSpaceOnUse"
       id="clipPath264">
      <path
         d="m 394.607,87.217 c 0,-4.925 3.992,-8.918 8.917,-8.918 v 0 c 4.925,0 8.918,3.993 8.918,8.918 v 0 c 0,4.925 -3.993,8.917 -8.918,8.917 v 0 c -4.925,0 -8.917,-3.992 -8.917,-8.917"
         transform="translate(-410.51511,-88.682705)"
         id="path264" />
    </clipPath>
    <clipPath
       clipPathUnits="userSpaceOnUse"
       id="clipPath266">
      <path
         d="M 0,0 H 566.929 V 566.929 H 0 Z"
         transform="translate(-403.52421,-78.299202)"
         id="path266" />
    </clipPath>
  </defs>
  <g
     inkscape:label="Calque 1"
     inkscape:groupmode="layer"
     id="layer1"
     transform="translate(-64.82292,-111.38958)">
    <g
       id="group-MC3"
       transform="matrix(0.26458333,0,0,0.26458333,-74.297183,-54.608167)">
      <path
         id="path259"
         d="m 0,0 c 0,-6.411 -5.197,-11.608 -11.608,-11.608 -6.411,0 -11.608,5.197 -11.608,11.608 0,6.411 5.197,11.608 11.608,11.608 C -5.197,11.608 0,6.411 0,0"
         style="fill:#25b4cc;fill-opacity:1;fill-rule:nonzero;stroke:none"
         transform="matrix(1.3333333,0,0,-1.3333333,553.50947,639.61627)"
         clip-path="url(#clipPath260)" />
      <path
         id="path261"
         d="m 0,0 c -0.304,-0.049 -0.331,-0.024 -0.52,-0.093 0,0 0,0.266 0.213,0.54 0.114,0.148 0.179,0.16 0.314,0.262 0,0 -0.009,-0.069 -0.037,-0.096 0,0 0.06,0.075 0.459,0.056 C 0.643,0.658 0.742,0.762 0.742,0.762 0.742,0.762 0.652,0.105 0,0 M -2.908,0 C -3.56,0.105 -3.65,0.762 -3.65,0.762 c 0,0 0.1,-0.104 0.314,-0.093 0.399,0.019 0.458,-0.056 0.458,-0.056 -0.028,0.027 -0.037,0.096 -0.037,0.096 0.135,-0.102 0.2,-0.114 0.314,-0.262 0.213,-0.274 0.214,-0.54 0.214,-0.54 -0.189,0.069 -0.216,0.044 -0.521,0.093 m 5.735,0.662 c -0.237,-0.26 -0.631,0 -0.631,0 C 2.512,0.774 2.7,1.462 2.7,1.462 2.437,1.192 2.133,1.141 2.133,1.141 2.285,1.327 2.196,1.462 2.196,1.462 2.127,1.453 2.06,1.444 1.993,1.433 L 1.995,1.437 C 1.991,1.452 1.984,1.469 1.976,1.488 2.64,2.231 2.7,4.579 2.7,4.579 2.668,4.809 2.456,4.971 2.226,4.939 c 0,0 -2.015,-0.553 -2.7,-1.328 C -0.747,3.613 -0.948,3.576 -1.043,3.553 -1.052,3.554 -1.061,3.555 -1.071,3.556 L -1.909,3.55 c -0.007,0 -0.013,-10e-4 -0.02,-10e-4 -0.074,0.022 -0.247,0.063 -0.515,0.062 -0.685,0.775 -2.7,1.328 -2.7,1.328 -0.23,0.032 -0.442,-0.13 -0.474,-0.36 0,0 0.054,-2.137 0.636,-2.978 v 0 0 C -4.957,1.565 -4.931,1.531 -4.904,1.5 -4.914,1.476 -4.923,1.454 -4.928,1.437 v 0 c -0.058,0.009 -0.116,0.018 -0.176,0.025 0,0 -0.088,-0.135 0.063,-0.321 0,0 -0.304,0.051 -0.566,0.321 0,0 0.187,-0.688 0.503,-0.8 0,0 -0.394,-0.26 -0.63,0 0,0 0.111,-0.552 0.63,-0.619 0,0 -0.022,-0.237 -0.225,-0.237 0,0 0.564,-0.568 1.49,-1.095 0.417,-0.25 1.113,-0.321 1.633,-1.268 0.09,-0.164 0.167,-0.29 0.234,-0.389 0,-0.007 0,-0.014 10e-4,-0.022 0.031,-0.225 0.229,-0.52 0.512,-0.52 0.283,0 0.476,0.295 0.512,0.52 0.001,0.002 0,0.004 0,0.006 0.069,0.1 0.15,0.232 0.246,0.405 0.52,0.947 1.216,1.018 1.632,1.268 0.926,0.527 1.49,1.095 1.49,1.095 -0.203,0 -0.225,0.237 -0.225,0.237 0.519,0.067 0.631,0.619 0.631,0.619"
         style="fill:#ffffff;fill-opacity:1;fill-rule:nonzero;stroke:none"
         transform="matrix(1.3333333,0,0,-1.3333333,539.97067,641.55973)"
         clip-path="url(#clipPath262)" />
      <path
         id="path263"
         d="m 0,0 c 0.375,-2.253 -0.09,-4.198 -1.238,-5.607 0.232,0.429 0.424,0.901 0.57,1.411 0.46,1.608 0.432,3.468 -0.075,4.975 C -1.191,2.111 -1.871,3.2 -2.745,4.001 -2.675,3.964 -2.606,3.926 -2.538,3.887 -1.168,3.089 -0.29,1.745 0,0 m -1.519,-5.424 c -0.122,0.088 -0.238,0.071 -0.277,-0.058 -0.04,-0.13 0.16,-0.172 0.16,-0.172 0,0 -0.061,0.011 -0.152,-0.066 -0.038,-0.032 -0.061,-0.14 0.035,-0.183 0.062,-0.028 0.116,-0.033 0.184,-0.004 -0.044,-0.069 -0.088,-0.138 -0.135,-0.205 -0.927,-0.894 -2.182,-1.508 -3.711,-1.763 -0.295,-0.049 -0.591,-0.081 -0.885,-0.096 3.302,0.464 5.775,3.042 5.775,6.192 0,1.952 -0.677,3.571 -1.958,4.684 -1.191,1.035 -2.821,1.582 -4.714,1.582 -0.311,0 -0.622,-0.022 -0.931,-0.063 0.237,0.057 0.48,0.106 0.731,0.148 0.536,0.089 1.056,0.133 1.556,0.133 0.824,0 1.594,-0.121 2.29,-0.359 C -3.556,4.192 -3.61,4.141 -3.632,3.991 -3.658,3.813 -3.577,3.699 -3.417,3.729 c 0.159,0.029 0.094,0.263 0.094,0.263 0,0 0.021,-0.07 0.153,-0.125 0.055,-0.023 0.183,0.012 0.176,0.137 -10e-4,0.018 -0.004,0.035 -0.007,0.051 0.94,-0.798 1.668,-1.921 2.137,-3.317 v 0 c 0.591,-1.757 0.549,-4.344 -0.504,-6.3 -0.049,0.043 -0.08,0.087 -0.151,0.138 m -2.426,-2.497 c -2.299,-0.906 -4.503,-0.792 -6.259,0.194 0.735,-0.201 1.573,-0.307 2.511,-0.318 0.325,-0.042 0.655,-0.065 0.989,-0.065 0.433,0 0.872,0.036 1.31,0.109 1.273,0.212 2.368,0.662 3.246,1.327 -0.481,-0.53 -1.075,-0.962 -1.797,-1.247 m -6.694,0.463 c -1.126,0.76 -2.036,1.908 -2.624,3.398 -0.617,1.566 -0.636,3.278 -0.064,4.873 0.488,0.911 1.217,1.706 2.106,2.311 -1.678,-1.347 -2.414,-3.404 -2.026,-5.939 0.255,-1.667 1.094,-3.058 2.426,-4.023 0.662,-0.48 1.427,-0.829 2.247,-1.039 -0.77,0.065 -1.459,0.205 -2.065,0.419 m -1.832,1.103 c -0.151,0.147 -0.288,0.305 -0.416,0.473 0,0.006 -0.006,0.01 -0.01,0.013 -0.741,0.979 -1.104,2.309 -1.104,4.045 0,0.601 0.1,1.185 0.286,1.739 -0.285,-1.343 -0.176,-2.731 0.333,-4.022 0.516,-1.308 1.323,-2.403 2.335,-3.19 -0.556,0.244 -1.031,0.557 -1.424,0.942 m 11.335,4.681 c 0.071,-0.116 0.234,0.006 0.234,0.006 0,0 -0.048,-0.038 -0.051,-0.157 -0.002,-0.05 0.064,-0.139 0.16,-0.096 0.077,0.035 0.12,0.085 0.139,0.195 0,-0.018 0.001,-0.035 0.001,-0.053 0,-3.359 -2.875,-6.055 -6.545,-6.137 -0.165,-0.004 -0.325,-0.004 -0.484,-0.003 -0.144,0.019 -0.287,0.042 -0.428,0.069 0.011,0.068 0.037,0.106 0.049,0.189 0.018,0.118 -0.036,0.195 -0.142,0.175 -0.107,-0.019 -0.063,-0.176 -0.063,-0.176 0,0 -0.015,0.047 -0.102,0.085 -0.037,0.015 -0.122,-0.008 -0.118,-0.092 0.002,-0.043 0.013,-0.078 0.041,-0.109 -0.842,0.203 -1.626,0.554 -2.301,1.043 -1.21,0.877 -2.004,2.114 -2.311,3.594 0.098,0.051 0.158,0.042 0.267,0.089 0.138,0.061 0.183,0.169 0.091,0.269 -0.091,0.1 -0.229,-0.05 -0.229,-0.05 0,0 0.04,0.046 0.021,0.164 -0.008,0.049 -0.089,0.124 -0.175,0.064 -0.024,-0.017 -0.043,-0.034 -0.058,-0.054 -0.411,2.978 0.78,5.269 3.261,6.47 0.237,-0.14 0.23,-0.235 0.385,-0.379 0.158,-0.146 0.325,-0.144 0.404,0.033 0.079,0.176 -0.196,0.271 -0.196,0.271 0,0 0.084,-0.026 0.227,0.066 0.06,0.038 0.112,0.188 -0.016,0.266 -0.017,0.01 -0.034,0.019 -0.05,0.027 0.614,0.171 1.261,0.264 1.928,0.264 3.828,0 6.352,-2.235 6.533,-5.73 -0.143,-0.058 -0.199,-0.026 -0.332,-0.056 -0.147,-0.034 -0.211,-0.132 -0.14,-0.247 M -9.45,4.897 c 0.888,0.35 1.787,0.525 2.655,0.525 0.882,0 1.733,-0.18 2.51,-0.541 0.242,-0.113 0.475,-0.243 0.699,-0.388 -1.122,0.367 -2.424,0.439 -3.832,0.205 -0.852,-0.142 -1.62,-0.368 -2.3,-0.67 -0.854,-0.317 -1.65,-0.79 -2.324,-1.397 -0.372,-0.333 -0.696,-0.695 -0.973,-1.079 0.753,1.533 2.038,2.743 3.565,3.345 M 0.436,1.31 C 0.361,1.429 0.267,1.476 0.029,1.457 -0.167,1.442 -0.231,1.454 -0.285,1.468 -0.738,2.556 -1.478,3.417 -2.473,3.997 -2.68,4.118 -2.897,4.223 -3.121,4.318 c -0.345,0.268 -0.715,0.495 -1.11,0.678 -1.109,0.516 -2.366,0.671 -3.65,0.466 0.021,0.041 0.019,0.091 -0.013,0.145 -0.07,0.117 -0.235,-0.003 -0.235,-0.003 0,0 0.049,0.037 0.054,0.157 0.002,0.05 -0.063,0.139 -0.16,0.097 C -8.331,5.816 -8.375,5.752 -8.388,5.574 -8.397,5.441 -8.411,5.391 -8.425,5.354 -8.783,5.269 -9.14,5.157 -9.496,5.016 c -1.3,-0.512 -2.427,-1.455 -3.21,-2.661 -0.005,0.097 -0.066,0.167 -0.185,0.181 -0.184,0.023 -0.193,-0.255 -0.193,-0.255 0,0 0,0.084 -0.124,0.189 -0.052,0.044 -0.203,0.049 -0.238,-0.09 -0.035,-0.139 -0.003,-0.241 0.178,-0.403 0.142,-0.127 0.181,-0.183 0.209,-0.23 -0.073,-0.141 -0.142,-0.284 -0.205,-0.429 -0.066,-0.15 -0.125,-0.301 -0.18,-0.453 -0.383,-0.713 -0.611,-1.483 -0.67,-2.278 -0.002,0.01 -0.004,0.019 -0.007,0.029 -0.029,0.094 -0.095,0.132 -0.167,0.08 -0.072,-0.051 0.015,-0.152 0.015,-0.152 0,0 -0.027,0.029 -0.105,0.026 -0.033,-0.001 -0.088,-0.049 -0.055,-0.109 0.033,-0.06 0.077,-0.086 0.193,-0.084 0.057,10e-4 0.091,-0.001 0.114,-0.005 -0.002,-0.065 -0.003,-0.13 -0.003,-0.196 0,-1.587 0.3,-2.843 0.911,-3.808 -0.106,0.064 -0.203,0.044 -0.238,-0.07 -0.037,-0.122 0.151,-0.161 0.151,-0.161 0,0 -0.057,0.01 -0.143,-0.062 -0.036,-0.031 -0.058,-0.133 0.033,-0.173 0.09,-0.041 0.163,-0.031 0.295,0.073 0.053,0.041 0.089,0.067 0.117,0.084 0.136,-0.18 0.282,-0.349 0.442,-0.506 0.51,-0.498 1.155,-0.88 1.926,-1.146 0.286,-0.189 0.585,-0.354 0.897,-0.495 0.854,-0.386 1.775,-0.578 2.736,-0.578 0.694,0 1.409,0.1 2.135,0.301 -0.046,-0.068 -0.04,-0.147 0.033,-0.22 0.112,-0.112 0.265,0.073 0.265,0.073 0,0 -0.044,-0.057 -0.015,-0.194 0.012,-0.057 0.112,-0.14 0.209,-0.064 0.097,0.075 0.129,0.162 0.091,0.367 -0.02,0.107 -0.025,0.168 -0.025,0.212 0.137,0.047 0.274,0.097 0.411,0.151 0.912,0.36 1.685,0.982 2.276,1.815 0.347,0.333 0.65,0.706 0.906,1.119 0.862,1.391 1.161,3.212 0.842,5.127 C 0.083,0.28 0.026,0.53 -0.043,0.771 0.021,0.74 0.095,0.75 0.169,0.81 0.31,0.925 0.119,1.12 0.119,1.12 c 0,0 0.059,-0.057 0.218,-0.041 C 0.404,1.086 0.51,1.19 0.436,1.31"
         style="fill:#00759b;fill-opacity:1;fill-rule:nonzero;stroke:none"
         transform="matrix(1.3333333,0,0,-1.3333333,547.35347,637.66173)"
         clip-path="url(#clipPath264)" />
    </g>
    <path
       id="path265"
       d="m 0,0 c 4.925,0 8.918,3.993 8.918,8.918 0,4.925 -3.993,8.917 -8.918,8.917 -4.925,0 -8.918,-3.992 -8.918,-8.917 C -8.918,3.993 -4.925,0 0,0 Z"
       style="fill:none;stroke:#464d4f;stroke-width:0.5;stroke-linecap:butt;stroke-linejoin:miter;stroke-miterlimit:4;stroke-dasharray:none;stroke-opacity:1"
       transform="matrix(0.35277776,0,0,-0.35277776,68.057187,117.76957)"
       clip-path="url(#clipPath266)" />
  </g>
</svg>
